G04 DipTrace 2.4.0.2*
%INBottom.gbr*%
%MOIN*%
%ADD14C,0.024*%
%ADD15C,0.013*%
%ADD16C,0.048*%
%ADD17C,0.07*%
%ADD18C,0.063*%
%ADD19C,0.06*%
%ADD20C,0.05*%
%ADD21C,0.025*%
%ADD23C,0.03*%
%ADD24C,0.012*%
%ADD25C,0.06*%
%ADD26R,0.0591X0.0591*%
%ADD27C,0.0591*%
%ADD30O,0.1181X0.2559*%
%ADD31R,0.05X0.05*%
%ADD32O,0.1969X0.0787*%
%ADD33O,0.1772X0.0787*%
%ADD34O,0.0787X0.1772*%
%ADD35O,0.18X0.1*%
%ADD36R,0.0748X0.0748*%
%ADD37C,0.0748*%
%ADD38R,0.063X0.063*%
%ADD39O,0.18X0.13*%
%ADD40O,0.06X0.09*%
%ADD41C,0.048*%
%ADD43R,0.0669X0.0669*%
%ADD44C,0.0669*%
%ADD45O,0.0394X0.0787*%
%ADD46R,0.0709X0.0709*%
%ADD47C,0.0709*%
%ADD48C,0.04*%
%FSLAX44Y44*%
G04*
G70*
G90*
G75*
G01*
%LNBottom*%
%LPD*%
X-2124Y-9000D2*
D16*
X-2125Y-9001D1*
X-2100Y125D2*
Y-2463D1*
X-249Y-4314D1*
Y-8125D1*
X-1125Y-9001D1*
X-2125D2*
X-1125D1*
X-16938Y-19313D2*
D15*
X-14004D1*
X-14001Y-19315D1*
X-36375Y-31875D2*
Y-31813D1*
X-28000D1*
X-28500Y-18313D2*
X-30625D1*
X-28000Y-31813D2*
X-15625D1*
X-15125Y-31313D1*
X-37375Y-30875D2*
X-37875D1*
X-38125Y-30625D1*
Y-29563D1*
X-37500Y-28938D1*
X-29437D1*
X-29000Y-29375D1*
Y-30000D1*
Y-32250D2*
X-8500D1*
X-8000Y-31750D1*
Y-29375D1*
X-7875Y-29250D1*
X-6375D1*
X-5500Y-28375D1*
Y-27750D1*
X-5475D1*
X-29941Y-34000D2*
X-35500D1*
X-29941D2*
Y-34066D1*
X-17002D1*
X-5375Y-29750D2*
Y-32000D1*
X-7438Y-34063D1*
X-12063D1*
Y-33438D1*
X-17002Y-34066D2*
X-12063D1*
X-7438Y-36250D2*
Y-34063D1*
X-36375Y-30875D2*
X-36250Y-30750D1*
Y-30875D1*
X-27250D1*
X-27000Y-30625D1*
Y-30000D1*
X-27500Y-22375D2*
X-31500D1*
X-27000Y-30625D2*
X-10125D1*
X-9500Y-31250D1*
X-9150D1*
X-30500Y-18875D2*
X-28000D1*
X-30500Y-25816D2*
X-13309D1*
X-11375Y-27750D1*
X-11025D1*
X-23941Y-20815D2*
X-7810D1*
X-7688Y-20938D1*
X-23941Y-20815D2*
X-29003D1*
X-24941Y-17375D2*
X-30000D1*
X-37004Y-18815D2*
Y-18190D1*
X-36189Y-17375D1*
X-30000D1*
X-31000Y-27000D2*
Y-27625D1*
X-30750Y-27875D1*
X-26562D1*
X-26503Y-27815D1*
X-32125Y-21625D2*
X-27625D1*
X-27500Y-21500D1*
X-27541Y-16254D2*
X-27500D1*
Y-15000D1*
X-24250Y-11750D1*
X-14001Y-21315D2*
X-19000Y-21303D1*
X-19875Y-27000D2*
X-20000D1*
Y-20265D2*
X-14051D1*
X-14001Y-20315D1*
X-33563Y-28375D2*
X-25000D1*
X-23502Y-20190D2*
X-28003D1*
X-43625Y-12875D2*
Y-9746D1*
X-43567Y-9689D1*
X-33125Y-13125D2*
X-33500D1*
X-33875Y-13500D1*
X-41937D1*
X-24000Y-30000D2*
Y-28375D1*
X-24938Y-27437D1*
Y-27000D1*
X-25000D1*
X-14001Y-24315D2*
X-13685D1*
X-11250Y-26750D1*
X-8500D1*
X-22687Y-13125D2*
X-21312Y-11750D1*
X-20250D1*
X-28941Y-33625D2*
D14*
X-19625D1*
X-18688Y-32688D1*
X-12750D1*
X-12000Y-21625D2*
X-8500D1*
Y-22750D1*
X-10375Y-27750D2*
D15*
X-8500D1*
X-6125D2*
X-7500D1*
X-8500Y-31250D2*
Y-29750D1*
X-6025D2*
X-7500D1*
X-10125Y-29250D2*
Y-29125D1*
X-9750Y-28750D1*
X-8500D1*
X-12626Y-23627D2*
X-12004Y-24250D1*
X-8250D1*
X-8000Y-24500D1*
Y-25125D1*
X-7375Y-25750D1*
X-7500D1*
X-12626Y-23627D2*
Y-22564D1*
X-10288Y-24938D2*
X-9767D1*
X-9579Y-24750D1*
X-8500D1*
X-10350Y-23500D2*
X-9250D1*
X-9000Y-23750D1*
X-8500D1*
X-7500Y-26750D2*
X-8000Y-26250D1*
X-9750D1*
X-7500Y-23750D2*
D14*
Y-22750D1*
Y-23750D2*
X-6875Y-24375D1*
X-5375D1*
X-4125Y-25625D1*
X-18000Y-30000D2*
D15*
X-10875D1*
Y-25750D2*
X-10938D1*
Y-24938D1*
X-34504Y-34504D2*
X-18502D1*
X-17752Y-35254D1*
X-17941D1*
X-34066Y-19565D2*
X-19502D1*
X-19000Y-30000D2*
Y-29439D1*
X-18811Y-29250D1*
X-11375D1*
Y-22875D2*
Y-23000D1*
X-11063Y-23313D1*
X-11000Y-23250D1*
Y-23500D1*
X-3625Y-13001D2*
D18*
X-2960D1*
D17*
X-2775D1*
D19*
X-2125D1*
X-15252Y-22440D2*
D15*
X-14126D1*
X-14001Y-22315D1*
X-6750Y-18250D2*
D14*
Y-19688D1*
Y-18250D2*
X-3374D1*
Y-16937D1*
Y-18250D2*
Y-19876D1*
X-2313Y-20937D1*
Y-25625D1*
Y-26187D1*
X-1500Y-27000D1*
X-3125Y-25625D2*
X-2313D1*
X-42567Y-9689D2*
X-42629D1*
Y-11126D1*
X-36379D1*
X-30188D1*
X-26628D1*
X-36379Y-9689D2*
Y-11126D1*
X-43817Y-19627D2*
Y-17252D1*
X-42629Y-16064D1*
Y-9751D1*
X-42567Y-9689D1*
X-24250Y-9250D2*
X-23375Y-8375D1*
Y-6563D1*
X-22813Y-6001D1*
X-14504D1*
X-24250Y-9250D2*
X-26504D1*
X-26628Y-9126D1*
X-37375Y-33125D2*
X-31000D1*
X-27938D1*
X-16063Y-26313D2*
X-23375D1*
X-24000Y-26937D1*
Y-27000D1*
X-23000Y-32625D2*
D15*
X-35000D1*
X-26065Y-25315D2*
X-23127D1*
X-22502Y-24690D1*
Y-24753D1*
Y-21690D1*
X-27000Y-24815D2*
X-24465D1*
X-24402Y-24753D1*
D48*
X-16938Y-19313D3*
X-28000Y-31813D3*
X-28500Y-18313D3*
X-30625D3*
X-29000Y-32250D3*
X-29941Y-34000D3*
X-35500D3*
X-17002Y-34066D3*
X-29941Y-34000D3*
X-27500Y-22375D3*
X-31500D3*
X-30500Y-18875D3*
X-28000D3*
X-30500Y-25816D3*
X-23941Y-20815D3*
D3*
X-29003D3*
X-24941Y-17375D3*
X-30000D3*
X-26503Y-27815D3*
X-32125Y-21625D3*
X-27500Y-21500D3*
X-19000Y-21303D3*
X-20000Y-20265D3*
X-33563Y-28375D3*
X-25000D3*
X-23502Y-20190D3*
X-28003D3*
X-41937Y-13500D3*
X-28941Y-33625D3*
X-12750Y-32688D3*
X-12000Y-21625D3*
X-9750Y-26250D3*
X-10875Y-30000D3*
Y-25750D3*
X-34504Y-34504D3*
X-34066Y-19565D3*
X-19502D3*
X-11375Y-29250D3*
Y-22875D3*
X-30188Y-11126D3*
D3*
X-37375Y-33125D3*
X-27938D3*
D3*
X-31000D3*
X-16063Y-26313D3*
X-23000Y-32625D3*
X-35000D3*
X-26065Y-25315D3*
X-27000Y-24815D3*
X-42000Y-26000D3*
X-40500D3*
X-39000D3*
Y-27500D3*
X-40500D3*
X-42000D3*
X-37500Y-26000D3*
Y-27500D3*
X-41500Y0D3*
Y-1500D3*
Y-3000D3*
X-40000D3*
Y-1500D3*
Y0D3*
X-38500D3*
Y-1500D3*
Y-3000D3*
X-29500Y-1375D3*
Y-2500D3*
X-28000D3*
Y-1375D3*
X-26500D3*
Y-2500D3*
X-29500Y-375D3*
X-28000D3*
X-26500D3*
X0Y-33000D3*
X-3000Y-30000D3*
X-1500D3*
Y-31500D3*
X0Y-30000D3*
Y-31500D3*
X-42000Y-20000D3*
X-40500D3*
X-39000D3*
X-37500D3*
X-18375Y-23500D3*
Y-24625D3*
Y-22188D3*
X-9813Y-27250D3*
X-9250Y-25313D3*
X-13500Y-27500D3*
X-14500D3*
X-10500Y-35000D3*
X-2938Y-34188D3*
X-10500Y-36500D3*
X-12000D3*
Y-35000D3*
X-3000Y-31500D3*
Y-33000D3*
X-1500D3*
Y-34250D3*
X-4938Y-19500D3*
X-42000Y-21500D3*
X-40500D3*
X-39000D3*
X-37500D3*
X-41500Y-4625D3*
Y-6125D3*
Y-7625D3*
X-40000D3*
Y-6125D3*
Y-4625D3*
X-38500D3*
Y-6125D3*
Y-7625D3*
X-41500Y-11000D3*
X-40500D3*
X-37438D3*
X-44375Y-7625D3*
Y-6125D3*
Y-4625D3*
X-42875D3*
Y-6125D3*
X-36750Y-7625D3*
X-35250D3*
X-31000Y-6000D3*
Y-7000D3*
X-29750D3*
Y-6000D3*
X-28500D3*
Y-7000D3*
X-31000Y-4750D3*
X-29750D3*
X-28500D3*
X-43625Y-34500D3*
Y-33000D3*
Y-31500D3*
X-42125D3*
Y-33000D3*
Y-34500D3*
X-43625Y-30000D3*
X-42125D3*
X-31438Y-11000D3*
X-39500D3*
X-28375Y-9500D3*
X-35250Y-11000D3*
X-34250D3*
X-28375Y-10562D3*
X-33250Y-11000D3*
X-46225Y1626D2*
D21*
X-21007D1*
X-18782D2*
X-12648D1*
X-46225Y1378D2*
X-21089D1*
X-18782D2*
X-12648D1*
X-46225Y1129D2*
X-21066D1*
X-18782D2*
X-12648D1*
X-45176Y880D2*
X-20921D1*
X-18782D2*
X-12648D1*
X-44871Y632D2*
X-12648D1*
X-44727Y383D2*
X-12648D1*
X-44668Y134D2*
X-15851D1*
X-14149D2*
X-12648D1*
X-44672Y-115D2*
X-43679D1*
X-42586D2*
X-16129D1*
X-13871D2*
X-12648D1*
X-44743Y-363D2*
X-43929D1*
X-42336D2*
X-16230D1*
X-13770D2*
X-12648D1*
X-44903Y-612D2*
X-44050D1*
X-42215D2*
X-17304D1*
X-16399D2*
X-16238D1*
X-13762D2*
X-12648D1*
X-46225Y-861D2*
X-46054D1*
X-45246D2*
X-44093D1*
X-42172D2*
X-17519D1*
X-13844D2*
X-12648D1*
X-46225Y-1109D2*
X-44066D1*
X-42200D2*
X-36261D1*
X-35043D2*
X-33453D1*
X-32231D2*
X-17597D1*
X-16102D2*
X-15937D1*
X-14063D2*
X-12648D1*
X-46225Y-1358D2*
X-43968D1*
X-42297D2*
X-37328D1*
X-36930D2*
X-36476D1*
X-34829D2*
X-33664D1*
X-32020D2*
X-17605D1*
X-16098D2*
X-12648D1*
X-46225Y-1607D2*
X-43757D1*
X-42508D2*
X-37703D1*
X-34727D2*
X-33765D1*
X-31918D2*
X-17605D1*
X-16098D2*
X-12648D1*
X-46225Y-1855D2*
X-37820D1*
X-34704D2*
X-33793D1*
X-31891D2*
X-17605D1*
X-16098D2*
X-12648D1*
X-46225Y-2104D2*
X-37839D1*
X-34704D2*
X-33793D1*
X-31891D2*
X-23714D1*
X-23161D2*
X-19714D1*
X-19161D2*
X-17605D1*
X-16098D2*
X-12648D1*
X-46225Y-2353D2*
X-37761D1*
X-34704D2*
X-33793D1*
X-31891D2*
X-24004D1*
X-22871D2*
X-20004D1*
X-18871D2*
X-17586D1*
X-13875D2*
X-12648D1*
X-46225Y-2601D2*
X-37531D1*
X-36727D2*
X-36601D1*
X-34704D2*
X-33793D1*
X-31891D2*
X-24093D1*
X-22782D2*
X-20093D1*
X-18782D2*
X-17472D1*
X-13707D2*
X-12648D1*
X-46225Y-2850D2*
X-36601D1*
X-34704D2*
X-33793D1*
X-31891D2*
X-24078D1*
X-22797D2*
X-20078D1*
X-18797D2*
X-17175D1*
X-16524D2*
X-16343D1*
X-13657D2*
X-12648D1*
X-46225Y-3099D2*
X-36601D1*
X-34704D2*
X-33793D1*
X-31891D2*
X-23945D1*
X-22930D2*
X-19945D1*
X-18930D2*
X-16308D1*
X-13692D2*
X-12648D1*
X-46225Y-3347D2*
X-36589D1*
X-34711D2*
X-33781D1*
X-31903D2*
X-22011D1*
X-18989D2*
X-16171D1*
X-13829D2*
X-12648D1*
X-46225Y-3596D2*
X-36515D1*
X-34789D2*
X-33707D1*
X-31977D2*
X-22136D1*
X-18864D2*
X-15718D1*
X-13848D2*
X-12648D1*
X-46225Y-3845D2*
X-44992D1*
X-24918D2*
X-22148D1*
X-18852D2*
X-15160D1*
X-13848D2*
X-12648D1*
X-46225Y-4094D2*
X-45175D1*
X-24770D2*
X-22054D1*
X-18946D2*
X-15160D1*
X-13848D2*
X-12648D1*
X-46225Y-4342D2*
X-45179D1*
X-24766D2*
X-21742D1*
X-21258D2*
X-20742D1*
X-20258D2*
X-19742D1*
X-19258D2*
X-15160D1*
X-13848D2*
X-12648D1*
X-46225Y-4591D2*
X-45179D1*
X-24766D2*
X-18285D1*
X-17227D2*
X-16429D1*
X-13848D2*
X-12648D1*
X-46225Y-4840D2*
X-45179D1*
X-24766D2*
X-18410D1*
X-17102D2*
X-16429D1*
X-13871D2*
X-12648D1*
X-46225Y-5088D2*
X-45179D1*
X-24766D2*
X-18425D1*
X-17086D2*
X-16429D1*
X-13856D2*
X-12648D1*
X-46225Y-5337D2*
X-45179D1*
X-24766D2*
X-18336D1*
X-17172D2*
X-16429D1*
X-13946D2*
X-12648D1*
X-46225Y-5586D2*
X-45179D1*
X-24766D2*
X-23023D1*
X-14004D2*
X-12648D1*
X-46225Y-5834D2*
X-45179D1*
X-24766D2*
X-23316D1*
X-13871D2*
X-12648D1*
X-46225Y-6083D2*
X-45179D1*
X-24766D2*
X-23562D1*
X-13856D2*
X-12648D1*
X-46225Y-6332D2*
X-45179D1*
X-24766D2*
X-23793D1*
X-13942D2*
X-12648D1*
X-46225Y-6580D2*
X-45179D1*
X-24766D2*
X-23855D1*
X-22723D2*
X-22156D1*
X-18868D2*
X-14777D1*
X-14231D2*
X-12648D1*
X-46225Y-6829D2*
X-45179D1*
X-24766D2*
X-23855D1*
X-22895D2*
X-22156D1*
X-18848D2*
X-12648D1*
X-46225Y-7078D2*
X-45179D1*
X-24766D2*
X-23855D1*
X-22895D2*
X-22156D1*
X-18938D2*
X-17648D1*
X-15454D2*
X-12648D1*
X-46225Y-7326D2*
X-45179D1*
X-24766D2*
X-23855D1*
X-22895D2*
X-22156D1*
X-20219D2*
X-19781D1*
X-19219D2*
X-17781D1*
X-15454D2*
X-12648D1*
X-46225Y-7575D2*
X-45179D1*
X-22895D2*
X-20746D1*
X-19754D2*
X-17800D1*
X-15454D2*
X-12648D1*
X-46225Y-7824D2*
X-45179D1*
X-22895D2*
X-20886D1*
X-19614D2*
X-17718D1*
X-15454D2*
X-12648D1*
X-46225Y-8073D2*
X-45179D1*
X-22895D2*
X-20906D1*
X-19594D2*
X-17464D1*
X-15454D2*
X-12648D1*
X-46225Y-8321D2*
X-45179D1*
X-22895D2*
X-20824D1*
X-19676D2*
X-12648D1*
X-46225Y-8570D2*
X-45179D1*
X-22938D2*
X-20554D1*
X-19946D2*
X-12648D1*
X-46225Y-8819D2*
X-45179D1*
X-23149D2*
X-20742D1*
X-19758D2*
X-12648D1*
X-46225Y-9067D2*
X-45300D1*
X-23399D2*
X-20882D1*
X-19618D2*
X-12648D1*
X-46225Y-9316D2*
X-45300D1*
X-23594D2*
X-20906D1*
X-19594D2*
X-12648D1*
X-46225Y-9565D2*
X-45300D1*
X-23672D2*
X-20828D1*
X-19672D2*
X-12648D1*
X-46225Y-9813D2*
X-45300D1*
X-24766D2*
X-24566D1*
X-23934D2*
X-20566D1*
X-19934D2*
X-17238D1*
X-15145D2*
X-14863D1*
X-14145D2*
X-12648D1*
X-46225Y-10062D2*
X-45300D1*
X-23766D2*
X-20734D1*
X-19766D2*
X-17238D1*
X-13879D2*
X-12648D1*
X-46225Y-10311D2*
X-45300D1*
X-23618D2*
X-20882D1*
X-19618D2*
X-17238D1*
X-13782D2*
X-12648D1*
X-46225Y-10559D2*
X-45179D1*
X-23594D2*
X-20906D1*
X-19594D2*
X-17238D1*
X-13782D2*
X-12648D1*
X-46225Y-10808D2*
X-45093D1*
X-23668D2*
X-20832D1*
X-19668D2*
X-17238D1*
X-13875D2*
X-12648D1*
X-46225Y-11057D2*
X-44050D1*
X-24766D2*
X-24582D1*
X-23918D2*
X-20582D1*
X-19918D2*
X-17238D1*
X-15133D2*
X-14879D1*
X-14133D2*
X-12648D1*
X-46225Y-11305D2*
X-44050D1*
X-23770D2*
X-20730D1*
X-19770D2*
X-12648D1*
X-46225Y-11554D2*
X-44050D1*
X-23621D2*
X-21707D1*
X-19621D2*
X-16093D1*
X-13969D2*
X-12648D1*
X-46225Y-11803D2*
X-44050D1*
X-23594D2*
X-21957D1*
X-19594D2*
X-16093D1*
X-13813D2*
X-12648D1*
X-46225Y-12052D2*
X-44050D1*
X-23664D2*
X-22203D1*
X-19664D2*
X-16093D1*
X-13786D2*
X-12648D1*
X-46225Y-12300D2*
X-44050D1*
X-42149D2*
X-39921D1*
X-39329D2*
X-39046D1*
X-38454D2*
X-35046D1*
X-34454D2*
X-28140D1*
X-23907D2*
X-22453D1*
X-21274D2*
X-20593D1*
X-19907D2*
X-16093D1*
X-13860D2*
X-12648D1*
X-46225Y-12549D2*
X-44195D1*
X-42149D2*
X-40195D1*
X-38180D2*
X-35320D1*
X-34180D2*
X-33250D1*
X-33000D2*
X-30375D1*
X-30125D2*
X-27871D1*
X-24457D2*
X-22812D1*
X-21520D2*
X-19625D1*
X-19375D2*
X-16093D1*
X-14102D2*
X-12648D1*
X-46225Y-12798D2*
X-44281D1*
X-42149D2*
X-40281D1*
X-38094D2*
X-35406D1*
X-34094D2*
X-33754D1*
X-32614D2*
X-30761D1*
X-29739D2*
X-25886D1*
X-24707D2*
X-23199D1*
X-21770D2*
X-20011D1*
X-18989D2*
X-15636D1*
X-15361D2*
X-15175D1*
X-13825D2*
X-12648D1*
X-46225Y-13046D2*
X-44261D1*
X-41629D2*
X-40261D1*
X-38114D2*
X-35386D1*
X-32520D2*
X-30855D1*
X-29645D2*
X-26136D1*
X-24957D2*
X-23293D1*
X-22020D2*
X-20105D1*
X-18895D2*
X-16043D1*
X-13825D2*
X-12648D1*
X-46225Y-13295D2*
X-44125D1*
X-32539D2*
X-30836D1*
X-29664D2*
X-26386D1*
X-25204D2*
X-23273D1*
X-22102D2*
X-20086D1*
X-18914D2*
X-16160D1*
X-13825D2*
X-12648D1*
X-46225Y-13544D2*
X-43109D1*
X-32516D2*
X-30859D1*
X-29641D2*
X-28781D1*
X-28219D2*
X-26632D1*
X-25454D2*
X-24781D1*
X-24219D2*
X-23296D1*
X-22079D2*
X-20109D1*
X-18891D2*
X-16168D1*
X-13825D2*
X-12648D1*
X-46225Y-13792D2*
X-43109D1*
X-32516D2*
X-30859D1*
X-29641D2*
X-29066D1*
X-27934D2*
X-26882D1*
X-25704D2*
X-25066D1*
X-23934D2*
X-23296D1*
X-22079D2*
X-20109D1*
X-18891D2*
X-16070D1*
X-13825D2*
X-12648D1*
X-46225Y-14041D2*
X-43109D1*
X-42149D2*
X-40207D1*
X-38918D2*
X-36207D1*
X-34918D2*
X-33734D1*
X-32516D2*
X-30859D1*
X-29641D2*
X-29156D1*
X-27844D2*
X-27132D1*
X-25950D2*
X-25156D1*
X-23844D2*
X-23296D1*
X-22079D2*
X-20109D1*
X-18891D2*
X-15765D1*
X-13825D2*
X-12648D1*
X-46225Y-14290D2*
X-43109D1*
X-42149D2*
X-40214D1*
X-38911D2*
X-36214D1*
X-34911D2*
X-33734D1*
X-32516D2*
X-30859D1*
X-29641D2*
X-29136D1*
X-27864D2*
X-27379D1*
X-26200D2*
X-25136D1*
X-23864D2*
X-23296D1*
X-22079D2*
X-20109D1*
X-18891D2*
X-12648D1*
X-46225Y-14538D2*
X-43109D1*
X-42149D2*
X-40117D1*
X-39008D2*
X-36117D1*
X-35008D2*
X-33734D1*
X-32516D2*
X-30859D1*
X-29641D2*
X-29007D1*
X-27993D2*
X-27629D1*
X-26450D2*
X-25007D1*
X-23993D2*
X-23296D1*
X-22079D2*
X-20109D1*
X-18891D2*
X-12648D1*
X-46225Y-14787D2*
X-43109D1*
X-42149D2*
X-39796D1*
X-39329D2*
X-35796D1*
X-35329D2*
X-27863D1*
X-26696D2*
X-12648D1*
X-46225Y-15036D2*
X-44074D1*
X-43559D2*
X-43109D1*
X-42149D2*
X-38472D1*
X-37121D2*
X-27925D1*
X-26946D2*
X-15636D1*
X-14286D2*
X-12648D1*
X-46225Y-15284D2*
X-44375D1*
X-43258D2*
X-43109D1*
X-42149D2*
X-38781D1*
X-36809D2*
X-27925D1*
X-27075D2*
X-15949D1*
X-13973D2*
X-12648D1*
X-46225Y-15533D2*
X-44468D1*
X-42149D2*
X-38964D1*
X-36629D2*
X-35843D1*
X-35239D2*
X-34843D1*
X-34239D2*
X-33843D1*
X-33239D2*
X-32843D1*
X-32239D2*
X-31843D1*
X-31239D2*
X-30843D1*
X-30239D2*
X-29843D1*
X-29239D2*
X-28843D1*
X-28239D2*
X-27925D1*
X-27075D2*
X-26843D1*
X-26239D2*
X-25246D1*
X-24637D2*
X-24246D1*
X-23637D2*
X-23246D1*
X-22637D2*
X-22246D1*
X-21637D2*
X-21246D1*
X-20637D2*
X-20246D1*
X-19637D2*
X-19246D1*
X-18637D2*
X-18246D1*
X-17637D2*
X-16129D1*
X-13793D2*
X-12648D1*
X-46225Y-15782D2*
X-44457D1*
X-42149D2*
X-39070D1*
X-36524D2*
X-36113D1*
X-25969D2*
X-25511D1*
X-17368D2*
X-16234D1*
X-13688D2*
X-12648D1*
X-46225Y-16031D2*
X-44332D1*
X-42149D2*
X-39121D1*
X-36473D2*
X-36195D1*
X-25887D2*
X-25597D1*
X-17286D2*
X-16285D1*
X-13637D2*
X-12648D1*
X-46225Y-16279D2*
X-43511D1*
X-42204D2*
X-39125D1*
X-36469D2*
X-36199D1*
X-25879D2*
X-25601D1*
X-17282D2*
X-16289D1*
X-13633D2*
X-12648D1*
X-46225Y-16528D2*
X-43761D1*
X-42426D2*
X-41879D1*
X-40114D2*
X-39078D1*
X-36512D2*
X-36187D1*
X-25895D2*
X-25589D1*
X-17293D2*
X-16242D1*
X-13680D2*
X-12648D1*
X-46225Y-16777D2*
X-44011D1*
X-42672D2*
X-42039D1*
X-39954D2*
X-38980D1*
X-36614D2*
X-36078D1*
X-26000D2*
X-25480D1*
X-17403D2*
X-16144D1*
X-13778D2*
X-12648D1*
X-46225Y-17025D2*
X-44238D1*
X-42922D2*
X-42062D1*
X-39946D2*
X-38808D1*
X-36782D2*
X-36410D1*
X-24512D2*
X-24093D1*
X-23786D2*
X-23093D1*
X-22786D2*
X-22093D1*
X-21786D2*
X-21093D1*
X-20786D2*
X-20093D1*
X-19786D2*
X-19093D1*
X-18786D2*
X-18093D1*
X-17786D2*
X-15976D1*
X-13946D2*
X-12648D1*
X-46225Y-17274D2*
X-44296D1*
X-43172D2*
X-42062D1*
X-39946D2*
X-38523D1*
X-37071D2*
X-36679D1*
X-24391D2*
X-15687D1*
X-14235D2*
X-12648D1*
X-46225Y-17523D2*
X-44296D1*
X-43336D2*
X-42023D1*
X-39961D2*
X-36929D1*
X-24403D2*
X-12648D1*
X-46225Y-17771D2*
X-44296D1*
X-43336D2*
X-41816D1*
X-40161D2*
X-37175D1*
X-24555D2*
X-12648D1*
X-46225Y-18020D2*
X-44296D1*
X-43336D2*
X-37390D1*
X-36243D2*
X-31097D1*
X-28028D2*
X-12976D1*
X-46225Y-18269D2*
X-44296D1*
X-43336D2*
X-41351D1*
X-40657D2*
X-37429D1*
X-36493D2*
X-31183D1*
X-27942D2*
X-13214D1*
X-46225Y-18517D2*
X-44296D1*
X-43336D2*
X-41589D1*
X-40418D2*
X-37589D1*
X-36418D2*
X-31144D1*
X-27579D2*
X-13285D1*
X-11969D2*
X-8347D1*
X-2895D2*
X-1789D1*
X-586D2*
X227D1*
X-46225Y-18766D2*
X-44296D1*
X-43336D2*
X-41664D1*
X-40344D2*
X-37664D1*
X-36344D2*
X-31050D1*
X-27450D2*
X-14336D1*
X-13668D2*
X-13254D1*
X-12000D2*
X-8136D1*
X-6094D2*
X-3855D1*
X-2895D2*
X-1781D1*
X-594D2*
X227D1*
X-46225Y-19015D2*
X-44296D1*
X-43336D2*
X-41632D1*
X-40375D2*
X-37632D1*
X-36375D2*
X-31043D1*
X-27457D2*
X-17406D1*
X-13422D2*
X-13097D1*
X-12153D2*
X-7230D1*
X-6270D2*
X-5187D1*
X-4688D2*
X-3855D1*
X-2895D2*
X-1648D1*
X-727D2*
X227D1*
X-46225Y-19263D2*
X-44363D1*
X-43270D2*
X-41480D1*
X-40532D2*
X-37480D1*
X-36532D2*
X-34535D1*
X-19036D2*
X-17496D1*
X-13348D2*
X-9242D1*
X-6094D2*
X-5441D1*
X-4434D2*
X-3855D1*
X-2895D2*
X-1796D1*
X-579D2*
X227D1*
X-46225Y-19512D2*
X-44464D1*
X-43168D2*
X-34625D1*
X-18946D2*
X-17461D1*
X-13379D2*
X-9379D1*
X-6094D2*
X-5496D1*
X-4379D2*
X-3855D1*
X-2895D2*
X-1796D1*
X-579D2*
X227D1*
X-46225Y-19761D2*
X-44461D1*
X-43172D2*
X-34589D1*
X-18981D2*
X-17254D1*
X-16621D2*
X-14472D1*
X-13532D2*
X-9402D1*
X-6094D2*
X-5429D1*
X-4446D2*
X-3855D1*
X-2821D2*
X-1796D1*
X-579D2*
X227D1*
X-46225Y-20010D2*
X-44347D1*
X-43286D2*
X-34386D1*
X-33743D2*
X-28531D1*
X-13426D2*
X-9316D1*
X-6094D2*
X-5125D1*
X-4750D2*
X-3836D1*
X-2571D2*
X-1796D1*
X-579D2*
X227D1*
X-46225Y-20258D2*
X-43910D1*
X-43727D2*
X-28558D1*
X-13348D2*
X-9043D1*
X-8457D2*
X-8043D1*
X-6094D2*
X-3660D1*
X-2325D2*
X227D1*
X-46225Y-20507D2*
X-29464D1*
X-7196D2*
X-4179D1*
X-2075D2*
X-1519D1*
X-856D2*
X227D1*
X-46225Y-20756D2*
X-29558D1*
X-7055D2*
X-4320D1*
X-606D2*
X227D1*
X-46225Y-21004D2*
X-29527D1*
X-7032D2*
X-4343D1*
X-532D2*
X227D1*
X-46225Y-21253D2*
X-32535D1*
X-27000D2*
X-24273D1*
X-21829D2*
X-19558D1*
X-13348D2*
X-12410D1*
X-7110D2*
X-4265D1*
X-3110D2*
X-2793D1*
X-555D2*
X227D1*
X-46225Y-21502D2*
X-32671D1*
X-26942D2*
X-24148D1*
X-21829D2*
X-19523D1*
X-13375D2*
X-12546D1*
X-7371D2*
X-4004D1*
X-3371D2*
X-2793D1*
X-1832D2*
X-1668D1*
X-704D2*
X227D1*
X-46225Y-21750D2*
X-32671D1*
X-27000D2*
X-24175D1*
X-21829D2*
X-19320D1*
X-18043D2*
X-14484D1*
X-13520D2*
X-12546D1*
X-8020D2*
X-2793D1*
X-1832D2*
X227D1*
X-46225Y-21999D2*
X-32531D1*
X-27094D2*
X-24097D1*
X-21829D2*
X-18902D1*
X-17848D2*
X-15781D1*
X-14723D2*
X-14575D1*
X-13430D2*
X-12941D1*
X-8020D2*
X-2793D1*
X-1832D2*
X227D1*
X-46225Y-22248D2*
X-32043D1*
X-26957D2*
X-23859D1*
X-21829D2*
X-18933D1*
X-17817D2*
X-17674D1*
X-16325D2*
X-15918D1*
X-13348D2*
X-13200D1*
X-7094D2*
X-4468D1*
X-2961D2*
X-2793D1*
X-1832D2*
X227D1*
X-46225Y-22496D2*
X-32046D1*
X-26954D2*
X-25175D1*
X-23164D2*
X-22925D1*
X-22079D2*
X-18836D1*
X-17914D2*
X-17675D1*
X-16325D2*
X-15945D1*
X-6899D2*
X-4711D1*
X-1832D2*
X227D1*
X-46225Y-22745D2*
X-31910D1*
X-27090D2*
X-25175D1*
X-22079D2*
X-17675D1*
X-16325D2*
X-15871D1*
X-13516D2*
X-13261D1*
X-6844D2*
X-4746D1*
X-1832D2*
X227D1*
X-46225Y-22994D2*
X-25175D1*
X-22079D2*
X-18574D1*
X-18176D2*
X-17675D1*
X-16325D2*
X-15945D1*
X-13434D2*
X-13121D1*
X-6895D2*
X-4746D1*
X-1832D2*
X227D1*
X-46225Y-23242D2*
X-25175D1*
X-22079D2*
X-18871D1*
X-17879D2*
X-17675D1*
X-16325D2*
X-15945D1*
X-13352D2*
X-13156D1*
X-7020D2*
X-4746D1*
X-1832D2*
X227D1*
X-46225Y-23491D2*
X-25175D1*
X-22079D2*
X-18933D1*
X-17817D2*
X-17674D1*
X-16325D2*
X-15945D1*
X-6899D2*
X-4625D1*
X-1832D2*
X227D1*
X-46225Y-23740D2*
X-22925D1*
X-22079D2*
X-18879D1*
X-17871D2*
X-17660D1*
X-16340D2*
X-15945D1*
X-6840D2*
X-2793D1*
X-1832D2*
X227D1*
X-46225Y-23989D2*
X-22925D1*
X-22079D2*
X-18617D1*
X-18133D2*
X-17664D1*
X-16336D2*
X-15945D1*
X-13348D2*
X-13177D1*
X-5110D2*
X-2793D1*
X-1832D2*
X227D1*
X-46225Y-24237D2*
X-24683D1*
X-24121D2*
X-22925D1*
X-22079D2*
X-18769D1*
X-17981D2*
X-17566D1*
X-16434D2*
X-14656D1*
X-13348D2*
X-12828D1*
X-4844D2*
X-2793D1*
X-1832D2*
X227D1*
X-46225Y-24486D2*
X-27445D1*
X-23868D2*
X-23035D1*
X-21969D2*
X-18918D1*
X-17832D2*
X-17246D1*
X-16754D2*
X-14656D1*
X-13348D2*
X-12359D1*
X-4594D2*
X-2793D1*
X-1832D2*
X-1480D1*
X-895D2*
X227D1*
X-46225Y-24735D2*
X-27554D1*
X-23801D2*
X-23136D1*
X-21903D2*
X-18925D1*
X-17825D2*
X-14656D1*
X-13348D2*
X-11464D1*
X-4348D2*
X-2793D1*
X-618D2*
X227D1*
X-46225Y-24983D2*
X-27531D1*
X-21950D2*
X-18796D1*
X-17954D2*
X-11492D1*
X-6891D2*
X-5433D1*
X-4098D2*
X-2793D1*
X-532D2*
X227D1*
X-46225Y-25232D2*
X-27359D1*
X-22161D2*
X-11433D1*
X-9473D2*
X-8929D1*
X-7071D2*
X-5187D1*
X-551D2*
X227D1*
X-46225Y-25481D2*
X-30941D1*
X-13067D2*
X-11363D1*
X-9977D2*
X-9093D1*
X-6907D2*
X-4937D1*
X-1832D2*
X-1690D1*
X-684D2*
X227D1*
X-46225Y-25729D2*
X-31054D1*
X-12805D2*
X-11433D1*
X-10317D2*
X-9898D1*
X-9604D2*
X-9156D1*
X-6844D2*
X-4773D1*
X-1832D2*
X227D1*
X-46225Y-25978D2*
X-31035D1*
X-12555D2*
X-11382D1*
X-10368D2*
X-10234D1*
X-6887D2*
X-4671D1*
X-1832D2*
X227D1*
X-46225Y-26227D2*
X-30867D1*
X-30133D2*
X-23957D1*
X-15508D2*
X-13488D1*
X-12309D2*
X-11144D1*
X-10606D2*
X-10308D1*
X-7063D2*
X-4336D1*
X-3914D2*
X-3778D1*
X-1606D2*
X227D1*
X-46225Y-26475D2*
X-31410D1*
X-30590D2*
X-30411D1*
X-29590D2*
X-29411D1*
X-28590D2*
X-28411D1*
X-27590D2*
X-27411D1*
X-26590D2*
X-26411D1*
X-25590D2*
X-25411D1*
X-24590D2*
X-24411D1*
X-15528D2*
X-13242D1*
X-12059D2*
X-10261D1*
X-6907D2*
X-2691D1*
X-825D2*
X227D1*
X-46225Y-26724D2*
X-31613D1*
X-15696D2*
X-12992D1*
X-11809D2*
X-10023D1*
X-9477D2*
X-9156D1*
X-6844D2*
X-2445D1*
X-825D2*
X227D1*
X-46225Y-26973D2*
X-31675D1*
X-17325D2*
X-14617D1*
X-14387D2*
X-13617D1*
X-13387D2*
X-12742D1*
X-11563D2*
X-9113D1*
X-6887D2*
X-2195D1*
X-825D2*
X227D1*
X-46225Y-27221D2*
X-31636D1*
X-17325D2*
X-14980D1*
X-10047D2*
X-8945D1*
X-7055D2*
X-6453D1*
X-5149D2*
X-2175D1*
X-825D2*
X227D1*
X-46225Y-27470D2*
X-31472D1*
X-17325D2*
X-15058D1*
X-4973D2*
X-2175D1*
X-825D2*
X227D1*
X-46225Y-27719D2*
X-31414D1*
X-25954D2*
X-15011D1*
X-4922D2*
X227D1*
X-46225Y-27968D2*
X-33933D1*
X-33192D2*
X-31250D1*
X-25965D2*
X-25371D1*
X-24629D2*
X-14785D1*
X-14215D2*
X-13785D1*
X-12067D2*
X-11750D1*
X-4954D2*
X227D1*
X-46225Y-28216D2*
X-34097D1*
X-24465D2*
X-12890D1*
X-12364D2*
X-11414D1*
X-9985D2*
X-8949D1*
X-7051D2*
X-6515D1*
X-5075D2*
X227D1*
X-46225Y-28465D2*
X-34113D1*
X-24450D2*
X-10972D1*
X-10426D2*
X-10054D1*
X-6914D2*
X-6179D1*
X-5086D2*
X-1894D1*
X-1106D2*
X227D1*
X-46225Y-28714D2*
X-37867D1*
X-24563D2*
X-10488D1*
X-6844D2*
X-6429D1*
X-5246D2*
X-2109D1*
X-891D2*
X227D1*
X-46225Y-28962D2*
X-38117D1*
X-28821D2*
X-19113D1*
X-10899D2*
X-10714D1*
X-5496D2*
X-2175D1*
X-825D2*
X227D1*
X-46225Y-29211D2*
X-38363D1*
X-28610D2*
X-19355D1*
X-5059D2*
X-2140D1*
X-860D2*
X227D1*
X-46225Y-29460D2*
X-38535D1*
X-28575D2*
X-28386D1*
X-27614D2*
X-27386D1*
X-26614D2*
X-26386D1*
X-25614D2*
X-25386D1*
X-24614D2*
X-24386D1*
X-23614D2*
X-23386D1*
X-22614D2*
X-22386D1*
X-21614D2*
X-21386D1*
X-20614D2*
X-20386D1*
X-19614D2*
X-19425D1*
X-4875D2*
X-1984D1*
X-1016D2*
X227D1*
X-46225Y-29708D2*
X-38550D1*
X-4821D2*
X227D1*
X-46225Y-29957D2*
X-38550D1*
X-4852D2*
X227D1*
X-46225Y-30206D2*
X-38550D1*
X-7039D2*
X-6421D1*
X-4950D2*
X227D1*
X-46225Y-30454D2*
X-38550D1*
X-7575D2*
X-6039D1*
X-4950D2*
X227D1*
X-46225Y-30703D2*
X-38543D1*
X-7575D2*
X-5800D1*
X-4950D2*
X227D1*
X-46225Y-30952D2*
X-38390D1*
X-7575D2*
X-5800D1*
X-4950D2*
X227D1*
X-46225Y-31200D2*
X-38132D1*
X-23829D2*
X-15773D1*
X-7575D2*
X-5800D1*
X-4950D2*
X227D1*
X-46225Y-31449D2*
X-37863D1*
X-7575D2*
X-5800D1*
X-4950D2*
X227D1*
X-46225Y-31698D2*
X-38004D1*
X-7575D2*
X-5800D1*
X-4950D2*
X227D1*
X-46225Y-31947D2*
X-38027D1*
X-7625D2*
X-5914D1*
X-4950D2*
X227D1*
X-46225Y-32195D2*
X-37941D1*
X-7856D2*
X-6160D1*
X-5000D2*
X227D1*
X-46225Y-32444D2*
X-37671D1*
X-35719D2*
X-35529D1*
X-8102D2*
X-6410D1*
X-5227D2*
X227D1*
X-46225Y-32693D2*
X-37714D1*
X-12192D2*
X-10453D1*
X-9797D2*
X-6660D1*
X-5477D2*
X227D1*
X-46225Y-32941D2*
X-37902D1*
X-11641D2*
X-10707D1*
X-9543D2*
X-6906D1*
X-5727D2*
X227D1*
X-46225Y-33190D2*
X-37929D1*
X-11454D2*
X-10781D1*
X-9469D2*
X-7156D1*
X-5973D2*
X227D1*
X-46225Y-33439D2*
X-37832D1*
X-11403D2*
X-10757D1*
X-9493D2*
X-7406D1*
X-6223D2*
X227D1*
X-46225Y-33687D2*
X-35961D1*
X-6473D2*
X227D1*
X-46225Y-33936D2*
X-36054D1*
X-6719D2*
X227D1*
X-46225Y-34185D2*
X-38101D1*
X-37489D2*
X-36027D1*
X-6969D2*
X227D1*
X-46225Y-34433D2*
X-38629D1*
X-36965D2*
X-35839D1*
X-7012D2*
X227D1*
X-44989Y-34682D2*
X-38871D1*
X-36723D2*
X-35035D1*
X-17442D2*
X-16035D1*
X-13887D2*
X-7863D1*
X-7012D2*
X-644D1*
X-44786Y-34931D2*
X-39015D1*
X-36575D2*
X-34851D1*
X-34157D2*
X-32578D1*
X-24305D2*
X-23578D1*
X-17305D2*
X-16179D1*
X-13743D2*
X-7863D1*
X-7012D2*
X-847D1*
X-44688Y-35179D2*
X-39097D1*
X-36493D2*
X-32601D1*
X-24282D2*
X-23601D1*
X-17282D2*
X-16261D1*
X-13661D2*
X-7863D1*
X-7012D2*
X-945D1*
X-44661Y-35428D2*
X-39129D1*
X-36465D2*
X-32601D1*
X-24282D2*
X-23601D1*
X-17282D2*
X-16293D1*
X-13629D2*
X-7863D1*
X-7012D2*
X-968D1*
X-44700Y-35677D2*
X-39109D1*
X-36481D2*
X-32539D1*
X-24344D2*
X-23539D1*
X-17344D2*
X-16277D1*
X-13649D2*
X-8855D1*
X-7012D2*
X-929D1*
X-44813Y-35926D2*
X-39043D1*
X-36547D2*
X-32328D1*
X-31555D2*
X-31328D1*
X-30555D2*
X-30328D1*
X-29555D2*
X-29328D1*
X-28555D2*
X-28328D1*
X-27555D2*
X-27328D1*
X-26555D2*
X-26328D1*
X-25555D2*
X-25328D1*
X-24555D2*
X-23328D1*
X-22555D2*
X-22328D1*
X-21555D2*
X-21328D1*
X-20555D2*
X-20328D1*
X-19555D2*
X-19328D1*
X-18555D2*
X-18328D1*
X-17555D2*
X-16207D1*
X-13715D2*
X-8992D1*
X-6895D2*
X-816D1*
X-45043Y-36174D2*
X-38918D1*
X-36676D2*
X-16082D1*
X-13840D2*
X-8996D1*
X-6879D2*
X-586D1*
X-46225Y-36423D2*
X-38707D1*
X-36887D2*
X-15871D1*
X-14051D2*
X-8996D1*
X-6879D2*
X227D1*
X-46225Y-36672D2*
X-38316D1*
X-37278D2*
X-15480D1*
X-14442D2*
X-8968D1*
X-6930D2*
X227D1*
X-46225Y-36920D2*
X-8750D1*
X-7172D2*
X227D1*
X-46225Y-37169D2*
X-46039D1*
X-45262D2*
X-390D1*
X-44907Y-37418D2*
X-742D1*
X-44746Y-37666D2*
X-906D1*
X-44672Y-37915D2*
X-980D1*
X-44664Y-38164D2*
X-984D1*
X-18473Y-38412D2*
X-925D1*
X-43085Y-13205D2*
X-43177Y-13325D1*
X-43274Y-13404D1*
X-43384Y-13462D1*
X-43503Y-13498D1*
X-43628Y-13510D1*
X-43752Y-13497D1*
X-43871Y-13460D1*
X-43981Y-13401D1*
X-44077Y-13321D1*
X-44155Y-13224D1*
X-44213Y-13114D1*
X-44249Y-12994D1*
X-44260Y-12870D1*
X-44247Y-12746D1*
X-44209Y-12627D1*
X-44150Y-12517D1*
X-44069Y-12422D1*
X-44024Y-12385D1*
X-44025Y-10918D1*
X-44820Y-10919D1*
X-44942Y-10896D1*
X-45048Y-10830D1*
X-45122Y-10730D1*
X-45155Y-10584D1*
Y-10400D1*
X-45276Y-10398D1*
Y-8980D1*
X-45155D1*
Y-4146D1*
X-45132Y-4023D1*
X-45066Y-3918D1*
X-44966Y-3844D1*
X-44821Y-3811D1*
X-36370Y-3789D1*
X-36455Y-3665D1*
X-36518Y-3530D1*
X-36560Y-3386D1*
X-36577Y-3237D1*
X-36581Y-2444D1*
X-36666Y-2536D1*
X-36765Y-2611D1*
X-36877Y-2667D1*
X-36997Y-2702D1*
X-37121Y-2715D1*
X-37246Y-2705D1*
X-37366Y-2672D1*
X-37479Y-2619D1*
X-37580Y-2546D1*
X-37667Y-2456D1*
X-37736Y-2352D1*
X-37785Y-2237D1*
X-37812Y-2116D1*
X-37817Y-1991D1*
X-37800Y-1867D1*
X-37760Y-1749D1*
X-37700Y-1640D1*
X-37621Y-1543D1*
X-37526Y-1462D1*
X-37418Y-1400D1*
X-37300Y-1358D1*
X-37177Y-1338D1*
X-37052Y-1340D1*
X-36930Y-1365D1*
X-36814Y-1412D1*
X-36709Y-1479D1*
X-36617Y-1563D1*
X-36558Y-1635D1*
X-36515Y-1492D1*
X-36450Y-1357D1*
X-36363Y-1234D1*
X-36259Y-1127D1*
X-36138Y-1039D1*
X-36004Y-971D1*
X-35862Y-925D1*
X-35714Y-903D1*
X-35564Y-905D1*
X-35416Y-931D1*
X-35275Y-981D1*
X-35143Y-1053D1*
X-35025Y-1145D1*
X-34924Y-1255D1*
X-34841Y-1380D1*
X-34780Y-1517D1*
X-34741Y-1662D1*
X-34727Y-1811D1*
X-34729Y-3279D1*
X-34754Y-3427D1*
X-34801Y-3569D1*
X-34871Y-3702D1*
X-34937Y-3792D1*
X-34442Y-3790D1*
X-34316Y-3815D1*
X-34275Y-3824D1*
X-34129Y-3790D1*
X-33559Y-3789D1*
X-33644Y-3665D1*
X-33708Y-3530D1*
X-33749Y-3386D1*
X-33767Y-3237D1*
X-33766Y-1784D1*
X-33747Y-1635D1*
X-33705Y-1492D1*
X-33640Y-1357D1*
X-33553Y-1234D1*
X-33448Y-1127D1*
X-33328Y-1039D1*
X-33194Y-971D1*
X-33052Y-925D1*
X-32903Y-903D1*
X-32754Y-905D1*
X-32606Y-931D1*
X-32465Y-981D1*
X-32333Y-1053D1*
X-32215Y-1145D1*
X-32113Y-1255D1*
X-32031Y-1380D1*
X-31969Y-1517D1*
X-31931Y-1662D1*
X-31916Y-1811D1*
X-31919Y-3279D1*
X-31943Y-3427D1*
X-31991Y-3569D1*
X-32061Y-3702D1*
X-32126Y-3791D1*
X-25128Y-3790D1*
X-25006Y-3813D1*
X-24900Y-3879D1*
X-24826Y-3979D1*
X-24793Y-4125D1*
Y-7668D1*
X-24694Y-7547D1*
X-24597Y-7468D1*
X-24487Y-7411D1*
X-24367Y-7376D1*
X-24242Y-7365D1*
X-24118Y-7379D1*
X-23999Y-7417D1*
X-23890Y-7477D1*
X-23828Y-7530D1*
X-23830Y-6563D1*
X-23813Y-6439D1*
X-23761Y-6322D1*
X-23697Y-6241D1*
X-23135Y-5679D1*
X-23035Y-5604D1*
X-22916Y-5558D1*
X-22813Y-5546D1*
X-18113Y-5543D1*
X-18210Y-5465D1*
X-18290Y-5369D1*
X-18351Y-5260D1*
X-18390Y-5141D1*
X-18405Y-5018D1*
X-18396Y-4893D1*
X-18364Y-4773D1*
X-18309Y-4660D1*
X-18234Y-4561D1*
X-18141Y-4477D1*
X-18034Y-4413D1*
X-17916Y-4371D1*
X-17793Y-4352D1*
X-17668Y-4357D1*
X-17547Y-4385D1*
X-17433Y-4436D1*
X-17331Y-4508D1*
X-17245Y-4598D1*
X-17177Y-4703D1*
X-17131Y-4819D1*
X-17108Y-4942D1*
X-17109Y-5075D1*
X-17136Y-5198D1*
X-17185Y-5312D1*
X-17255Y-5416D1*
X-17343Y-5504D1*
X-17401Y-5545D1*
X-16403Y-5546D1*
X-16405Y-4351D1*
X-15135D1*
Y-3603D1*
X-15591Y-3600D1*
X-15696Y-3596D1*
X-15817Y-3568D1*
X-15932Y-3519D1*
X-16037Y-3451D1*
X-16129Y-3366D1*
X-16205Y-3267D1*
X-16263Y-3157D1*
X-16301Y-3038D1*
X-16318Y-2914D1*
X-16314Y-2789D1*
X-16276Y-2635D1*
X-16374Y-2737D1*
X-16475Y-2810D1*
X-16587Y-2865D1*
X-16707Y-2900D1*
X-16831Y-2914D1*
X-16955Y-2907D1*
X-17077Y-2879D1*
X-17192Y-2830D1*
X-17297Y-2762D1*
X-17388Y-2677D1*
X-17464Y-2578D1*
X-17522Y-2468D1*
X-17561Y-2349D1*
X-17578Y-2225D1*
Y-1166D1*
X-17561Y-1042D1*
X-17524Y-923D1*
X-17466Y-812D1*
X-17391Y-713D1*
X-17300Y-628D1*
X-17195Y-560D1*
X-17080Y-510D1*
X-16959Y-481D1*
X-16834Y-473D1*
X-16710Y-487D1*
X-16590Y-521D1*
X-16478Y-576D1*
X-16376Y-648D1*
X-16289Y-737D1*
X-16218Y-840D1*
X-16165Y-953D1*
X-16133Y-1074D1*
X-16122Y-1202D1*
X-16126Y-2261D1*
X-16149Y-2384D1*
X-16161Y-2422D1*
X-16096Y-2350D1*
X-15999Y-2272D1*
X-15890Y-2211D1*
X-15773Y-2169D1*
X-15649Y-2149D1*
X-15216Y-2146D1*
X-14343Y-2149D1*
X-14221Y-2171D1*
X-14103Y-2214D1*
X-13995Y-2276D1*
X-13899Y-2355D1*
X-13817Y-2450D1*
X-13754Y-2557D1*
X-13709Y-2674D1*
X-13685Y-2797D1*
X-13681Y-2875D1*
X-13691Y-2999D1*
X-13723Y-3120D1*
X-13775Y-3234D1*
X-13881Y-3373D1*
X-13874Y-3370D1*
Y-4631D1*
X-13995D1*
X-13961Y-4681D1*
X-13909Y-4794D1*
X-13880Y-4916D1*
X-13874Y-5001D1*
X-13886Y-5125D1*
X-13923Y-5244D1*
X-13982Y-5354D1*
X-14062Y-5450D1*
X-14126Y-5501D1*
X-14035Y-5580D1*
X-13961Y-5681D1*
X-13909Y-5794D1*
X-13880Y-5916D1*
X-13874Y-6001D1*
X-13886Y-6125D1*
X-13923Y-6244D1*
X-13982Y-6354D1*
X-14062Y-6450D1*
X-14159Y-6528D1*
X-14270Y-6586D1*
X-14390Y-6620D1*
X-14514Y-6631D1*
X-14638Y-6616D1*
X-14757Y-6578D1*
X-14866Y-6517D1*
X-14940Y-6453D1*
X-17004Y-6456D1*
X-18946D1*
X-18904Y-6544D1*
X-18875Y-6665D1*
X-18870Y-6750D1*
X-18882Y-6874D1*
X-18919Y-6993D1*
X-18978Y-7103D1*
X-19058Y-7199D1*
X-19155Y-7277D1*
X-19266Y-7335D1*
X-19386Y-7370D1*
X-19510Y-7380D1*
X-19634Y-7366D1*
X-19753Y-7327D1*
X-19861Y-7266D1*
X-19956Y-7185D1*
X-19997Y-7133D1*
X-20095Y-7233D1*
X-20198Y-7303D1*
X-20313Y-7352D1*
X-20435Y-7377D1*
X-20560D1*
X-20682Y-7353D1*
X-20798Y-7306D1*
X-20870Y-7260D1*
Y-7380D1*
X-22130D1*
Y-6454D1*
X-22625Y-6456D1*
X-22919Y-6750D1*
X-22920Y-8375D1*
X-22937Y-8498D1*
X-22989Y-8616D1*
X-23053Y-8697D1*
X-23614Y-9257D1*
X-23627Y-9374D1*
X-23664Y-9494D1*
X-23723Y-9604D1*
X-23802Y-9700D1*
X-23899Y-9779D1*
X-24009Y-9837D1*
X-24140Y-9874D1*
X-24023Y-9907D1*
X-23911Y-9963D1*
X-23813Y-10040D1*
X-23731Y-10134D1*
X-23669Y-10243D1*
X-23630Y-10361D1*
X-23615Y-10485D1*
X-23623Y-10600D1*
X-23654Y-10720D1*
X-23709Y-10833D1*
X-23785Y-10932D1*
X-23878Y-11015D1*
X-23986Y-11077D1*
X-24104Y-11118D1*
X-24138Y-11125D1*
X-23999Y-11167D1*
X-23890Y-11227D1*
X-23795Y-11307D1*
X-23717Y-11405D1*
X-23660Y-11516D1*
X-23625Y-11636D1*
X-23615Y-11750D1*
X-23627Y-11874D1*
X-23664Y-11994D1*
X-23723Y-12104D1*
X-23802Y-12200D1*
X-23899Y-12279D1*
X-24009Y-12337D1*
X-24128Y-12373D1*
X-24253Y-12385D1*
X-24311Y-12379D1*
X-25823Y-13889D1*
X-27102Y-15168D1*
X-27100Y-15645D1*
X-27044Y-15713D1*
X-26985Y-15650D1*
X-26888Y-15572D1*
X-26777Y-15514D1*
X-26658Y-15480D1*
X-26533Y-15469D1*
X-26409Y-15483D1*
X-26290Y-15520D1*
X-26181Y-15581D1*
X-26086Y-15661D1*
X-26008Y-15759D1*
X-25951Y-15870D1*
X-25916Y-15990D1*
X-25906Y-16104D1*
X-25910Y-16404D1*
X-25918Y-16528D1*
X-25954Y-16647D1*
X-26013Y-16757D1*
X-26093Y-16854D1*
X-26189Y-16933D1*
X-26269Y-16975D1*
X-25293D1*
X-25297Y-16930D1*
X-25393Y-16850D1*
X-25471Y-16753D1*
X-25529Y-16643D1*
X-25565Y-16523D1*
X-25576Y-16404D1*
X-25572Y-16104D1*
X-25563Y-15975D1*
X-25525Y-15855D1*
X-25465Y-15746D1*
X-25385Y-15650D1*
X-25288Y-15572D1*
X-25177Y-15514D1*
X-25058Y-15480D1*
X-24933Y-15469D1*
X-24809Y-15483D1*
X-24690Y-15520D1*
X-24581Y-15581D1*
X-24486Y-15661D1*
X-24444Y-15713D1*
X-24385Y-15650D1*
X-24288Y-15572D1*
X-24177Y-15514D1*
X-24058Y-15480D1*
X-23933Y-15469D1*
X-23809Y-15483D1*
X-23690Y-15520D1*
X-23581Y-15581D1*
X-23486Y-15661D1*
X-23444Y-15713D1*
X-23385Y-15650D1*
X-23288Y-15572D1*
X-23177Y-15514D1*
X-23058Y-15480D1*
X-22933Y-15469D1*
X-22809Y-15483D1*
X-22690Y-15520D1*
X-22581Y-15581D1*
X-22486Y-15661D1*
X-22444Y-15713D1*
X-22385Y-15650D1*
X-22288Y-15572D1*
X-22177Y-15514D1*
X-22058Y-15480D1*
X-21933Y-15469D1*
X-21809Y-15483D1*
X-21690Y-15520D1*
X-21581Y-15581D1*
X-21486Y-15661D1*
X-21444Y-15713D1*
X-21385Y-15650D1*
X-21288Y-15572D1*
X-21177Y-15514D1*
X-21058Y-15480D1*
X-20933Y-15469D1*
X-20809Y-15483D1*
X-20690Y-15520D1*
X-20581Y-15581D1*
X-20486Y-15661D1*
X-20444Y-15713D1*
X-20385Y-15650D1*
X-20288Y-15572D1*
X-20177Y-15514D1*
X-20058Y-15480D1*
X-19933Y-15469D1*
X-19809Y-15483D1*
X-19690Y-15520D1*
X-19581Y-15581D1*
X-19486Y-15661D1*
X-19444Y-15713D1*
X-19385Y-15650D1*
X-19288Y-15572D1*
X-19177Y-15514D1*
X-19058Y-15480D1*
X-18933Y-15469D1*
X-18809Y-15483D1*
X-18690Y-15520D1*
X-18581Y-15581D1*
X-18486Y-15661D1*
X-18444Y-15713D1*
X-18385Y-15650D1*
X-18288Y-15572D1*
X-18177Y-15514D1*
X-18058Y-15480D1*
X-17933Y-15469D1*
X-17809Y-15483D1*
X-17690Y-15520D1*
X-17581Y-15581D1*
X-17486Y-15661D1*
X-17408Y-15759D1*
X-17351Y-15870D1*
X-17316Y-15990D1*
X-17306Y-16104D1*
X-17310Y-16404D1*
X-17318Y-16528D1*
X-17354Y-16647D1*
X-17413Y-16757D1*
X-17493Y-16854D1*
X-17589Y-16933D1*
X-17700Y-16991D1*
X-17819Y-17027D1*
X-17943Y-17039D1*
X-18068Y-17026D1*
X-18187Y-16989D1*
X-18297Y-16930D1*
X-18393Y-16850D1*
X-18439Y-16792D1*
X-18493Y-16854D1*
X-18589Y-16933D1*
X-18700Y-16991D1*
X-18819Y-17027D1*
X-18943Y-17039D1*
X-19068Y-17026D1*
X-19187Y-16989D1*
X-19297Y-16930D1*
X-19393Y-16850D1*
X-19439Y-16792D1*
X-19493Y-16854D1*
X-19589Y-16933D1*
X-19700Y-16991D1*
X-19819Y-17027D1*
X-19943Y-17039D1*
X-20068Y-17026D1*
X-20187Y-16989D1*
X-20297Y-16930D1*
X-20393Y-16850D1*
X-20439Y-16792D1*
X-20493Y-16854D1*
X-20589Y-16933D1*
X-20700Y-16991D1*
X-20819Y-17027D1*
X-20943Y-17039D1*
X-21068Y-17026D1*
X-21187Y-16989D1*
X-21297Y-16930D1*
X-21393Y-16850D1*
X-21439Y-16792D1*
X-21493Y-16854D1*
X-21589Y-16933D1*
X-21700Y-16991D1*
X-21819Y-17027D1*
X-21943Y-17039D1*
X-22068Y-17026D1*
X-22187Y-16989D1*
X-22297Y-16930D1*
X-22393Y-16850D1*
X-22439Y-16792D1*
X-22493Y-16854D1*
X-22589Y-16933D1*
X-22700Y-16991D1*
X-22819Y-17027D1*
X-22943Y-17039D1*
X-23068Y-17026D1*
X-23187Y-16989D1*
X-23297Y-16930D1*
X-23393Y-16850D1*
X-23439Y-16792D1*
X-23493Y-16854D1*
X-23589Y-16933D1*
X-23700Y-16991D1*
X-23819Y-17027D1*
X-23943Y-17039D1*
X-24068Y-17026D1*
X-24187Y-16989D1*
X-24297Y-16930D1*
X-24393Y-16850D1*
X-24439Y-16792D1*
X-24493Y-16854D1*
X-24620Y-16949D1*
X-24523Y-17040D1*
X-24457Y-17146D1*
X-24417Y-17264D1*
X-24406Y-17375D1*
X-24420Y-17499D1*
X-24463Y-17616D1*
X-24532Y-17720D1*
X-24623Y-17805D1*
X-24731Y-17867D1*
X-24851Y-17902D1*
X-24975Y-17909D1*
X-25098Y-17886D1*
X-25212Y-17836D1*
X-25290Y-17777D1*
X-26691Y-17775D1*
X-29648D1*
X-29682Y-17805D1*
X-29790Y-17867D1*
X-29910Y-17902D1*
X-30035Y-17909D1*
X-30157Y-17886D1*
X-30271Y-17836D1*
X-30349Y-17777D1*
X-31750Y-17775D1*
X-36027D1*
X-36583Y-18335D1*
X-36471Y-18470D1*
X-36414Y-18581D1*
X-36379Y-18700D1*
X-36369Y-18815D1*
X-36381Y-18939D1*
X-36418Y-19058D1*
X-36477Y-19168D1*
X-36556Y-19265D1*
X-36653Y-19344D1*
X-36763Y-19402D1*
X-36882Y-19438D1*
X-37007Y-19450D1*
X-37131Y-19437D1*
X-37250Y-19400D1*
X-37360Y-19341D1*
X-37456Y-19261D1*
X-37534Y-19164D1*
X-37592Y-19054D1*
X-37628Y-18934D1*
X-37639Y-18810D1*
X-37626Y-18685D1*
X-37589Y-18566D1*
X-37529Y-18457D1*
X-37449Y-18361D1*
X-37403Y-18325D1*
X-37404Y-18190D1*
X-37385Y-18067D1*
X-37326Y-17953D1*
X-37110Y-17730D1*
X-36472Y-17092D1*
X-36372Y-17019D1*
X-36249Y-16980D1*
X-35939Y-16975D1*
X-35818D1*
X-35897Y-16930D1*
X-35993Y-16850D1*
X-36071Y-16753D1*
X-36129Y-16643D1*
X-36165Y-16523D1*
X-36176Y-16404D1*
X-36172Y-16104D1*
X-36163Y-15975D1*
X-36125Y-15855D1*
X-36065Y-15746D1*
X-35985Y-15650D1*
X-35888Y-15572D1*
X-35777Y-15514D1*
X-35658Y-15480D1*
X-35533Y-15469D1*
X-35409Y-15483D1*
X-35290Y-15520D1*
X-35181Y-15581D1*
X-35086Y-15661D1*
X-35044Y-15713D1*
X-34985Y-15650D1*
X-34888Y-15572D1*
X-34777Y-15514D1*
X-34658Y-15480D1*
X-34533Y-15469D1*
X-34409Y-15483D1*
X-34290Y-15520D1*
X-34181Y-15581D1*
X-34086Y-15661D1*
X-34044Y-15713D1*
X-33985Y-15650D1*
X-33888Y-15572D1*
X-33777Y-15514D1*
X-33658Y-15480D1*
X-33533Y-15469D1*
X-33409Y-15483D1*
X-33290Y-15520D1*
X-33181Y-15581D1*
X-33086Y-15661D1*
X-33044Y-15713D1*
X-32985Y-15650D1*
X-32888Y-15572D1*
X-32777Y-15514D1*
X-32658Y-15480D1*
X-32533Y-15469D1*
X-32409Y-15483D1*
X-32290Y-15520D1*
X-32181Y-15581D1*
X-32086Y-15661D1*
X-32044Y-15713D1*
X-31985Y-15650D1*
X-31888Y-15572D1*
X-31777Y-15514D1*
X-31658Y-15480D1*
X-31533Y-15469D1*
X-31409Y-15483D1*
X-31290Y-15520D1*
X-31181Y-15581D1*
X-31086Y-15661D1*
X-31044Y-15713D1*
X-30985Y-15650D1*
X-30888Y-15572D1*
X-30777Y-15514D1*
X-30658Y-15480D1*
X-30533Y-15469D1*
X-30409Y-15483D1*
X-30290Y-15520D1*
X-30181Y-15581D1*
X-30086Y-15661D1*
X-30044Y-15713D1*
X-29985Y-15650D1*
X-29888Y-15572D1*
X-29777Y-15514D1*
X-29658Y-15480D1*
X-29533Y-15469D1*
X-29409Y-15483D1*
X-29290Y-15520D1*
X-29181Y-15581D1*
X-29086Y-15661D1*
X-29044Y-15713D1*
X-28985Y-15650D1*
X-28888Y-15572D1*
X-28777Y-15514D1*
X-28658Y-15480D1*
X-28533Y-15469D1*
X-28409Y-15483D1*
X-28290Y-15520D1*
X-28181Y-15581D1*
X-28086Y-15661D1*
X-28044Y-15713D1*
X-27985Y-15650D1*
X-27897Y-15579D1*
X-27900Y-15000D1*
X-27881Y-14877D1*
X-27822Y-14763D1*
X-27606Y-14540D1*
X-25653Y-12588D1*
X-27690Y-12586D1*
X-27812Y-12563D1*
X-27927Y-12488D1*
X-28206Y-12209D1*
X-31690Y-12211D1*
X-42171D1*
X-42174Y-12751D1*
Y-13020D1*
X-42082Y-12985D1*
X-41959Y-12965D1*
X-41834Y-12975D1*
X-41716Y-13013D1*
X-41609Y-13078D1*
X-41584Y-13102D1*
X-40562Y-13100D1*
X-40215D1*
X-40249Y-12994D1*
X-40260Y-12870D1*
X-40247Y-12746D1*
X-40209Y-12627D1*
X-40150Y-12517D1*
X-40069Y-12422D1*
X-39972Y-12343D1*
X-39862Y-12286D1*
X-39742Y-12251D1*
X-39617Y-12240D1*
X-39493Y-12254D1*
X-39374Y-12292D1*
X-39265Y-12352D1*
X-39191Y-12415D1*
X-39097Y-12343D1*
X-38987Y-12286D1*
X-38867Y-12251D1*
X-38742Y-12240D1*
X-38618Y-12254D1*
X-38499Y-12292D1*
X-38390Y-12352D1*
X-38295Y-12432D1*
X-38217Y-12530D1*
X-38160Y-12641D1*
X-38125Y-12761D1*
X-38115Y-12875D1*
X-38127Y-12999D1*
X-38158Y-13100D1*
X-35340D1*
X-35362Y-13043D1*
X-35383Y-12920D1*
X-35380Y-12795D1*
X-35352Y-12673D1*
X-35301Y-12560D1*
X-35229Y-12458D1*
X-35138Y-12372D1*
X-35032Y-12306D1*
X-34915Y-12262D1*
X-34792Y-12241D1*
X-34668Y-12245D1*
X-34546Y-12274D1*
X-34432Y-12325D1*
X-34331Y-12398D1*
X-34246Y-12489D1*
X-34180Y-12595D1*
X-34136Y-12712D1*
X-34116Y-12835D1*
X-34119Y-12950D1*
X-34146Y-13072D1*
X-34156Y-13100D1*
X-34043D1*
X-33783Y-12842D1*
X-33682Y-12769D1*
X-33560Y-12730D1*
X-33625Y-12746D1*
X-33374Y-12595D1*
X-33256Y-12555D1*
X-33132Y-12540D1*
X-33008Y-12552D1*
X-32889Y-12590D1*
X-32781Y-12652D1*
X-32688Y-12736D1*
X-32616Y-12837D1*
X-32566Y-12952D1*
X-32540Y-13125D1*
X-32553Y-13249D1*
X-32593Y-13367D1*
X-32656Y-13475D1*
X-32710Y-13540D1*
X-32540D1*
Y-14710D1*
X-33710D1*
Y-13862D1*
X-33746Y-13879D1*
X-33875Y-13900D1*
X-34996D1*
X-34938Y-14073D1*
X-34927Y-14188D1*
X-34940Y-14312D1*
X-34976Y-14431D1*
X-35035Y-14541D1*
X-35114Y-14637D1*
X-35211Y-14716D1*
X-35321Y-14775D1*
X-35441Y-14811D1*
X-35565Y-14823D1*
X-35689Y-14810D1*
X-35808Y-14773D1*
X-35918Y-14714D1*
X-36014Y-14634D1*
X-36093Y-14537D1*
X-36151Y-14426D1*
X-36186Y-14307D1*
X-36197Y-14182D1*
X-36184Y-14058D1*
X-36147Y-13939D1*
X-36126Y-13902D1*
X-38996Y-13900D1*
X-38949Y-14025D1*
X-38929Y-14148D1*
X-38932Y-14262D1*
X-38959Y-14384D1*
X-39009Y-14499D1*
X-39080Y-14601D1*
X-39171Y-14687D1*
X-39276Y-14754D1*
X-39392Y-14799D1*
X-39515Y-14821D1*
X-39640Y-14818D1*
X-39762Y-14790D1*
X-39876Y-14740D1*
X-39978Y-14668D1*
X-40064Y-14577D1*
X-40130Y-14472D1*
X-40175Y-14355D1*
X-40196Y-14232D1*
X-40192Y-14108D1*
X-40165Y-13986D1*
X-40129Y-13900D1*
X-41582D1*
X-41728Y-13992D1*
X-41848Y-14027D1*
X-41972Y-14034D1*
X-42095Y-14011D1*
X-42177Y-13975D1*
X-42174Y-15251D1*
Y-16064D1*
X-42192Y-16188D1*
X-42244Y-16305D1*
X-42308Y-16386D1*
X-43360Y-17438D1*
X-43362Y-19184D1*
X-43284Y-19282D1*
X-43227Y-19393D1*
X-43192Y-19513D1*
X-43182Y-19627D1*
X-43194Y-19751D1*
X-43230Y-19870D1*
X-43289Y-19980D1*
X-43369Y-20077D1*
X-43465Y-20156D1*
X-43576Y-20214D1*
X-43695Y-20250D1*
X-43819Y-20262D1*
X-43944Y-20249D1*
X-44063Y-20212D1*
X-44173Y-20153D1*
X-44269Y-20073D1*
X-44347Y-19976D1*
X-44405Y-19866D1*
X-44441Y-19746D1*
X-44452Y-19622D1*
X-44439Y-19498D1*
X-44401Y-19379D1*
X-44341Y-19269D1*
X-44274Y-19188D1*
X-44272Y-17252D1*
X-44255Y-17128D1*
X-44202Y-17011D1*
X-44139Y-16930D1*
X-43086Y-15877D1*
X-43084Y-13209D1*
X-8048Y-22120D2*
X-7870D1*
Y-22241D1*
X-7716Y-22158D1*
X-7595Y-22127D1*
X-7470Y-22120D1*
X-7347Y-22139D1*
X-7229Y-22181D1*
X-7122Y-22245D1*
X-7030Y-22330D1*
X-6957Y-22430D1*
X-6904Y-22544D1*
X-6875Y-22665D1*
X-6870Y-22750D1*
X-6882Y-22874D1*
X-6919Y-22993D1*
X-6978Y-23103D1*
X-7045Y-23184D1*
Y-23316D1*
X-6957Y-23430D1*
X-6904Y-23544D1*
X-6875Y-23665D1*
X-6871Y-23737D1*
X-6684Y-23923D1*
X-5500Y-23920D1*
X-5375D1*
X-5252Y-23937D1*
X-5134Y-23989D1*
X-5053Y-24053D1*
X-4111Y-24995D1*
X-3972Y-25014D1*
X-3854Y-25056D1*
X-3757Y-25114D1*
X-3755Y-24995D1*
X-2767D1*
X-2768Y-23457D1*
X-2874Y-23564D1*
X-2983Y-23625D1*
X-3102Y-23659D1*
X-3227Y-23665D1*
X-3349Y-23641D1*
X-3438Y-23601D1*
X-3483Y-23625D1*
X-3602Y-23659D1*
X-3727Y-23665D1*
X-3849Y-23641D1*
X-3910Y-23614D1*
X-3988Y-23651D1*
X-4089Y-23666D1*
X-4336Y-23662D1*
X-4431Y-23633D1*
X-4513Y-23577D1*
X-4654Y-23432D1*
X-4700Y-23344D1*
X-4719Y-23246D1*
X-4716Y-22592D1*
X-4686Y-22497D1*
X-4630Y-22415D1*
X-4485Y-22274D1*
X-4397Y-22228D1*
X-4299Y-22209D1*
X-4039Y-22213D1*
X-3944Y-22242D1*
X-3912Y-22259D1*
X-3817Y-22225D1*
X-3694Y-22209D1*
X-3570Y-22222D1*
X-3436Y-22274D1*
X-3317Y-22225D1*
X-3194Y-22209D1*
X-3070Y-22222D1*
X-2952Y-22264D1*
X-2848Y-22332D1*
X-2770Y-22413D1*
X-2768Y-21129D1*
X-3063Y-20831D1*
X-3053Y-20938D1*
X-3065Y-21062D1*
X-3101Y-21181D1*
X-3160Y-21291D1*
X-3239Y-21387D1*
X-3336Y-21466D1*
X-3446Y-21525D1*
X-3566Y-21561D1*
X-3690Y-21573D1*
X-3814Y-21560D1*
X-3933Y-21523D1*
X-4043Y-21464D1*
X-4139Y-21384D1*
X-4218Y-21287D1*
X-4276Y-21176D1*
X-4311Y-21057D1*
X-4322Y-20932D1*
X-4309Y-20808D1*
X-4272Y-20689D1*
X-4212Y-20580D1*
X-4132Y-20484D1*
X-4035Y-20406D1*
X-3924Y-20348D1*
X-3804Y-20313D1*
X-3680Y-20303D1*
X-3583Y-20313D1*
X-3696Y-20198D1*
X-3771Y-20098D1*
X-3817Y-19978D1*
X-3829Y-19876D1*
Y-18708D1*
X-4749Y-18705D1*
X-6120D1*
Y-18880D1*
X-6296D1*
X-6295Y-19059D1*
X-6120Y-19057D1*
Y-20318D1*
X-7380D1*
Y-20197D1*
X-7516Y-20273D1*
X-7632Y-20306D1*
X-7556Y-20316D1*
X-7437Y-20354D1*
X-7328Y-20414D1*
X-7232Y-20495D1*
X-7154Y-20592D1*
X-7097Y-20703D1*
X-7063Y-20823D1*
X-7053Y-20938D1*
X-7065Y-21062D1*
X-7101Y-21181D1*
X-7160Y-21291D1*
X-7239Y-21387D1*
X-7336Y-21466D1*
X-7446Y-21525D1*
X-7566Y-21561D1*
X-7690Y-21573D1*
X-7814Y-21560D1*
X-7933Y-21523D1*
X-8043Y-21464D1*
X-8094Y-21421D1*
X-8048Y-21571D1*
X-8045Y-22121D1*
X-8882Y-25249D2*
X-8983Y-25151D1*
X-9410Y-25150D1*
X-9484Y-25220D1*
X-9585Y-25294D1*
X-9707Y-25332D1*
X-9880Y-25337D1*
X-9952Y-25436D1*
X-10051Y-25522D1*
X-10131Y-25573D1*
X-10306Y-25643D1*
X-10350Y-25651D1*
X-10340Y-25750D1*
X-10355Y-25874D1*
X-10397Y-25991D1*
X-10466Y-26095D1*
X-10557Y-26180D1*
X-10665Y-26242D1*
X-10785Y-26277D1*
X-10910Y-26284D1*
X-11032Y-26261D1*
X-11146Y-26211D1*
X-11246Y-26136D1*
X-11325Y-26039D1*
X-11380Y-25927D1*
X-11407Y-25806D1*
X-11406Y-25681D1*
X-11375Y-25560D1*
X-11337Y-25487D1*
Y-25355D1*
X-11416Y-25213D1*
X-11454Y-25088D1*
X-11467Y-24994D1*
X-11458Y-24805D1*
X-11429Y-24705D1*
X-11500Y-24650D1*
X-12004D1*
X-12127Y-24631D1*
X-12241Y-24572D1*
X-12463Y-24356D1*
X-12560Y-24259D1*
X-12629Y-24262D1*
X-12753Y-24250D1*
X-12872Y-24213D1*
X-12982Y-24154D1*
X-13078Y-24074D1*
X-13157Y-23977D1*
X-13215Y-23866D1*
X-13250Y-23747D1*
X-13261Y-23622D1*
X-13248Y-23498D1*
X-13211Y-23379D1*
X-13151Y-23270D1*
X-13071Y-23174D1*
X-13025Y-23137D1*
X-13026Y-23061D1*
X-13157Y-22914D1*
X-13215Y-22803D1*
X-13250Y-22684D1*
X-13261Y-22559D1*
X-13248Y-22435D1*
X-13211Y-22316D1*
X-13151Y-22207D1*
X-13071Y-22111D1*
X-12974Y-22033D1*
X-12863Y-21975D1*
X-12743Y-21940D1*
X-12619Y-21929D1*
X-12495Y-21943D1*
X-12409Y-21970D1*
X-12450Y-21914D1*
X-12505Y-21802D1*
X-12532Y-21681D1*
X-12531Y-21556D1*
X-12500Y-21435D1*
X-12443Y-21324D1*
X-12339Y-21214D1*
X-13377Y-21215D1*
X-13371Y-21315D1*
X-13384Y-21439D1*
X-13420Y-21559D1*
X-13480Y-21668D1*
X-13559Y-21764D1*
X-13623Y-21816D1*
X-13532Y-21895D1*
X-13458Y-21995D1*
X-13406Y-22109D1*
X-13377Y-22230D1*
X-13371Y-22315D1*
X-13384Y-22439D1*
X-13420Y-22559D1*
X-13480Y-22668D1*
X-13559Y-22764D1*
X-13623Y-22816D1*
X-13532Y-22895D1*
X-13458Y-22995D1*
X-13406Y-23109D1*
X-13377Y-23230D1*
X-13371Y-23315D1*
X-13384Y-23439D1*
X-13420Y-23559D1*
X-13492Y-23683D1*
X-13371Y-23685D1*
Y-24945D1*
X-14632D1*
Y-24110D1*
X-15921D1*
Y-22770D1*
X-15831D1*
X-15883Y-22664D1*
X-15913Y-22543D1*
X-15921Y-22419D1*
X-15905Y-22295D1*
X-15867Y-22176D1*
X-15807Y-22066D1*
X-15728Y-21970D1*
X-15633Y-21889D1*
X-15524Y-21828D1*
X-15406Y-21788D1*
X-15282Y-21771D1*
X-15158Y-21777D1*
X-15036Y-21806D1*
X-14922Y-21857D1*
X-14820Y-21928D1*
X-14717Y-22040D1*
X-14568D1*
X-14512Y-21945D1*
X-14429Y-21852D1*
X-14382Y-21817D1*
X-14484Y-21716D1*
X-15627Y-21711D1*
X-18147Y-21705D1*
X-18046Y-21765D1*
X-17958Y-21853D1*
X-17891Y-21959D1*
X-17852Y-22077D1*
X-17840Y-22188D1*
X-17855Y-22311D1*
X-17897Y-22429D1*
X-17966Y-22533D1*
X-18057Y-22618D1*
X-18165Y-22680D1*
X-18285Y-22715D1*
X-18410Y-22721D1*
X-18532Y-22699D1*
X-18646Y-22649D1*
X-18746Y-22573D1*
X-18825Y-22477D1*
X-18880Y-22365D1*
X-18907Y-22243D1*
X-18906Y-22118D1*
X-18875Y-21997D1*
X-18818Y-21887D1*
X-18736Y-21793D1*
X-18635Y-21720D1*
X-18595Y-21703D1*
X-18647Y-21704D1*
X-18790Y-21795D1*
X-18910Y-21831D1*
X-19035Y-21837D1*
X-19157Y-21815D1*
X-19271Y-21764D1*
X-19371Y-21689D1*
X-19450Y-21593D1*
X-19505Y-21481D1*
X-19532Y-21359D1*
X-19526Y-21215D1*
X-21853D1*
Y-22340D1*
X-22106D1*
X-22103Y-23065D1*
Y-24342D1*
X-22038Y-24413D1*
X-21976Y-24521D1*
X-21938Y-24640D1*
X-21927Y-24753D1*
X-21941Y-24877D1*
X-21981Y-24995D1*
X-22045Y-25102D1*
X-22131Y-25192D1*
X-22235Y-25262D1*
X-22351Y-25307D1*
X-22474Y-25327D1*
X-22573Y-25326D1*
X-22664Y-25418D1*
X-19875Y-25416D1*
X-13309D1*
X-13186Y-25435D1*
X-13073Y-25494D1*
X-12850Y-25710D1*
X-11333Y-27226D1*
X-11198Y-27123D1*
X-11080Y-27068D1*
X-10988Y-27041D1*
X-10803Y-27022D1*
X-10729Y-27038D1*
X-10676Y-27039D1*
X-10603Y-27023D1*
X-10448Y-27035D1*
X-10320Y-27068D1*
X-10152Y-27154D1*
X-10053Y-27239D1*
X-9990Y-27311D1*
X-9967Y-27348D1*
X-8988Y-27350D1*
X-8881Y-27252D1*
X-8973Y-27167D1*
X-9046Y-27065D1*
X-9097Y-26951D1*
X-9125Y-26830D1*
X-9129Y-26705D1*
X-9125Y-26650D1*
X-9395D1*
X-9540Y-26742D1*
X-9660Y-26777D1*
X-9785Y-26784D1*
X-9907Y-26761D1*
X-10021Y-26711D1*
X-10121Y-26636D1*
X-10200Y-26539D1*
X-10255Y-26427D1*
X-10282Y-26306D1*
X-10281Y-26181D1*
X-10250Y-26060D1*
X-10193Y-25949D1*
X-10111Y-25855D1*
X-10010Y-25782D1*
X-9894Y-25735D1*
X-9771Y-25715D1*
X-9647Y-25725D1*
X-9528Y-25763D1*
X-9421Y-25828D1*
X-9396Y-25852D1*
X-9121Y-25850D1*
X-9130Y-25730D1*
X-9114Y-25606D1*
X-9073Y-25488D1*
X-9011Y-25380D1*
X-8928Y-25287D1*
X-8881Y-25252D1*
X-6875Y-24830D2*
X-6901Y-24947D1*
X-6952Y-25061D1*
X-7024Y-25163D1*
X-7116Y-25250D1*
X-7030Y-25330D1*
X-6957Y-25430D1*
X-6904Y-25544D1*
X-6875Y-25665D1*
X-6870Y-25750D1*
X-6882Y-25874D1*
X-6919Y-25993D1*
X-6978Y-26103D1*
X-7058Y-26199D1*
X-7122Y-26251D1*
X-7030Y-26330D1*
X-6957Y-26430D1*
X-6904Y-26544D1*
X-6875Y-26665D1*
X-6870Y-26750D1*
X-6882Y-26874D1*
X-6919Y-26993D1*
X-6978Y-27103D1*
X-7058Y-27199D1*
X-7122Y-27251D1*
X-7014Y-27352D1*
X-6535Y-27350D1*
X-6452Y-27243D1*
X-6299Y-27123D1*
X-6180Y-27068D1*
X-6089Y-27041D1*
X-5903Y-27022D1*
X-5829Y-27038D1*
X-5776Y-27039D1*
X-5704Y-27023D1*
X-5549Y-27035D1*
X-5420Y-27068D1*
X-5253Y-27154D1*
X-5153Y-27239D1*
X-5091Y-27311D1*
X-4997Y-27474D1*
X-4959Y-27600D1*
X-4946Y-27694D1*
X-4955Y-27882D1*
X-4991Y-28008D1*
X-5030Y-28095D1*
X-5100Y-28203D1*
Y-28375D1*
X-5119Y-28498D1*
X-5178Y-28612D1*
X-5394Y-28835D1*
X-5579Y-29020D1*
X-5411Y-29041D1*
X-5320Y-29068D1*
X-5152Y-29154D1*
X-5053Y-29239D1*
X-4990Y-29311D1*
X-4896Y-29474D1*
X-4859Y-29600D1*
X-4845Y-29694D1*
X-4854Y-29882D1*
X-4890Y-30008D1*
X-4930Y-30095D1*
X-4975Y-30164D1*
Y-32000D1*
X-4994Y-32123D1*
X-5053Y-32237D1*
X-5269Y-32460D1*
X-7039Y-34230D1*
X-7038Y-35699D1*
X-6949Y-35842D1*
X-6914Y-35962D1*
X-6906Y-36178D1*
X-6910Y-36447D1*
X-6920Y-36571D1*
X-6963Y-36688D1*
X-7032Y-36792D1*
X-7124Y-36876D1*
X-7233Y-36938D1*
X-7352Y-36972D1*
X-7477Y-36977D1*
X-7599Y-36953D1*
X-7688Y-36913D1*
X-7733Y-36938D1*
X-7852Y-36972D1*
X-7977Y-36977D1*
X-8099Y-36953D1*
X-8160Y-36926D1*
X-8238Y-36963D1*
X-8339Y-36979D1*
X-8586Y-36975D1*
X-8681Y-36946D1*
X-8763Y-36890D1*
X-8904Y-36744D1*
X-8950Y-36656D1*
X-8969Y-36558D1*
X-8966Y-35905D1*
X-8936Y-35810D1*
X-8880Y-35727D1*
X-8735Y-35587D1*
X-8647Y-35540D1*
X-8549Y-35522D1*
X-8289Y-35525D1*
X-8194Y-35554D1*
X-8162Y-35572D1*
X-8067Y-35537D1*
X-7944Y-35521D1*
X-7839Y-35532D1*
X-7837Y-34465D1*
X-10063Y-34462D1*
X-14113Y-34466D1*
X-13994Y-34582D1*
X-13844Y-34782D1*
X-13736Y-35006D1*
X-13672Y-35248D1*
X-13654Y-35461D1*
X-13678Y-35710D1*
X-13748Y-35949D1*
X-13863Y-36171D1*
X-14018Y-36367D1*
X-14207Y-36530D1*
X-14424Y-36653D1*
X-14660Y-36734D1*
X-14908Y-36768D1*
X-15157Y-36754D1*
X-15399Y-36693D1*
X-15625Y-36588D1*
X-15827Y-36441D1*
X-15998Y-36259D1*
X-16130Y-36047D1*
X-16220Y-35814D1*
X-16264Y-35569D1*
X-16261Y-35319D1*
X-16210Y-35075D1*
X-16114Y-34844D1*
X-15976Y-34637D1*
X-15809Y-34467D1*
X-16645Y-34466D1*
X-16792Y-34558D1*
X-16912Y-34593D1*
X-17036Y-34600D1*
X-17159Y-34577D1*
X-17273Y-34527D1*
X-17351Y-34468D1*
X-17974Y-34466D1*
X-17809Y-34483D1*
X-17690Y-34520D1*
X-17581Y-34581D1*
X-17486Y-34661D1*
X-17408Y-34759D1*
X-17351Y-34870D1*
X-17316Y-34990D1*
X-17306Y-35104D1*
X-17310Y-35404D1*
X-17318Y-35528D1*
X-17354Y-35647D1*
X-17413Y-35757D1*
X-17493Y-35854D1*
X-17589Y-35933D1*
X-17700Y-35991D1*
X-17819Y-36027D1*
X-17943Y-36039D1*
X-18068Y-36026D1*
X-18187Y-35989D1*
X-18297Y-35930D1*
X-18393Y-35850D1*
X-18439Y-35792D1*
X-18493Y-35854D1*
X-18589Y-35933D1*
X-18700Y-35991D1*
X-18819Y-36027D1*
X-18943Y-36039D1*
X-19068Y-36026D1*
X-19187Y-35989D1*
X-19297Y-35930D1*
X-19393Y-35850D1*
X-19439Y-35792D1*
X-19493Y-35854D1*
X-19589Y-35933D1*
X-19700Y-35991D1*
X-19819Y-36027D1*
X-19943Y-36039D1*
X-20068Y-36026D1*
X-20187Y-35989D1*
X-20297Y-35930D1*
X-20393Y-35850D1*
X-20439Y-35792D1*
X-20493Y-35854D1*
X-20589Y-35933D1*
X-20700Y-35991D1*
X-20819Y-36027D1*
X-20943Y-36039D1*
X-21068Y-36026D1*
X-21187Y-35989D1*
X-21297Y-35930D1*
X-21393Y-35850D1*
X-21439Y-35792D1*
X-21493Y-35854D1*
X-21589Y-35933D1*
X-21700Y-35991D1*
X-21819Y-36027D1*
X-21943Y-36039D1*
X-22068Y-36026D1*
X-22187Y-35989D1*
X-22297Y-35930D1*
X-22393Y-35850D1*
X-22439Y-35792D1*
X-22493Y-35854D1*
X-22589Y-35933D1*
X-22700Y-35991D1*
X-22819Y-36027D1*
X-22943Y-36039D1*
X-23068Y-36026D1*
X-23187Y-35989D1*
X-23297Y-35930D1*
X-23393Y-35850D1*
X-23471Y-35753D1*
X-23529Y-35643D1*
X-23565Y-35523D1*
X-23576Y-35404D1*
X-23572Y-35104D1*
X-23563Y-34975D1*
X-23540Y-34904D1*
X-24342D1*
X-24316Y-34990D1*
X-24306Y-35104D1*
X-24310Y-35404D1*
X-24318Y-35528D1*
X-24354Y-35647D1*
X-24413Y-35757D1*
X-24493Y-35854D1*
X-24589Y-35933D1*
X-24700Y-35991D1*
X-24819Y-36027D1*
X-24943Y-36039D1*
X-25068Y-36026D1*
X-25187Y-35989D1*
X-25297Y-35930D1*
X-25393Y-35850D1*
X-25439Y-35792D1*
X-25511Y-35871D1*
X-25610Y-35946D1*
X-25723Y-36000D1*
X-25844Y-36031D1*
X-25968Y-36038D1*
X-26092Y-36020D1*
X-26210Y-35979D1*
X-26317Y-35915D1*
X-26410Y-35832D1*
X-26443Y-35798D1*
X-26530Y-35887D1*
X-26632Y-35959D1*
X-26747Y-36008D1*
X-26869Y-36035D1*
X-26993Y-36037D1*
X-27116Y-36014D1*
X-27232Y-35968D1*
X-27337Y-35900D1*
X-27426Y-35813D1*
X-27441Y-35795D1*
X-27493Y-35854D1*
X-27589Y-35933D1*
X-27700Y-35991D1*
X-27819Y-36027D1*
X-27943Y-36039D1*
X-28068Y-36026D1*
X-28187Y-35989D1*
X-28297Y-35930D1*
X-28393Y-35850D1*
X-28439Y-35792D1*
X-28493Y-35854D1*
X-28589Y-35933D1*
X-28700Y-35991D1*
X-28819Y-36027D1*
X-28943Y-36039D1*
X-29068Y-36026D1*
X-29187Y-35989D1*
X-29297Y-35930D1*
X-29393Y-35850D1*
X-29439Y-35792D1*
X-29493Y-35854D1*
X-29589Y-35933D1*
X-29700Y-35991D1*
X-29819Y-36027D1*
X-29943Y-36039D1*
X-30068Y-36026D1*
X-30187Y-35989D1*
X-30297Y-35930D1*
X-30393Y-35850D1*
X-30439Y-35792D1*
X-30493Y-35854D1*
X-30589Y-35933D1*
X-30700Y-35991D1*
X-30819Y-36027D1*
X-30943Y-36039D1*
X-31068Y-36026D1*
X-31187Y-35989D1*
X-31297Y-35930D1*
X-31393Y-35850D1*
X-31439Y-35792D1*
X-31493Y-35854D1*
X-31589Y-35933D1*
X-31700Y-35991D1*
X-31819Y-36027D1*
X-31943Y-36039D1*
X-32068Y-36026D1*
X-32187Y-35989D1*
X-32297Y-35930D1*
X-32393Y-35850D1*
X-32471Y-35753D1*
X-32529Y-35643D1*
X-32565Y-35523D1*
X-32576Y-35404D1*
X-32572Y-35104D1*
X-32563Y-34975D1*
X-32540Y-34904D1*
X-34146D1*
X-34294Y-34996D1*
X-34414Y-35031D1*
X-34538Y-35038D1*
X-34661Y-35015D1*
X-34775Y-34965D1*
X-34874Y-34889D1*
X-34954Y-34793D1*
X-35008Y-34681D1*
X-35036Y-34559D1*
X-35034Y-34435D1*
X-35026Y-34401D1*
X-35148Y-34400D1*
X-35182Y-34430D1*
X-35290Y-34492D1*
X-35410Y-34527D1*
X-35535Y-34534D1*
X-35657Y-34511D1*
X-35771Y-34461D1*
X-35871Y-34386D1*
X-35950Y-34289D1*
X-36005Y-34177D1*
X-36032Y-34056D1*
X-36031Y-33931D1*
X-36000Y-33810D1*
X-35943Y-33699D1*
X-35861Y-33605D1*
X-35826Y-33580D1*
X-37098D1*
X-37165Y-33617D1*
X-37285Y-33652D1*
X-37410Y-33659D1*
X-37532Y-33636D1*
X-37646Y-33586D1*
X-37746Y-33511D1*
X-37825Y-33414D1*
X-37880Y-33302D1*
X-37907Y-33181D1*
X-37906Y-33056D1*
X-37875Y-32935D1*
X-37818Y-32824D1*
X-37736Y-32730D1*
X-37635Y-32657D1*
X-37519Y-32610D1*
X-37396Y-32590D1*
X-37272Y-32600D1*
X-37153Y-32638D1*
X-37103Y-32669D1*
X-35535Y-32670D1*
X-35531Y-32556D1*
X-35500Y-32435D1*
X-35443Y-32324D1*
X-35339Y-32214D1*
X-35746Y-32212D1*
X-35745Y-32505D1*
X-37005D1*
Y-32384D1*
X-37141Y-32460D1*
X-37261Y-32495D1*
X-37385Y-32505D1*
X-37509Y-32491D1*
X-37628Y-32452D1*
X-37736Y-32391D1*
X-37831Y-32310D1*
X-37908Y-32212D1*
X-37964Y-32100D1*
X-37997Y-31980D1*
X-38005Y-31855D1*
X-37989Y-31731D1*
X-37948Y-31613D1*
X-37886Y-31505D1*
X-37803Y-31412D1*
X-37756Y-31377D1*
X-37858Y-31276D1*
X-37998Y-31256D1*
X-38112Y-31197D1*
X-38335Y-30981D1*
X-38408Y-30908D1*
X-38481Y-30807D1*
X-38520Y-30685D1*
X-38525Y-30375D1*
Y-29563D1*
X-38506Y-29440D1*
X-38447Y-29326D1*
X-38231Y-29103D1*
X-37783Y-28655D1*
X-37682Y-28581D1*
X-37560Y-28543D1*
X-37250Y-28538D1*
X-34074D1*
X-34095Y-28431D1*
X-34093Y-28306D1*
X-34063Y-28185D1*
X-34005Y-28074D1*
X-33923Y-27980D1*
X-33822Y-27907D1*
X-33707Y-27860D1*
X-33584Y-27840D1*
X-33459Y-27850D1*
X-33341Y-27888D1*
X-33234Y-27953D1*
X-33209Y-27977D1*
X-32188Y-27975D1*
X-31215D1*
X-31283Y-27908D1*
X-31356Y-27807D1*
X-31395Y-27685D1*
X-31400Y-27512D1*
X-31521Y-27389D1*
X-31585Y-27282D1*
X-31629Y-27165D1*
X-31649Y-27042D1*
X-31645Y-26917D1*
X-31617Y-26795D1*
X-31566Y-26681D1*
X-31495Y-26579D1*
X-31405Y-26492D1*
X-31301Y-26424D1*
X-31185Y-26377D1*
X-31063Y-26353D1*
X-30938D1*
X-30815Y-26377D1*
X-30700Y-26424D1*
X-30595Y-26492D1*
X-30499Y-26588D1*
X-30405Y-26492D1*
X-30301Y-26424D1*
X-30185Y-26377D1*
X-30063Y-26353D1*
X-29938D1*
X-29815Y-26377D1*
X-29700Y-26424D1*
X-29595Y-26492D1*
X-29499Y-26588D1*
X-29405Y-26492D1*
X-29301Y-26424D1*
X-29185Y-26377D1*
X-29063Y-26353D1*
X-28938D1*
X-28815Y-26377D1*
X-28700Y-26424D1*
X-28595Y-26492D1*
X-28499Y-26588D1*
X-28405Y-26492D1*
X-28301Y-26424D1*
X-28185Y-26377D1*
X-28063Y-26353D1*
X-27938D1*
X-27815Y-26377D1*
X-27700Y-26424D1*
X-27595Y-26492D1*
X-27499Y-26588D1*
X-27405Y-26492D1*
X-27301Y-26424D1*
X-27185Y-26377D1*
X-27063Y-26353D1*
X-26938D1*
X-26815Y-26377D1*
X-26700Y-26424D1*
X-26595Y-26492D1*
X-26499Y-26588D1*
X-26405Y-26492D1*
X-26301Y-26424D1*
X-26185Y-26377D1*
X-26063Y-26353D1*
X-25938D1*
X-25815Y-26377D1*
X-25700Y-26424D1*
X-25595Y-26492D1*
X-25499Y-26588D1*
X-25461Y-26542D1*
X-25365Y-26462D1*
X-25256Y-26402D1*
X-25137Y-26365D1*
X-25013Y-26350D1*
X-24888Y-26360D1*
X-24768Y-26393D1*
X-24656Y-26448D1*
X-24557Y-26524D1*
X-24500Y-26585D1*
X-24405Y-26492D1*
X-24301Y-26424D1*
X-24185Y-26377D1*
X-24057Y-26351D1*
X-23921Y-26215D1*
X-30141Y-26216D1*
X-30290Y-26308D1*
X-30410Y-26343D1*
X-30535Y-26350D1*
X-30657Y-26327D1*
X-30771Y-26277D1*
X-30871Y-26201D1*
X-30950Y-26105D1*
X-31005Y-25993D1*
X-31032Y-25871D1*
X-31031Y-25747D1*
X-31000Y-25626D1*
X-30943Y-25515D1*
X-30861Y-25421D1*
X-30760Y-25348D1*
X-30644Y-25301D1*
X-30521Y-25281D1*
X-30397Y-25291D1*
X-30278Y-25329D1*
X-30171Y-25394D1*
X-30146Y-25418D1*
X-29125Y-25416D1*
X-26590D1*
X-26596Y-25246D1*
X-26587Y-25212D1*
X-26682Y-25245D1*
X-26790Y-25307D1*
X-26910Y-25342D1*
X-27035Y-25349D1*
X-27157Y-25326D1*
X-27271Y-25276D1*
X-27371Y-25201D1*
X-27450Y-25104D1*
X-27505Y-24992D1*
X-27532Y-24871D1*
X-27531Y-24746D1*
X-27500Y-24625D1*
X-27443Y-24514D1*
X-27361Y-24420D1*
X-27260Y-24347D1*
X-27144Y-24300D1*
X-27021Y-24281D1*
X-26897Y-24290D1*
X-26778Y-24328D1*
X-26671Y-24393D1*
X-26646Y-24418D1*
X-25625Y-24415D1*
X-24871D1*
X-24815Y-24352D1*
X-24718Y-24272D1*
X-24607Y-24215D1*
X-24487Y-24184D1*
X-24362Y-24179D1*
X-24239Y-24201D1*
X-24124Y-24249D1*
X-24022Y-24321D1*
X-23938Y-24413D1*
X-23876Y-24521D1*
X-23838Y-24640D1*
X-23827Y-24753D1*
X-23841Y-24877D1*
X-23855Y-24917D1*
X-23296Y-24915D1*
X-23076Y-24698D1*
X-23045Y-24563D1*
X-22991Y-24450D1*
X-22900Y-24339D1*
X-22902Y-23311D1*
X-22944Y-23398D1*
X-23018Y-23499D1*
X-23110Y-23583D1*
X-23217Y-23649D1*
X-23333Y-23693D1*
X-23457Y-23713D1*
X-23581Y-23710D1*
X-23703Y-23683D1*
X-23818Y-23633D1*
X-23853Y-23612D1*
Y-23715D1*
X-25152D1*
Y-22415D1*
X-23853D1*
X-23847Y-22514D1*
X-23735Y-22458D1*
X-23615Y-22425D1*
X-23490Y-22415D1*
X-23366Y-22429D1*
X-23247Y-22467D1*
X-23138Y-22527D1*
X-23042Y-22606D1*
X-22963Y-22703D1*
X-22902Y-22815D1*
Y-22342D1*
X-23152Y-22340D1*
Y-22234D1*
X-23239Y-22284D1*
X-23358Y-22323D1*
X-23482Y-22339D1*
X-23606Y-22331D1*
X-23727Y-22300D1*
X-23839Y-22246D1*
X-23939Y-22171D1*
X-24023Y-22079D1*
X-24088Y-21972D1*
X-24131Y-21855D1*
X-24151Y-21732D1*
X-24147Y-21607D1*
X-24119Y-21485D1*
X-24069Y-21371D1*
X-24049Y-21338D1*
X-24212Y-21276D1*
X-24290Y-21217D1*
X-25691Y-21215D1*
X-27046D1*
X-27016Y-21271D1*
X-26977Y-21389D1*
X-26965Y-21500D1*
X-26980Y-21624D1*
X-27022Y-21741D1*
X-27091Y-21845D1*
X-27192Y-21936D1*
X-27083Y-22040D1*
X-27016Y-22146D1*
X-26977Y-22264D1*
X-26965Y-22375D1*
X-26980Y-22499D1*
X-27022Y-22616D1*
X-27091Y-22720D1*
X-27182Y-22805D1*
X-27290Y-22867D1*
X-27410Y-22902D1*
X-27535Y-22909D1*
X-27657Y-22886D1*
X-27771Y-22836D1*
X-27849Y-22777D1*
X-29250Y-22775D1*
X-31145D1*
X-31290Y-22867D1*
X-31410Y-22902D1*
X-31535Y-22909D1*
X-31657Y-22886D1*
X-31771Y-22836D1*
X-31871Y-22761D1*
X-31950Y-22664D1*
X-32005Y-22552D1*
X-32032Y-22431D1*
X-32031Y-22306D1*
X-32000Y-22185D1*
X-31977Y-22140D1*
X-32035Y-22152D1*
X-32160Y-22159D1*
X-32282Y-22136D1*
X-32396Y-22086D1*
X-32496Y-22011D1*
X-32575Y-21914D1*
X-32630Y-21802D1*
X-32657Y-21681D1*
X-32656Y-21556D1*
X-32625Y-21435D1*
X-32568Y-21324D1*
X-32486Y-21230D1*
X-32385Y-21157D1*
X-32269Y-21110D1*
X-32146Y-21090D1*
X-32022Y-21100D1*
X-31903Y-21138D1*
X-31796Y-21203D1*
X-31771Y-21227D1*
X-30750Y-21225D1*
X-29348D1*
X-29453Y-21104D1*
X-29508Y-20992D1*
X-29535Y-20870D1*
X-29534Y-20746D1*
X-29503Y-20625D1*
X-29446Y-20514D1*
X-29364Y-20420D1*
X-29263Y-20347D1*
X-29147Y-20300D1*
X-29024Y-20280D1*
X-28900Y-20290D1*
X-28781Y-20328D1*
X-28674Y-20393D1*
X-28649Y-20417D1*
X-28491Y-20415D1*
X-28535Y-20245D1*
X-28533Y-20121D1*
X-28503Y-20000D1*
X-28483Y-19962D1*
X-29127Y-19965D1*
X-33709D1*
X-33856Y-20057D1*
X-33976Y-20092D1*
X-34101Y-20098D1*
X-34223Y-20076D1*
X-34337Y-20026D1*
X-34437Y-19950D1*
X-34516Y-19854D1*
X-34571Y-19742D1*
X-34598Y-19620D1*
X-34597Y-19495D1*
X-34566Y-19375D1*
X-34509Y-19264D1*
X-34427Y-19170D1*
X-34326Y-19097D1*
X-34210Y-19049D1*
X-34087Y-19030D1*
X-33963Y-19040D1*
X-33844Y-19078D1*
X-33737Y-19142D1*
X-33712Y-19167D1*
X-32691Y-19165D1*
X-30950Y-19164D1*
X-31005Y-19052D1*
X-31032Y-18931D1*
X-31031Y-18806D1*
X-31001Y-18689D1*
X-31075Y-18602D1*
X-31130Y-18490D1*
X-31157Y-18368D1*
X-31156Y-18243D1*
X-31125Y-18122D1*
X-31068Y-18012D1*
X-30986Y-17918D1*
X-30885Y-17845D1*
X-30769Y-17797D1*
X-30646Y-17778D1*
X-30522Y-17788D1*
X-30403Y-17826D1*
X-30296Y-17890D1*
X-30271Y-17915D1*
X-29250Y-17913D1*
X-28855D1*
X-28760Y-17845D1*
X-28644Y-17797D1*
X-28521Y-17778D1*
X-28397Y-17788D1*
X-28278Y-17826D1*
X-28171Y-17890D1*
X-28083Y-17978D1*
X-28016Y-18084D1*
X-27977Y-18202D1*
X-27968Y-18340D1*
X-27897Y-18350D1*
X-27778Y-18388D1*
X-27671Y-18453D1*
X-27583Y-18540D1*
X-27516Y-18646D1*
X-27477Y-18764D1*
X-27465Y-18875D1*
X-27480Y-18999D1*
X-27522Y-19116D1*
X-27555Y-19165D1*
X-19859D1*
X-19762Y-19097D1*
X-19646Y-19049D1*
X-19523Y-19030D1*
X-19399Y-19040D1*
X-19280Y-19078D1*
X-19173Y-19142D1*
X-19085Y-19230D1*
X-19018Y-19336D1*
X-18979Y-19454D1*
X-18967Y-19565D1*
X-18982Y-19688D1*
X-19024Y-19806D1*
X-19065Y-19867D1*
X-17000Y-19865D1*
X-14441D1*
X-14382Y-19817D1*
X-14489Y-19710D1*
X-15504Y-19712D1*
X-16586D1*
X-16620Y-19743D1*
X-16728Y-19805D1*
X-16848Y-19840D1*
X-16972Y-19846D1*
X-17095Y-19824D1*
X-17209Y-19774D1*
X-17308Y-19698D1*
X-17387Y-19602D1*
X-17442Y-19490D1*
X-17470Y-19368D1*
X-17468Y-19243D1*
X-17438Y-19122D1*
X-17380Y-19012D1*
X-17298Y-18918D1*
X-17197Y-18845D1*
X-17082Y-18797D1*
X-16959Y-18778D1*
X-16834Y-18788D1*
X-16716Y-18826D1*
X-16609Y-18890D1*
X-16584Y-18915D1*
X-15563Y-18913D1*
X-14488D1*
X-14429Y-18852D1*
X-14330Y-18777D1*
X-14217Y-18723D1*
X-14096Y-18692D1*
X-13972Y-18685D1*
X-13848Y-18704D1*
X-13731Y-18746D1*
X-13624Y-18810D1*
X-13532Y-18895D1*
X-13458Y-18995D1*
X-13406Y-19109D1*
X-13377Y-19230D1*
X-13371Y-19315D1*
X-13384Y-19439D1*
X-13420Y-19559D1*
X-13480Y-19668D1*
X-13559Y-19764D1*
X-13623Y-19816D1*
X-13532Y-19895D1*
X-13458Y-19995D1*
X-13406Y-20109D1*
X-13377Y-20230D1*
X-13371Y-20315D1*
X-13381Y-20412D1*
X-12066Y-20415D1*
X-8046D1*
X-7924Y-20348D1*
X-7808Y-20314D1*
X-7884Y-20303D1*
X-8003Y-20265D1*
X-8111Y-20204D1*
X-8206Y-20122D1*
X-8247Y-20070D1*
X-8308Y-20137D1*
X-8405Y-20215D1*
X-8516Y-20273D1*
X-8636Y-20307D1*
X-8760Y-20318D1*
X-8884Y-20303D1*
X-9003Y-20265D1*
X-9111Y-20204D1*
X-9206Y-20122D1*
X-9283Y-20024D1*
X-9339Y-19913D1*
X-9372Y-19792D1*
X-9380Y-19668D1*
X-9364Y-19544D1*
X-9323Y-19426D1*
X-9261Y-19318D1*
X-9178Y-19225D1*
X-9078Y-19149D1*
X-8966Y-19095D1*
X-8845Y-19064D1*
X-8720Y-19058D1*
X-8597Y-19076D1*
X-8479Y-19118D1*
X-8372Y-19183D1*
X-8280Y-19267D1*
X-8250Y-19308D1*
X-8178Y-19225D1*
X-8078Y-19149D1*
X-7966Y-19095D1*
X-7845Y-19064D1*
X-7720Y-19058D1*
X-7597Y-19076D1*
X-7479Y-19118D1*
X-7382Y-19177D1*
X-7380Y-19057D1*
X-7204D1*
X-7205Y-18879D1*
X-7380Y-18880D1*
Y-18759D1*
X-7516Y-18835D1*
X-7636Y-18870D1*
X-7760Y-18880D1*
X-7884Y-18866D1*
X-8003Y-18827D1*
X-8111Y-18766D1*
X-8206Y-18685D1*
X-8283Y-18587D1*
X-8339Y-18475D1*
X-8366Y-18373D1*
X-12020Y-18375D1*
X-12002Y-18450D1*
X-11991Y-18564D1*
X-12004Y-18689D1*
X-12040Y-18808D1*
X-12099Y-18918D1*
X-12178Y-19014D1*
X-12275Y-19093D1*
X-12385Y-19152D1*
X-12505Y-19188D1*
X-12629Y-19199D1*
X-12753Y-19187D1*
X-12872Y-19150D1*
X-12982Y-19090D1*
X-13078Y-19011D1*
X-13157Y-18914D1*
X-13215Y-18803D1*
X-13250Y-18684D1*
X-13261Y-18559D1*
X-13248Y-18435D1*
X-13211Y-18316D1*
X-13151Y-18207D1*
X-13071Y-18111D1*
X-12974Y-18033D1*
X-12863Y-17975D1*
X-12743Y-17940D1*
X-12623Y-17930D1*
X-12625Y-16500D1*
Y1875D1*
X-18809D1*
X-18807Y682D1*
X-20068D1*
Y803D1*
X-20203Y727D1*
X-20323Y693D1*
X-20447Y682D1*
X-20571Y697D1*
X-20690Y735D1*
X-20799Y796D1*
X-20894Y878D1*
X-20970Y976D1*
X-21026Y1087D1*
X-21059Y1208D1*
X-21067Y1332D1*
X-21051Y1456D1*
X-21011Y1574D1*
X-20948Y1682D1*
X-20865Y1775D1*
X-20766Y1851D1*
X-20713Y1876D1*
X-46250Y1875D1*
Y785D1*
X-46059Y901D1*
X-45943Y947D1*
X-45821Y977D1*
X-45697Y991D1*
X-45572Y989D1*
X-45449Y971D1*
X-45329Y937D1*
X-45214Y888D1*
X-45106Y824D1*
X-45008Y747D1*
X-44920Y658D1*
X-44845Y559D1*
X-44783Y450D1*
X-44736Y335D1*
X-44704Y214D1*
X-44685Y27D1*
X-44693Y-97D1*
X-44718Y-220D1*
X-44757Y-338D1*
X-44812Y-451D1*
X-44881Y-555D1*
X-44962Y-650D1*
X-45056Y-733D1*
X-45159Y-803D1*
X-45270Y-860D1*
X-45388Y-901D1*
X-45510Y-928D1*
X-45635Y-938D1*
X-45759Y-932D1*
X-45882Y-909D1*
X-46001Y-872D1*
X-46114Y-819D1*
X-46253Y-724D1*
X-46250Y-1500D1*
Y-34652D1*
X-46168Y-34592D1*
X-46059Y-34532D1*
X-45943Y-34486D1*
X-45821Y-34456D1*
X-45697Y-34442D1*
X-45572Y-34444D1*
X-45449Y-34462D1*
X-45329Y-34496D1*
X-45214Y-34545D1*
X-45106Y-34609D1*
X-45008Y-34686D1*
X-44920Y-34775D1*
X-44845Y-34874D1*
X-44783Y-34983D1*
X-44736Y-35099D1*
X-44704Y-35219D1*
X-44685Y-35406D1*
X-44693Y-35531D1*
X-44718Y-35653D1*
X-44757Y-35772D1*
X-44812Y-35884D1*
X-44881Y-35988D1*
X-44962Y-36083D1*
X-45056Y-36166D1*
X-45159Y-36236D1*
X-45270Y-36293D1*
X-45388Y-36334D1*
X-45510Y-36361D1*
X-45635Y-36371D1*
X-45759Y-36365D1*
X-45882Y-36343D1*
X-46001Y-36305D1*
X-46114Y-36252D1*
X-46253Y-36157D1*
X-46250Y-37309D1*
X-46169Y-37249D1*
X-46059Y-37189D1*
X-45943Y-37143D1*
X-45822Y-37113D1*
X-45697Y-37099D1*
X-45573Y-37101D1*
X-45449Y-37119D1*
X-45329Y-37153D1*
X-45214Y-37202D1*
X-45106Y-37265D1*
X-45008Y-37342D1*
X-44920Y-37431D1*
X-44845Y-37531D1*
X-44783Y-37639D1*
X-44735Y-37755D1*
X-44703Y-37875D1*
X-44685Y-38063D1*
X-44693Y-38187D1*
X-44741Y-38380D1*
X-43250Y-38379D1*
X-887Y-38436D1*
X-924Y-38340D1*
X-952Y-38218D1*
X-964Y-38094D1*
X-960Y-37969D1*
X-940Y-37846D1*
X-905Y-37726D1*
X-854Y-37612D1*
X-788Y-37506D1*
X-710Y-37409D1*
X-619Y-37322D1*
X-519Y-37249D1*
X-409Y-37189D1*
X-293Y-37143D1*
X-172Y-37113D1*
X-47Y-37099D1*
X77Y-37101D1*
X250Y-37132D1*
Y-36340D1*
X36Y-36368D1*
X-89Y-36362D1*
X-212Y-36339D1*
X-331Y-36302D1*
X-444Y-36249D1*
X-549Y-36182D1*
X-645Y-36102D1*
X-730Y-36010D1*
X-802Y-35908D1*
X-860Y-35797D1*
X-904Y-35680D1*
X-932Y-35559D1*
X-944Y-35434D1*
X-940Y-35309D1*
X-920Y-35186D1*
X-884Y-35066D1*
X-833Y-34952D1*
X-768Y-34846D1*
X-689Y-34749D1*
X-599Y-34663D1*
X-498Y-34589D1*
X-388Y-34529D1*
X-272Y-34483D1*
X-151Y-34453D1*
X-27Y-34439D1*
X98Y-34441D1*
X248Y-34467D1*
X250Y-31563D1*
Y-18375D1*
X-660D1*
X-629Y-18452D1*
X-602Y-18625D1*
X-616Y-18749D1*
X-655Y-18867D1*
X-719Y-18975D1*
X-772Y-19040D1*
X-602D1*
Y-20210D1*
X-1772D1*
Y-19040D1*
X-1597D1*
X-1678Y-18944D1*
X-1734Y-18833D1*
X-1766Y-18713D1*
X-1771Y-18588D1*
X-1750Y-18465D1*
X-1714Y-18375D1*
X-2919D1*
Y-19691D1*
X-2169Y-20438D1*
X-1991Y-20616D1*
X-1916Y-20715D1*
X-1870Y-20835D1*
X-1858Y-20937D1*
Y-25996D1*
X-1508Y-26349D1*
X-850Y-26350D1*
Y-27650D1*
X-2150D1*
Y-26990D1*
X-2634Y-26509D1*
X-2710Y-26410D1*
X-2756Y-26290D1*
X-2734Y-26358D1*
X-2870Y-26255D1*
X-3755D1*
Y-26134D1*
X-3891Y-26210D1*
X-4011Y-26245D1*
X-4135Y-26255D1*
X-4259Y-26241D1*
X-4378Y-26202D1*
X-4486Y-26141D1*
X-4581Y-26060D1*
X-4658Y-25962D1*
X-4714Y-25850D1*
X-4747Y-25730D1*
X-4753Y-25640D1*
X-5565Y-24828D1*
X-6871Y-24830D1*
X-8882Y-28249D2*
X-8983Y-28151D1*
X-9965Y-28150D1*
X-10048Y-28257D1*
X-10201Y-28377D1*
X-10320Y-28432D1*
X-10411Y-28459D1*
X-10597Y-28478D1*
X-10671Y-28462D1*
X-10724Y-28461D1*
X-10796Y-28477D1*
X-10951Y-28465D1*
X-11080Y-28432D1*
X-11247Y-28346D1*
X-11347Y-28261D1*
X-11409Y-28189D1*
X-11438Y-28144D1*
X-11498Y-28131D1*
X-11612Y-28072D1*
X-11835Y-27856D1*
X-11996Y-27702D1*
X-12023Y-27824D1*
X-12073Y-27938D1*
X-12144Y-28041D1*
X-12234Y-28127D1*
X-12340Y-28194D1*
X-12456Y-28239D1*
X-12579Y-28261D1*
X-12704Y-28258D1*
X-12825Y-28230D1*
X-12940Y-28180D1*
X-13042Y-28108D1*
X-13127Y-28017D1*
X-13184Y-27932D1*
X-13290Y-27992D1*
X-13410Y-28027D1*
X-13535Y-28034D1*
X-13657Y-28011D1*
X-13771Y-27961D1*
X-13871Y-27886D1*
X-13950Y-27789D1*
X-14000Y-27688D1*
X-14022Y-27741D1*
X-14091Y-27845D1*
X-14182Y-27930D1*
X-14290Y-27992D1*
X-14410Y-28027D1*
X-14535Y-28034D1*
X-14657Y-28011D1*
X-14771Y-27961D1*
X-14871Y-27886D1*
X-14950Y-27789D1*
X-15005Y-27677D1*
X-15032Y-27556D1*
X-15031Y-27431D1*
X-15000Y-27310D1*
X-14943Y-27199D1*
X-14861Y-27105D1*
X-14760Y-27032D1*
X-14644Y-26985D1*
X-14521Y-26965D1*
X-14397Y-26975D1*
X-14278Y-27013D1*
X-14171Y-27078D1*
X-14083Y-27165D1*
X-14016Y-27271D1*
X-14003Y-27312D1*
X-13943Y-27199D1*
X-13861Y-27105D1*
X-13760Y-27032D1*
X-13644Y-26985D1*
X-13521Y-26965D1*
X-13397Y-26975D1*
X-13278Y-27013D1*
X-13171Y-27078D1*
X-13076Y-27175D1*
X-12974Y-27096D1*
X-12863Y-27038D1*
X-12743Y-27003D1*
X-12694Y-26996D1*
X-13473Y-26218D1*
X-15309Y-26216D1*
X-15540D1*
X-15528Y-26313D1*
X-15542Y-26436D1*
X-15585Y-26554D1*
X-15654Y-26658D1*
X-15745Y-26743D1*
X-15853Y-26805D1*
X-15973Y-26840D1*
X-16097Y-26846D1*
X-16220Y-26824D1*
X-16343Y-26766D1*
X-17348Y-26768D1*
X-17350Y-27650D1*
X-18650D1*
Y-27544D1*
X-18737Y-27594D1*
X-18855Y-27634D1*
X-18979Y-27650D1*
X-19104Y-27642D1*
X-19224Y-27610D1*
X-19337Y-27556D1*
X-19437Y-27481D1*
X-19497Y-27415D1*
X-19628Y-27533D1*
X-19737Y-27594D1*
X-19855Y-27634D1*
X-19979Y-27650D1*
X-20104Y-27642D1*
X-20224Y-27610D1*
X-20337Y-27556D1*
X-20437Y-27481D1*
X-20497Y-27415D1*
X-20628Y-27533D1*
X-20737Y-27594D1*
X-20855Y-27634D1*
X-20979Y-27650D1*
X-21104Y-27642D1*
X-21224Y-27610D1*
X-21337Y-27556D1*
X-21437Y-27481D1*
X-21497Y-27415D1*
X-21628Y-27533D1*
X-21737Y-27594D1*
X-21855Y-27634D1*
X-21979Y-27650D1*
X-22104Y-27642D1*
X-22224Y-27610D1*
X-22337Y-27556D1*
X-22437Y-27481D1*
X-22497Y-27415D1*
X-22628Y-27533D1*
X-22737Y-27594D1*
X-22855Y-27634D1*
X-22979Y-27650D1*
X-23104Y-27642D1*
X-23224Y-27610D1*
X-23337Y-27556D1*
X-23437Y-27481D1*
X-23497Y-27415D1*
X-23628Y-27533D1*
X-23737Y-27594D1*
X-23855Y-27634D1*
X-23979Y-27650D1*
X-24104Y-27642D1*
X-24224Y-27610D1*
X-24337Y-27556D1*
X-24437Y-27481D1*
X-24497Y-27415D1*
X-24608Y-27518D1*
X-24714Y-27584D1*
X-24831Y-27628D1*
X-24954Y-27648D1*
X-25079Y-27645D1*
X-25201Y-27618D1*
X-25315Y-27568D1*
X-25418Y-27498D1*
X-25500Y-27415D1*
X-25628Y-27533D1*
X-25737Y-27594D1*
X-25855Y-27634D1*
X-25991Y-27649D1*
X-25968Y-27815D1*
X-25982Y-27939D1*
X-25994Y-27972D1*
X-25355Y-27975D1*
X-25260Y-27907D1*
X-25144Y-27860D1*
X-25021Y-27840D1*
X-24897Y-27850D1*
X-24778Y-27888D1*
X-24671Y-27953D1*
X-24583Y-28040D1*
X-24516Y-28146D1*
X-24477Y-28264D1*
X-24465Y-28375D1*
X-24480Y-28499D1*
X-24522Y-28616D1*
X-24591Y-28720D1*
X-24682Y-28805D1*
X-24790Y-28867D1*
X-24910Y-28902D1*
X-25035Y-28909D1*
X-25157Y-28886D1*
X-25271Y-28836D1*
X-25349Y-28777D1*
X-26750Y-28775D1*
X-29035D1*
X-28717Y-29092D1*
X-28644Y-29193D1*
X-28605Y-29315D1*
X-28600Y-29488D1*
X-28499Y-29588D1*
X-28405Y-29492D1*
X-28301Y-29424D1*
X-28185Y-29377D1*
X-28063Y-29353D1*
X-27938D1*
X-27815Y-29377D1*
X-27700Y-29424D1*
X-27595Y-29492D1*
X-27499Y-29588D1*
X-27405Y-29492D1*
X-27301Y-29424D1*
X-27185Y-29377D1*
X-27063Y-29353D1*
X-26938D1*
X-26815Y-29377D1*
X-26700Y-29424D1*
X-26595Y-29492D1*
X-26499Y-29588D1*
X-26405Y-29492D1*
X-26301Y-29424D1*
X-26185Y-29377D1*
X-26063Y-29353D1*
X-25938D1*
X-25815Y-29377D1*
X-25700Y-29424D1*
X-25595Y-29492D1*
X-25499Y-29588D1*
X-25405Y-29492D1*
X-25301Y-29424D1*
X-25185Y-29377D1*
X-25063Y-29353D1*
X-24938D1*
X-24815Y-29377D1*
X-24700Y-29424D1*
X-24595Y-29492D1*
X-24499Y-29588D1*
X-24461Y-29542D1*
X-24365Y-29462D1*
X-24256Y-29402D1*
X-24137Y-29365D1*
X-24013Y-29350D1*
X-23888Y-29360D1*
X-23768Y-29393D1*
X-23656Y-29448D1*
X-23557Y-29524D1*
X-23500Y-29585D1*
X-23405Y-29492D1*
X-23301Y-29424D1*
X-23185Y-29377D1*
X-23063Y-29353D1*
X-22938D1*
X-22815Y-29377D1*
X-22700Y-29424D1*
X-22595Y-29492D1*
X-22499Y-29588D1*
X-22405Y-29492D1*
X-22301Y-29424D1*
X-22185Y-29377D1*
X-22063Y-29353D1*
X-21938D1*
X-21815Y-29377D1*
X-21700Y-29424D1*
X-21595Y-29492D1*
X-21499Y-29588D1*
X-21405Y-29492D1*
X-21301Y-29424D1*
X-21185Y-29377D1*
X-21063Y-29353D1*
X-20938D1*
X-20815Y-29377D1*
X-20700Y-29424D1*
X-20595Y-29492D1*
X-20499Y-29588D1*
X-20405Y-29492D1*
X-20301Y-29424D1*
X-20185Y-29377D1*
X-20063Y-29353D1*
X-19938D1*
X-19815Y-29377D1*
X-19700Y-29424D1*
X-19595Y-29492D1*
X-19499Y-29588D1*
X-19402Y-29490D1*
X-19381Y-29316D1*
X-19322Y-29202D1*
X-19106Y-28979D1*
X-18994Y-28894D1*
X-18871Y-28855D1*
X-18561Y-28850D1*
X-11729D1*
X-11635Y-28782D1*
X-11519Y-28735D1*
X-11396Y-28715D1*
X-11272Y-28725D1*
X-11153Y-28763D1*
X-11046Y-28828D1*
X-10958Y-28915D1*
X-10891Y-29021D1*
X-10852Y-29139D1*
X-10840Y-29250D1*
X-10855Y-29374D1*
X-10888Y-29465D1*
X-10772Y-29475D1*
X-10713Y-29489D1*
X-10749Y-29369D1*
X-10760Y-29245D1*
X-10747Y-29121D1*
X-10709Y-29002D1*
X-10650Y-28892D1*
X-10569Y-28797D1*
X-10472Y-28718D1*
X-10362Y-28661D1*
X-10242Y-28626D1*
X-10183Y-28621D1*
X-10033Y-28467D1*
X-9932Y-28394D1*
X-9810Y-28355D1*
X-9500Y-28350D1*
X-8988D1*
X-8881Y-28252D1*
X-7015Y-28148D2*
X-7058Y-28199D1*
X-7122Y-28251D1*
X-7065Y-28294D1*
X-6984Y-28388D1*
X-6923Y-28497D1*
X-6884Y-28616D1*
X-6870Y-28750D1*
X-6875Y-28850D1*
X-6543D1*
X-6141Y-28451D1*
X-6282Y-28386D1*
X-6362Y-28334D1*
X-6499Y-28204D1*
X-6533Y-28152D1*
X-7012Y-28150D1*
X-7015Y-30148D2*
X-7058Y-30199D1*
X-7155Y-30277D1*
X-7266Y-30335D1*
X-7386Y-30370D1*
X-7510Y-30380D1*
X-7600Y-30375D1*
Y-31750D1*
X-7619Y-31873D1*
X-7678Y-31987D1*
X-7894Y-32210D1*
X-8217Y-32533D1*
X-8318Y-32606D1*
X-8440Y-32645D1*
X-8750Y-32650D1*
X-9918D1*
X-9807Y-32700D1*
X-9706Y-32773D1*
X-9621Y-32864D1*
X-9555Y-32970D1*
X-9511Y-33087D1*
X-9491Y-33210D1*
X-9494Y-33325D1*
X-9521Y-33447D1*
X-9571Y-33561D1*
X-9642Y-33663D1*
X-7605D1*
X-5773Y-31832D1*
X-5775Y-30473D1*
X-5877Y-30475D1*
X-6063Y-30440D1*
X-6182Y-30386D1*
X-6262Y-30334D1*
X-6398Y-30204D1*
X-6433Y-30152D1*
X-7013Y-30150D1*
X-42206Y-1015D2*
X-42231Y-1138D1*
X-42272Y-1255D1*
X-42329Y-1367D1*
X-42399Y-1470D1*
X-42483Y-1563D1*
X-42579Y-1643D1*
X-42684Y-1710D1*
X-42797Y-1763D1*
X-42916Y-1800D1*
X-43040Y-1821D1*
X-43164Y-1825D1*
X-43289Y-1812D1*
X-43410Y-1783D1*
X-43527Y-1739D1*
X-43636Y-1679D1*
X-43737Y-1604D1*
X-43827Y-1518D1*
X-43904Y-1420D1*
X-43968Y-1312D1*
X-44016Y-1197D1*
X-44049Y-1077D1*
X-44066Y-953D1*
Y-828D1*
X-44049Y-704D1*
X-44016Y-584D1*
X-43968Y-469D1*
X-43904Y-361D1*
X-43826Y-263D1*
X-43737Y-176D1*
X-43636Y-102D1*
X-43527Y-42D1*
X-43410Y3D1*
X-43288Y32D1*
X-43164Y44D1*
X-43039Y40D1*
X-42916Y19D1*
X-42797Y-18D1*
X-42684Y-71D1*
X-42578Y-138D1*
X-42483Y-219D1*
X-42399Y-311D1*
X-42329Y-414D1*
X-42272Y-526D1*
X-42231Y-644D1*
X-42206Y-766D1*
X-42198Y-890D1*
X-42206Y-1015D1*
X-18928Y-13249D2*
X-18968Y-13367D1*
X-19031Y-13475D1*
X-19085Y-13540D1*
X-18915D1*
Y-14710D1*
X-20085D1*
Y-13540D1*
X-19912D1*
X-19990Y-13444D1*
X-20047Y-13333D1*
X-20078Y-13213D1*
X-20084Y-13088D1*
X-20063Y-12965D1*
X-20016Y-12849D1*
X-19946Y-12746D1*
X-19855Y-12660D1*
X-19749Y-12595D1*
X-19631Y-12555D1*
X-19507Y-12540D1*
X-19383Y-12552D1*
X-19264Y-12590D1*
X-19156Y-12652D1*
X-19063Y-12736D1*
X-18991Y-12837D1*
X-18941Y-12952D1*
X-18915Y-13125D1*
X-18928Y-13249D1*
X-22116D2*
X-22155Y-13367D1*
X-22219Y-13475D1*
X-22272Y-13540D1*
X-22102D1*
Y-14710D1*
X-23272D1*
Y-13540D1*
X-23097D1*
X-23178Y-13444D1*
X-23234Y-13333D1*
X-23266Y-13213D1*
X-23271Y-13088D1*
X-23250Y-12965D1*
X-23203Y-12849D1*
X-23133Y-12746D1*
X-23043Y-12660D1*
X-22936Y-12595D1*
X-22818Y-12555D1*
X-22667Y-12543D1*
X-21644Y-11516D1*
X-21595Y-11467D1*
X-21495Y-11394D1*
X-21372Y-11355D1*
X-21062Y-11350D1*
X-20746D1*
X-20597Y-11218D1*
X-20487Y-11161D1*
X-20363Y-11125D1*
X-20496Y-11085D1*
X-20606Y-11026D1*
X-20702Y-10946D1*
X-20780Y-10849D1*
X-20838Y-10739D1*
X-20874Y-10619D1*
X-20885Y-10495D1*
X-20872Y-10371D1*
X-20834Y-10252D1*
X-20775Y-10142D1*
X-20694Y-10047D1*
X-20597Y-9968D1*
X-20487Y-9911D1*
X-20363Y-9875D1*
X-20496Y-9835D1*
X-20606Y-9776D1*
X-20702Y-9696D1*
X-20780Y-9599D1*
X-20838Y-9489D1*
X-20874Y-9369D1*
X-20885Y-9245D1*
X-20872Y-9121D1*
X-20834Y-9002D1*
X-20775Y-8892D1*
X-20694Y-8797D1*
X-20597Y-8718D1*
X-20487Y-8661D1*
X-20363Y-8625D1*
X-20496Y-8585D1*
X-20606Y-8526D1*
X-20702Y-8446D1*
X-20780Y-8349D1*
X-20838Y-8239D1*
X-20874Y-8119D1*
X-20885Y-7995D1*
X-20872Y-7871D1*
X-20834Y-7752D1*
X-20775Y-7642D1*
X-20694Y-7547D1*
X-20597Y-7468D1*
X-20487Y-7411D1*
X-20367Y-7376D1*
X-20242Y-7365D1*
X-20118Y-7379D1*
X-19999Y-7417D1*
X-19890Y-7477D1*
X-19795Y-7557D1*
X-19717Y-7655D1*
X-19660Y-7766D1*
X-19625Y-7886D1*
X-19615Y-8000D1*
X-19627Y-8124D1*
X-19664Y-8244D1*
X-19723Y-8354D1*
X-19802Y-8450D1*
X-19899Y-8529D1*
X-20009Y-8587D1*
X-20140Y-8624D1*
X-19999Y-8667D1*
X-19890Y-8727D1*
X-19795Y-8807D1*
X-19717Y-8905D1*
X-19660Y-9016D1*
X-19625Y-9136D1*
X-19615Y-9250D1*
X-19627Y-9374D1*
X-19664Y-9494D1*
X-19723Y-9604D1*
X-19802Y-9700D1*
X-19899Y-9779D1*
X-20009Y-9837D1*
X-20140Y-9874D1*
X-19999Y-9917D1*
X-19890Y-9977D1*
X-19795Y-10057D1*
X-19717Y-10155D1*
X-19660Y-10266D1*
X-19625Y-10386D1*
X-19615Y-10500D1*
X-19627Y-10624D1*
X-19664Y-10744D1*
X-19723Y-10854D1*
X-19802Y-10950D1*
X-19899Y-11029D1*
X-20009Y-11087D1*
X-20140Y-11124D1*
X-19999Y-11167D1*
X-19890Y-11227D1*
X-19795Y-11307D1*
X-19717Y-11405D1*
X-19660Y-11516D1*
X-19625Y-11636D1*
X-19615Y-11750D1*
X-19627Y-11874D1*
X-19664Y-11994D1*
X-19723Y-12104D1*
X-19802Y-12200D1*
X-19899Y-12279D1*
X-20009Y-12337D1*
X-20128Y-12373D1*
X-20253Y-12385D1*
X-20377Y-12372D1*
X-20496Y-12335D1*
X-20606Y-12276D1*
X-20702Y-12196D1*
X-20739Y-12151D1*
X-21145Y-12150D1*
X-22104Y-13107D1*
X-22116Y-13249D1*
X-24791Y-11423D2*
X-24694Y-11297D1*
X-24597Y-11218D1*
X-24487Y-11161D1*
X-24363Y-11125D1*
X-24496Y-11085D1*
X-24606Y-11026D1*
X-24702Y-10946D1*
X-24780Y-10849D1*
X-24790Y-10834D1*
Y-11418D1*
X-13660Y-16295D2*
X-13707Y-16540D1*
X-13800Y-16772D1*
X-13936Y-16981D1*
X-14109Y-17161D1*
X-14313Y-17305D1*
X-14540Y-17408D1*
X-14783Y-17465D1*
X-15033Y-17476D1*
X-15279Y-17438D1*
X-15515Y-17355D1*
X-15730Y-17228D1*
X-15917Y-17063D1*
X-16069Y-16865D1*
X-16181Y-16642D1*
X-16248Y-16401D1*
X-16269Y-16152D1*
X-16241Y-15904D1*
X-16168Y-15666D1*
X-16050Y-15446D1*
X-15892Y-15252D1*
X-15701Y-15092D1*
X-15483Y-14971D1*
X-15245Y-14894D1*
X-14997Y-14863D1*
X-14748Y-14880D1*
X-14507Y-14944D1*
X-14282Y-15053D1*
X-14082Y-15202D1*
X-13914Y-15387D1*
X-13785Y-15600D1*
X-13698Y-15834D1*
X-13657Y-16080D1*
X-13660Y-16295D1*
X-36495Y-35586D2*
X-36542Y-35831D1*
X-36635Y-36063D1*
X-36771Y-36273D1*
X-36943Y-36453D1*
X-37147Y-36597D1*
X-37375Y-36699D1*
X-37618Y-36757D1*
X-37867Y-36767D1*
X-38114Y-36730D1*
X-38349Y-36646D1*
X-38564Y-36519D1*
X-38751Y-36354D1*
X-38904Y-36156D1*
X-39015Y-35933D1*
X-39083Y-35693D1*
X-39103Y-35444D1*
X-39076Y-35196D1*
X-39002Y-34957D1*
X-38884Y-34737D1*
X-38727Y-34543D1*
X-38536Y-34383D1*
X-38317Y-34262D1*
X-38080Y-34185D1*
X-37832Y-34155D1*
X-37583Y-34171D1*
X-37342Y-34235D1*
X-37117Y-34344D1*
X-36917Y-34494D1*
X-36749Y-34678D1*
X-36619Y-34891D1*
X-36532Y-35126D1*
X-36492Y-35372D1*
X-36495Y-35586D1*
Y-16295D2*
X-36542Y-16540D1*
X-36635Y-16772D1*
X-36771Y-16981D1*
X-36943Y-17161D1*
X-37147Y-17305D1*
X-37375Y-17408D1*
X-37618Y-17465D1*
X-37867Y-17476D1*
X-38114Y-17438D1*
X-38349Y-17355D1*
X-38564Y-17228D1*
X-38751Y-17063D1*
X-38904Y-16865D1*
X-39015Y-16642D1*
X-39083Y-16401D1*
X-39103Y-16152D1*
X-39076Y-15904D1*
X-39002Y-15666D1*
X-38884Y-15446D1*
X-38727Y-15252D1*
X-38536Y-15092D1*
X-38317Y-14971D1*
X-38080Y-14894D1*
X-37832Y-14863D1*
X-37583Y-14880D1*
X-37342Y-14944D1*
X-37117Y-15053D1*
X-36917Y-15202D1*
X-36749Y-15387D1*
X-36619Y-15600D1*
X-36532Y-15834D1*
X-36492Y-16080D1*
X-36495Y-16295D1*
X-18882Y-3874D2*
X-18919Y-3993D1*
X-18978Y-4103D1*
X-19058Y-4199D1*
X-19155Y-4277D1*
X-19266Y-4335D1*
X-19386Y-4370D1*
X-19510Y-4380D1*
X-19634Y-4366D1*
X-19753Y-4327D1*
X-19861Y-4266D1*
X-19956Y-4185D1*
X-19997Y-4133D1*
X-20058Y-4199D1*
X-20155Y-4277D1*
X-20266Y-4335D1*
X-20386Y-4370D1*
X-20510Y-4380D1*
X-20634Y-4366D1*
X-20753Y-4327D1*
X-20861Y-4266D1*
X-20956Y-4185D1*
X-20997Y-4133D1*
X-21058Y-4199D1*
X-21155Y-4277D1*
X-21266Y-4335D1*
X-21386Y-4370D1*
X-21510Y-4380D1*
X-21634Y-4366D1*
X-21753Y-4327D1*
X-21861Y-4266D1*
X-21956Y-4185D1*
X-22033Y-4087D1*
X-22089Y-3975D1*
X-22122Y-3855D1*
X-22130Y-3730D1*
X-22114Y-3606D1*
X-22073Y-3488D1*
X-22011Y-3380D1*
X-21928Y-3287D1*
X-21828Y-3212D1*
X-21716Y-3158D1*
X-21595Y-3127D1*
X-21470Y-3120D1*
X-21347Y-3139D1*
X-21229Y-3181D1*
X-21122Y-3245D1*
X-21030Y-3330D1*
X-21000Y-3371D1*
X-20928Y-3287D1*
X-20828Y-3212D1*
X-20716Y-3158D1*
X-20595Y-3127D1*
X-20470Y-3120D1*
X-20347Y-3139D1*
X-20229Y-3181D1*
X-20122Y-3245D1*
X-20030Y-3330D1*
X-20000Y-3371D1*
X-19928Y-3287D1*
X-19811Y-3203D1*
X-19889Y-3134D1*
X-19968Y-3037D1*
X-20026Y-2926D1*
X-20061Y-2807D1*
X-20072Y-2682D1*
X-20059Y-2558D1*
X-20022Y-2439D1*
X-19962Y-2330D1*
X-19882Y-2234D1*
X-19785Y-2156D1*
X-19674Y-2098D1*
X-19554Y-2063D1*
X-19430Y-2053D1*
X-19306Y-2066D1*
X-19187Y-2104D1*
X-19078Y-2164D1*
X-18982Y-2245D1*
X-18904Y-2342D1*
X-18847Y-2453D1*
X-18813Y-2573D1*
X-18803Y-2687D1*
X-18815Y-2812D1*
X-18851Y-2931D1*
X-18910Y-3041D1*
X-18989Y-3137D1*
X-19086Y-3216D1*
X-19131Y-3240D1*
X-19030Y-3330D1*
X-18957Y-3430D1*
X-18904Y-3544D1*
X-18875Y-3665D1*
X-18870Y-3750D1*
X-18882Y-3874D1*
X-22815Y-2812D2*
X-22851Y-2931D1*
X-22910Y-3041D1*
X-22989Y-3137D1*
X-23086Y-3216D1*
X-23196Y-3275D1*
X-23316Y-3311D1*
X-23440Y-3322D1*
X-23564Y-3310D1*
X-23683Y-3273D1*
X-23793Y-3214D1*
X-23889Y-3134D1*
X-23968Y-3037D1*
X-24026Y-2926D1*
X-24061Y-2807D1*
X-24072Y-2682D1*
X-24059Y-2558D1*
X-24022Y-2439D1*
X-23962Y-2330D1*
X-23882Y-2234D1*
X-23785Y-2156D1*
X-23674Y-2098D1*
X-23554Y-2063D1*
X-23430Y-2053D1*
X-23306Y-2066D1*
X-23187Y-2104D1*
X-23078Y-2164D1*
X-22982Y-2245D1*
X-22904Y-2342D1*
X-22847Y-2453D1*
X-22813Y-2573D1*
X-22803Y-2687D1*
X-22815Y-2812D1*
X-15486Y-1241D2*
X-15622Y-1230D1*
X-15742Y-1197D1*
X-15855Y-1144D1*
X-15958Y-1073D1*
X-16047Y-985D1*
X-16119Y-884D1*
X-16173Y-771D1*
X-16208Y-651D1*
X-16221Y-527D1*
X-16212Y-403D1*
X-16183Y-281D1*
X-16133Y-167D1*
X-16065Y-62D1*
X-15980Y29D1*
X-15880Y104D1*
X-15769Y161D1*
X-15650Y199D1*
X-15526Y215D1*
X-14467D1*
X-14343Y197D1*
X-14224Y159D1*
X-14114Y100D1*
X-14015Y24D1*
X-13931Y-68D1*
X-13863Y-173D1*
X-13815Y-288D1*
X-13787Y-410D1*
X-13780Y-538D1*
X-13795Y-662D1*
X-13830Y-781D1*
X-13886Y-893D1*
X-13960Y-994D1*
X-14050Y-1080D1*
X-14154Y-1150D1*
X-14268Y-1201D1*
X-14389Y-1232D1*
X-14508Y-1241D1*
X-15492D1*
X-17089Y-9730D2*
X-15796D1*
Y-9796D1*
X-15742Y-9770D1*
X-15621Y-9739D1*
X-15496Y-9730D1*
X-15372Y-9742D1*
X-15252Y-9776D1*
X-15140Y-9831D1*
X-15039Y-9905D1*
X-15005Y-9936D1*
X-14938Y-9877D1*
X-14833Y-9810D1*
X-14718Y-9762D1*
X-14596Y-9736D1*
X-14471Y-9731D1*
X-14348Y-9747D1*
X-14229Y-9786D1*
X-14119Y-9844D1*
X-14020Y-9921D1*
X-13937Y-10014D1*
X-13871Y-10121D1*
X-13825Y-10237D1*
X-13801Y-10359D1*
X-13796Y-10439D1*
X-13807Y-10563D1*
X-13840Y-10684D1*
X-13893Y-10796D1*
X-13965Y-10898D1*
X-14054Y-10986D1*
X-14157Y-11056D1*
X-14271Y-11108D1*
X-14392Y-11139D1*
X-14516Y-11148D1*
X-14641Y-11135D1*
X-14760Y-11100D1*
X-14873Y-11045D1*
X-15003Y-10940D1*
X-15114Y-11030D1*
X-15224Y-11090D1*
X-15343Y-11129D1*
X-15466Y-11147D1*
X-15591Y-11142D1*
X-15713Y-11116D1*
X-15796Y-11085D1*
Y-11148D1*
X-17214D1*
Y-9730D1*
X-17089D1*
X-16780Y-8048D2*
X-16890Y-8105D1*
X-17010Y-8140D1*
X-17134Y-8151D1*
X-17258Y-8138D1*
X-17378Y-8102D1*
X-17488Y-8043D1*
X-17585Y-7965D1*
X-17665Y-7870D1*
X-17726Y-7760D1*
X-17765Y-7642D1*
X-17780Y-7518D1*
X-17771Y-7393D1*
X-17739Y-7273D1*
X-17684Y-7161D1*
X-17609Y-7061D1*
X-17516Y-6978D1*
X-17409Y-6914D1*
X-17291Y-6871D1*
X-17168Y-6852D1*
X-17043Y-6857D1*
X-16922Y-6885D1*
X-16808Y-6936D1*
X-16781Y-6953D1*
X-16780Y-6851D1*
X-15480D1*
Y-8151D1*
X-16780D1*
Y-8045D1*
X-15150Y-13985D2*
X-15260Y-14041D1*
X-15380Y-14076D1*
X-15504Y-14087D1*
X-15628Y-14075D1*
X-15748Y-14038D1*
X-15858Y-13980D1*
X-15955Y-13902D1*
X-16035Y-13806D1*
X-16096Y-13697D1*
X-16135Y-13578D1*
X-16150Y-13454D1*
X-16141Y-13330D1*
X-16109Y-13209D1*
X-16054Y-13097D1*
X-15979Y-12998D1*
X-15886Y-12914D1*
X-15779Y-12850D1*
X-15661Y-12808D1*
X-15538Y-12789D1*
X-15413Y-12793D1*
X-15292Y-12822D1*
X-15178Y-12873D1*
X-15150Y-12890D1*
Y-12788D1*
X-13850D1*
Y-14087D1*
X-15150D1*
Y-13982D1*
X-851Y-29025D2*
X-867Y-29149D1*
X-907Y-29267D1*
X-969Y-29375D1*
X-1051Y-29470D1*
X-1149Y-29547D1*
X-1260Y-29604D1*
X-1380Y-29639D1*
X-1504Y-29650D1*
X-1628Y-29637D1*
X-1748Y-29601D1*
X-1858Y-29543D1*
X-1955Y-29464D1*
X-2035Y-29369D1*
X-2096Y-29259D1*
X-2135Y-29141D1*
X-2150Y-29017D1*
X-2141Y-28892D1*
X-2109Y-28772D1*
X-2054Y-28660D1*
X-1979Y-28560D1*
X-1886Y-28477D1*
X-1779Y-28413D1*
X-1661Y-28370D1*
X-1538Y-28351D1*
X-1413Y-28356D1*
X-1292Y-28384D1*
X-1178Y-28436D1*
X-1076Y-28508D1*
X-990Y-28598D1*
X-922Y-28703D1*
X-876Y-28819D1*
X-853Y-28941D1*
X-851Y-29025D1*
X-15943Y-11370D2*
X-14807D1*
Y-11491D1*
X-14653Y-11408D1*
X-14532Y-11377D1*
X-14408Y-11370D1*
X-14284Y-11389D1*
X-14167Y-11431D1*
X-14060Y-11495D1*
X-13968Y-11580D1*
X-13894Y-11680D1*
X-13842Y-11794D1*
X-13813Y-11915D1*
X-13807Y-12000D1*
X-13820Y-12124D1*
X-13856Y-12243D1*
X-13916Y-12353D1*
X-13995Y-12449D1*
X-14093Y-12527D1*
X-14203Y-12585D1*
X-14323Y-12620D1*
X-14447Y-12630D1*
X-14571Y-12616D1*
X-14690Y-12577D1*
X-14808Y-12509D1*
X-14807Y-12630D1*
X-16068D1*
Y-11370D1*
X-15943D1*
X-29678Y-13249D2*
X-29718Y-13367D1*
X-29781Y-13475D1*
X-29835Y-13540D1*
X-29665D1*
Y-14710D1*
X-30835D1*
Y-13540D1*
X-30659D1*
X-30740Y-13444D1*
X-30797Y-13333D1*
X-30828Y-13213D1*
X-30834Y-13088D1*
X-30813Y-12965D1*
X-30766Y-12849D1*
X-30696Y-12746D1*
X-30605Y-12660D1*
X-30499Y-12595D1*
X-30381Y-12555D1*
X-30257Y-12540D1*
X-30133Y-12552D1*
X-30014Y-12590D1*
X-29906Y-12652D1*
X-29813Y-12736D1*
X-29741Y-12837D1*
X-29691Y-12952D1*
X-29665Y-13125D1*
X-29678Y-13249D1*
X-23865Y-14150D2*
X-23883Y-14274D1*
X-23924Y-14391D1*
X-23987Y-14499D1*
X-24070Y-14592D1*
X-24170Y-14667D1*
X-24282Y-14721D1*
X-24403Y-14753D1*
X-24528Y-14759D1*
X-24651Y-14742D1*
X-24769Y-14700D1*
X-24876Y-14637D1*
X-24969Y-14553D1*
X-25044Y-14453D1*
X-25097Y-14341D1*
X-25128Y-14220D1*
X-25134Y-14095D1*
X-25116Y-13971D1*
X-25074Y-13854D1*
X-25010Y-13747D1*
X-24926Y-13654D1*
X-24826Y-13580D1*
X-24713Y-13527D1*
X-24592Y-13497D1*
X-24467Y-13491D1*
X-24344Y-13509D1*
X-24227Y-13552D1*
X-24120Y-13616D1*
X-24028Y-13701D1*
X-23954Y-13801D1*
X-23901Y-13914D1*
X-23871Y-14035D1*
X-23865Y-14150D1*
X-27877Y-14249D2*
X-27914Y-14369D1*
X-27973Y-14479D1*
X-28052Y-14575D1*
X-28149Y-14654D1*
X-28259Y-14712D1*
X-28378Y-14748D1*
X-28503Y-14760D1*
X-28627Y-14747D1*
X-28746Y-14710D1*
X-28856Y-14651D1*
X-28952Y-14571D1*
X-29030Y-14474D1*
X-29088Y-14364D1*
X-29124Y-14244D1*
X-29135Y-14120D1*
X-29122Y-13996D1*
X-29084Y-13877D1*
X-29025Y-13767D1*
X-28944Y-13672D1*
X-28847Y-13593D1*
X-28737Y-13536D1*
X-28617Y-13501D1*
X-28492Y-13490D1*
X-28368Y-13504D1*
X-28249Y-13542D1*
X-28140Y-13602D1*
X-28045Y-13682D1*
X-27967Y-13780D1*
X-27910Y-13891D1*
X-27875Y-14011D1*
X-27865Y-14125D1*
X-27877Y-14249D1*
X-24357Y-9874D2*
X-24496Y-9835D1*
X-24606Y-9776D1*
X-24693Y-9704D1*
X-24793Y-9705D1*
X-24790Y-10168D1*
X-24729Y-10083D1*
X-24638Y-9997D1*
X-24532Y-9931D1*
X-24415Y-9887D1*
X-24361Y-9875D1*
X-15754Y-31373D2*
X-15760Y-31307D1*
X-15747Y-31183D1*
X-15709Y-31064D1*
X-15689Y-31027D1*
X-21625Y-31025D1*
X-23887D1*
X-23855Y-31166D1*
X-23852Y-31300D1*
X-23871Y-31413D1*
X-15793D1*
X-10608Y-33662D2*
X-10681Y-33557D1*
X-10730Y-33442D1*
X-10756Y-33320D1*
X-10758Y-33195D1*
X-10735Y-33072D1*
X-10688Y-32957D1*
X-10620Y-32852D1*
X-10532Y-32763D1*
X-10429Y-32693D1*
X-10331Y-32650D1*
X-12215D1*
X-12230Y-32811D1*
X-12236Y-32830D1*
X-12179Y-32813D1*
X-12055Y-32803D1*
X-11931Y-32816D1*
X-11812Y-32854D1*
X-11703Y-32914D1*
X-11607Y-32995D1*
X-11529Y-33092D1*
X-11472Y-33203D1*
X-11438Y-33323D1*
X-11428Y-33438D1*
X-11440Y-33562D1*
X-11470Y-33662D1*
X-10605Y-33663D1*
X-16362Y-23999D2*
X-16398Y-24119D1*
X-16455Y-24230D1*
X-16533Y-24327D1*
X-16628Y-24408D1*
X-16737Y-24469D1*
X-16855Y-24509D1*
X-16979Y-24525D1*
X-17104Y-24517D1*
X-17224Y-24485D1*
X-17337Y-24431D1*
X-17437Y-24356D1*
X-17521Y-24264D1*
X-17585Y-24157D1*
X-17629Y-24040D1*
X-17649Y-23917D1*
X-17645Y-23792D1*
X-17617Y-23670D1*
X-17546Y-23528D1*
X-17650Y-23525D1*
Y-22225D1*
X-16350D1*
Y-23525D1*
X-16456D1*
X-16383Y-23670D1*
X-16355Y-23791D1*
X-16350Y-23875D1*
X-16362Y-23999D1*
X-565Y-21187D2*
X-601Y-21306D1*
X-660Y-21416D1*
X-739Y-21512D1*
X-836Y-21591D1*
X-946Y-21650D1*
X-1066Y-21686D1*
X-1190Y-21698D1*
X-1314Y-21685D1*
X-1433Y-21648D1*
X-1543Y-21589D1*
X-1639Y-21509D1*
X-1718Y-21412D1*
X-1776Y-21301D1*
X-1811Y-21182D1*
X-1822Y-21057D1*
X-1809Y-20933D1*
X-1772Y-20814D1*
X-1712Y-20705D1*
X-1632Y-20609D1*
X-1535Y-20531D1*
X-1424Y-20473D1*
X-1304Y-20438D1*
X-1180Y-20428D1*
X-1056Y-20441D1*
X-937Y-20479D1*
X-828Y-20539D1*
X-732Y-20620D1*
X-654Y-20717D1*
X-597Y-20828D1*
X-563Y-20948D1*
X-553Y-21063D1*
X-565Y-21187D1*
Y-25187D2*
X-601Y-25306D1*
X-660Y-25416D1*
X-739Y-25512D1*
X-836Y-25591D1*
X-946Y-25650D1*
X-1066Y-25686D1*
X-1190Y-25698D1*
X-1314Y-25685D1*
X-1433Y-25648D1*
X-1543Y-25589D1*
X-1639Y-25509D1*
X-1718Y-25412D1*
X-1776Y-25301D1*
X-1811Y-25182D1*
X-1822Y-25057D1*
X-1809Y-24933D1*
X-1772Y-24814D1*
X-1712Y-24705D1*
X-1632Y-24609D1*
X-1535Y-24531D1*
X-1424Y-24473D1*
X-1304Y-24438D1*
X-1180Y-24428D1*
X-1056Y-24441D1*
X-937Y-24479D1*
X-828Y-24539D1*
X-732Y-24620D1*
X-654Y-24717D1*
X-597Y-24828D1*
X-563Y-24948D1*
X-553Y-25063D1*
X-565Y-25187D1*
X-43194Y-15751D2*
X-43230Y-15870D1*
X-43289Y-15980D1*
X-43369Y-16077D1*
X-43465Y-16156D1*
X-43576Y-16214D1*
X-43695Y-16250D1*
X-43819Y-16262D1*
X-43944Y-16249D1*
X-44063Y-16212D1*
X-44173Y-16153D1*
X-44269Y-16073D1*
X-44347Y-15976D1*
X-44405Y-15866D1*
X-44441Y-15746D1*
X-44452Y-15622D1*
X-44439Y-15498D1*
X-44401Y-15379D1*
X-44341Y-15269D1*
X-44261Y-15173D1*
X-44164Y-15095D1*
X-44053Y-15038D1*
X-43934Y-15003D1*
X-43809Y-14992D1*
X-43685Y-15006D1*
X-43566Y-15043D1*
X-43457Y-15104D1*
X-43362Y-15184D1*
X-43284Y-15282D1*
X-43227Y-15393D1*
X-43192Y-15513D1*
X-43182Y-15627D1*
X-43194Y-15751D1*
X-40151Y-16514D2*
X-40038Y-16632D1*
X-39991Y-16721D1*
X-39973Y-16818D1*
X-39976Y-17472D1*
X-40005Y-17567D1*
X-40061Y-17650D1*
X-40207Y-17790D1*
X-40295Y-17837D1*
X-40393Y-17855D1*
X-40652Y-17852D1*
X-40748Y-17822D1*
X-40780Y-17805D1*
X-40919Y-17849D1*
X-41044Y-17854D1*
X-41166Y-17830D1*
X-41255Y-17790D1*
X-41299Y-17814D1*
X-41419Y-17849D1*
X-41544Y-17854D1*
X-41666Y-17830D1*
X-41780Y-17779D1*
X-41878Y-17702D1*
X-41956Y-17604D1*
X-42009Y-17492D1*
X-42034Y-17369D1*
X-42036Y-16930D1*
X-42030Y-16851D1*
X-41997Y-16731D1*
X-41937Y-16621D1*
X-41854Y-16529D1*
X-41751Y-16459D1*
X-41634Y-16414D1*
X-41511Y-16398D1*
X-41387Y-16411D1*
X-41253Y-16464D1*
X-41134Y-16414D1*
X-41011Y-16398D1*
X-40887Y-16411D1*
X-40780Y-16449D1*
X-40704Y-16414D1*
X-40603Y-16398D1*
X-40356Y-16402D1*
X-40261Y-16431D1*
X-40178Y-16487D1*
X-40151Y-16514D1*
X-40381Y-18939D2*
X-40418Y-19058D1*
X-40477Y-19168D1*
X-40556Y-19265D1*
X-40653Y-19344D1*
X-40763Y-19402D1*
X-40882Y-19438D1*
X-41007Y-19450D1*
X-41131Y-19437D1*
X-41250Y-19400D1*
X-41360Y-19341D1*
X-41456Y-19261D1*
X-41534Y-19164D1*
X-41592Y-19054D1*
X-41628Y-18934D1*
X-41639Y-18810D1*
X-41626Y-18685D1*
X-41589Y-18566D1*
X-41529Y-18457D1*
X-41449Y-18361D1*
X-41351Y-18283D1*
X-41241Y-18225D1*
X-41121Y-18190D1*
X-40996Y-18180D1*
X-40872Y-18193D1*
X-40753Y-18231D1*
X-40644Y-18292D1*
X-40549Y-18372D1*
X-40471Y-18470D1*
X-40414Y-18581D1*
X-40379Y-18700D1*
X-40369Y-18815D1*
X-40381Y-18939D1*
X-17855Y-23624D2*
X-17897Y-23741D1*
X-17966Y-23845D1*
X-18057Y-23930D1*
X-18165Y-23992D1*
X-18285Y-24027D1*
X-18410Y-24034D1*
X-18532Y-24011D1*
X-18646Y-23961D1*
X-18746Y-23886D1*
X-18825Y-23789D1*
X-18880Y-23677D1*
X-18907Y-23556D1*
X-18906Y-23431D1*
X-18875Y-23310D1*
X-18818Y-23199D1*
X-18736Y-23105D1*
X-18635Y-23032D1*
X-18519Y-22985D1*
X-18396Y-22965D1*
X-18272Y-22975D1*
X-18153Y-23013D1*
X-18046Y-23078D1*
X-17958Y-23165D1*
X-17891Y-23271D1*
X-17852Y-23389D1*
X-17840Y-23500D1*
X-17855Y-23624D1*
Y-24749D2*
X-17897Y-24866D1*
X-17966Y-24970D1*
X-18057Y-25055D1*
X-18165Y-25117D1*
X-18285Y-25152D1*
X-18410Y-25159D1*
X-18532Y-25136D1*
X-18646Y-25086D1*
X-18746Y-25011D1*
X-18825Y-24914D1*
X-18880Y-24802D1*
X-18907Y-24681D1*
X-18906Y-24556D1*
X-18875Y-24435D1*
X-18818Y-24324D1*
X-18736Y-24230D1*
X-18635Y-24157D1*
X-18519Y-24110D1*
X-18396Y-24090D1*
X-18272Y-24100D1*
X-18153Y-24138D1*
X-18046Y-24203D1*
X-17958Y-24290D1*
X-17891Y-24396D1*
X-17852Y-24514D1*
X-17840Y-24625D1*
X-17855Y-24749D1*
X-4417Y-19624D2*
X-4460Y-19741D1*
X-4529Y-19845D1*
X-4620Y-19930D1*
X-4728Y-19992D1*
X-4848Y-20027D1*
X-4972Y-20034D1*
X-5095Y-20011D1*
X-5209Y-19961D1*
X-5308Y-19886D1*
X-5387Y-19789D1*
X-5442Y-19677D1*
X-5470Y-19556D1*
X-5468Y-19431D1*
X-5438Y-19310D1*
X-5380Y-19199D1*
X-5298Y-19105D1*
X-5197Y-19032D1*
X-5082Y-18985D1*
X-4959Y-18965D1*
X-4834Y-18975D1*
X-4716Y-19013D1*
X-4609Y-19078D1*
X-4520Y-19165D1*
X-4454Y-19271D1*
X-4414Y-19389D1*
X-4403Y-19500D1*
X-4417Y-19624D1*
X-34750Y-12240D2*
D23*
Y-12875D1*
X-35385D2*
X-34115D1*
X-7500Y-24750D2*
X-6870D1*
X-9130Y-26750D2*
X-8500D1*
X-7500Y-28750D2*
X-6870D1*
X-35652Y-901D2*
Y-2515D1*
X-36577D2*
X-34727D1*
X-32842Y-901D2*
Y-2515D1*
X-33767D2*
X-31917D1*
X-19500Y-14125D2*
Y-14710D1*
X-20085Y-14125D2*
X-18915D1*
X-12626Y-26993D2*
Y-28262D1*
Y-27627D2*
X-11992D1*
X-20500Y-6750D2*
Y-7380D1*
X-15000Y215D2*
Y-1241D1*
X-16220Y-513D2*
X-13780D1*
X-16850Y-474D2*
Y-2914D1*
X-17579Y-1694D2*
X-16122D1*
X-15505Y-9730D2*
Y-11147D1*
X-17755Y-4351D2*
Y-5001D1*
X-18405D2*
X-17106D1*
X-17130Y-6851D2*
Y-8150D1*
X-17780Y-7501D2*
X-17130D1*
X-15500Y-12788D2*
Y-14087D1*
X-16149Y-13437D2*
X-15500D1*
X-1500Y-28351D2*
Y-29649D1*
X-2149Y-29000D2*
X-851D1*
X-24500Y-13490D2*
Y-14760D1*
X-25135Y-14125D2*
X-23865D1*
X-24250Y-9865D2*
Y-11135D1*
Y-10500D2*
X-23615D1*
X-10760Y-33250D2*
X-9490D1*
X-26941Y-35254D2*
Y-36038D1*
X-25941Y-35254D2*
Y-36038D1*
X-25000Y-26351D2*
Y-27649D1*
X-24000Y-29351D2*
Y-30000D1*
X-24500Y-31250D2*
X-23851D1*
X-23502Y-21690D2*
Y-22339D1*
X-24152Y-21690D2*
X-23502D1*
Y-22415D2*
Y-23714D1*
X-14001Y-24315D2*
Y-24945D1*
X-14631Y-24315D2*
X-13372D1*
X-8438Y-35522D2*
Y-36978D1*
X-8969Y-36250D2*
X-8438D1*
X-4188Y-22209D2*
Y-23666D1*
X-4719Y-22937D2*
X-4188D1*
X-40504Y-16399D2*
Y-17855D1*
Y-17127D2*
X-39973D1*
X-39562Y-14188D2*
Y-14822D1*
X-40197Y-14188D2*
X-38928D1*
X-37129Y-1336D2*
Y-2714D1*
X-37818Y-2025D2*
X-37129D1*
X-4928Y1071D2*
D24*
X-3322D1*
X-4928Y953D2*
X-3322D1*
X-4928Y834D2*
X-3322D1*
X-4928Y715D2*
X-3322D1*
X-4928Y597D2*
X-3322D1*
X-4928Y478D2*
X-3322D1*
X-4928Y359D2*
X-3322D1*
X-4928Y240D2*
X-3322D1*
X-4928Y122D2*
X-3322D1*
X-4928Y3D2*
X-3322D1*
X-4928Y-116D2*
X-3322D1*
X-4928Y-234D2*
X-3322D1*
X-4928Y-353D2*
X-3322D1*
X-4928Y-472D2*
X-3322D1*
X-4928Y-590D2*
X-3322D1*
X-4928Y-709D2*
X-3322D1*
X-4928Y-828D2*
X-3322D1*
X-4928Y-946D2*
X-3322D1*
X-4928Y-1065D2*
X-3322D1*
X-4928Y-1184D2*
X-3322D1*
X-4928Y-1302D2*
X-3322D1*
X-4928Y-1421D2*
X-3322D1*
X-4928Y-1540D2*
X-3322D1*
X-4928Y-1659D2*
X-3322D1*
X-4928Y-1777D2*
X-3322D1*
X-4928Y-1896D2*
X-3322D1*
X-4928Y-2015D2*
X-3322D1*
X-4928Y-2133D2*
X-3322D1*
X-4928Y-2252D2*
X-3322D1*
X-5023Y-2371D2*
X-3322D1*
X-5143Y-2489D2*
X-3335D1*
X-7011Y-2608D2*
X-3455D1*
X-7131Y-2727D2*
X-3574D1*
X-7249Y-2845D2*
X-3692D1*
X-7367Y-2964D2*
X-3812D1*
X-7485Y-3083D2*
X-3930D1*
X-7605Y-3201D2*
X-4048D1*
X-7723Y-3320D2*
X-4166D1*
X-7841Y-3439D2*
X-4286D1*
X-7961Y-3558D2*
X-4404D1*
X-8080Y-3676D2*
X-4522D1*
X-8198Y-3795D2*
X-4642D1*
X-8318Y-3914D2*
X-4760D1*
X-8436Y-4032D2*
X-4879D1*
X-8554Y-4151D2*
X-4999D1*
X-8672Y-4270D2*
X-5117D1*
X-8792Y-4388D2*
X-5235D1*
X-8910Y-4507D2*
X-5353D1*
X-8928Y-4626D2*
X-5473D1*
X-8928Y-4744D2*
X-5591D1*
X-8928Y-4863D2*
X-5709D1*
X-8928Y-4982D2*
X-5829D1*
X-8928Y-5100D2*
X-5947D1*
X-8928Y-5219D2*
X-6065D1*
X-8928Y-5338D2*
X-6071D1*
X-8928Y-5457D2*
X-6071D1*
X-8928Y-5575D2*
X-6071D1*
X-8928Y-5694D2*
X-6071D1*
X-8928Y-5813D2*
X-6071D1*
X-8928Y-5931D2*
X-6071D1*
X-8928Y-6050D2*
X-6071D1*
X-8928Y-6169D2*
X-6071D1*
X-8928Y-6287D2*
X-6071D1*
X-8928Y-6406D2*
X-6071D1*
X-8928Y-6525D2*
X-6071D1*
X-8928Y-6643D2*
X-6071D1*
X-8928Y-6762D2*
X-6071D1*
X-8928Y-6881D2*
X-6071D1*
X-8928Y-6999D2*
X-6071D1*
X-8928Y-7118D2*
X-6071D1*
X-8928Y-7237D2*
X-6071D1*
X-8928Y-7356D2*
X-6071D1*
X-8928Y-7474D2*
X-6071D1*
X-8928Y-7593D2*
X-6071D1*
X-8928Y-7712D2*
X-6071D1*
X-8928Y-7830D2*
X-6071D1*
X-3370Y1190D2*
X-4940D1*
X-4941Y-2252D1*
X-4958Y-2292D1*
X-5209Y-2543D1*
X-5250Y-2560D1*
X-6977D1*
X-7467Y-3052D1*
X-8940Y-4525D1*
Y-7940D1*
X-6060D1*
X-6059Y-5248D1*
X-6042Y-5208D1*
X-3311Y-2476D1*
X-3310Y-340D1*
Y1190D1*
X-3370D1*
X-2678Y1071D2*
X-1322D1*
X-2678Y953D2*
X-1322D1*
X-2678Y834D2*
X-1322D1*
X-2678Y715D2*
X-1322D1*
X-2678Y597D2*
X-1322D1*
X-2678Y478D2*
X-1322D1*
X-2678Y359D2*
X-1322D1*
X-2678Y240D2*
X-1322D1*
X-2678Y122D2*
X-1322D1*
X-2678Y3D2*
X-1322D1*
X-2678Y-116D2*
X-1322D1*
X-2678Y-234D2*
X-1322D1*
X-2678Y-353D2*
X-1322D1*
X-2678Y-472D2*
X-1322D1*
X-2678Y-590D2*
X-1322D1*
X-2678Y-709D2*
X-1322D1*
X-2678Y-828D2*
X-1322D1*
X-2678Y-946D2*
X-1322D1*
X-2678Y-1065D2*
X-1322D1*
X-2678Y-1184D2*
X-1322D1*
X-2678Y-1302D2*
X-1322D1*
X-2678Y-1421D2*
X-1322D1*
X-2678Y-1540D2*
X-1322D1*
X-2678Y-1659D2*
X-1322D1*
X-2678Y-1777D2*
X-1322D1*
X-2678Y-1896D2*
X-1322D1*
X-2678Y-2015D2*
X-1322D1*
X-2678Y-2133D2*
X-1322D1*
X-2678Y-2252D2*
X-1322D1*
X-2678Y-2371D2*
X-1322D1*
X-2678Y-2489D2*
X-1322D1*
X-2678Y-2608D2*
X-1322D1*
X-2755Y-2727D2*
X-1322D1*
X-2875Y-2845D2*
X-1322D1*
X-2993Y-2964D2*
X-1322D1*
X-3111Y-3083D2*
X-1322D1*
X-3229Y-3201D2*
X-1322D1*
X-3349Y-3320D2*
X-1322D1*
X-3467Y-3439D2*
X-1322D1*
X-3585Y-3558D2*
X-1322D1*
X-3705Y-3676D2*
X-2899D1*
X-3823Y-3795D2*
X-3017D1*
X-3941Y-3914D2*
X-3135D1*
X-4053Y-4032D2*
X-3197D1*
X-4053Y-4151D2*
X-3197D1*
X-4053Y-4270D2*
X-3197D1*
X-4053Y-4388D2*
X-3197D1*
X-4053Y-4507D2*
X-3197D1*
X-4053Y-4626D2*
X-3197D1*
X-4053Y-4744D2*
X-3197D1*
X-4053Y-4863D2*
X-3197D1*
X-1370Y1190D2*
X-2690D1*
X-2691Y-2627D1*
X-2708Y-2667D1*
X-4064Y-4024D1*
X-4065Y-4940D1*
X-3185D1*
X-3184Y-3998D1*
X-3167Y-3958D1*
X-2791Y-3582D1*
X-2750Y-3565D1*
X-1310D1*
Y1190D1*
X-1370D1*
X-2802Y-4179D2*
X-2196D1*
X-2802Y-4297D2*
X-2196D1*
X-2802Y-4416D2*
X-2196D1*
X-2802Y-4535D2*
X-2196D1*
X-2802Y-4653D2*
X-2196D1*
X-2802Y-4772D2*
X-2196D1*
X-2802Y-4891D2*
X-2196D1*
X-2802Y-5010D2*
X-2196D1*
X-2802Y-5128D2*
X-2196D1*
X-2873Y-5247D2*
X-2196D1*
X-2956Y-5366D2*
X-2196D1*
X-3036Y-5484D2*
X-2196D1*
X-3119Y-5603D2*
X-2196D1*
X-3200Y-5722D2*
X-2196D1*
X-3280Y-5840D2*
X-2196D1*
X-3363Y-5959D2*
X-2196D1*
X-3443Y-6078D2*
X-2196D1*
X-3526Y-6196D2*
X-2196D1*
X-3606Y-6315D2*
X-2196D1*
X-3687Y-6434D2*
X-2196D1*
X-3770Y-6552D2*
X-2196D1*
X-3850Y-6671D2*
X-2196D1*
X-3933Y-6790D2*
X-2196D1*
X-4013Y-6909D2*
X-2196D1*
X-4096Y-7027D2*
X-2196D1*
X-4176Y-7146D2*
X-2196D1*
X-4257Y-7265D2*
X-2196D1*
X-4340Y-7383D2*
X-2196D1*
X-4420Y-7502D2*
X-2196D1*
X-4503Y-7621D2*
X-2196D1*
X-4583Y-7739D2*
X-2196D1*
X-4664Y-7858D2*
X-2200D1*
X-4746Y-7977D2*
X-2290D1*
X-4827Y-8095D2*
X-2380D1*
X-4910Y-8214D2*
X-2472D1*
X-4990Y-8333D2*
X-2562D1*
X-5071Y-8451D2*
X-2652D1*
X-5153Y-8570D2*
X-2742D1*
X-5234Y-8689D2*
X-2832D1*
X-5316Y-8808D2*
X-2924D1*
X-5397Y-8926D2*
X-3014D1*
X-5478Y-9045D2*
X-3104D1*
X-5560Y-9164D2*
X-3194D1*
X-5641Y-9282D2*
X-3285D1*
X-5723Y-9401D2*
X-3375D1*
X-5804Y-9520D2*
X-3465D1*
X-8803Y-9638D2*
X-3555D1*
X-8803Y-9757D2*
X-3645D1*
X-8803Y-9876D2*
X-3737D1*
X-8803Y-9994D2*
X-3827D1*
X-8803Y-10113D2*
X-3917D1*
X-8803Y-10232D2*
X-4007D1*
X-8803Y-10350D2*
X-4099D1*
X-8803Y-10469D2*
X-4189D1*
X-8803Y-10588D2*
X-4279D1*
X-8803Y-10707D2*
X-4369D1*
X-8803Y-10825D2*
X-4461D1*
X-8803Y-10944D2*
X-4551D1*
X-8803Y-11063D2*
X-4641D1*
X-8803Y-11181D2*
X-4731D1*
X-8803Y-11300D2*
X-4821D1*
X-8803Y-11419D2*
X-4913D1*
X-8803Y-11537D2*
X-5003D1*
X-8803Y-11656D2*
X-5093D1*
X-8803Y-11775D2*
X-5183D1*
X-8803Y-11893D2*
X-5275D1*
X-8803Y-12012D2*
X-5365D1*
X-8803Y-12131D2*
X-5455D1*
X-8803Y-12249D2*
X-5545D1*
X-8803Y-12368D2*
X-5637D1*
X-8803Y-12487D2*
X-5727D1*
X-8803Y-12606D2*
X-5817D1*
X-8803Y-12724D2*
X-5907D1*
X-8803Y-12843D2*
X-5997D1*
X-8803Y-12962D2*
X-6089D1*
X-8803Y-13080D2*
X-6179D1*
X-8803Y-13199D2*
X-6197D1*
X-8803Y-13318D2*
X-6197D1*
X-8803Y-13436D2*
X-6197D1*
X-8803Y-13555D2*
X-6197D1*
X-8803Y-13674D2*
X-6197D1*
X-8803Y-13792D2*
X-6197D1*
X-8803Y-13911D2*
X-6197D1*
X-8803Y-14030D2*
X-6197D1*
X-8803Y-14148D2*
X-6197D1*
X-5935Y-9560D2*
X-8815D1*
Y-14190D1*
X-6185D1*
X-6184Y-13123D1*
X-6173Y-13089D1*
X-2185Y-7855D1*
Y-4060D1*
X-2815D1*
X-2814Y-5124D1*
X-2824Y-5156D1*
X-5826Y-9534D1*
X-5878Y-9559D1*
X-5935Y-9560D1*
X-8850Y876D2*
D21*
X-5650D1*
X-8850Y628D2*
X-5650D1*
X-8850Y379D2*
X-5650D1*
X-8850Y130D2*
X-5650D1*
X-8850Y-118D2*
X-5650D1*
X-8850Y-367D2*
X-5650D1*
X-8850Y-616D2*
X-5650D1*
X-8850Y-865D2*
X-5650D1*
X-8850Y-1113D2*
X-5650D1*
X-8850Y-1362D2*
X-5650D1*
X-8850Y-1611D2*
X-5650D1*
X-8850Y-1859D2*
X-5650D1*
X-5750Y1125D2*
X-8875D1*
Y-1875D1*
X-5625D1*
Y1125D1*
X-5750D1*
X-42855Y-8749D2*
X-25274D1*
X-42855Y-8997D2*
X-25274D1*
X-42855Y-9246D2*
X-39031D1*
X-36907D2*
X-32844D1*
X-30720D2*
X-25274D1*
X-42855Y-9495D2*
X-39031D1*
X-36755D2*
X-32844D1*
X-30567D2*
X-25274D1*
X-42855Y-9743D2*
X-39031D1*
X-36728D2*
X-32844D1*
X-30540D2*
X-25274D1*
X-42855Y-9992D2*
X-39031D1*
X-36802D2*
X-32844D1*
X-30614D2*
X-25274D1*
X-42855Y-10241D2*
X-39031D1*
X-37052D2*
X-32844D1*
X-30864D2*
X-25274D1*
X-42855Y-10490D2*
X-25274D1*
X-42855Y-10738D2*
X-25274D1*
X-42855Y-10987D2*
X-25274D1*
X-42855Y-11236D2*
X-25274D1*
X-42855Y-11484D2*
X-25274D1*
X-42855Y-11733D2*
X-25274D1*
X-27759Y-11982D2*
X-25274D1*
X-26880Y-8540D2*
X-27032Y-8530D1*
X-27165Y-8499D1*
X-42880Y-8501D1*
Y-11751D1*
X-28062Y-11753D1*
X-27977Y-11788D1*
X-27637Y-12128D1*
X-25250Y-12125D1*
Y-8500D1*
X-26090D1*
X-26283Y-8537D1*
X-26628Y-8542D1*
X-26878Y-8538D1*
X-32695Y-9059D2*
X-31562D1*
Y-9180D1*
X-31402Y-9096D1*
X-31281Y-9066D1*
X-31157Y-9060D1*
X-31033Y-9079D1*
X-30916Y-9122D1*
X-30810Y-9188D1*
X-30718Y-9273D1*
X-30646Y-9374D1*
X-30594Y-9488D1*
X-30567Y-9610D1*
X-30562Y-9689D1*
X-30574Y-9813D1*
X-30611Y-9932D1*
X-30670Y-10042D1*
X-30750Y-10138D1*
X-30847Y-10216D1*
X-30958Y-10273D1*
X-31078Y-10308D1*
X-31202Y-10318D1*
X-31326Y-10303D1*
X-31445Y-10264D1*
X-31562Y-10195D1*
Y-10318D1*
X-32820D1*
Y-9059D1*
X-32695D1*
X-38883D2*
X-37750D1*
Y-9180D1*
X-37590Y-9096D1*
X-37469Y-9066D1*
X-37345Y-9060D1*
X-37221Y-9079D1*
X-37104Y-9122D1*
X-36998Y-9188D1*
X-36907Y-9273D1*
X-36834Y-9374D1*
X-36783Y-9488D1*
X-36755Y-9610D1*
X-36750Y-9689D1*
X-36762Y-9813D1*
X-36799Y-9932D1*
X-36858Y-10042D1*
X-36938Y-10138D1*
X-37035Y-10216D1*
X-37146Y-10273D1*
X-37266Y-10308D1*
X-37390Y-10318D1*
X-37514Y-10303D1*
X-37633Y-10264D1*
X-37750Y-10195D1*
Y-10318D1*
X-39008D1*
Y-9059D1*
X-38883D1*
X-33979Y-4499D2*
X-25277D1*
X-33979Y-4748D2*
X-25277D1*
X-33979Y-4996D2*
X-25277D1*
X-33979Y-5245D2*
X-25277D1*
X-33979Y-5494D2*
X-25277D1*
X-33979Y-5743D2*
X-25277D1*
X-33979Y-5991D2*
X-25277D1*
X-33979Y-6240D2*
X-25277D1*
X-33979Y-6489D2*
X-25277D1*
X-33979Y-6737D2*
X-25277D1*
X-33979Y-6986D2*
X-25277D1*
X-33979Y-7235D2*
X-25277D1*
X-33979Y-7483D2*
X-25277D1*
X-33979Y-7732D2*
X-25277D1*
X-33979Y-7981D2*
X-25277D1*
X-25378Y-4250D2*
X-34004D1*
Y-8063D1*
X-25253D1*
Y-4250D1*
X-25378D1*
X-44670Y-4499D2*
X-34589D1*
X-44670Y-4748D2*
X-34589D1*
X-44670Y-4996D2*
X-34589D1*
X-44670Y-5245D2*
X-34589D1*
X-44670Y-5494D2*
X-34589D1*
X-44670Y-5743D2*
X-34589D1*
X-44670Y-5991D2*
X-34589D1*
X-44670Y-6240D2*
X-34589D1*
X-44670Y-6489D2*
X-43710D1*
X-42555D2*
X-34589D1*
X-44670Y-6737D2*
X-43945D1*
X-42321D2*
X-34589D1*
X-44670Y-6986D2*
X-44058D1*
X-42211D2*
X-34589D1*
X-44670Y-7235D2*
X-44093D1*
X-42172D2*
X-34589D1*
X-44670Y-7483D2*
X-44062D1*
X-42203D2*
X-34589D1*
X-44670Y-7732D2*
X-43956D1*
X-42313D2*
X-34589D1*
X-44670Y-7981D2*
X-43734D1*
X-42535D2*
X-34589D1*
X-44670Y-8229D2*
X-43406D1*
X-44670Y-8478D2*
X-43406D1*
X-44670Y-8727D2*
X-43406D1*
X-44670Y-8975D2*
X-43406D1*
X-43903Y-9224D2*
X-43406D1*
X-43903Y-9473D2*
X-43406D1*
X-43903Y-9722D2*
X-43406D1*
X-43903Y-9970D2*
X-43406D1*
X-43903Y-10219D2*
X-43406D1*
X-42206Y-7368D2*
X-42231Y-7490D1*
X-42272Y-7608D1*
X-42329Y-7720D1*
X-42399Y-7823D1*
X-42483Y-7915D1*
X-42579Y-7996D1*
X-42687Y-8065D1*
X-34566Y-8063D1*
Y-4247D1*
X-35441Y-4252D1*
X-44695Y-4271D1*
Y-9048D1*
X-43928Y-9050D1*
Y-10327D1*
X-44698D1*
X-44695Y-10459D1*
X-43382D1*
X-43378Y-8185D1*
X-43410Y-8136D1*
X-43527Y-8091D1*
X-43636Y-8031D1*
X-43737Y-7957D1*
X-43827Y-7870D1*
X-43904Y-7772D1*
X-43968Y-7665D1*
X-44016Y-7550D1*
X-44049Y-7429D1*
X-44066Y-7306D1*
Y-7181D1*
X-44049Y-7057D1*
X-44016Y-6936D1*
X-43968Y-6821D1*
X-43904Y-6714D1*
X-43826Y-6616D1*
X-43737Y-6529D1*
X-43636Y-6455D1*
X-43527Y-6395D1*
X-43410Y-6350D1*
X-43288Y-6321D1*
X-43164Y-6309D1*
X-43039Y-6313D1*
X-42916Y-6334D1*
X-42797Y-6371D1*
X-42684Y-6423D1*
X-42578Y-6491D1*
X-42483Y-6571D1*
X-42399Y-6664D1*
X-42329Y-6767D1*
X-42272Y-6878D1*
X-42231Y-6996D1*
X-42206Y-7119D1*
X-42198Y-7243D1*
X-42206Y-7368D1*
X-36604Y-1186D2*
X-31902D1*
X-36604Y-1435D2*
X-31902D1*
X-36604Y-1684D2*
X-31902D1*
X-36604Y-1932D2*
X-31902D1*
X-36604Y-2181D2*
X-31902D1*
X-36604Y-2430D2*
X-31902D1*
X-36604Y-2678D2*
X-31902D1*
X-36604Y-2927D2*
X-31902D1*
X-36604Y-3176D2*
X-31902D1*
X-36604Y-3424D2*
X-31902D1*
X-36604Y-3673D2*
X-31902D1*
X-32003Y-938D2*
X-36629D1*
Y-3813D1*
X-31878D1*
Y-938D1*
X-32003D1*
D19*
X-43625Y-12875D3*
D25*
X-39625D3*
D19*
X-38750D3*
D25*
X-34750D3*
D26*
X-8500Y-22750D3*
D27*
X-7500D3*
X-8500Y-23750D3*
X-7500D3*
X-8500Y-24750D3*
X-7500D3*
X-8500Y-25750D3*
X-7500D3*
X-8500Y-26750D3*
X-7500D3*
X-8500Y-27750D3*
X-7500D3*
X-8500Y-28750D3*
X-7500D3*
X-8500Y-29750D3*
X-7500D3*
G36*
X-8424Y548D2*
X-8398Y693D1*
X-8325Y821D1*
X-8212Y916D1*
X-8074Y966D1*
X-7927D1*
X-7788Y916D1*
X-7676Y821D1*
X-7602Y694D1*
X-7576Y549D1*
Y-298D1*
X-7602Y-443D1*
X-7675Y-571D1*
X-7788Y-666D1*
X-7926Y-716D1*
X-8073D1*
X-8212Y-666D1*
X-8324Y-571D1*
X-8398Y-444D1*
X-8424Y-299D1*
Y548D1*
G37*
G36*
X-6464D2*
X-6438Y693D1*
X-6365Y821D1*
X-6252Y916D1*
X-6114Y966D1*
X-5967D1*
X-5828Y916D1*
X-5716Y821D1*
X-5642Y694D1*
X-5616Y549D1*
Y-298D1*
X-5642Y-443D1*
X-5715Y-571D1*
X-5828Y-666D1*
X-5966Y-716D1*
X-6113D1*
X-6252Y-666D1*
X-6364Y-571D1*
X-6438Y-444D1*
X-6464Y-299D1*
Y548D1*
G37*
G36*
X-4484D2*
X-4458Y693D1*
X-4385Y821D1*
X-4272Y916D1*
X-4134Y966D1*
X-3987D1*
X-3848Y916D1*
X-3736Y821D1*
X-3662Y694D1*
X-3636Y549D1*
Y-298D1*
X-3662Y-443D1*
X-3735Y-571D1*
X-3848Y-666D1*
X-3986Y-716D1*
X-4133D1*
X-4272Y-666D1*
X-4384Y-571D1*
X-4458Y-444D1*
X-4484Y-299D1*
Y548D1*
G37*
G36*
X-2524D2*
X-2498Y693D1*
X-2425Y821D1*
X-2312Y916D1*
X-2174Y966D1*
X-2027D1*
X-1888Y916D1*
X-1776Y821D1*
X-1702Y694D1*
X-1676Y549D1*
Y-298D1*
X-1702Y-443D1*
X-1775Y-571D1*
X-1888Y-666D1*
X-2026Y-716D1*
X-2173D1*
X-2312Y-666D1*
X-2424Y-571D1*
X-2498Y-444D1*
X-2524Y-299D1*
Y548D1*
G37*
D30*
X-35652Y-5626D3*
Y-2515D3*
X-32842Y-5626D3*
Y-2515D3*
D20*
X-19500Y-13125D3*
D31*
Y-14125D3*
D20*
X-22687Y-13125D3*
D31*
Y-14125D3*
D19*
X-24250Y-11750D3*
D25*
X-20250D3*
D19*
X-24250Y-8000D3*
D25*
X-20250D3*
G36*
X-10743Y-24544D2*
X-10854Y-24560D1*
X-10956Y-24606D1*
X-11040Y-24680D1*
X-11101Y-24774D1*
X-11132Y-24881D1*
Y-24994D1*
X-11101Y-25101D1*
X-11040Y-25195D1*
X-10956Y-25269D1*
X-10854Y-25315D1*
X-10743Y-25331D1*
Y-24544D1*
G37*
G36*
X-10483Y-25331D2*
X-10372Y-25315D1*
X-10270Y-25269D1*
X-10185Y-25195D1*
X-10125Y-25101D1*
X-10093Y-24994D1*
Y-24881D1*
X-10125Y-24774D1*
X-10185Y-24680D1*
X-10270Y-24606D1*
X-10372Y-24560D1*
X-10483Y-24544D1*
Y-25331D1*
G37*
D19*
X-12626Y-18564D3*
D25*
Y-22564D3*
D19*
Y-23627D3*
D25*
Y-27627D3*
D26*
X-21500Y-6750D3*
D27*
X-20500D3*
X-19500D3*
Y-3750D3*
X-20500D3*
X-21500D3*
D26*
X-19438Y1312D3*
D27*
X-20438D3*
D19*
X-19438Y-2687D3*
D25*
X-23438D3*
D32*
X-15000Y-2875D3*
D33*
Y-513D3*
D34*
X-16850Y-1694D3*
D35*
X-7501Y-5376D3*
Y-7187D3*
Y-11636D3*
Y-13443D3*
D36*
X-16505Y-10439D3*
D37*
X-15505D3*
X-14505D3*
D26*
X-14504Y-4001D3*
D27*
Y-5001D3*
Y-6001D3*
D26*
X-6750Y-18250D3*
D27*
X-7750D3*
D18*
X-17755Y-5001D3*
D38*
X-15755D3*
D18*
X-17130Y-7501D3*
D38*
X-16130D3*
D18*
X-15500Y-13437D3*
D38*
X-14500D3*
D18*
X-1500Y-29000D3*
D38*
Y-27000D3*
D39*
X-26628Y-11126D3*
Y-9126D3*
Y-7526D3*
Y-5526D3*
D26*
X-15438Y-12000D3*
D27*
X-14438D3*
D26*
X-6750Y-19688D3*
D27*
X-7750D3*
X-8750D3*
D20*
X-30250Y-13125D3*
D31*
Y-14125D3*
D19*
X-24500D3*
D25*
X-28500D3*
G36*
X-8695Y-31644D2*
X-8584Y-31628D1*
X-8482Y-31581D1*
X-8397Y-31508D1*
X-8337Y-31414D1*
X-8305Y-31306D1*
Y-31194D1*
X-8337Y-31086D1*
X-8397Y-30992D1*
X-8482Y-30919D1*
X-8584Y-30872D1*
X-8695Y-30856D1*
Y-31644D1*
G37*
G36*
X-8955Y-30856D2*
X-9066Y-30872D1*
X-9168Y-30919D1*
X-9252Y-30992D1*
X-9313Y-31086D1*
X-9344Y-31194D1*
Y-31306D1*
X-9313Y-31414D1*
X-9252Y-31508D1*
X-9168Y-31581D1*
X-9066Y-31628D1*
X-8955Y-31644D1*
Y-30856D1*
G37*
G36*
X-5930Y-27356D2*
X-6041Y-27372D1*
X-6143Y-27419D1*
X-6228Y-27492D1*
X-6288Y-27586D1*
X-6320Y-27694D1*
Y-27806D1*
X-6288Y-27914D1*
X-6228Y-28008D1*
X-6143Y-28081D1*
X-6041Y-28128D1*
X-5930Y-28144D1*
Y-27356D1*
G37*
G36*
X-5670Y-28144D2*
X-5559Y-28128D1*
X-5457Y-28081D1*
X-5373Y-28008D1*
X-5312Y-27914D1*
X-5281Y-27806D1*
Y-27694D1*
X-5312Y-27586D1*
X-5373Y-27492D1*
X-5457Y-27419D1*
X-5559Y-27372D1*
X-5670Y-27356D1*
Y-28144D1*
G37*
G36*
X-10570D2*
X-10459Y-28128D1*
X-10357Y-28081D1*
X-10272Y-28008D1*
X-10212Y-27914D1*
X-10180Y-27806D1*
Y-27694D1*
X-10212Y-27586D1*
X-10272Y-27492D1*
X-10357Y-27419D1*
X-10459Y-27372D1*
X-10570Y-27356D1*
Y-28144D1*
G37*
G36*
X-10830Y-27356D2*
X-10941Y-27372D1*
X-11043Y-27419D1*
X-11127Y-27492D1*
X-11188Y-27586D1*
X-11219Y-27694D1*
Y-27806D1*
X-11188Y-27914D1*
X-11127Y-28008D1*
X-11043Y-28081D1*
X-10941Y-28128D1*
X-10830Y-28144D1*
Y-27356D1*
G37*
G36*
X-5570Y-30144D2*
X-5459Y-30128D1*
X-5357Y-30081D1*
X-5272Y-30008D1*
X-5212Y-29914D1*
X-5180Y-29806D1*
Y-29694D1*
X-5212Y-29586D1*
X-5272Y-29492D1*
X-5357Y-29419D1*
X-5459Y-29372D1*
X-5570Y-29356D1*
Y-30144D1*
G37*
G36*
X-5830Y-29356D2*
X-5941Y-29372D1*
X-6043Y-29419D1*
X-6127Y-29492D1*
X-6188Y-29586D1*
X-6219Y-29694D1*
Y-29806D1*
X-6188Y-29914D1*
X-6127Y-30008D1*
X-6043Y-30081D1*
X-5941Y-30128D1*
X-5830Y-30144D1*
Y-29356D1*
G37*
D19*
X-24250Y-9250D3*
D25*
X-20250D3*
D19*
Y-10500D3*
D25*
X-24250D3*
G36*
X-10805Y-23106D2*
X-10916Y-23122D1*
X-11018Y-23169D1*
X-11103Y-23242D1*
X-11163Y-23336D1*
X-11195Y-23444D1*
Y-23556D1*
X-11163Y-23664D1*
X-11103Y-23758D1*
X-11018Y-23831D1*
X-10916Y-23878D1*
X-10805Y-23894D1*
Y-23106D1*
G37*
G36*
X-10545Y-23894D2*
X-10434Y-23878D1*
X-10332Y-23831D1*
X-10248Y-23758D1*
X-10187Y-23664D1*
X-10156Y-23556D1*
Y-23444D1*
X-10187Y-23336D1*
X-10248Y-23242D1*
X-10332Y-23169D1*
X-10434Y-23122D1*
X-10545Y-23106D1*
Y-23894D1*
G37*
D26*
X-3125Y-25625D3*
D27*
X-4125D3*
D19*
X-15125Y-31313D3*
D25*
X-11125D3*
D19*
X-10125Y-29250D3*
D25*
Y-33250D3*
D40*
X-31941Y-35254D3*
X-30941D3*
X-29941D3*
X-28941D3*
X-27941D3*
X-26941D3*
X-25941D3*
X-24941D3*
X-22941D3*
X-21941D3*
X-20941D3*
X-19941D3*
X-18941D3*
X-17941D3*
X-35541Y-16254D3*
X-34541D3*
X-33541D3*
X-32541D3*
X-31541D3*
X-30541D3*
X-29541D3*
X-28541D3*
X-27541D3*
X-26541D3*
X-24941D3*
X-23941D3*
X-22941D3*
X-21941D3*
X-20941D3*
X-19941D3*
X-18941D3*
X-17941D3*
D38*
X-18000Y-27000D3*
D18*
X-19000D3*
X-20000D3*
X-21000D3*
X-22000D3*
X-23000D3*
X-24000D3*
X-25000D3*
X-26000D3*
X-27000D3*
X-28000D3*
X-29000D3*
X-30000D3*
X-31000D3*
Y-30000D3*
X-30000D3*
X-29000D3*
X-28000D3*
X-27000D3*
X-26000D3*
X-25000D3*
X-24000D3*
X-23000D3*
X-22000D3*
X-21000D3*
X-20000D3*
X-19000D3*
X-18000D3*
X-24500Y-31250D3*
D38*
X-25500D3*
D26*
X-36375Y-31875D3*
D27*
X-37375D3*
X-36375Y-30875D3*
X-37375D3*
X-36375Y-29875D3*
X-37375D3*
D41*
X-22502Y-24753D3*
X-24402D3*
D18*
X-23502Y-21690D3*
D38*
X-22502D3*
D18*
X-23502Y-23065D3*
D38*
X-24502D3*
D19*
X-16063Y-33438D3*
D25*
X-12063D3*
D43*
X-15252Y-23440D3*
D44*
Y-22440D3*
D26*
X-14001Y-24315D3*
D27*
Y-23315D3*
Y-22315D3*
Y-21315D3*
Y-20315D3*
Y-19315D3*
G36*
X-8634Y-36545D2*
X-8536Y-36644D1*
X-8339D1*
X-8241Y-36545D1*
Y-35955D1*
X-8339Y-35856D1*
X-8536D1*
X-8634Y-35955D1*
Y-36545D1*
G37*
D45*
X-7938Y-36250D3*
X-7438D3*
D18*
X-17000Y-23875D3*
D38*
Y-22875D3*
D26*
X-3374Y-16937D3*
D27*
X-2374D3*
X-1374D3*
Y-13937D3*
X-2374D3*
X-3374D3*
D36*
X-3499Y-4375D3*
D37*
X-2499D3*
X-1499D3*
D19*
X-5188Y-9689D3*
D25*
Y-13689D3*
D19*
X-1188Y-21063D3*
D25*
Y-25063D3*
D20*
X-1187Y-18625D3*
D31*
Y-19625D3*
G36*
X-4384Y-23233D2*
X-4286Y-23331D1*
X-4089D1*
X-3991Y-23233D1*
Y-22642D1*
X-4089Y-22544D1*
X-4286D1*
X-4384Y-22642D1*
Y-23233D1*
G37*
D45*
X-3688Y-22937D3*
X-3188D3*
D19*
X-7688Y-20938D3*
D25*
X-3688D3*
D19*
X-2125Y-13001D3*
D25*
Y-9001D3*
D38*
X-3625Y-13001D3*
D18*
Y-7001D3*
D19*
X-1125Y-13001D3*
D25*
Y-9001D3*
D36*
X-32191Y-9689D3*
D37*
X-31191D3*
X-30191D3*
D19*
X-43817Y-19627D3*
D25*
Y-15627D3*
D36*
X-38379Y-9689D3*
D37*
X-37379D3*
X-36379D3*
G36*
X-40307Y-16832D2*
X-40406Y-16733D1*
X-40603D1*
X-40701Y-16832D1*
Y-17422D1*
X-40603Y-17520D1*
X-40406D1*
X-40307Y-17422D1*
Y-16832D1*
G37*
D45*
X-41004Y-17127D3*
X-41504D3*
D20*
X-33125Y-13125D3*
D31*
Y-14125D3*
D19*
X-35562Y-14188D3*
D25*
X-39562D3*
D19*
X-37004Y-18815D3*
D25*
X-41004D3*
D46*
X-37129Y-6376D3*
D47*
Y-2025D3*
D36*
X-44567Y-9689D3*
D37*
X-43567D3*
X-42567D3*
M02*
