M48
INCH
T01C0.0191
T02C0.0276
T03C0.028
T04C0.032
T05C0.0354
T06C0.038
T07C0.0394
T08C0.04
T09C0.0433
T10C0.0472
T11C0.05
T12C0.052
T13C0.1
T14C0.12
T15C0.125
T16C0.126
T17C0.126
%
T01
X-042000Y-026000
X-042000Y-027500
X-040500Y-027500
X-039000Y-027500
X-039000Y-026000
X-040500Y-026000
X-037500Y-026000
X-037500Y-027500
X-033563Y-028375
X-030500Y-025816
X-031500Y-022375
X-032125Y-021625
X-034066Y-019565
X-037500Y-020000
X-037500Y-021500
X-039000Y-021500
X-040500Y-021500
X-040500Y-020000
X-039000Y-020000
X-042000Y-020000
X-042000Y-021500
X-041937Y-013500
X-041500Y-011000
X-040500Y-011000
X-039500Y-011000
X-037438Y-011000
X-035250Y-011000
X-034250Y-011000
X-033250Y-011000
X-031438Y-011000
X-030188Y-011126
X-028375Y-010562
X-028375Y-009500
X-028500Y-007000
X-028500Y-006000
X-029750Y-006000
X-029750Y-007000
X-031000Y-007000
X-031000Y-006000
X-031000Y-004750
X-029750Y-004750
X-028500Y-004750
X-028000Y-002500
X-028000Y-001375
X-028000Y-000375
X-026500Y-000375
X-026500Y-001375
X-026500Y-002500
X-029500Y-002500
X-029500Y-001375
X-029500Y-000375
X-038500Y+000000
X-038500Y-001500
X-038500Y-003000
X-040000Y-003000
X-041500Y-003000
X-041500Y-001500
X-041500Y+000000
X-040000Y+000000
X-040000Y-001500
X-040000Y-004625
X-041500Y-004625
X-042875Y-004625
X-044375Y-004625
X-044375Y-006125
X-044375Y-007625
X-042875Y-006125
X-041500Y-006125
X-040000Y-006125
X-038500Y-006125
X-038500Y-007625
X-040000Y-007625
X-041500Y-007625
X-038500Y-004625
X-036750Y-007625
X-035250Y-007625
X-030000Y-017375
X-030625Y-018313
X-030500Y-018875
X-028500Y-018313
X-028000Y-018875
X-028003Y-020190
X-029003Y-020815
X-027500Y-021500
X-027500Y-022375
X-027000Y-024815
X-026065Y-025315
X-026503Y-027815
X-025000Y-028375
X-028000Y-031813
X-029000Y-032250
X-028941Y-033625
X-029941Y-034000
X-031000Y-033125
X-027938Y-033125
X-023000Y-032625
X-017002Y-034066
X-012750Y-032688
X-012000Y-035000
X-010500Y-035000
X-010500Y-036500
X-012000Y-036500
X-010875Y-030000
X-011375Y-029250
X-009813Y-027250
X-009750Y-026250
X-009250Y-025313
X-010875Y-025750
X-011375Y-022875
X-012000Y-021625
X-016938Y-019313
X-019502Y-019565
X-020000Y-020265
X-019000Y-021303
X-018375Y-022188
X-018375Y-023500
X-018375Y-024625
X-016063Y-026313
X-014500Y-027500
X-013500Y-027500
X-003000Y-030000
X-003000Y-031500
X-003000Y-033000
X-002938Y-034188
X-001500Y-034250
X-001500Y-033000
X+000000Y-033000
X+000000Y-031500
X-001500Y-031500
X-001500Y-030000
X+000000Y-030000
X-004938Y-019500
X-023502Y-020190
X-023941Y-020815
X-024941Y-017375
X-035000Y-032625
X-035500Y-034000
X-034504Y-034504
X-037375Y-033125
X-042125Y-033000
X-043625Y-033000
X-043625Y-031500
X-042125Y-031500
X-042125Y-030000
X-043625Y-030000
X-043625Y-034500
X-042125Y-034500
T02
X-008438Y-036250
X-007938Y-036250
X-007438Y-036250
X-004188Y-022937
X-003688Y-022937
X-003188Y-022937
X-040504Y-017127
X-041004Y-017127
X-041504Y-017127
T03
X-019500Y-013125
X-019500Y-014125
X-022687Y-014125
X-022687Y-013125
X-030250Y-013125
X-030250Y-014125
X-033125Y-014125
X-033125Y-013125
X-001187Y-018625
X-001187Y-019625
T04
X-022502Y-024753
X-024402Y-024753
T05
X-008500Y-022750
X-007500Y-022750
X-007500Y-023750
X-007500Y-024750
X-007500Y-025750
X-008500Y-025750
X-008500Y-024750
X-008500Y-023750
X-008500Y-026750
X-008500Y-027750
X-008500Y-028750
X-007500Y-028750
X-007500Y-027750
X-007500Y-026750
X-007500Y-029750
X-008500Y-029750
X-004125Y-025625
X-003125Y-025625
X-001500Y-027000
X-001500Y-029000
X-006750Y-019688
X-007750Y-019688
X-008750Y-019688
X-007750Y-018250
X-006750Y-018250
X-003374Y-016937
X-002374Y-016937
X-001374Y-016937
X-001374Y-013937
X-002374Y-013937
X-003374Y-013937
X-003625Y-013001
X-003625Y-007001
X-014504Y-006001
X-014504Y-005001
X-014504Y-004001
X-015755Y-005001
X-017755Y-005001
X-019500Y-003750
X-020500Y-003750
X-021500Y-003750
X-021500Y-006750
X-020500Y-006750
X-019500Y-006750
X-015438Y-012000
X-014438Y-012000
X-014001Y-019315
X-014001Y-020315
X-014001Y-021315
X-014001Y-022315
X-014001Y-023315
X-014001Y-024315
X-018000Y-027000
X-019000Y-027000
X-020000Y-027000
X-021000Y-027000
X-022000Y-027000
X-023000Y-027000
X-024000Y-027000
X-025000Y-027000
X-026000Y-027000
X-027000Y-027000
X-028000Y-027000
X-029000Y-027000
X-030000Y-027000
X-031000Y-027000
X-031000Y-030000
X-030000Y-030000
X-029000Y-030000
X-028000Y-030000
X-027000Y-030000
X-026000Y-030000
X-025000Y-030000
X-024000Y-030000
X-023000Y-030000
X-022000Y-030000
X-021000Y-030000
X-020000Y-030000
X-019000Y-030000
X-018000Y-030000
X-036375Y-029875
X-036375Y-030875
X-036375Y-031875
X-037375Y-031875
X-037375Y-030875
X-037375Y-029875
X-020438Y+001312
X-019438Y+001312
T06
X-043625Y-012875
X-043817Y-015627
X-043817Y-019627
X-041004Y-018815
X-037004Y-018815
X-035562Y-014188
X-034750Y-012875
X-038750Y-012875
X-039625Y-012875
X-039562Y-014188
X-028500Y-014125
X-024500Y-014125
X-024250Y-011750
X-024250Y-010500
X-024250Y-009250
X-024250Y-008000
X-020250Y-008000
X-020250Y-009250
X-020250Y-010500
X-020250Y-011750
X-019438Y-002687
X-023438Y-002687
X-012626Y-018564
X-012626Y-022564
X-012626Y-023627
X-012626Y-027627
X-010125Y-029250
X-011125Y-031313
X-010125Y-033250
X-012063Y-033438
X-015125Y-031313
X-016063Y-033438
X-007688Y-020938
X-003688Y-020938
X-001188Y-021063
X-001188Y-025063
X-005188Y-013689
X-002125Y-013001
X-001125Y-013001
X-001125Y-009001
X-002125Y-009001
X-005188Y-009689
T07
X-014409Y-002875G85X-015591Y-002875
X-016850Y-002186G85X-016850Y-001202
X-014508Y-000513G85X-015492Y-000513
X-016130Y-007501
X-017130Y-007501
X-015500Y-013437
X-014500Y-013437
X-017000Y-022875
X-017000Y-023875
X-022502Y-021690
X-023502Y-021690
X-023502Y-023065
X-024502Y-023065
X-024500Y-031250
X-025500Y-031250
T08
X-031941Y-035254
X-030941Y-035254
X-029941Y-035254
X-028941Y-035254
X-027941Y-035254
X-026941Y-035254
X-025941Y-035254
X-024941Y-035254
X-022941Y-035254
X-021941Y-035254
X-020941Y-035254
X-019941Y-035254
X-018941Y-035254
X-017941Y-035254
X-017941Y-016254
X-018941Y-016254
X-019941Y-016254
X-020941Y-016254
X-021941Y-016254
X-022941Y-016254
X-023941Y-016254
X-024941Y-016254
X-026541Y-016254
X-027541Y-016254
X-028541Y-016254
X-029541Y-016254
X-030541Y-016254
X-031541Y-016254
X-032541Y-016254
X-033541Y-016254
X-034541Y-016254
X-035541Y-016254
T09
X-016505Y-010439
X-015505Y-010439
X-014505Y-010439
X-015252Y-022440
X-015252Y-023440
X-030191Y-009689
X-031191Y-009689
X-032191Y-009689
X-036379Y-009689
X-037379Y-009689
X-038379Y-009689
X-042567Y-009689
X-043567Y-009689
X-044567Y-009689
X-003499Y-004375
X-002499Y-004375
X-001499Y-004375
T10
X-037129Y-006376
X-037129Y-002025
T11
X-035652Y-006405G85X-035652Y-004846
X-032842Y-006405G85X-032842Y-004846
X-032842Y-003295G85X-032842Y-001736
X-035652Y-003295G85X-035652Y-001736
X-007351Y-005376G85X-007651Y-005376
X-007351Y-007187G85X-007651Y-007187
X-007351Y-011636G85X-007651Y-011636
X-007351Y-013443G85X-007651Y-013443
T12
X-008000Y+000125
X-006040Y+000125
X-004060Y+000125
X-002100Y+000125
T13
X-026628Y-011126
X-026628Y-009126
X-026628Y-007526
X-026628Y-005526
T14
X-043133Y-000890
X-043133Y-007243
T15
X-014961Y-016170
X-014961Y-035461
X-037796Y-035461
X-037796Y-016170
T16
X+000019Y+000027
X+000020Y-035403
X-045650Y-035406
X-045650Y+000027
T17
X-045650Y-038063
X+000000Y-038063
T00
M30
