G04 DipTrace 2.4.0.2*
%INTop.gbr*%
%MOIN*%
%ADD14C,0.024*%
%ADD15C,0.013*%
%ADD16C,0.048*%
%ADD17C,0.07*%
%ADD18C,0.063*%
%ADD19C,0.06*%
%ADD20C,0.05*%
%ADD21C,0.025*%
%ADD22C,0.015*%
%ADD24C,0.012*%
%ADD25C,0.06*%
%ADD26R,0.0591X0.0591*%
%ADD27C,0.0591*%
%ADD30O,0.1181X0.2559*%
%ADD31R,0.05X0.05*%
%ADD32O,0.1969X0.0787*%
%ADD33O,0.1772X0.0787*%
%ADD34O,0.0787X0.1772*%
%ADD35O,0.18X0.1*%
%ADD36R,0.0748X0.0748*%
%ADD37C,0.0748*%
%ADD38R,0.063X0.063*%
%ADD39O,0.18X0.13*%
%ADD40O,0.06X0.09*%
%ADD41C,0.048*%
%ADD42R,0.11X0.055*%
%ADD43R,0.0669X0.0669*%
%ADD44C,0.0669*%
%ADD45O,0.0394X0.0787*%
%ADD46R,0.0709X0.0709*%
%ADD47C,0.0709*%
%ADD48C,0.04*%
%FSLAX44Y44*%
G04*
G70*
G90*
G75*
G01*
%LNTop*%
%LPD*%
X-26628Y-7526D2*
D14*
Y-5526D1*
Y-5250D1*
X-32466D1*
X-32842Y-5626D1*
X-21000Y-30000D2*
D15*
Y-35195D1*
X-20941Y-35254D1*
X-20000Y-30000D2*
Y-35195D1*
X-19941Y-35254D1*
X-7501Y-7187D2*
Y-5376D1*
X-6313D1*
X-4813Y-3875D1*
Y-2688D1*
X-4063Y-1938D1*
Y122D1*
X-4060Y125D1*
X-2499Y-4375D2*
Y-5875D1*
X-3625Y-7001D1*
Y-8126D1*
X-5188Y-9689D1*
Y-10876D1*
X-5938Y-11626D1*
X-7491D1*
X-7501Y-11636D1*
Y-13443D2*
Y-11636D1*
X-2100Y125D2*
D16*
Y-2350D1*
X-3500Y-3750D1*
Y-4375D1*
X-3499D1*
X-2125Y-9001D2*
X-1125D1*
X-17000Y-22875D2*
D15*
Y-19375D1*
X-16938Y-19313D1*
X-28000Y-31813D2*
Y-30000D1*
Y-28000D1*
X-28500Y-27500D1*
Y-18313D1*
X-30625D2*
Y-16338D1*
X-30541Y-16254D1*
X-29000Y-30000D2*
Y-28250D1*
X-29500Y-27750D1*
Y-16295D1*
X-29541Y-16254D1*
X-29000Y-30000D2*
Y-32250D1*
X-5500Y-36250D2*
X-1917D1*
X-29941Y-35254D2*
Y-34000D1*
X-35500D2*
Y-30813D1*
X-36375Y-29938D1*
Y-29875D1*
X-17002Y-34066D2*
Y-27000D1*
X-18000D1*
X-7438Y-36250D2*
Y-36187D1*
X-7375Y-36250D1*
X-5500D1*
X-17000Y-23875D2*
X-17002Y-27000D1*
X-27000Y-30000D2*
Y-27875D1*
X-27500Y-27375D1*
Y-22375D1*
X-31500D2*
Y-16295D1*
X-31541Y-16254D1*
X-30000Y-30000D2*
Y-28375D1*
X-30500Y-27875D1*
Y-25816D1*
Y-18875D1*
X-28000D2*
Y-17500D1*
X-28500Y-17000D1*
Y-16295D1*
X-28541Y-16254D1*
X-23941D2*
Y-20815D1*
X-29003D2*
Y-27000D1*
X-29000D1*
X-24941Y-16254D2*
Y-17375D1*
X-30000D2*
Y-27000D1*
X-26503Y-27815D2*
Y-21877D1*
X-26563Y-21818D1*
Y-16275D1*
X-26541Y-16254D1*
Y-15978D1*
X-25938Y-15375D1*
X-24688D1*
X-23688Y-14375D1*
Y-8625D1*
X-24312Y-8000D1*
X-24250D1*
X-31000Y-30000D2*
Y-28500D1*
X-31500Y-28000D1*
Y-23500D1*
X-32125Y-22875D1*
Y-21625D1*
X-27500Y-21500D2*
Y-16295D1*
X-27541Y-16254D1*
X-19000Y-27000D2*
Y-21303D1*
Y-18250D1*
X-18000Y-17250D1*
Y-16313D1*
X-17941Y-16254D1*
X-14001Y-21315D2*
X-13064D1*
X-12562Y-20813D1*
X-11375D1*
X-20000Y-27000D2*
Y-20265D1*
Y-18250D1*
X-18875Y-17125D1*
Y-16320D1*
X-18941Y-16254D1*
X-14001Y-20315D2*
X-13127D1*
X-12626Y-19815D1*
Y-18564D1*
X-33541Y-16254D2*
X-33563D1*
Y-28375D1*
X-25000D2*
Y-30000D1*
X-21000Y-27000D2*
Y-18563D1*
X-20000Y-17563D1*
Y-16313D1*
X-19941Y-16254D1*
X-22000Y-27000D2*
Y-18125D1*
X-21000Y-17125D1*
Y-16313D1*
X-20941Y-16254D1*
X-23000Y-27000D2*
Y-18000D1*
X-22000Y-17000D1*
Y-16313D1*
X-21941Y-16254D1*
X-22941D2*
Y-17190D1*
X-23502Y-17752D1*
Y-20190D1*
X-28003D2*
Y-27000D1*
X-28000D1*
X-37129Y-6376D2*
X-36402D1*
X-35652Y-5626D1*
X-31191Y-9689D2*
Y-8813D1*
X-31691Y-8313D1*
X-36017D1*
X-37214D1*
X-42192D1*
X-43567Y-9689D1*
X-37379D2*
Y-8478D1*
X-37214Y-8313D1*
X-36017D2*
Y-5990D1*
X-35652Y-5626D1*
X-43500Y-12875D2*
X-43625D1*
X-41937Y-13500D2*
X-43000D1*
X-43625Y-12875D1*
X-24500Y-31250D2*
Y-31125D1*
X-24000Y-30625D1*
Y-30000D1*
X-23502Y-21690D2*
Y-23065D1*
X-25000Y-27000D2*
X-25125D1*
X-23502Y-25378D1*
Y-23065D1*
X-21000Y-5062D2*
Y-5000D1*
X-20500D1*
Y-6750D1*
X-19500Y-14125D2*
X-18625Y-13250D1*
Y-5000D1*
X-20500D1*
X-32842Y-2515D2*
X-35652D1*
X-35922D1*
X-36412Y-2025D1*
X-37129D1*
X-7500Y-24750D2*
Y-24875D1*
X-8000Y-25375D1*
Y-26250D1*
X-8500Y-26750D1*
X-8375D1*
X-8000Y-27125D1*
Y-28250D1*
X-7500Y-28750D1*
X-4188Y-22937D2*
X-5687D1*
X-7500Y-24750D1*
X-14001Y-24315D2*
Y-25815D1*
X-12626Y-27190D1*
Y-27627D1*
X-17130Y-7501D2*
Y-12939D1*
X-16694Y-13375D1*
X-15438D1*
X-15500Y-13437D1*
X-17755Y-5001D2*
X-18625Y-5000D1*
X-44567Y-9689D2*
X-45317D1*
X-45817Y-10189D1*
Y-11814D1*
X-38379D1*
X-32814D1*
X-32191Y-11191D1*
Y-9689D1*
X-38379D2*
Y-11814D1*
X-45817D2*
Y-15814D1*
X-44505Y-17127D1*
X-43817D1*
X-41504D1*
X-43817Y-15627D2*
Y-17127D1*
X-15000Y-2875D2*
D14*
Y-3505D1*
X-14504Y-4001D1*
X-33125Y-14125D2*
D15*
X-35500D1*
X-35562Y-14188D1*
X-3688Y-20938D2*
Y-22937D1*
X-5188Y-13689D2*
X-4561D1*
X-4249Y-14000D1*
X-3437D1*
X-3374Y-13937D1*
X-19500Y-13125D2*
Y-8625D1*
X-20125Y-8000D1*
X-20250Y-8125D1*
Y-8000D1*
X-1187Y-18625D2*
Y-18124D1*
X-2374Y-16937D1*
X-1188Y-21063D2*
X-1187Y-19625D1*
X-3188Y-22937D2*
Y-23750D1*
X-1938Y-25000D1*
X-1188D1*
Y-25063D1*
X-19438Y1312D2*
Y-2687D1*
Y-3688D1*
X-19500Y-3750D1*
X-20438Y1312D2*
Y-3688D1*
X-20500Y-3750D1*
X-21500D2*
Y-3687D1*
X-22500Y-2687D1*
X-23438D1*
X-41004Y-17127D2*
Y-18815D1*
X-7938Y-34625D2*
Y-36250D1*
X-30250Y-14125D2*
X-29437D1*
X-28500D1*
X-28941Y-35254D2*
D14*
Y-33625D1*
X-12750Y-32688D2*
Y-30250D1*
X-12000Y-29500D1*
Y-21625D1*
X-8500Y-22750D2*
Y-20750D1*
X-8750Y-20500D1*
Y-19688D1*
X-14504Y-5001D2*
X-15755D1*
Y-5438D1*
X-16130Y-5813D1*
Y-7501D1*
X-15438Y-12000D2*
X-16505Y-10932D1*
Y-10439D1*
Y-8626D1*
X-16130Y-8251D1*
Y-7501D1*
X-21650Y-5062D2*
D15*
X-21500D1*
Y-6750D1*
X-22687Y-14125D2*
X-23250Y-13562D1*
Y-7438D1*
X-22562Y-6750D1*
X-21500D1*
X-7750Y-18250D2*
D14*
X-10688D1*
X-12938Y-16000D1*
Y-14313D1*
X-13813Y-13438D1*
X-14437D1*
X-14500Y-13375D1*
Y-13437D1*
X-14438Y-12000D2*
Y-13375D1*
X-14500Y-13437D1*
X-14438Y-12000D2*
Y-10506D1*
X-14505Y-10439D1*
X-8500Y-25750D2*
D15*
X-9000D1*
X-9313Y-26063D1*
Y-32599D1*
X-7938Y-33975D1*
X-11125Y-31313D2*
Y-31250D1*
X-10125Y-30250D1*
Y-29250D1*
X-9750Y-26250D2*
Y-21875D1*
X-10813Y-20813D1*
X-10725D1*
X-18000Y-30000D2*
Y-35195D1*
X-17941Y-35254D1*
X-10875Y-30000D2*
Y-25750D1*
X-35541Y-16254D2*
Y-25209D1*
X-34504Y-26246D1*
Y-34504D1*
X-19000Y-30000D2*
Y-35195D1*
X-18941Y-35254D1*
X-34541Y-16254D2*
Y-19090D1*
X-34066Y-19565D1*
X-19502D2*
Y-29498D1*
X-19000Y-30000D1*
X-11375Y-29250D2*
Y-22875D1*
X-3625Y-13001D2*
D17*
D3*
D18*
X-2960D1*
D17*
X-2775D1*
D19*
X-2125D1*
X-1374Y-13937D2*
D15*
Y-13250D1*
X-1125Y-13001D1*
Y-10314D1*
X-188Y-9376D1*
Y-5687D1*
X-1499Y-4375D1*
X-26628Y-11126D2*
D14*
Y-9126D1*
X-29066D1*
X-29566Y-9626D1*
X-30128D1*
X-30191Y-9689D1*
X-30188Y-11126D1*
X-30250Y-13125D2*
Y-11126D1*
X-30188D1*
X-42567Y-9689D2*
D20*
Y-10938D1*
X-41562D1*
X-41500Y-11000D1*
X-36379Y-9689D2*
Y-10996D1*
D14*
X-36375Y-11000D1*
X-35250D1*
X-25500Y-31250D2*
X-26000Y-30000D1*
X-37375Y-31875D2*
Y-33125D1*
X-27938D2*
Y-35257D1*
X-27941Y-35254D1*
X-26000Y-30000D2*
Y-28125D1*
X-25688Y-27813D1*
X-24813D1*
X-24000Y-27000D1*
X-27938Y-33125D2*
X-27188D1*
X-25500Y-31437D1*
Y-31250D1*
X-31000Y-33125D2*
Y-35195D1*
X-30941Y-35254D1*
X-15252Y-23440D2*
X-16063D1*
Y-26313D1*
Y-23440D2*
Y-18625D1*
X-15252Y-17814D1*
X-12123D1*
X-11000Y-18938D1*
X-8500D1*
X-7750Y-19688D1*
X-16063Y-26313D2*
Y-33438D1*
X-22000Y-30000D2*
D15*
Y-35195D1*
X-21941Y-35254D1*
X-22000Y-30000D2*
Y-28063D1*
X-21503Y-27566D1*
Y-18316D1*
X-20441Y-17253D1*
Y-14809D1*
X-21000Y-14250D1*
Y-11125D1*
X-20375Y-10500D1*
X-20250D1*
Y-9250D1*
X-39625Y-12875D2*
X-38750D1*
X-39687D1*
X-23000Y-30000D2*
Y-32625D1*
X-35000D2*
Y-26875D1*
X-39629Y-22246D1*
Y-15379D1*
X-38750Y-14500D1*
Y-12875D1*
X-23000Y-32625D2*
Y-35195D1*
X-22941Y-35254D1*
X-26000Y-27000D2*
X-26065D1*
Y-25315D1*
X-24402Y-24753D2*
Y-23165D1*
X-24502Y-23065D1*
X-27000Y-27000D2*
Y-24815D1*
D48*
X-16938Y-19313D3*
X-28000Y-31813D3*
X-28500Y-18313D3*
X-30625D3*
X-29000Y-32250D3*
X-29941Y-34000D3*
X-35500D3*
X-17002Y-34066D3*
X-29941Y-34000D3*
X-27500Y-22375D3*
X-31500D3*
X-30500Y-18875D3*
X-28000D3*
X-30500Y-25816D3*
X-23941Y-20815D3*
D3*
X-29003D3*
X-24941Y-17375D3*
X-30000D3*
X-26503Y-27815D3*
X-32125Y-21625D3*
X-27500Y-21500D3*
X-19000Y-21303D3*
X-20000Y-20265D3*
X-33563Y-28375D3*
X-25000D3*
X-23502Y-20190D3*
X-28003D3*
X-41937Y-13500D3*
X-28941Y-33625D3*
X-12750Y-32688D3*
X-12000Y-21625D3*
X-9750Y-26250D3*
X-10875Y-30000D3*
Y-25750D3*
X-34504Y-34504D3*
X-34066Y-19565D3*
X-19502D3*
X-11375Y-29250D3*
Y-22875D3*
X-30188Y-11126D3*
D3*
X-37375Y-33125D3*
X-27938D3*
D3*
X-31000D3*
X-16063Y-26313D3*
X-23000Y-32625D3*
X-35000D3*
X-26065Y-25315D3*
X-27000Y-24815D3*
X-42000Y-26000D3*
X-40500D3*
X-39000D3*
Y-27500D3*
X-40500D3*
X-42000D3*
X-37500Y-26000D3*
Y-27500D3*
X-41500Y0D3*
Y-1500D3*
Y-3000D3*
X-40000D3*
Y-1500D3*
Y0D3*
X-38500D3*
Y-1500D3*
Y-3000D3*
X-29500Y-1375D3*
Y-2500D3*
X-28000D3*
Y-1375D3*
X-26500D3*
Y-2500D3*
X-29500Y-375D3*
X-28000D3*
X-26500D3*
X0Y-33000D3*
X-3000Y-30000D3*
X-1500D3*
Y-31500D3*
X0Y-30000D3*
Y-31500D3*
X-42000Y-20000D3*
X-40500D3*
X-39000D3*
X-37500D3*
X-18375Y-23500D3*
Y-24625D3*
Y-22188D3*
X-9813Y-27250D3*
X-9250Y-25313D3*
X-13500Y-27500D3*
X-14500D3*
X-10500Y-35000D3*
X-2938Y-34188D3*
X-10500Y-36500D3*
X-12000D3*
Y-35000D3*
X-3000Y-31500D3*
Y-33000D3*
X-1500D3*
Y-34250D3*
X-4938Y-19500D3*
X-42000Y-21500D3*
X-40500D3*
X-39000D3*
X-37500D3*
X-41500Y-4625D3*
Y-6125D3*
Y-7625D3*
X-40000D3*
Y-6125D3*
Y-4625D3*
X-38500D3*
Y-6125D3*
Y-7625D3*
X-41500Y-11000D3*
X-40500D3*
X-37438D3*
X-44375Y-7625D3*
Y-6125D3*
Y-4625D3*
X-42875D3*
Y-6125D3*
X-36750Y-7625D3*
X-35250D3*
X-31000Y-6000D3*
Y-7000D3*
X-29750D3*
Y-6000D3*
X-28500D3*
Y-7000D3*
X-31000Y-4750D3*
X-29750D3*
X-28500D3*
X-43625Y-34500D3*
Y-33000D3*
Y-31500D3*
X-42125D3*
Y-33000D3*
Y-34500D3*
X-43625Y-30000D3*
X-42125D3*
X-31438Y-11000D3*
X-39500D3*
X-28375Y-9500D3*
X-35250Y-11000D3*
X-34250D3*
X-28375Y-10562D3*
X-33250Y-11000D3*
X-46165Y-4499D2*
D21*
X-34653D1*
X-46165Y-4748D2*
X-34653D1*
X-46165Y-4996D2*
X-34653D1*
X-46165Y-5245D2*
X-34653D1*
X-46165Y-5494D2*
X-34653D1*
X-46165Y-5743D2*
X-34653D1*
X-46165Y-5991D2*
X-34653D1*
X-46165Y-6240D2*
X-34653D1*
X-46165Y-6489D2*
X-43712D1*
X-42556D2*
X-34653D1*
X-46165Y-6737D2*
X-43946D1*
X-42322D2*
X-34653D1*
X-46165Y-6986D2*
X-44055D1*
X-42208D2*
X-34653D1*
X-46165Y-7235D2*
X-44094D1*
X-42173D2*
X-34653D1*
X-46165Y-7483D2*
X-44063D1*
X-42204D2*
X-34653D1*
X-46165Y-7732D2*
X-43954D1*
X-42310D2*
X-30778D1*
X-46165Y-7981D2*
X-43731D1*
X-42533D2*
X-30774D1*
X-46165Y-8229D2*
X-30774D1*
X-46165Y-8478D2*
X-30715D1*
X-46165Y-8727D2*
X-30715D1*
X-46165Y-8975D2*
X-42821D1*
X-42314D2*
X-36633D1*
X-36126D2*
X-30715D1*
X-46165Y-9224D2*
X-45231D1*
X-43904D2*
X-43180D1*
X-41954D2*
X-39044D1*
X-37716D2*
X-36993D1*
X-35767D2*
X-32856D1*
X-31529D2*
X-30805D1*
X-46162Y-9473D2*
X-45594D1*
X-43904D2*
X-43309D1*
X-41826D2*
X-39044D1*
X-37716D2*
X-37122D1*
X-35638D2*
X-32856D1*
X-31529D2*
X-30934D1*
X-46162Y-9722D2*
X-45840D1*
X-43904D2*
X-43340D1*
X-41794D2*
X-39044D1*
X-37716D2*
X-37153D1*
X-35607D2*
X-32856D1*
X-31529D2*
X-30965D1*
X-43904Y-9970D2*
X-43286D1*
X-41849D2*
X-39044D1*
X-37716D2*
X-37098D1*
X-35662D2*
X-32856D1*
X-31529D2*
X-30911D1*
X-42206Y-7368D2*
X-42231Y-7490D1*
X-42272Y-7608D1*
X-42329Y-7720D1*
X-42399Y-7823D1*
X-42483Y-7915D1*
X-42579Y-7996D1*
X-42684Y-8063D1*
X-42797Y-8116D1*
X-42916Y-8153D1*
X-43040Y-8174D1*
X-43164Y-8178D1*
X-43289Y-8165D1*
X-43410Y-8136D1*
X-43527Y-8091D1*
X-43636Y-8031D1*
X-43737Y-7957D1*
X-43827Y-7870D1*
X-43904Y-7772D1*
X-43968Y-7665D1*
X-44016Y-7550D1*
X-44049Y-7429D1*
X-44066Y-7306D1*
Y-7181D1*
X-44049Y-7057D1*
X-44016Y-6936D1*
X-43968Y-6821D1*
X-43904Y-6714D1*
X-43826Y-6616D1*
X-43737Y-6529D1*
X-43636Y-6455D1*
X-43527Y-6395D1*
X-43410Y-6350D1*
X-43288Y-6321D1*
X-43164Y-6309D1*
X-43039Y-6313D1*
X-42916Y-6334D1*
X-42797Y-6371D1*
X-42684Y-6423D1*
X-42578Y-6491D1*
X-42483Y-6571D1*
X-42399Y-6664D1*
X-42329Y-6767D1*
X-42272Y-6878D1*
X-42231Y-6996D1*
X-42206Y-7119D1*
X-42198Y-7243D1*
X-42206Y-7368D1*
X-32705Y-9050D2*
X-31552D1*
Y-10139D1*
X-30785Y-10142D1*
X-30858Y-10029D1*
X-30905Y-9913D1*
X-30933Y-9791D1*
X-30940Y-9667D1*
X-30926Y-9543D1*
X-30891Y-9423D1*
X-30837Y-9310D1*
X-30765Y-9208D1*
X-30689Y-9125D1*
X-30691Y-8453D1*
X-30746Y-8304D1*
X-30751Y-7751D1*
X-30753Y-7563D1*
X-30882D1*
X-30972Y-7574D1*
X-31128Y-7563D1*
X-34129D1*
X-34285Y-7529D1*
X-34441Y-7501D1*
X-34504D1*
X-34609Y-7440D1*
X-34629Y-7376D1*
Y-4250D1*
X-46192D1*
X-46188Y-10129D1*
X-46133Y-10092D1*
X-46075Y-9982D1*
X-45551Y-9455D1*
X-45448Y-9386D1*
X-45317Y-9359D1*
X-45204D1*
X-45206Y-9050D1*
X-43928D1*
Y-10132D1*
X-43375Y-10128D1*
X-43191Y-10129D1*
X-43282Y-9913D1*
X-43309Y-9791D1*
X-43316Y-9667D1*
X-43302Y-9543D1*
X-43267Y-9423D1*
X-43213Y-9310D1*
X-43142Y-9208D1*
X-43054Y-9119D1*
X-42952Y-9046D1*
X-42840Y-8991D1*
X-42721Y-8955D1*
X-42597Y-8940D1*
X-42472Y-8946D1*
X-42350Y-8972D1*
X-42234Y-9018D1*
X-42127Y-9082D1*
X-42033Y-9164D1*
X-41953Y-9260D1*
X-41890Y-9368D1*
X-41846Y-9485D1*
X-41823Y-9607D1*
X-41818Y-9689D1*
X-41829Y-9813D1*
X-41860Y-9934D1*
X-41910Y-10048D1*
X-41942Y-10097D1*
X-41875Y-10130D1*
X-39019Y-10133D1*
X-39018Y-9050D1*
X-37740D1*
Y-10132D1*
X-37004Y-10135D1*
Y-10101D1*
X-37046Y-10029D1*
X-37094Y-9913D1*
X-37121Y-9791D1*
X-37128Y-9667D1*
X-37114Y-9543D1*
X-37079Y-9423D1*
X-37025Y-9310D1*
X-36953Y-9208D1*
X-36866Y-9119D1*
X-36764Y-9046D1*
X-36652Y-8991D1*
X-36533Y-8955D1*
X-36409Y-8940D1*
X-36284Y-8946D1*
X-36162Y-8972D1*
X-36046Y-9018D1*
X-35939Y-9082D1*
X-35844Y-9164D1*
X-35765Y-9260D1*
X-35702Y-9368D1*
X-35658Y-9485D1*
X-35634Y-9607D1*
X-35630Y-9689D1*
X-35640Y-9813D1*
X-35671Y-9934D1*
X-35722Y-10048D1*
X-35754Y-10097D1*
X-35750Y-10137D1*
X-32832Y-10140D1*
X-32830Y-9050D1*
X-32705D1*
X-46231Y1627D2*
X-21007D1*
X-18782D2*
X-12652D1*
X-46231Y1378D2*
X-21089D1*
X-18782D2*
X-12652D1*
X-46231Y1129D2*
X-21066D1*
X-18782D2*
X-12652D1*
X-45176Y880D2*
X-20921D1*
X-18782D2*
X-12652D1*
X-44871Y632D2*
X-20863D1*
X-19012D2*
X-12652D1*
X-44727Y383D2*
X-20863D1*
X-19012D2*
X-12652D1*
X-44668Y134D2*
X-20863D1*
X-19012D2*
X-15851D1*
X-14149D2*
X-12652D1*
X-44672Y-114D2*
X-43679D1*
X-42586D2*
X-20863D1*
X-19012D2*
X-16129D1*
X-13871D2*
X-12652D1*
X-44743Y-363D2*
X-43929D1*
X-42336D2*
X-20863D1*
X-19012D2*
X-16230D1*
X-13770D2*
X-12652D1*
X-44903Y-612D2*
X-44050D1*
X-42215D2*
X-20863D1*
X-19012D2*
X-17304D1*
X-16399D2*
X-16238D1*
X-13762D2*
X-12652D1*
X-46235Y-860D2*
X-46054D1*
X-45246D2*
X-44093D1*
X-42172D2*
X-20863D1*
X-19012D2*
X-17519D1*
X-13844D2*
X-12652D1*
X-46235Y-1109D2*
X-44066D1*
X-42200D2*
X-36261D1*
X-35043D2*
X-33453D1*
X-32231D2*
X-20863D1*
X-19012D2*
X-17597D1*
X-16102D2*
X-15937D1*
X-14063D2*
X-12652D1*
X-46235Y-1358D2*
X-43968D1*
X-42297D2*
X-37324D1*
X-36934D2*
X-36476D1*
X-34829D2*
X-33664D1*
X-32020D2*
X-20863D1*
X-19012D2*
X-17605D1*
X-16098D2*
X-12652D1*
X-46235Y-1606D2*
X-43757D1*
X-42508D2*
X-37703D1*
X-34727D2*
X-33765D1*
X-31918D2*
X-20863D1*
X-19012D2*
X-17605D1*
X-16098D2*
X-12652D1*
X-46235Y-1855D2*
X-37820D1*
X-34704D2*
X-33793D1*
X-31891D2*
X-20863D1*
X-19012D2*
X-17605D1*
X-16098D2*
X-12652D1*
X-46235Y-2104D2*
X-37839D1*
X-34704D2*
X-33793D1*
X-31891D2*
X-23711D1*
X-23164D2*
X-20863D1*
X-19012D2*
X-17605D1*
X-16098D2*
X-12652D1*
X-46235Y-2352D2*
X-37761D1*
X-34704D2*
X-33793D1*
X-31891D2*
X-24004D1*
X-22258D2*
X-20863D1*
X-18871D2*
X-17586D1*
X-13875D2*
X-12652D1*
X-46235Y-2601D2*
X-37531D1*
X-34704D2*
X-33793D1*
X-31891D2*
X-24093D1*
X-21996D2*
X-20863D1*
X-18782D2*
X-17472D1*
X-13707D2*
X-12652D1*
X-46239Y-2850D2*
X-36601D1*
X-34704D2*
X-33793D1*
X-31891D2*
X-24078D1*
X-21746D2*
X-20863D1*
X-18797D2*
X-17175D1*
X-16524D2*
X-16341D1*
X-13657D2*
X-12652D1*
X-46239Y-3099D2*
X-36601D1*
X-34704D2*
X-33793D1*
X-31891D2*
X-23945D1*
X-22930D2*
X-22679D1*
X-21500D2*
X-20863D1*
X-18930D2*
X-16308D1*
X-13692D2*
X-12652D1*
X-46239Y-3347D2*
X-36589D1*
X-34711D2*
X-33781D1*
X-31903D2*
X-22429D1*
X-18989D2*
X-16171D1*
X-13829D2*
X-12652D1*
X-46239Y-3596D2*
X-36515D1*
X-34789D2*
X-33707D1*
X-31977D2*
X-22183D1*
X-18864D2*
X-15722D1*
X-13848D2*
X-12652D1*
X-25168Y-3845D2*
X-22148D1*
X-18852D2*
X-15328D1*
X-13848D2*
X-12652D1*
X-25020Y-4093D2*
X-22054D1*
X-18946D2*
X-15160D1*
X-13848D2*
X-12652D1*
X-25016Y-4342D2*
X-21742D1*
X-21090D2*
X-20742D1*
X-20258D2*
X-19742D1*
X-19258D2*
X-15160D1*
X-13848D2*
X-12652D1*
X-25016Y-4591D2*
X-22035D1*
X-20614D2*
X-18285D1*
X-17227D2*
X-16429D1*
X-13848D2*
X-12652D1*
X-25016Y-4839D2*
X-22168D1*
X-20481D2*
X-18410D1*
X-17102D2*
X-16429D1*
X-13871D2*
X-12652D1*
X-25016Y-5088D2*
X-22203D1*
X-20446D2*
X-18425D1*
X-17086D2*
X-16429D1*
X-13856D2*
X-12652D1*
X-25016Y-5337D2*
X-22156D1*
X-20496D2*
X-18336D1*
X-17172D2*
X-16429D1*
X-13946D2*
X-12652D1*
X-25016Y-5585D2*
X-21984D1*
X-20668D2*
X-18062D1*
X-17446D2*
X-16550D1*
X-14004D2*
X-12652D1*
X-25016Y-5834D2*
X-21925D1*
X-21075D2*
X-16609D1*
X-15481D2*
X-15136D1*
X-13871D2*
X-12652D1*
X-25016Y-6083D2*
X-21925D1*
X-21075D2*
X-16609D1*
X-15649D2*
X-15156D1*
X-13856D2*
X-12652D1*
X-25016Y-6331D2*
X-22156D1*
X-19004D2*
X-16609D1*
X-15649D2*
X-15066D1*
X-13942D2*
X-12652D1*
X-25016Y-6580D2*
X-22984D1*
X-18868D2*
X-16609D1*
X-15649D2*
X-14777D1*
X-14231D2*
X-12652D1*
X-25016Y-6829D2*
X-23230D1*
X-18848D2*
X-16609D1*
X-15649D2*
X-12652D1*
X-25016Y-7078D2*
X-23480D1*
X-18938D2*
X-17648D1*
X-15454D2*
X-12652D1*
X-25016Y-7326D2*
X-23660D1*
X-22547D2*
X-22156D1*
X-20219D2*
X-19781D1*
X-19219D2*
X-17781D1*
X-15454D2*
X-12652D1*
X-25016Y-7575D2*
X-24746D1*
X-22797D2*
X-20746D1*
X-19754D2*
X-17800D1*
X-15454D2*
X-12652D1*
X-25016Y-7824D2*
X-24884D1*
X-22825D2*
X-20886D1*
X-19614D2*
X-17718D1*
X-15454D2*
X-12652D1*
X-22825Y-8072D2*
X-20906D1*
X-19461D2*
X-17464D1*
X-15454D2*
X-12652D1*
X-25024Y-8321D2*
X-24824D1*
X-22825D2*
X-20824D1*
X-19215D2*
X-16867D1*
X-15657D2*
X-12652D1*
X-25016Y-8570D2*
X-24554D1*
X-22825D2*
X-20554D1*
X-19079D2*
X-16980D1*
X-15782D2*
X-12652D1*
X-25016Y-8818D2*
X-24742D1*
X-22825D2*
X-20742D1*
X-19075D2*
X-16984D1*
X-16024D2*
X-12652D1*
X-25016Y-9067D2*
X-24884D1*
X-22825D2*
X-20882D1*
X-19075D2*
X-16984D1*
X-16024D2*
X-12652D1*
X-22825Y-9316D2*
X-20906D1*
X-19075D2*
X-16984D1*
X-16024D2*
X-12652D1*
X-25016Y-9564D2*
X-24828D1*
X-22825D2*
X-20828D1*
X-19075D2*
X-16984D1*
X-16024D2*
X-12652D1*
X-25016Y-9813D2*
X-24570D1*
X-22825D2*
X-20675D1*
X-19075D2*
X-17238D1*
X-15145D2*
X-14863D1*
X-14145D2*
X-12652D1*
X-25016Y-10062D2*
X-24734D1*
X-22825D2*
X-20734D1*
X-19075D2*
X-17238D1*
X-13879D2*
X-12652D1*
X-25016Y-10310D2*
X-24884D1*
X-22825D2*
X-20882D1*
X-19075D2*
X-17238D1*
X-13782D2*
X-12652D1*
X-22825Y-10559D2*
X-21023D1*
X-19075D2*
X-17238D1*
X-13782D2*
X-12652D1*
X-25016Y-10808D2*
X-24832D1*
X-22825D2*
X-21273D1*
X-19075D2*
X-17238D1*
X-13875D2*
X-12652D1*
X-25016Y-11057D2*
X-24582D1*
X-22825D2*
X-21418D1*
X-19075D2*
X-17238D1*
X-15133D2*
X-14918D1*
X-13957D2*
X-12652D1*
X-25016Y-11305D2*
X-24726D1*
X-22825D2*
X-21425D1*
X-19075D2*
X-16800D1*
X-15465D2*
X-14918D1*
X-13957D2*
X-12652D1*
X-25016Y-11554D2*
X-24877D1*
X-22825D2*
X-21425D1*
X-19075D2*
X-16550D1*
X-13957D2*
X-12652D1*
X-22825Y-11803D2*
X-21425D1*
X-19075D2*
X-16304D1*
X-13813D2*
X-12652D1*
X-25020Y-12051D2*
X-24836D1*
X-22825D2*
X-21425D1*
X-19075D2*
X-16093D1*
X-13786D2*
X-12652D1*
X-25200Y-12300D2*
X-24593D1*
X-22825D2*
X-21425D1*
X-19075D2*
X-16093D1*
X-13860D2*
X-12652D1*
X-45391Y-12549D2*
X-44195D1*
X-43055D2*
X-40195D1*
X-38180D2*
X-35320D1*
X-34180D2*
X-33250D1*
X-33000D2*
X-30730D1*
X-29770D2*
X-24113D1*
X-22562D2*
X-21425D1*
X-20575D2*
X-19925D1*
X-19075D2*
X-16093D1*
X-13957D2*
X-12652D1*
X-45391Y-12797D2*
X-44281D1*
X-42969D2*
X-40281D1*
X-38094D2*
X-35406D1*
X-34094D2*
X-33636D1*
X-32614D2*
X-30761D1*
X-29739D2*
X-24113D1*
X-22176D2*
X-21425D1*
X-20575D2*
X-20011D1*
X-18989D2*
X-15636D1*
X-15364D2*
X-15175D1*
X-13825D2*
X-12652D1*
X-45391Y-13046D2*
X-44261D1*
X-42864D2*
X-42246D1*
X-41629D2*
X-40261D1*
X-38114D2*
X-35386D1*
X-34114D2*
X-33730D1*
X-32520D2*
X-30855D1*
X-29645D2*
X-24113D1*
X-22082D2*
X-21425D1*
X-20575D2*
X-20105D1*
X-18895D2*
X-16043D1*
X-13555D2*
X-12652D1*
X-45391Y-13295D2*
X-44125D1*
X-41418D2*
X-40125D1*
X-38250D2*
X-35250D1*
X-34250D2*
X-33711D1*
X-32539D2*
X-30836D1*
X-29664D2*
X-24113D1*
X-22102D2*
X-21425D1*
X-20575D2*
X-20086D1*
X-18914D2*
X-16160D1*
X-13286D2*
X-12652D1*
X-45391Y-13543D2*
X-43546D1*
X-41379D2*
X-39175D1*
X-38325D2*
X-33734D1*
X-32516D2*
X-30859D1*
X-29641D2*
X-28781D1*
X-28219D2*
X-24781D1*
X-22079D2*
X-21425D1*
X-20575D2*
X-20109D1*
X-18891D2*
X-16168D1*
X-13039D2*
X-12652D1*
X-45391Y-13792D2*
X-43296D1*
X-41465D2*
X-40086D1*
X-38325D2*
X-36086D1*
X-32516D2*
X-30859D1*
X-27934D2*
X-25066D1*
X-22079D2*
X-21425D1*
X-20575D2*
X-20109D1*
X-18891D2*
X-16070D1*
X-12789D2*
X-12652D1*
X-45391Y-14041D2*
X-40207D1*
X-38325D2*
X-36207D1*
X-32516D2*
X-30859D1*
X-27844D2*
X-25156D1*
X-22079D2*
X-21425D1*
X-20575D2*
X-20109D1*
X-18891D2*
X-15765D1*
X-45391Y-14289D2*
X-40214D1*
X-38325D2*
X-36214D1*
X-32516D2*
X-30859D1*
X-27864D2*
X-25136D1*
X-22079D2*
X-21421D1*
X-20371D2*
X-20109D1*
X-18891D2*
X-13629D1*
X-45391Y-14538D2*
X-40117D1*
X-38329D2*
X-36117D1*
X-35008D2*
X-33734D1*
X-32516D2*
X-30859D1*
X-29641D2*
X-29007D1*
X-27993D2*
X-25007D1*
X-22079D2*
X-21300D1*
X-18891D2*
X-13418D1*
X-45391Y-14787D2*
X-39796D1*
X-38446D2*
X-35796D1*
X-35329D2*
X-24691D1*
X-23508D2*
X-21054D1*
X-20016D2*
X-13418D1*
X-45391Y-15036D2*
X-44074D1*
X-43559D2*
X-39875D1*
X-38696D2*
X-38472D1*
X-37121D2*
X-26175D1*
X-23758D2*
X-20867D1*
X-20016D2*
X-15636D1*
X-14286D2*
X-13418D1*
X-45391Y-15284D2*
X-44375D1*
X-43258D2*
X-40043D1*
X-38946D2*
X-38781D1*
X-36809D2*
X-26437D1*
X-24008D2*
X-20867D1*
X-20016D2*
X-15949D1*
X-13973D2*
X-13418D1*
X-45391Y-15533D2*
X-44468D1*
X-43164D2*
X-40054D1*
X-39192D2*
X-38961D1*
X-36629D2*
X-35843D1*
X-35239D2*
X-34843D1*
X-34239D2*
X-33843D1*
X-33239D2*
X-32843D1*
X-32239D2*
X-31843D1*
X-31239D2*
X-30843D1*
X-30239D2*
X-29843D1*
X-29239D2*
X-28843D1*
X-28239D2*
X-27843D1*
X-27239D2*
X-26843D1*
X-23637D2*
X-23246D1*
X-22637D2*
X-22246D1*
X-21637D2*
X-21246D1*
X-19637D2*
X-19246D1*
X-18637D2*
X-18246D1*
X-17637D2*
X-16129D1*
X-13793D2*
X-13418D1*
X-45258Y-15782D2*
X-44457D1*
X-43176D2*
X-40054D1*
X-39204D2*
X-39070D1*
X-36524D2*
X-36113D1*
X-25754D2*
X-25511D1*
X-17368D2*
X-16234D1*
X-13688D2*
X-13418D1*
X-45012Y-16030D2*
X-44332D1*
X-43301D2*
X-40054D1*
X-36473D2*
X-36195D1*
X-25887D2*
X-25597D1*
X-17286D2*
X-16285D1*
X-13637D2*
X-13418D1*
X-46254Y-16279D2*
X-45941D1*
X-44762D2*
X-44242D1*
X-43391D2*
X-40054D1*
X-36469D2*
X-36199D1*
X-25879D2*
X-25601D1*
X-17282D2*
X-16289D1*
X-13633D2*
X-13320D1*
X-46254Y-16528D2*
X-45695D1*
X-44512D2*
X-44242D1*
X-43391D2*
X-41879D1*
X-39204D2*
X-39078D1*
X-36512D2*
X-36187D1*
X-25895D2*
X-25589D1*
X-17293D2*
X-16246D1*
X-13680D2*
X-13078D1*
X-46258Y-16776D2*
X-45445D1*
X-39204D2*
X-38980D1*
X-36614D2*
X-36082D1*
X-26000D2*
X-25480D1*
X-17403D2*
X-16144D1*
X-13778D2*
X-12828D1*
X-46258Y-17025D2*
X-45195D1*
X-39204D2*
X-38808D1*
X-36782D2*
X-35964D1*
X-35118D2*
X-34966D1*
X-33137D2*
X-32695D1*
X-32387D2*
X-31925D1*
X-26137D2*
X-25371D1*
X-24512D2*
X-24369D1*
X-17575D2*
X-15976D1*
X-13946D2*
X-12652D1*
X-46258Y-17274D2*
X-44949D1*
X-39204D2*
X-38523D1*
X-37071D2*
X-35964D1*
X-35118D2*
X-34966D1*
X-33137D2*
X-31925D1*
X-26137D2*
X-25492D1*
X-17575D2*
X-15687D1*
X-14235D2*
X-12652D1*
X-46258Y-17522D2*
X-44586D1*
X-39204D2*
X-35964D1*
X-35118D2*
X-34966D1*
X-33137D2*
X-31925D1*
X-26137D2*
X-25480D1*
X-17684D2*
X-15629D1*
X-46258Y-17771D2*
X-41816D1*
X-39204D2*
X-35964D1*
X-35118D2*
X-34966D1*
X-33137D2*
X-31925D1*
X-26137D2*
X-25324D1*
X-24555D2*
X-24367D1*
X-17930D2*
X-15879D1*
X-46258Y-18020D2*
X-41429D1*
X-40579D2*
X-40054D1*
X-39204D2*
X-35964D1*
X-35118D2*
X-34966D1*
X-33137D2*
X-31925D1*
X-26137D2*
X-24367D1*
X-18180D2*
X-16125D1*
X-46258Y-18268D2*
X-41429D1*
X-40579D2*
X-40054D1*
X-39204D2*
X-37351D1*
X-36657D2*
X-35964D1*
X-35118D2*
X-34966D1*
X-33137D2*
X-31925D1*
X-26137D2*
X-24367D1*
X-18426D2*
X-16375D1*
X-46258Y-18517D2*
X-41589D1*
X-40418D2*
X-40054D1*
X-39204D2*
X-37589D1*
X-36418D2*
X-35964D1*
X-35118D2*
X-34966D1*
X-33137D2*
X-31925D1*
X-26137D2*
X-24367D1*
X-18575D2*
X-16531D1*
X-6094D2*
X-1789D1*
X-586D2*
X348D1*
X-46258Y-18766D2*
X-41664D1*
X-40348D2*
X-40054D1*
X-39204D2*
X-37664D1*
X-36348D2*
X-35964D1*
X-35118D2*
X-34966D1*
X-33137D2*
X-31925D1*
X-26137D2*
X-24367D1*
X-18575D2*
X-16543D1*
X-12000D2*
X-11841D1*
X-6094D2*
X-1781D1*
X-594D2*
X348D1*
X-46258Y-19015D2*
X-44011D1*
X-43625D2*
X-41632D1*
X-40375D2*
X-40054D1*
X-39204D2*
X-37632D1*
X-36375D2*
X-35964D1*
X-35118D2*
X-34966D1*
X-33137D2*
X-31925D1*
X-26137D2*
X-24367D1*
X-18575D2*
X-17406D1*
X-12153D2*
X-11589D1*
X-7754D2*
X-5187D1*
X-4688D2*
X-1648D1*
X-727D2*
X348D1*
X-46258Y-19263D2*
X-44363D1*
X-43270D2*
X-41480D1*
X-40532D2*
X-40054D1*
X-39204D2*
X-37480D1*
X-36532D2*
X-35964D1*
X-35118D2*
X-34925D1*
X-33137D2*
X-31925D1*
X-26137D2*
X-24367D1*
X-18575D2*
X-17496D1*
X-12200D2*
X-11343D1*
X-6094D2*
X-5441D1*
X-4434D2*
X-1796D1*
X-579D2*
X348D1*
X-46262Y-19512D2*
X-44464D1*
X-43168D2*
X-40054D1*
X-39204D2*
X-35964D1*
X-35118D2*
X-34711D1*
X-33137D2*
X-31925D1*
X-26137D2*
X-24367D1*
X-18575D2*
X-17461D1*
X-12200D2*
X-9379D1*
X-6094D2*
X-5496D1*
X-4379D2*
X-1796D1*
X-579D2*
X348D1*
X-46262Y-19761D2*
X-44464D1*
X-43172D2*
X-40054D1*
X-39204D2*
X-35964D1*
X-35118D2*
X-34589D1*
X-33137D2*
X-31925D1*
X-26137D2*
X-24367D1*
X-18575D2*
X-17425D1*
X-12200D2*
X-9402D1*
X-6094D2*
X-5429D1*
X-4446D2*
X-1796D1*
X-579D2*
X348D1*
X-46262Y-20009D2*
X-44347D1*
X-43286D2*
X-40054D1*
X-39204D2*
X-35964D1*
X-35118D2*
X-34386D1*
X-33137D2*
X-31925D1*
X-26137D2*
X-24367D1*
X-18575D2*
X-17425D1*
X-12250D2*
X-9316D1*
X-6094D2*
X-5125D1*
X-4750D2*
X-1796D1*
X-579D2*
X348D1*
X-46262Y-20258D2*
X-43910D1*
X-43721D2*
X-40054D1*
X-39204D2*
X-35964D1*
X-35118D2*
X-33988D1*
X-33137D2*
X-31925D1*
X-26137D2*
X-24367D1*
X-18575D2*
X-17425D1*
X-12481D2*
X-11671D1*
X-10430D2*
X-9230D1*
X-8270D2*
X-8043D1*
X-6094D2*
X-1613D1*
X-762D2*
X348D1*
X-46262Y-20507D2*
X-40054D1*
X-39204D2*
X-35964D1*
X-35118D2*
X-33988D1*
X-33137D2*
X-31925D1*
X-26137D2*
X-24402D1*
X-18575D2*
X-17425D1*
X-10235D2*
X-9230D1*
X-7196D2*
X-4179D1*
X-3196D2*
X-1613D1*
X-762D2*
X348D1*
X-46262Y-20755D2*
X-40054D1*
X-39204D2*
X-35964D1*
X-35118D2*
X-33988D1*
X-33137D2*
X-31925D1*
X-26137D2*
X-24496D1*
X-18575D2*
X-17425D1*
X-10172D2*
X-9152D1*
X-7055D2*
X-4320D1*
X-3055D2*
X-1769D1*
X-606D2*
X348D1*
X-46262Y-21004D2*
X-40054D1*
X-39204D2*
X-35964D1*
X-35118D2*
X-33988D1*
X-33137D2*
X-31925D1*
X-26137D2*
X-24464D1*
X-18532D2*
X-17425D1*
X-10032D2*
X-8980D1*
X-7032D2*
X-4343D1*
X-3032D2*
X-1843D1*
X-532D2*
X348D1*
X-46262Y-21253D2*
X-40054D1*
X-39204D2*
X-35964D1*
X-35118D2*
X-33988D1*
X-33137D2*
X-32535D1*
X-26137D2*
X-24273D1*
X-18442D2*
X-17425D1*
X-9782D2*
X-8980D1*
X-7110D2*
X-4265D1*
X-3110D2*
X-1820D1*
X-555D2*
X348D1*
X-46262Y-21501D2*
X-40054D1*
X-39204D2*
X-35964D1*
X-35118D2*
X-33988D1*
X-33137D2*
X-32671D1*
X-26137D2*
X-24148D1*
X-18477D2*
X-17425D1*
X-9532D2*
X-8980D1*
X-7371D2*
X-4113D1*
X-3262D2*
X-1671D1*
X-704D2*
X348D1*
X-46262Y-21750D2*
X-40054D1*
X-39204D2*
X-35964D1*
X-35118D2*
X-33988D1*
X-33137D2*
X-32671D1*
X-26098D2*
X-24175D1*
X-18043D2*
X-17425D1*
X-13520D2*
X-12546D1*
X-11454D2*
X-10464D1*
X-9344D2*
X-8980D1*
X-8020D2*
X-4113D1*
X-3262D2*
X348D1*
X-46262Y-21999D2*
X-40054D1*
X-39204D2*
X-35964D1*
X-35118D2*
X-33988D1*
X-33137D2*
X-32550D1*
X-26079D2*
X-24097D1*
X-17848D2*
X-17425D1*
X-13430D2*
X-12941D1*
X-11520D2*
X-10218D1*
X-9325D2*
X-8980D1*
X-8020D2*
X-4113D1*
X-3262D2*
X348D1*
X-46266Y-22247D2*
X-40054D1*
X-39036D2*
X-35964D1*
X-35118D2*
X-33988D1*
X-33137D2*
X-32550D1*
X-26079D2*
X-23863D1*
X-17817D2*
X-17675D1*
X-13348D2*
X-13203D1*
X-11520D2*
X-10175D1*
X-9325D2*
X-9156D1*
X-7094D2*
X-4468D1*
X-2965D2*
X348D1*
X-46266Y-22496D2*
X-39964D1*
X-38789D2*
X-35964D1*
X-35118D2*
X-33988D1*
X-33137D2*
X-32550D1*
X-26079D2*
X-25175D1*
X-17914D2*
X-17675D1*
X-10973D2*
X-10175D1*
X-9325D2*
X-9156D1*
X-6899D2*
X-4711D1*
X-2692D2*
X348D1*
X-46266Y-22745D2*
X-39722D1*
X-38539D2*
X-35964D1*
X-35118D2*
X-33988D1*
X-33137D2*
X-32550D1*
X-26079D2*
X-25175D1*
X-18575D2*
X-17675D1*
X-13516D2*
X-13261D1*
X-10832D2*
X-10175D1*
X-9325D2*
X-9156D1*
X-6844D2*
X-4746D1*
X-2629D2*
X348D1*
X-46266Y-22994D2*
X-39472D1*
X-38289D2*
X-35964D1*
X-35118D2*
X-33988D1*
X-33137D2*
X-32531D1*
X-26079D2*
X-25175D1*
X-18176D2*
X-17675D1*
X-13434D2*
X-13121D1*
X-10829D2*
X-10175D1*
X-9325D2*
X-9156D1*
X-6895D2*
X-4746D1*
X-2629D2*
X348D1*
X-46266Y-23242D2*
X-39222D1*
X-38043D2*
X-35964D1*
X-35118D2*
X-33988D1*
X-33137D2*
X-32347D1*
X-26079D2*
X-25175D1*
X-17883D2*
X-17675D1*
X-13352D2*
X-13156D1*
X-10950D2*
X-10175D1*
X-9325D2*
X-9156D1*
X-7082D2*
X-4746D1*
X-2641D2*
X348D1*
X-46266Y-23491D2*
X-38976D1*
X-37793D2*
X-35964D1*
X-35118D2*
X-33988D1*
X-33137D2*
X-32101D1*
X-26079D2*
X-25175D1*
X-17817D2*
X-17675D1*
X-10950D2*
X-10175D1*
X-9325D2*
X-9101D1*
X-6899D2*
X-4625D1*
X-2762D2*
X348D1*
X-46266Y-23740D2*
X-38726D1*
X-37543D2*
X-35964D1*
X-35118D2*
X-33988D1*
X-33137D2*
X-31925D1*
X-26079D2*
X-24828D1*
X-23977D2*
X-23425D1*
X-17871D2*
X-17660D1*
X-10950D2*
X-10175D1*
X-9325D2*
X-9156D1*
X-6844D2*
X-3613D1*
X-2606D2*
X348D1*
X-46266Y-23988D2*
X-38476D1*
X-37297D2*
X-35964D1*
X-35118D2*
X-33988D1*
X-33137D2*
X-31925D1*
X-26079D2*
X-24828D1*
X-23977D2*
X-23425D1*
X-18133D2*
X-17664D1*
X-13348D2*
X-13175D1*
X-10950D2*
X-10175D1*
X-9325D2*
X-9109D1*
X-6891D2*
X-3535D1*
X-2360D2*
X348D1*
X-46266Y-24237D2*
X-38230D1*
X-37047D2*
X-35964D1*
X-35118D2*
X-33988D1*
X-33137D2*
X-31925D1*
X-26079D2*
X-24828D1*
X-23977D2*
X-23425D1*
X-17981D2*
X-17566D1*
X-15582D2*
X-14656D1*
X-13348D2*
X-12828D1*
X-10950D2*
X-10175D1*
X-9325D2*
X-8925D1*
X-7075D2*
X-3293D1*
X-2110D2*
X348D1*
X-46266Y-24486D2*
X-37980D1*
X-36797D2*
X-35964D1*
X-35118D2*
X-33988D1*
X-33137D2*
X-31925D1*
X-26079D2*
X-24937D1*
X-23868D2*
X-23425D1*
X-17832D2*
X-17425D1*
X-15582D2*
X-14656D1*
X-13348D2*
X-12480D1*
X-10950D2*
X-10175D1*
X-9325D2*
X-9097D1*
X-6903D2*
X-3043D1*
X-1860D2*
X-1476D1*
X-899D2*
X348D1*
X-46266Y-24734D2*
X-37730D1*
X-36551D2*
X-35964D1*
X-35118D2*
X-33988D1*
X-33137D2*
X-31925D1*
X-26079D2*
X-25004D1*
X-23801D2*
X-23425D1*
X-17825D2*
X-17425D1*
X-15582D2*
X-14656D1*
X-13348D2*
X-12480D1*
X-10950D2*
X-10175D1*
X-9325D2*
X-9156D1*
X-6844D2*
X-2793D1*
X-618D2*
X348D1*
X-46270Y-24983D2*
X-37484D1*
X-36301D2*
X-35964D1*
X-35118D2*
X-33988D1*
X-33137D2*
X-31925D1*
X-25621D2*
X-24953D1*
X-23852D2*
X-23425D1*
X-17954D2*
X-17425D1*
X-15582D2*
X-12480D1*
X-10950D2*
X-10175D1*
X-9325D2*
X-9109D1*
X-6891D2*
X-2546D1*
X-532D2*
X348D1*
X-46270Y-25232D2*
X-37234D1*
X-34926D2*
X-33988D1*
X-33137D2*
X-31925D1*
X-25512D2*
X-24746D1*
X-24059D2*
X-23425D1*
X-18575D2*
X-17425D1*
X-15582D2*
X-12480D1*
X-10719D2*
X-10175D1*
X-9325D2*
X-8929D1*
X-7071D2*
X-4644D1*
X-2469D2*
X-2296D1*
X-551D2*
X348D1*
X-46270Y-25480D2*
X-36984D1*
X-34680D2*
X-33988D1*
X-33137D2*
X-31925D1*
X-25532D2*
X-23425D1*
X-18575D2*
X-17425D1*
X-15582D2*
X-12480D1*
X-10387D2*
X-10175D1*
X-6907D2*
X-4765D1*
X-2469D2*
X-1691D1*
X-684D2*
X348D1*
X-46270Y-25729D2*
X-36738D1*
X-34430D2*
X-33988D1*
X-33137D2*
X-31925D1*
X-25641D2*
X-23425D1*
X-18575D2*
X-17425D1*
X-15582D2*
X-12480D1*
X-10317D2*
X-10175D1*
X-6844D2*
X-4773D1*
X-2469D2*
X348D1*
X-46270Y-25978D2*
X-36488D1*
X-34184D2*
X-33988D1*
X-33137D2*
X-31925D1*
X-25641D2*
X-23425D1*
X-18575D2*
X-17425D1*
X-15582D2*
X-12480D1*
X-10368D2*
X-10235D1*
X-6887D2*
X-4671D1*
X-2469D2*
X348D1*
X-46270Y-26226D2*
X-36238D1*
X-33137D2*
X-31925D1*
X-25641D2*
X-23425D1*
X-18575D2*
X-17425D1*
X-15508D2*
X-12480D1*
X-10450D2*
X-10308D1*
X-7063D2*
X-4339D1*
X-3911D2*
X-3778D1*
X-2469D2*
X348D1*
X-46270Y-26475D2*
X-35992D1*
X-33137D2*
X-31925D1*
X-25590D2*
X-25410D1*
X-24590D2*
X-24410D1*
X-23590D2*
X-23425D1*
X-15528D2*
X-12480D1*
X-10450D2*
X-10261D1*
X-6907D2*
X-2175D1*
X-825D2*
X348D1*
X-46270Y-26724D2*
X-35742D1*
X-33137D2*
X-31925D1*
X-15582D2*
X-12480D1*
X-10450D2*
X-10023D1*
X-6844D2*
X-2175D1*
X-825D2*
X348D1*
X-46270Y-26973D2*
X-35492D1*
X-33137D2*
X-31925D1*
X-15582D2*
X-14613D1*
X-14387D2*
X-13613D1*
X-13387D2*
X-12480D1*
X-10450D2*
X-9738D1*
X-6887D2*
X-2175D1*
X-825D2*
X348D1*
X-46270Y-27221D2*
X-35425D1*
X-33137D2*
X-31925D1*
X-15582D2*
X-14980D1*
X-10450D2*
X-9738D1*
X-7055D2*
X-2175D1*
X-825D2*
X348D1*
X-46270Y-27470D2*
X-35425D1*
X-33137D2*
X-31925D1*
X-15582D2*
X-15058D1*
X-10450D2*
X-9738D1*
X-6911D2*
X-2175D1*
X-825D2*
X348D1*
X-46274Y-27719D2*
X-35425D1*
X-33137D2*
X-31925D1*
X-24051D2*
X-22246D1*
X-15582D2*
X-15011D1*
X-10450D2*
X-9738D1*
X-6844D2*
X348D1*
X-46274Y-27967D2*
X-35425D1*
X-33137D2*
X-31925D1*
X-24297D2*
X-22414D1*
X-15582D2*
X-14785D1*
X-14215D2*
X-13785D1*
X-10450D2*
X-9738D1*
X-6883D2*
X348D1*
X-46274Y-28216D2*
X-35425D1*
X-33028D2*
X-31863D1*
X-24465D2*
X-22425D1*
X-15582D2*
X-12890D1*
X-10450D2*
X-9738D1*
X-7051D2*
X348D1*
X-46274Y-28465D2*
X-35425D1*
X-33012D2*
X-31625D1*
X-24450D2*
X-22425D1*
X-15582D2*
X-12480D1*
X-10450D2*
X-9738D1*
X-6914D2*
X-1894D1*
X-1106D2*
X348D1*
X-46274Y-28713D2*
X-35425D1*
X-33121D2*
X-31425D1*
X-24559D2*
X-22425D1*
X-15582D2*
X-12480D1*
X-6844D2*
X-2109D1*
X-891D2*
X348D1*
X-46274Y-28962D2*
X-35425D1*
X-34079D2*
X-31425D1*
X-24575D2*
X-22425D1*
X-15582D2*
X-12480D1*
X-6883D2*
X-2175D1*
X-825D2*
X348D1*
X-46274Y-29211D2*
X-35425D1*
X-34079D2*
X-31425D1*
X-24575D2*
X-22425D1*
X-15582D2*
X-12480D1*
X-7043D2*
X-2140D1*
X-860D2*
X348D1*
X-46274Y-29459D2*
X-37875D1*
X-35875D2*
X-35425D1*
X-34079D2*
X-31425D1*
X-24575D2*
X-24386D1*
X-23614D2*
X-23386D1*
X-22614D2*
X-22425D1*
X-15582D2*
X-12629D1*
X-6914D2*
X-1984D1*
X-1016D2*
X348D1*
X-46274Y-29708D2*
X-38007D1*
X-35743D2*
X-35425D1*
X-34079D2*
X-31605D1*
X-15582D2*
X-12875D1*
X-6848D2*
X348D1*
X-46274Y-29957D2*
X-38023D1*
X-35727D2*
X-35425D1*
X-34079D2*
X-31671D1*
X-15582D2*
X-13125D1*
X-11789D2*
X-11433D1*
X-6879D2*
X348D1*
X-46274Y-30205D2*
X-37937D1*
X-34079D2*
X-31640D1*
X-15582D2*
X-13226D1*
X-12036D2*
X-11394D1*
X-7039D2*
X348D1*
X-46278Y-30454D2*
X-37871D1*
X-34079D2*
X-31488D1*
X-15582D2*
X-13230D1*
X-12270D2*
X-11183D1*
X-8887D2*
X348D1*
X-46278Y-30703D2*
X-38007D1*
X-34079D2*
X-29425D1*
X-28575D2*
X-28425D1*
X-27575D2*
X-26234D1*
X-24125D2*
X-23425D1*
X-17575D2*
X-17425D1*
X-15582D2*
X-15328D1*
X-14922D2*
X-13230D1*
X-12270D2*
X-11328D1*
X-9989D2*
X-9738D1*
X-8887D2*
X348D1*
X-46278Y-30952D2*
X-38027D1*
X-34079D2*
X-29425D1*
X-28575D2*
X-28425D1*
X-27575D2*
X-26175D1*
X-23899D2*
X-23425D1*
X-17575D2*
X-17425D1*
X-14579D2*
X-13230D1*
X-12270D2*
X-11671D1*
X-10235D2*
X-9738D1*
X-8887D2*
X348D1*
X-46278Y-31200D2*
X-37941D1*
X-34079D2*
X-29425D1*
X-28575D2*
X-28425D1*
X-27575D2*
X-26175D1*
X-23829D2*
X-23425D1*
X-17575D2*
X-17425D1*
X-14477D2*
X-13230D1*
X-12270D2*
X-11773D1*
X-10477D2*
X-9738D1*
X-8887D2*
X348D1*
X-46278Y-31449D2*
X-37863D1*
X-34079D2*
X-29425D1*
X-28575D2*
X-28425D1*
X-27575D2*
X-26179D1*
X-23856D2*
X-23425D1*
X-17575D2*
X-17425D1*
X-14481D2*
X-13230D1*
X-12270D2*
X-11769D1*
X-10481D2*
X-9738D1*
X-8887D2*
X348D1*
X-46278Y-31698D2*
X-38004D1*
X-34079D2*
X-29425D1*
X-27454D2*
X-26429D1*
X-24004D2*
X-23425D1*
X-17575D2*
X-17425D1*
X-14594D2*
X-13230D1*
X-12270D2*
X-11656D1*
X-10594D2*
X-9738D1*
X-8887D2*
X348D1*
X-46278Y-31946D2*
X-38027D1*
X-34079D2*
X-29464D1*
X-27457D2*
X-26675D1*
X-25340D2*
X-23425D1*
X-17575D2*
X-17425D1*
X-15582D2*
X-13230D1*
X-12270D2*
X-9738D1*
X-8887D2*
X348D1*
X-46278Y-32195D2*
X-37941D1*
X-34079D2*
X-29558D1*
X-27602D2*
X-26925D1*
X-25590D2*
X-23425D1*
X-17575D2*
X-17425D1*
X-15582D2*
X-13230D1*
X-12270D2*
X-9738D1*
X-8887D2*
X348D1*
X-46278Y-32444D2*
X-37855D1*
X-34079D2*
X-29523D1*
X-28477D2*
X-27175D1*
X-25836D2*
X-23527D1*
X-17575D2*
X-17425D1*
X-15582D2*
X-13250D1*
X-12250D2*
X-9738D1*
X-8879D2*
X348D1*
X-46278Y-32692D2*
X-37855D1*
X-36895D2*
X-35925D1*
X-34079D2*
X-31339D1*
X-30661D2*
X-29324D1*
X-28676D2*
X-28277D1*
X-26086D2*
X-23554D1*
X-17575D2*
X-17425D1*
X-15582D2*
X-13308D1*
X-12192D2*
X-10453D1*
X-8629D2*
X348D1*
X-46278Y-32941D2*
X-37902D1*
X-36848D2*
X-35925D1*
X-34079D2*
X-31527D1*
X-30473D2*
X-28464D1*
X-26336D2*
X-23457D1*
X-17575D2*
X-17425D1*
X-15582D2*
X-13246D1*
X-11641D2*
X-10703D1*
X-8383D2*
X348D1*
X-46282Y-33190D2*
X-37929D1*
X-36821D2*
X-35925D1*
X-35075D2*
X-34929D1*
X-34079D2*
X-31554D1*
X-30446D2*
X-29277D1*
X-26582D2*
X-23425D1*
X-17575D2*
X-17425D1*
X-15454D2*
X-12961D1*
X-11454D2*
X-10781D1*
X-9469D2*
X-9312D1*
X-8133D2*
X348D1*
X-46282Y-33438D2*
X-37832D1*
X-36918D2*
X-35925D1*
X-35075D2*
X-34929D1*
X-34079D2*
X-31480D1*
X-30520D2*
X-29468D1*
X-26832D2*
X-23425D1*
X-17575D2*
X-17425D1*
X-15403D2*
X-12722D1*
X-11403D2*
X-10757D1*
X-9493D2*
X-9066D1*
X-7883D2*
X348D1*
X-46282Y-33687D2*
X-35961D1*
X-34079D2*
X-31480D1*
X-27457D2*
X-23425D1*
X-17575D2*
X-17425D1*
X-15454D2*
X-12671D1*
X-11454D2*
X-10609D1*
X-9641D2*
X-8816D1*
X-7371D2*
X348D1*
X-46282Y-33936D2*
X-36054D1*
X-34079D2*
X-31480D1*
X-27457D2*
X-23425D1*
X-15645D2*
X-12480D1*
X-11645D2*
X-8652D1*
X-7223D2*
X348D1*
X-46282Y-34185D2*
X-38101D1*
X-37493D2*
X-36027D1*
X-34051D2*
X-31480D1*
X-27457D2*
X-23425D1*
X-16454D2*
X-15265D1*
X-14657D2*
X-8691D1*
X-7184D2*
X348D1*
X-46282Y-34433D2*
X-38629D1*
X-36965D2*
X-35839D1*
X-33950D2*
X-31480D1*
X-30520D2*
X-30363D1*
X-27457D2*
X-23425D1*
X-17575D2*
X-17418D1*
X-16586D2*
X-15793D1*
X-14129D2*
X-8691D1*
X-7184D2*
X348D1*
X-44989Y-34682D2*
X-38871D1*
X-36723D2*
X-35035D1*
X-33973D2*
X-32441D1*
X-24442D2*
X-23441D1*
X-17442D2*
X-16035D1*
X-13887D2*
X-8644D1*
X-7231D2*
X-644D1*
X-44786Y-34931D2*
X-39015D1*
X-36575D2*
X-34851D1*
X-34157D2*
X-32578D1*
X-24305D2*
X-23578D1*
X-17305D2*
X-16179D1*
X-13743D2*
X-8488D1*
X-7387D2*
X-847D1*
X-44688Y-35179D2*
X-39097D1*
X-36496D2*
X-32601D1*
X-24282D2*
X-23601D1*
X-17282D2*
X-16261D1*
X-13661D2*
X-8363D1*
X-7512D2*
X-945D1*
X-44661Y-35428D2*
X-39129D1*
X-36465D2*
X-32601D1*
X-24282D2*
X-23601D1*
X-17282D2*
X-16293D1*
X-13629D2*
X-8363D1*
X-7512D2*
X-968D1*
X-44700Y-35677D2*
X-39109D1*
X-36481D2*
X-32539D1*
X-24344D2*
X-23539D1*
X-17344D2*
X-16277D1*
X-13649D2*
X-8855D1*
X-7036D2*
X-6410D1*
X-4590D2*
X-2828D1*
X-44813Y-35925D2*
X-39043D1*
X-36547D2*
X-32328D1*
X-31555D2*
X-31328D1*
X-30555D2*
X-30328D1*
X-29555D2*
X-29328D1*
X-28555D2*
X-28328D1*
X-27555D2*
X-27328D1*
X-26555D2*
X-26328D1*
X-25555D2*
X-25328D1*
X-24555D2*
X-23328D1*
X-22555D2*
X-22328D1*
X-21555D2*
X-21328D1*
X-20555D2*
X-20328D1*
X-19555D2*
X-19328D1*
X-18555D2*
X-18328D1*
X-17555D2*
X-16207D1*
X-13715D2*
X-8992D1*
X-1008D2*
X-816D1*
X-45043Y-36174D2*
X-38918D1*
X-36676D2*
X-16082D1*
X-13840D2*
X-8996D1*
X-1008D2*
X-586D1*
X-46286Y-36423D2*
X-38707D1*
X-36883D2*
X-15871D1*
X-14051D2*
X-8996D1*
X-1008D2*
X348D1*
X-46286Y-36671D2*
X-38316D1*
X-37278D2*
X-15480D1*
X-14442D2*
X-8968D1*
X-6930D2*
X-6410D1*
X-4590D2*
X-2828D1*
X-1008D2*
X348D1*
X-46286Y-36920D2*
X-8750D1*
X-7168D2*
X348D1*
X-46286Y-37169D2*
X-46039D1*
X-45262D2*
X-390D1*
X-44907Y-37417D2*
X-6410D1*
X-4590D2*
X-2828D1*
X-1008D2*
X-742D1*
X-44746Y-37666D2*
X-6410D1*
X-4590D2*
X-2828D1*
X-44672Y-37915D2*
X-6410D1*
X-4590D2*
X-2828D1*
X-44664Y-38164D2*
X-6410D1*
X-4590D2*
X-2828D1*
X-44727Y-38412D2*
X-6410D1*
X-4590D2*
X-2828D1*
X-43562Y-13504D2*
X-43628Y-13510D1*
X-43752Y-13497D1*
X-43871Y-13460D1*
X-43981Y-13401D1*
X-44077Y-13321D1*
X-44155Y-13224D1*
X-44213Y-13114D1*
X-44249Y-12994D1*
X-44260Y-12870D1*
X-44247Y-12746D1*
X-44209Y-12627D1*
X-44150Y-12517D1*
X-44069Y-12422D1*
X-43955Y-12334D1*
X-45418Y-12335D1*
X-45417Y-15646D1*
X-44338Y-16727D1*
X-44220D1*
X-44217Y-16123D1*
X-44347Y-15976D1*
X-44405Y-15866D1*
X-44441Y-15746D1*
X-44452Y-15622D1*
X-44439Y-15498D1*
X-44401Y-15379D1*
X-44341Y-15269D1*
X-44261Y-15173D1*
X-44164Y-15095D1*
X-44053Y-15038D1*
X-43934Y-15003D1*
X-43809Y-14992D1*
X-43685Y-15006D1*
X-43566Y-15043D1*
X-43457Y-15104D1*
X-43362Y-15184D1*
X-43284Y-15282D1*
X-43227Y-15393D1*
X-43192Y-15513D1*
X-43182Y-15627D1*
X-43194Y-15751D1*
X-43230Y-15870D1*
X-43289Y-15980D1*
X-43369Y-16077D1*
X-43414Y-16114D1*
X-43417Y-16725D1*
X-41993Y-16727D1*
X-41937Y-16621D1*
X-41854Y-16529D1*
X-41751Y-16459D1*
X-41634Y-16414D1*
X-41511Y-16398D1*
X-41387Y-16411D1*
X-41253Y-16464D1*
X-41134Y-16414D1*
X-41011Y-16398D1*
X-40887Y-16411D1*
X-40780Y-16449D1*
X-40704Y-16414D1*
X-40603Y-16398D1*
X-40356Y-16402D1*
X-40261Y-16431D1*
X-40178Y-16487D1*
X-40030Y-16644D1*
X-40029Y-15379D1*
X-40010Y-15256D1*
X-39951Y-15142D1*
X-39735Y-14920D1*
X-39640Y-14818D1*
X-39762Y-14790D1*
X-39876Y-14740D1*
X-39978Y-14668D1*
X-40064Y-14577D1*
X-40130Y-14472D1*
X-40175Y-14355D1*
X-40196Y-14232D1*
X-40192Y-14108D1*
X-40165Y-13986D1*
X-40114Y-13872D1*
X-40041Y-13770D1*
X-39950Y-13685D1*
X-39845Y-13619D1*
X-39728Y-13574D1*
X-39605Y-13554D1*
X-39480Y-13558D1*
X-39359Y-13586D1*
X-39245Y-13638D1*
X-39150Y-13705D1*
Y-13371D1*
X-39274Y-13404D1*
X-39384Y-13462D1*
X-39503Y-13498D1*
X-39628Y-13510D1*
X-39752Y-13497D1*
X-39871Y-13460D1*
X-39981Y-13401D1*
X-40077Y-13321D1*
X-40155Y-13224D1*
X-40213Y-13114D1*
X-40249Y-12994D1*
X-40260Y-12870D1*
X-40247Y-12746D1*
X-40209Y-12627D1*
X-40150Y-12517D1*
X-40069Y-12422D1*
X-39955Y-12334D1*
X-43293Y-12335D1*
X-43170Y-12432D1*
X-43092Y-12530D1*
X-43035Y-12641D1*
X-43000Y-12761D1*
X-42990Y-12875D1*
X-42997Y-12941D1*
X-42837Y-13098D1*
X-42293Y-13100D1*
X-42197Y-13032D1*
X-42082Y-12985D1*
X-41959Y-12965D1*
X-41834Y-12975D1*
X-41716Y-13013D1*
X-41609Y-13078D1*
X-41520Y-13165D1*
X-41454Y-13271D1*
X-41414Y-13389D1*
X-41402Y-13500D1*
X-41417Y-13624D1*
X-41460Y-13741D1*
X-41529Y-13845D1*
X-41620Y-13930D1*
X-41728Y-13992D1*
X-41848Y-14027D1*
X-41972Y-14034D1*
X-42095Y-14011D1*
X-42209Y-13961D1*
X-42287Y-13902D1*
X-43000Y-13900D1*
X-43123Y-13881D1*
X-43237Y-13822D1*
X-43460Y-13606D1*
X-43562Y-13504D1*
X-38127Y-12999D2*
X-38164Y-13119D1*
X-38223Y-13229D1*
X-38302Y-13325D1*
X-38347Y-13362D1*
X-38350Y-14000D1*
Y-14500D1*
X-38369Y-14623D1*
X-38428Y-14737D1*
X-38644Y-14960D1*
X-39227Y-15542D1*
X-39229Y-17379D1*
Y-22078D1*
X-35863Y-25446D1*
X-35897Y-25391D1*
X-35936Y-25269D1*
X-35941Y-24959D1*
Y-16901D1*
X-36071Y-16753D1*
X-36129Y-16643D1*
X-36165Y-16523D1*
X-36176Y-16404D1*
X-36172Y-16104D1*
X-36163Y-15975D1*
X-36125Y-15855D1*
X-36065Y-15746D1*
X-35985Y-15650D1*
X-35888Y-15572D1*
X-35777Y-15514D1*
X-35658Y-15480D1*
X-35533Y-15469D1*
X-35409Y-15483D1*
X-35290Y-15520D1*
X-35181Y-15581D1*
X-35086Y-15661D1*
X-35044Y-15713D1*
X-34985Y-15650D1*
X-34888Y-15572D1*
X-34777Y-15514D1*
X-34658Y-15480D1*
X-34533Y-15469D1*
X-34409Y-15483D1*
X-34290Y-15520D1*
X-34181Y-15581D1*
X-34086Y-15661D1*
X-34044Y-15713D1*
X-33985Y-15650D1*
X-33888Y-15572D1*
X-33777Y-15514D1*
X-33658Y-15480D1*
X-33533Y-15469D1*
X-33409Y-15483D1*
X-33290Y-15520D1*
X-33181Y-15581D1*
X-33086Y-15661D1*
X-33044Y-15713D1*
X-32985Y-15650D1*
X-32888Y-15572D1*
X-32777Y-15514D1*
X-32658Y-15480D1*
X-32533Y-15469D1*
X-32409Y-15483D1*
X-32290Y-15520D1*
X-32181Y-15581D1*
X-32086Y-15661D1*
X-32044Y-15713D1*
X-31985Y-15650D1*
X-31888Y-15572D1*
X-31777Y-15514D1*
X-31658Y-15480D1*
X-31533Y-15469D1*
X-31409Y-15483D1*
X-31290Y-15520D1*
X-31181Y-15581D1*
X-31086Y-15661D1*
X-31044Y-15713D1*
X-30985Y-15650D1*
X-30888Y-15572D1*
X-30777Y-15514D1*
X-30658Y-15480D1*
X-30533Y-15469D1*
X-30409Y-15483D1*
X-30290Y-15520D1*
X-30181Y-15581D1*
X-30086Y-15661D1*
X-30044Y-15713D1*
X-29985Y-15650D1*
X-29888Y-15572D1*
X-29777Y-15514D1*
X-29658Y-15480D1*
X-29533Y-15469D1*
X-29409Y-15483D1*
X-29290Y-15520D1*
X-29181Y-15581D1*
X-29086Y-15661D1*
X-29044Y-15713D1*
X-28985Y-15650D1*
X-28888Y-15572D1*
X-28777Y-15514D1*
X-28658Y-15480D1*
X-28533Y-15469D1*
X-28409Y-15483D1*
X-28290Y-15520D1*
X-28181Y-15581D1*
X-28086Y-15661D1*
X-28044Y-15713D1*
X-27985Y-15650D1*
X-27888Y-15572D1*
X-27777Y-15514D1*
X-27658Y-15480D1*
X-27533Y-15469D1*
X-27409Y-15483D1*
X-27290Y-15520D1*
X-27181Y-15581D1*
X-27086Y-15661D1*
X-27044Y-15713D1*
X-26985Y-15650D1*
X-26888Y-15572D1*
X-26777Y-15514D1*
X-26658Y-15480D1*
X-26599Y-15474D1*
X-26220Y-15092D1*
X-26120Y-15019D1*
X-25997Y-14980D1*
X-25688Y-14975D1*
X-24855D1*
X-24627Y-14747D1*
X-24746Y-14710D1*
X-24856Y-14651D1*
X-24952Y-14571D1*
X-25030Y-14474D1*
X-25088Y-14364D1*
X-25124Y-14244D1*
X-25135Y-14120D1*
X-25122Y-13996D1*
X-25084Y-13877D1*
X-25025Y-13767D1*
X-24944Y-13672D1*
X-24847Y-13593D1*
X-24737Y-13536D1*
X-24617Y-13501D1*
X-24492Y-13490D1*
X-24368Y-13504D1*
X-24249Y-13542D1*
X-24140Y-13602D1*
X-24088Y-13642D1*
X-24087Y-12363D1*
X-24253Y-12385D1*
X-24377Y-12372D1*
X-24496Y-12335D1*
X-24606Y-12276D1*
X-24702Y-12196D1*
X-24780Y-12099D1*
X-24838Y-11989D1*
X-24874Y-11869D1*
X-24885Y-11745D1*
X-24872Y-11621D1*
X-24834Y-11502D1*
X-24775Y-11392D1*
X-24694Y-11297D1*
X-24597Y-11218D1*
X-24487Y-11161D1*
X-24363Y-11125D1*
X-24496Y-11085D1*
X-24606Y-11026D1*
X-24702Y-10946D1*
X-24780Y-10849D1*
X-24838Y-10739D1*
X-24874Y-10619D1*
X-24885Y-10495D1*
X-24872Y-10371D1*
X-24834Y-10252D1*
X-24775Y-10142D1*
X-24694Y-10047D1*
X-24597Y-9968D1*
X-24487Y-9911D1*
X-24361Y-9875D1*
X-24496Y-9835D1*
X-24606Y-9776D1*
X-24702Y-9696D1*
X-24780Y-9599D1*
X-24838Y-9489D1*
X-24874Y-9369D1*
X-24885Y-9245D1*
X-24872Y-9121D1*
X-24834Y-9002D1*
X-24775Y-8892D1*
X-24694Y-8797D1*
X-24597Y-8718D1*
X-24487Y-8661D1*
X-24363Y-8625D1*
X-24496Y-8585D1*
X-24606Y-8526D1*
X-24702Y-8446D1*
X-24780Y-8349D1*
X-24838Y-8239D1*
X-24874Y-8119D1*
X-24885Y-7995D1*
X-24872Y-7871D1*
X-24834Y-7752D1*
X-24775Y-7642D1*
X-24694Y-7547D1*
X-24597Y-7468D1*
X-24487Y-7411D1*
X-24367Y-7376D1*
X-24242Y-7365D1*
X-24118Y-7379D1*
X-23999Y-7417D1*
X-23890Y-7477D1*
X-23795Y-7557D1*
X-23717Y-7655D1*
X-23650Y-7800D1*
Y-7438D1*
X-23631Y-7315D1*
X-23572Y-7201D1*
X-23356Y-6978D1*
X-22845Y-6467D1*
X-22745Y-6394D1*
X-22622Y-6355D1*
X-22312Y-6350D1*
X-22129D1*
X-22130Y-6120D1*
X-21900D1*
Y-5637D1*
X-22023Y-5517D1*
X-22095Y-5407D1*
X-22134Y-5320D1*
X-22179Y-5137D1*
Y-5006D1*
X-22166Y-4912D1*
X-22104Y-4734D1*
X-22034Y-4624D1*
X-21972Y-4552D1*
X-21823Y-4435D1*
X-21689Y-4374D1*
X-21861Y-4266D1*
X-21956Y-4185D1*
X-22033Y-4087D1*
X-22089Y-3975D1*
X-22122Y-3855D1*
X-22130Y-3730D1*
X-22117Y-3633D1*
X-22664Y-3089D1*
X-22941Y-3087D1*
X-23086Y-3216D1*
X-23196Y-3275D1*
X-23316Y-3311D1*
X-23440Y-3322D1*
X-23564Y-3310D1*
X-23683Y-3273D1*
X-23793Y-3214D1*
X-23889Y-3134D1*
X-23968Y-3037D1*
X-24026Y-2926D1*
X-24061Y-2807D1*
X-24072Y-2682D1*
X-24059Y-2558D1*
X-24022Y-2439D1*
X-23962Y-2330D1*
X-23882Y-2234D1*
X-23785Y-2156D1*
X-23674Y-2098D1*
X-23554Y-2063D1*
X-23430Y-2053D1*
X-23306Y-2066D1*
X-23187Y-2104D1*
X-23078Y-2164D1*
X-22982Y-2245D1*
X-22946Y-2291D1*
X-22500Y-2288D1*
X-22377Y-2307D1*
X-22263Y-2366D1*
X-22040Y-2581D1*
X-21502Y-3120D1*
X-21347Y-3139D1*
X-21229Y-3181D1*
X-21122Y-3245D1*
X-21030Y-3330D1*
X-21000Y-3371D1*
X-20928Y-3287D1*
X-20837Y-3219D1*
Y824D1*
X-20894Y878D1*
X-20970Y976D1*
X-21026Y1087D1*
X-21059Y1208D1*
X-21067Y1332D1*
X-21051Y1456D1*
X-21011Y1574D1*
X-20948Y1682D1*
X-20865Y1775D1*
X-20766Y1851D1*
X-20713Y1876D1*
X-46255Y1875D1*
X-46257Y777D1*
X-46168Y841D1*
X-46059Y901D1*
X-45943Y947D1*
X-45821Y977D1*
X-45697Y991D1*
X-45572Y989D1*
X-45449Y971D1*
X-45329Y937D1*
X-45214Y888D1*
X-45106Y824D1*
X-45008Y747D1*
X-44920Y658D1*
X-44845Y559D1*
X-44783Y450D1*
X-44736Y335D1*
X-44704Y214D1*
X-44685Y27D1*
X-44693Y-97D1*
X-44718Y-220D1*
X-44757Y-338D1*
X-44812Y-451D1*
X-44881Y-555D1*
X-44962Y-650D1*
X-45056Y-733D1*
X-45159Y-803D1*
X-45270Y-860D1*
X-45388Y-901D1*
X-45510Y-928D1*
X-45635Y-938D1*
X-45759Y-932D1*
X-45882Y-909D1*
X-46001Y-872D1*
X-46114Y-819D1*
X-46259Y-719D1*
X-46263Y-3793D1*
X-44692Y-3790D1*
X-36370Y-3789D1*
X-36455Y-3665D1*
X-36518Y-3530D1*
X-36560Y-3386D1*
X-36577Y-3237D1*
X-36581Y-2444D1*
X-36666Y-2536D1*
X-36765Y-2611D1*
X-36877Y-2667D1*
X-36997Y-2702D1*
X-37121Y-2715D1*
X-37246Y-2705D1*
X-37366Y-2672D1*
X-37479Y-2619D1*
X-37580Y-2546D1*
X-37667Y-2456D1*
X-37736Y-2352D1*
X-37785Y-2237D1*
X-37812Y-2116D1*
X-37817Y-1991D1*
X-37800Y-1867D1*
X-37760Y-1749D1*
X-37700Y-1640D1*
X-37621Y-1543D1*
X-37526Y-1462D1*
X-37418Y-1400D1*
X-37300Y-1358D1*
X-37177Y-1338D1*
X-37052Y-1340D1*
X-36930Y-1365D1*
X-36814Y-1412D1*
X-36709Y-1479D1*
X-36617Y-1563D1*
X-36558Y-1635D1*
X-36515Y-1492D1*
X-36450Y-1357D1*
X-36363Y-1234D1*
X-36259Y-1127D1*
X-36138Y-1039D1*
X-36004Y-971D1*
X-35862Y-925D1*
X-35714Y-903D1*
X-35564Y-905D1*
X-35416Y-931D1*
X-35275Y-981D1*
X-35143Y-1053D1*
X-35025Y-1145D1*
X-34924Y-1255D1*
X-34841Y-1380D1*
X-34780Y-1517D1*
X-34741Y-1662D1*
X-34727Y-1811D1*
X-34729Y-3279D1*
X-34754Y-3427D1*
X-34801Y-3569D1*
X-34871Y-3702D1*
X-34936Y-3791D1*
X-34504Y-3790D1*
X-34378Y-3816D1*
X-34298Y-3836D1*
X-34181Y-3795D1*
X-33754Y-3790D1*
X-33559Y-3789D1*
X-33644Y-3665D1*
X-33708Y-3530D1*
X-33749Y-3386D1*
X-33767Y-3237D1*
X-33766Y-1784D1*
X-33747Y-1635D1*
X-33705Y-1492D1*
X-33640Y-1357D1*
X-33553Y-1234D1*
X-33448Y-1127D1*
X-33328Y-1039D1*
X-33194Y-971D1*
X-33052Y-925D1*
X-32903Y-903D1*
X-32754Y-905D1*
X-32606Y-931D1*
X-32465Y-981D1*
X-32333Y-1053D1*
X-32215Y-1145D1*
X-32113Y-1255D1*
X-32031Y-1380D1*
X-31969Y-1517D1*
X-31931Y-1662D1*
X-31916Y-1811D1*
X-31919Y-3279D1*
X-31943Y-3427D1*
X-31991Y-3569D1*
X-32061Y-3702D1*
X-32126Y-3791D1*
X-25378Y-3790D1*
X-25256Y-3813D1*
X-25150Y-3879D1*
X-25076Y-3979D1*
X-25043Y-4125D1*
X-25044Y-8385D1*
X-25040Y-8813D1*
Y-12000D1*
X-25063Y-12122D1*
X-25129Y-12227D1*
X-25229Y-12301D1*
X-25375Y-12335D1*
X-29793D1*
X-29795Y-12755D1*
X-29741Y-12837D1*
X-29691Y-12952D1*
X-29665Y-13125D1*
X-29678Y-13249D1*
X-29718Y-13367D1*
X-29781Y-13475D1*
X-29835Y-13540D1*
X-29665D1*
Y-13724D1*
X-28996Y-13725D1*
X-28847Y-13593D1*
X-28737Y-13536D1*
X-28617Y-13501D1*
X-28492Y-13490D1*
X-28368Y-13504D1*
X-28249Y-13542D1*
X-28140Y-13602D1*
X-28045Y-13682D1*
X-27967Y-13780D1*
X-27910Y-13891D1*
X-27875Y-14011D1*
X-27865Y-14125D1*
X-27877Y-14249D1*
X-27914Y-14369D1*
X-27973Y-14479D1*
X-28052Y-14575D1*
X-28149Y-14654D1*
X-28259Y-14712D1*
X-28378Y-14748D1*
X-28503Y-14760D1*
X-28627Y-14747D1*
X-28746Y-14710D1*
X-28856Y-14651D1*
X-28952Y-14571D1*
X-28989Y-14526D1*
X-29668Y-14525D1*
X-29665Y-14710D1*
X-30835D1*
Y-13540D1*
X-30659D1*
X-30740Y-13444D1*
X-30797Y-13333D1*
X-30828Y-13213D1*
X-30834Y-13088D1*
X-30813Y-12965D1*
X-30766Y-12849D1*
X-30705Y-12750D1*
Y-12332D1*
X-31500Y-12335D1*
X-34411Y-12338D1*
X-34313Y-12415D1*
X-34231Y-12509D1*
X-34169Y-12618D1*
X-34130Y-12736D1*
X-34115Y-12860D1*
X-34123Y-12975D1*
X-34154Y-13095D1*
X-34209Y-13208D1*
X-34285Y-13307D1*
X-34378Y-13390D1*
X-34486Y-13452D1*
X-34604Y-13493D1*
X-34728Y-13510D1*
X-34852Y-13502D1*
X-34973Y-13470D1*
X-35085Y-13415D1*
X-35184Y-13339D1*
X-35266Y-13245D1*
X-35328Y-13137D1*
X-35369Y-13019D1*
X-35385Y-12895D1*
X-35376Y-12770D1*
X-35344Y-12650D1*
X-35288Y-12538D1*
X-35212Y-12439D1*
X-35118Y-12357D1*
X-35083Y-12335D1*
X-38418D1*
X-38295Y-12432D1*
X-38217Y-12530D1*
X-38160Y-12641D1*
X-38125Y-12761D1*
X-38115Y-12875D1*
X-38127Y-12999D1*
X-9005Y-22120D2*
X-8954D1*
X-8955Y-20941D1*
X-9072Y-20822D1*
X-9147Y-20722D1*
X-9193Y-20602D1*
X-9205Y-20500D1*
X-9206Y-20122D1*
X-9283Y-20024D1*
X-9339Y-19913D1*
X-9372Y-19792D1*
X-9380Y-19668D1*
X-9364Y-19544D1*
X-9306Y-19395D1*
X-10375Y-19393D1*
X-11000D1*
X-11123Y-19375D1*
X-11241Y-19323D1*
X-11322Y-19259D1*
X-11993Y-18588D1*
X-12004Y-18689D1*
X-12040Y-18808D1*
X-12099Y-18918D1*
X-12178Y-19014D1*
X-12224Y-19051D1*
X-12226Y-19689D1*
Y-19815D1*
X-12246Y-19938D1*
X-12305Y-20051D1*
X-12520Y-20274D1*
X-12678Y-20432D1*
X-12562Y-20413D1*
X-11784D1*
X-11702Y-20306D1*
X-11549Y-20185D1*
X-11430Y-20130D1*
X-11339Y-20103D1*
X-11153Y-20085D1*
X-11079Y-20100D1*
X-11026Y-20101D1*
X-10954Y-20085D1*
X-10799Y-20098D1*
X-10670Y-20130D1*
X-10503Y-20216D1*
X-10403Y-20302D1*
X-10341Y-20374D1*
X-10247Y-20537D1*
X-10209Y-20662D1*
X-10196Y-20756D1*
Y-20865D1*
X-9467Y-21592D1*
X-9394Y-21693D1*
X-9355Y-21815D1*
X-9350Y-22125D1*
Y-25535D1*
X-9283Y-25467D1*
X-9182Y-25394D1*
X-9060Y-25355D1*
X-8988Y-25350D1*
X-8881Y-25252D1*
X-8956Y-25185D1*
X-9033Y-25087D1*
X-9089Y-24975D1*
X-9122Y-24855D1*
X-9130Y-24730D1*
X-9114Y-24606D1*
X-9073Y-24488D1*
X-9011Y-24380D1*
X-8928Y-24287D1*
X-8881Y-24252D1*
X-8956Y-24185D1*
X-9033Y-24087D1*
X-9089Y-23975D1*
X-9122Y-23855D1*
X-9130Y-23730D1*
X-9114Y-23606D1*
X-9073Y-23488D1*
X-9008Y-23377D1*
X-9130Y-23380D1*
Y-22120D1*
X-9005D1*
X-42206Y-1015D2*
X-42231Y-1138D1*
X-42272Y-1255D1*
X-42329Y-1367D1*
X-42399Y-1470D1*
X-42483Y-1563D1*
X-42579Y-1643D1*
X-42684Y-1710D1*
X-42797Y-1763D1*
X-42916Y-1800D1*
X-43040Y-1821D1*
X-43164Y-1825D1*
X-43289Y-1812D1*
X-43410Y-1783D1*
X-43527Y-1739D1*
X-43636Y-1679D1*
X-43737Y-1604D1*
X-43827Y-1518D1*
X-43904Y-1420D1*
X-43968Y-1312D1*
X-44016Y-1197D1*
X-44049Y-1077D1*
X-44066Y-953D1*
Y-828D1*
X-44049Y-704D1*
X-44016Y-584D1*
X-43968Y-469D1*
X-43904Y-361D1*
X-43826Y-263D1*
X-43737Y-176D1*
X-43636Y-102D1*
X-43527Y-42D1*
X-43410Y3D1*
X-43288Y32D1*
X-43164Y44D1*
X-43039Y40D1*
X-42916Y19D1*
X-42797Y-18D1*
X-42684Y-71D1*
X-42578Y-138D1*
X-42483Y-219D1*
X-42399Y-311D1*
X-42329Y-414D1*
X-42272Y-526D1*
X-42231Y-644D1*
X-42206Y-766D1*
X-42198Y-890D1*
X-42206Y-1015D1*
X-18928Y-13249D2*
X-18968Y-13367D1*
X-19031Y-13475D1*
X-19085Y-13540D1*
X-18915D1*
Y-14710D1*
X-20053D1*
X-20041Y-14809D1*
Y-15477D1*
X-19933Y-15469D1*
X-19809Y-15483D1*
X-19690Y-15520D1*
X-19581Y-15581D1*
X-19486Y-15661D1*
X-19444Y-15713D1*
X-19385Y-15650D1*
X-19288Y-15572D1*
X-19177Y-15514D1*
X-19058Y-15480D1*
X-18933Y-15469D1*
X-18809Y-15483D1*
X-18690Y-15520D1*
X-18581Y-15581D1*
X-18486Y-15661D1*
X-18444Y-15713D1*
X-18385Y-15650D1*
X-18288Y-15572D1*
X-18177Y-15514D1*
X-18058Y-15480D1*
X-17933Y-15469D1*
X-17809Y-15483D1*
X-17690Y-15520D1*
X-17581Y-15581D1*
X-17486Y-15661D1*
X-17408Y-15759D1*
X-17351Y-15870D1*
X-17316Y-15990D1*
X-17306Y-16104D1*
X-17310Y-16404D1*
X-17318Y-16528D1*
X-17354Y-16647D1*
X-17413Y-16757D1*
X-17493Y-16854D1*
X-17600Y-16938D1*
Y-17250D1*
X-17619Y-17373D1*
X-17678Y-17487D1*
X-17894Y-17710D1*
X-18598Y-18414D1*
X-18600Y-20949D1*
X-18516Y-21074D1*
X-18477Y-21192D1*
X-18465Y-21303D1*
X-18480Y-21427D1*
X-18522Y-21544D1*
X-18600Y-21656D1*
Y-21706D1*
X-18519Y-21672D1*
X-18396Y-21653D1*
X-18272Y-21663D1*
X-18153Y-21701D1*
X-18046Y-21765D1*
X-17958Y-21853D1*
X-17891Y-21959D1*
X-17852Y-22077D1*
X-17840Y-22188D1*
X-17855Y-22311D1*
X-17897Y-22429D1*
X-17966Y-22533D1*
X-18057Y-22618D1*
X-18165Y-22680D1*
X-18285Y-22715D1*
X-18410Y-22721D1*
X-18532Y-22699D1*
X-18600Y-22669D1*
Y-23018D1*
X-18519Y-22985D1*
X-18396Y-22965D1*
X-18272Y-22975D1*
X-18153Y-23013D1*
X-18046Y-23078D1*
X-17958Y-23165D1*
X-17891Y-23271D1*
X-17852Y-23389D1*
X-17840Y-23500D1*
X-17855Y-23624D1*
X-17897Y-23741D1*
X-17966Y-23845D1*
X-18057Y-23930D1*
X-18165Y-23992D1*
X-18285Y-24027D1*
X-18410Y-24034D1*
X-18532Y-24011D1*
X-18600Y-23981D1*
Y-24143D1*
X-18519Y-24110D1*
X-18396Y-24090D1*
X-18272Y-24100D1*
X-18153Y-24138D1*
X-18046Y-24203D1*
X-17958Y-24290D1*
X-17891Y-24396D1*
X-17852Y-24514D1*
X-17840Y-24625D1*
X-17855Y-24749D1*
X-17897Y-24866D1*
X-17966Y-24970D1*
X-18057Y-25055D1*
X-18165Y-25117D1*
X-18285Y-25152D1*
X-18410Y-25159D1*
X-18532Y-25136D1*
X-18600Y-25106D1*
Y-26354D1*
X-18025Y-26350D1*
X-17404D1*
X-17400Y-24386D1*
X-17521Y-24264D1*
X-17585Y-24157D1*
X-17629Y-24040D1*
X-17649Y-23917D1*
X-17645Y-23792D1*
X-17617Y-23670D1*
X-17546Y-23528D1*
X-17650Y-23525D1*
Y-22225D1*
X-17396D1*
X-17400Y-21500D1*
Y-19582D1*
X-17442Y-19490D1*
X-17470Y-19368D1*
X-17468Y-19243D1*
X-17438Y-19122D1*
X-17380Y-19012D1*
X-17298Y-18918D1*
X-17197Y-18845D1*
X-17082Y-18797D1*
X-16959Y-18778D1*
X-16834Y-18788D1*
X-16716Y-18826D1*
X-16609Y-18890D1*
X-16518Y-18981D1*
Y-18625D1*
X-16500Y-18502D1*
X-16448Y-18384D1*
X-16384Y-18303D1*
X-15574Y-17493D1*
X-15471Y-17416D1*
X-15423Y-17393D1*
X-15625Y-17296D1*
X-15827Y-17150D1*
X-15998Y-16967D1*
X-16130Y-16756D1*
X-16220Y-16523D1*
X-16264Y-16277D1*
X-16261Y-16028D1*
X-16210Y-15783D1*
X-16114Y-15553D1*
X-15976Y-15345D1*
X-15800Y-15167D1*
X-15595Y-15026D1*
X-15366Y-14927D1*
X-15122Y-14873D1*
X-14872Y-14866D1*
X-14626Y-14906D1*
X-14392Y-14993D1*
X-14179Y-15123D1*
X-13994Y-15291D1*
X-13844Y-15490D1*
X-13736Y-15715D1*
X-13672Y-15956D1*
X-13654Y-16170D1*
X-13678Y-16419D1*
X-13748Y-16658D1*
X-13863Y-16880D1*
X-14018Y-17075D1*
X-14207Y-17238D1*
X-14421Y-17360D1*
X-12623Y-17359D1*
X-12625Y-16957D1*
X-13259Y-16322D1*
X-13334Y-16222D1*
X-13380Y-16103D1*
X-13393Y-16000D1*
Y-14504D1*
X-13848Y-14046D1*
X-13850Y-14087D1*
X-15150D1*
Y-13982D1*
X-15237Y-14032D1*
X-15355Y-14071D1*
X-15479Y-14087D1*
X-15604Y-14079D1*
X-15724Y-14048D1*
X-15837Y-13993D1*
X-15937Y-13919D1*
X-16021Y-13826D1*
X-16085Y-13720D1*
X-16129Y-13603D1*
X-16149Y-13479D1*
X-16145Y-13355D1*
X-16117Y-13233D1*
X-16066Y-13119D1*
X-15995Y-13016D1*
X-15905Y-12930D1*
X-15801Y-12861D1*
X-15685Y-12815D1*
X-15563Y-12791D1*
X-15438Y-12790D1*
X-15315Y-12814D1*
X-15200Y-12861D1*
X-15150Y-12890D1*
Y-12788D1*
X-14896D1*
X-14893Y-12629D1*
X-16068Y-12630D1*
Y-12009D1*
X-16827Y-11254D1*
X-16903Y-11151D1*
X-17214Y-11148D1*
Y-9730D1*
X-16960D1*
Y-8626D1*
X-16943Y-8503D1*
X-16891Y-8385D1*
X-16827Y-8304D1*
X-16675Y-8152D1*
X-16780Y-8151D1*
Y-8045D1*
X-16867Y-8095D1*
X-16985Y-8135D1*
X-17109Y-8151D1*
X-17234Y-8143D1*
X-17354Y-8111D1*
X-17467Y-8057D1*
X-17567Y-7982D1*
X-17651Y-7890D1*
X-17716Y-7783D1*
X-17759Y-7666D1*
X-17779Y-7543D1*
X-17775Y-7418D1*
X-17747Y-7296D1*
X-17697Y-7182D1*
X-17625Y-7080D1*
X-17536Y-6993D1*
X-17431Y-6925D1*
X-17315Y-6878D1*
X-17193Y-6854D1*
X-17068D1*
X-16946Y-6878D1*
X-16830Y-6924D1*
X-16781Y-6953D1*
X-16780Y-6851D1*
X-16589D1*
X-16585Y-6001D1*
Y-5813D1*
X-16568Y-5690D1*
X-16516Y-5573D1*
X-16452Y-5492D1*
X-16405Y-5445D1*
Y-4351D1*
X-15135D1*
Y-4010D1*
X-15322Y-3827D1*
X-15397Y-3727D1*
X-15443Y-3607D1*
X-15421Y-3676D1*
X-15534Y-3604D1*
X-15696Y-3596D1*
X-15817Y-3568D1*
X-15932Y-3519D1*
X-16037Y-3451D1*
X-16129Y-3366D1*
X-16205Y-3267D1*
X-16263Y-3157D1*
X-16301Y-3038D1*
X-16318Y-2914D1*
X-16314Y-2789D1*
X-16276Y-2635D1*
X-16374Y-2737D1*
X-16475Y-2810D1*
X-16587Y-2865D1*
X-16707Y-2900D1*
X-16831Y-2914D1*
X-16955Y-2907D1*
X-17077Y-2879D1*
X-17192Y-2830D1*
X-17297Y-2762D1*
X-17388Y-2677D1*
X-17464Y-2578D1*
X-17522Y-2468D1*
X-17561Y-2349D1*
X-17578Y-2225D1*
Y-1166D1*
X-17561Y-1042D1*
X-17524Y-923D1*
X-17466Y-812D1*
X-17391Y-713D1*
X-17300Y-628D1*
X-17195Y-560D1*
X-17080Y-510D1*
X-16959Y-481D1*
X-16834Y-473D1*
X-16710Y-487D1*
X-16590Y-521D1*
X-16478Y-576D1*
X-16376Y-648D1*
X-16289Y-737D1*
X-16218Y-840D1*
X-16165Y-953D1*
X-16133Y-1074D1*
X-16122Y-1202D1*
X-16126Y-2261D1*
X-16149Y-2384D1*
X-16161Y-2422D1*
X-16096Y-2350D1*
X-15999Y-2272D1*
X-15890Y-2211D1*
X-15773Y-2169D1*
X-15649Y-2149D1*
X-15216Y-2146D1*
X-14343Y-2149D1*
X-14221Y-2171D1*
X-14103Y-2214D1*
X-13995Y-2276D1*
X-13899Y-2355D1*
X-13817Y-2450D1*
X-13754Y-2557D1*
X-13709Y-2674D1*
X-13685Y-2797D1*
X-13681Y-2875D1*
X-13691Y-2999D1*
X-13723Y-3120D1*
X-13775Y-3234D1*
X-13881Y-3373D1*
X-13874Y-3370D1*
Y-4631D1*
X-13995D1*
X-13961Y-4681D1*
X-13909Y-4794D1*
X-13880Y-4916D1*
X-13874Y-5001D1*
X-13886Y-5125D1*
X-13923Y-5244D1*
X-13982Y-5354D1*
X-14062Y-5450D1*
X-14126Y-5501D1*
X-14035Y-5580D1*
X-13961Y-5681D1*
X-13909Y-5794D1*
X-13880Y-5916D1*
X-13874Y-6001D1*
X-13886Y-6125D1*
X-13923Y-6244D1*
X-13982Y-6354D1*
X-14062Y-6450D1*
X-14159Y-6528D1*
X-14270Y-6586D1*
X-14390Y-6620D1*
X-14514Y-6631D1*
X-14638Y-6616D1*
X-14757Y-6578D1*
X-14866Y-6517D1*
X-14960Y-6436D1*
X-15037Y-6337D1*
X-15093Y-6226D1*
X-15126Y-6105D1*
X-15134Y-5981D1*
X-15118Y-5857D1*
X-15078Y-5739D1*
X-15015Y-5631D1*
X-14932Y-5538D1*
X-14885Y-5502D1*
X-15004Y-5456D1*
X-15102D1*
X-15105Y-5651D1*
X-15351D1*
X-15433Y-5760D1*
X-15674Y-6000D1*
X-15675Y-6849D1*
X-15480Y-6851D1*
Y-8151D1*
X-15672D1*
X-15692Y-8374D1*
X-15744Y-8492D1*
X-15808Y-8573D1*
X-16049Y-8813D1*
X-16050Y-9731D1*
X-15796Y-9730D1*
Y-9796D1*
X-15742Y-9770D1*
X-15621Y-9739D1*
X-15496Y-9730D1*
X-15372Y-9742D1*
X-15252Y-9776D1*
X-15140Y-9831D1*
X-15039Y-9905D1*
X-15005Y-9936D1*
X-14938Y-9877D1*
X-14833Y-9810D1*
X-14718Y-9762D1*
X-14596Y-9736D1*
X-14471Y-9731D1*
X-14348Y-9747D1*
X-14229Y-9786D1*
X-14119Y-9844D1*
X-14020Y-9921D1*
X-13937Y-10014D1*
X-13871Y-10121D1*
X-13825Y-10237D1*
X-13801Y-10359D1*
X-13796Y-10439D1*
X-13807Y-10563D1*
X-13840Y-10684D1*
X-13893Y-10796D1*
X-13985Y-10917D1*
X-13983Y-11565D1*
X-13894Y-11680D1*
X-13842Y-11794D1*
X-13813Y-11915D1*
X-13807Y-12000D1*
X-13820Y-12124D1*
X-13856Y-12243D1*
X-13916Y-12353D1*
X-13983Y-12434D1*
Y-12785D1*
X-13850Y-12788D1*
Y-12979D1*
X-13689Y-13000D1*
X-13572Y-13052D1*
X-13491Y-13116D1*
X-12623Y-13983D1*
X-12625Y-8250D1*
Y1875D1*
X-18809D1*
X-18807Y682D1*
X-19038D1*
Y-2191D1*
X-18904Y-2342D1*
X-18847Y-2453D1*
X-18813Y-2573D1*
X-18803Y-2687D1*
X-18815Y-2812D1*
X-18851Y-2931D1*
X-18910Y-3041D1*
X-18989Y-3137D1*
X-19035Y-3174D1*
X-19038Y-3324D1*
X-18957Y-3430D1*
X-18904Y-3544D1*
X-18875Y-3665D1*
X-18870Y-3750D1*
X-18882Y-3874D1*
X-18919Y-3993D1*
X-18978Y-4103D1*
X-19058Y-4199D1*
X-19155Y-4277D1*
X-19266Y-4335D1*
X-19386Y-4370D1*
X-19510Y-4380D1*
X-19634Y-4366D1*
X-19753Y-4327D1*
X-19861Y-4266D1*
X-19956Y-4185D1*
X-19997Y-4133D1*
X-20058Y-4199D1*
X-20155Y-4277D1*
X-20266Y-4335D1*
X-20386Y-4370D1*
X-20510Y-4380D1*
X-20634Y-4366D1*
X-20753Y-4327D1*
X-20861Y-4266D1*
X-20956Y-4185D1*
X-20997Y-4133D1*
X-21058Y-4199D1*
X-21155Y-4277D1*
X-21266Y-4335D1*
X-21337Y-4356D1*
X-21298Y-4350D1*
X-21199Y-4334D1*
X-21036Y-4353D1*
X-20939Y-4383D1*
X-20799Y-4451D1*
X-20678Y-4552D1*
X-20612Y-4629D1*
X-20531Y-4762D1*
X-20484Y-4912D1*
X-20470Y-5013D1*
X-20474Y-5168D1*
X-20515Y-5320D1*
X-20559Y-5413D1*
X-20646Y-5541D1*
X-20763Y-5647D1*
X-20849Y-5701D1*
X-20992Y-5762D1*
X-21100Y-5781D1*
Y-6121D1*
X-20870Y-6120D1*
Y-6240D1*
X-20762Y-6177D1*
X-20644Y-6136D1*
X-20520Y-6120D1*
X-20396Y-6128D1*
X-20275Y-6161D1*
X-20164Y-6217D1*
X-20065Y-6294D1*
X-20000Y-6366D1*
X-19928Y-6287D1*
X-19828Y-6212D1*
X-19716Y-6158D1*
X-19595Y-6127D1*
X-19470Y-6120D1*
X-19347Y-6139D1*
X-19229Y-6181D1*
X-19122Y-6245D1*
X-19030Y-6330D1*
X-18957Y-6430D1*
X-18904Y-6544D1*
X-18875Y-6665D1*
X-18870Y-6750D1*
X-18882Y-6874D1*
X-18919Y-6993D1*
X-18978Y-7103D1*
X-19058Y-7199D1*
X-19155Y-7277D1*
X-19266Y-7335D1*
X-19386Y-7370D1*
X-19510Y-7380D1*
X-19634Y-7366D1*
X-19753Y-7327D1*
X-19861Y-7266D1*
X-19956Y-7185D1*
X-19997Y-7133D1*
X-20095Y-7233D1*
X-20198Y-7303D1*
X-20313Y-7352D1*
X-20435Y-7377D1*
X-20560D1*
X-20682Y-7353D1*
X-20798Y-7306D1*
X-20870Y-7260D1*
Y-7380D1*
X-22130D1*
Y-7150D1*
X-22395D1*
X-22851Y-7605D1*
X-22850Y-12566D1*
X-22694Y-12540D1*
X-22570Y-12552D1*
X-22451Y-12590D1*
X-22343Y-12652D1*
X-22251Y-12736D1*
X-22178Y-12837D1*
X-22129Y-12952D1*
X-22102Y-13125D1*
X-22116Y-13249D1*
X-22155Y-13367D1*
X-22219Y-13475D1*
X-22272Y-13540D1*
X-22102D1*
Y-14710D1*
X-23272D1*
Y-14105D1*
X-23288Y-14125D1*
Y-14375D1*
X-23307Y-14498D1*
X-23366Y-14612D1*
X-23581Y-14835D1*
X-24408Y-15660D1*
X-24288Y-15572D1*
X-24177Y-15514D1*
X-24058Y-15480D1*
X-23933Y-15469D1*
X-23809Y-15483D1*
X-23690Y-15520D1*
X-23581Y-15581D1*
X-23486Y-15661D1*
X-23444Y-15713D1*
X-23385Y-15650D1*
X-23288Y-15572D1*
X-23177Y-15514D1*
X-23058Y-15480D1*
X-22933Y-15469D1*
X-22809Y-15483D1*
X-22690Y-15520D1*
X-22581Y-15581D1*
X-22486Y-15661D1*
X-22444Y-15713D1*
X-22385Y-15650D1*
X-22288Y-15572D1*
X-22177Y-15514D1*
X-22058Y-15480D1*
X-21933Y-15469D1*
X-21809Y-15483D1*
X-21690Y-15520D1*
X-21581Y-15581D1*
X-21486Y-15661D1*
X-21444Y-15713D1*
X-21385Y-15650D1*
X-21288Y-15572D1*
X-21177Y-15514D1*
X-21058Y-15480D1*
X-20933Y-15469D1*
X-20844Y-15479D1*
X-20841Y-14976D1*
X-21283Y-14533D1*
X-21356Y-14432D1*
X-21395Y-14310D1*
X-21400Y-14000D1*
Y-11125D1*
X-21381Y-11002D1*
X-21322Y-10888D1*
X-21106Y-10665D1*
X-20882Y-10442D1*
X-20872Y-10371D1*
X-20834Y-10252D1*
X-20775Y-10142D1*
X-20694Y-10047D1*
X-20649Y-10010D1*
X-20650Y-9746D1*
X-20780Y-9599D1*
X-20838Y-9489D1*
X-20874Y-9369D1*
X-20885Y-9245D1*
X-20872Y-9121D1*
X-20834Y-9002D1*
X-20775Y-8892D1*
X-20694Y-8797D1*
X-20597Y-8718D1*
X-20487Y-8661D1*
X-20363Y-8625D1*
X-20496Y-8585D1*
X-20606Y-8526D1*
X-20702Y-8446D1*
X-20780Y-8349D1*
X-20838Y-8239D1*
X-20874Y-8119D1*
X-20885Y-7995D1*
X-20872Y-7871D1*
X-20834Y-7752D1*
X-20775Y-7642D1*
X-20694Y-7547D1*
X-20597Y-7468D1*
X-20487Y-7411D1*
X-20367Y-7376D1*
X-20242Y-7365D1*
X-20118Y-7379D1*
X-19999Y-7417D1*
X-19890Y-7477D1*
X-19795Y-7557D1*
X-19717Y-7655D1*
X-19660Y-7766D1*
X-19625Y-7886D1*
X-19620Y-7939D1*
X-19217Y-8342D1*
X-19144Y-8443D1*
X-19105Y-8565D1*
X-19100Y-8875D1*
Y-12699D1*
X-18991Y-12837D1*
X-18941Y-12952D1*
X-18915Y-13125D1*
X-18928Y-13249D1*
X-19914Y-13538D2*
X-19990Y-13444D1*
X-20047Y-13333D1*
X-20078Y-13213D1*
X-20084Y-13088D1*
X-20063Y-12965D1*
X-20016Y-12849D1*
X-19946Y-12746D1*
X-19898Y-12700D1*
X-19900Y-12277D1*
X-20009Y-12337D1*
X-20128Y-12373D1*
X-20253Y-12385D1*
X-20377Y-12372D1*
X-20496Y-12335D1*
X-20602Y-12278D1*
X-20600Y-14082D1*
X-20120Y-14570D1*
X-20085Y-14585D1*
Y-13540D1*
X-19912D1*
X-13660Y-35586D2*
X-13707Y-35831D1*
X-13800Y-36063D1*
X-13936Y-36273D1*
X-14109Y-36453D1*
X-14313Y-36597D1*
X-14540Y-36699D1*
X-14783Y-36757D1*
X-15033Y-36767D1*
X-15279Y-36730D1*
X-15515Y-36646D1*
X-15730Y-36519D1*
X-15917Y-36354D1*
X-16069Y-36156D1*
X-16181Y-35933D1*
X-16248Y-35693D1*
X-16269Y-35444D1*
X-16241Y-35196D1*
X-16168Y-34957D1*
X-16050Y-34737D1*
X-15892Y-34543D1*
X-15701Y-34383D1*
X-15483Y-34262D1*
X-15245Y-34185D1*
X-14997Y-34155D1*
X-14748Y-34171D1*
X-14507Y-34235D1*
X-14282Y-34344D1*
X-14082Y-34494D1*
X-13914Y-34678D1*
X-13785Y-34891D1*
X-13698Y-35126D1*
X-13657Y-35372D1*
X-13660Y-35586D1*
X-36495D2*
X-36542Y-35831D1*
X-36635Y-36063D1*
X-36771Y-36273D1*
X-36943Y-36453D1*
X-37147Y-36597D1*
X-37375Y-36699D1*
X-37618Y-36757D1*
X-37867Y-36767D1*
X-38114Y-36730D1*
X-38349Y-36646D1*
X-38564Y-36519D1*
X-38751Y-36354D1*
X-38904Y-36156D1*
X-39015Y-35933D1*
X-39083Y-35693D1*
X-39103Y-35444D1*
X-39076Y-35196D1*
X-39002Y-34957D1*
X-38884Y-34737D1*
X-38727Y-34543D1*
X-38536Y-34383D1*
X-38317Y-34262D1*
X-38080Y-34185D1*
X-37832Y-34155D1*
X-37583Y-34171D1*
X-37342Y-34235D1*
X-37117Y-34344D1*
X-36917Y-34494D1*
X-36749Y-34678D1*
X-36619Y-34891D1*
X-36532Y-35126D1*
X-36492Y-35372D1*
X-36495Y-35586D1*
Y-16295D2*
X-36542Y-16540D1*
X-36635Y-16772D1*
X-36771Y-16981D1*
X-36943Y-17161D1*
X-37147Y-17305D1*
X-37375Y-17408D1*
X-37618Y-17465D1*
X-37867Y-17476D1*
X-38114Y-17438D1*
X-38349Y-17355D1*
X-38564Y-17228D1*
X-38751Y-17063D1*
X-38904Y-16865D1*
X-39015Y-16642D1*
X-39083Y-16401D1*
X-39103Y-16152D1*
X-39076Y-15904D1*
X-39002Y-15666D1*
X-38884Y-15446D1*
X-38727Y-15252D1*
X-38536Y-15092D1*
X-38317Y-14971D1*
X-38080Y-14894D1*
X-37832Y-14863D1*
X-37583Y-14880D1*
X-37342Y-14944D1*
X-37117Y-15053D1*
X-36917Y-15202D1*
X-36749Y-15387D1*
X-36619Y-15600D1*
X-36532Y-15834D1*
X-36492Y-16080D1*
X-36495Y-16295D1*
X-11302Y-21527D2*
X-11430Y-21495D1*
X-11488Y-21469D1*
X-11465Y-21625D1*
X-11480Y-21749D1*
X-11522Y-21866D1*
X-11546Y-21902D1*
X-11545Y-22371D1*
X-11396Y-22340D1*
X-11272Y-22350D1*
X-11153Y-22388D1*
X-11046Y-22453D1*
X-10958Y-22540D1*
X-10891Y-22646D1*
X-10852Y-22764D1*
X-10840Y-22875D1*
X-10855Y-22999D1*
X-10897Y-23116D1*
X-10975Y-23228D1*
Y-25223D1*
X-10896Y-25215D1*
X-10772Y-25225D1*
X-10653Y-25263D1*
X-10546Y-25328D1*
X-10458Y-25415D1*
X-10391Y-25521D1*
X-10352Y-25639D1*
X-10340Y-25750D1*
X-10355Y-25874D1*
X-10397Y-25991D1*
X-10475Y-26103D1*
X-10472Y-28718D1*
X-10362Y-28661D1*
X-10242Y-28626D1*
X-10117Y-28615D1*
X-9993Y-28629D1*
X-9874Y-28667D1*
X-9765Y-28727D1*
X-9714Y-28770D1*
X-9713Y-26783D1*
X-9785Y-26784D1*
X-9907Y-26761D1*
X-10021Y-26711D1*
X-10121Y-26636D1*
X-10200Y-26539D1*
X-10255Y-26427D1*
X-10282Y-26306D1*
X-10281Y-26181D1*
X-10250Y-26060D1*
X-10193Y-25949D1*
X-10149Y-25899D1*
X-10150Y-22043D1*
X-10687Y-21503D1*
X-10836Y-21532D1*
X-10947Y-21540D1*
X-11021Y-21525D1*
X-11074Y-21524D1*
X-11147Y-21540D1*
X-11302Y-21527D1*
X-15486Y-1241D2*
X-15622Y-1230D1*
X-15742Y-1197D1*
X-15855Y-1144D1*
X-15958Y-1073D1*
X-16047Y-985D1*
X-16119Y-884D1*
X-16173Y-771D1*
X-16208Y-651D1*
X-16221Y-527D1*
X-16212Y-403D1*
X-16183Y-281D1*
X-16133Y-167D1*
X-16065Y-62D1*
X-15980Y29D1*
X-15880Y104D1*
X-15769Y161D1*
X-15650Y199D1*
X-15526Y215D1*
X-14467D1*
X-14343Y197D1*
X-14224Y159D1*
X-14114Y100D1*
X-14015Y24D1*
X-13931Y-68D1*
X-13863Y-173D1*
X-13815Y-288D1*
X-13787Y-410D1*
X-13780Y-538D1*
X-13795Y-662D1*
X-13830Y-781D1*
X-13886Y-893D1*
X-13960Y-994D1*
X-14050Y-1080D1*
X-14154Y-1150D1*
X-14268Y-1201D1*
X-14389Y-1232D1*
X-14508Y-1241D1*
X-15492D1*
X-15005Y-10941D2*
X-15114Y-11030D1*
X-15224Y-11090D1*
X-15343Y-11129D1*
X-15466Y-11147D1*
X-15591Y-11142D1*
X-15664Y-11130D1*
X-15424Y-11370D1*
X-14892D1*
X-14893Y-11035D1*
X-15003Y-10940D1*
X-17106Y-5026D2*
X-17122Y-5149D1*
X-17162Y-5268D1*
X-17224Y-5376D1*
X-17306Y-5470D1*
X-17404Y-5548D1*
X-17515Y-5605D1*
X-17635Y-5639D1*
X-17759Y-5651D1*
X-17883Y-5638D1*
X-18003Y-5602D1*
X-18113Y-5543D1*
X-18210Y-5465D1*
X-18290Y-5369D1*
X-18351Y-5260D1*
X-18390Y-5141D1*
X-18405Y-5018D1*
X-18396Y-4893D1*
X-18364Y-4773D1*
X-18309Y-4660D1*
X-18234Y-4561D1*
X-18141Y-4477D1*
X-18034Y-4413D1*
X-17916Y-4371D1*
X-17793Y-4352D1*
X-17668Y-4357D1*
X-17547Y-4385D1*
X-17433Y-4436D1*
X-17331Y-4508D1*
X-17245Y-4598D1*
X-17177Y-4703D1*
X-17131Y-4819D1*
X-17108Y-4942D1*
X-17106Y-5026D1*
X-851Y-29025D2*
X-867Y-29149D1*
X-907Y-29267D1*
X-969Y-29375D1*
X-1051Y-29470D1*
X-1149Y-29547D1*
X-1260Y-29604D1*
X-1380Y-29639D1*
X-1504Y-29650D1*
X-1628Y-29637D1*
X-1748Y-29601D1*
X-1858Y-29543D1*
X-1955Y-29464D1*
X-2035Y-29369D1*
X-2096Y-29259D1*
X-2135Y-29141D1*
X-2150Y-29017D1*
X-2141Y-28892D1*
X-2109Y-28772D1*
X-2054Y-28660D1*
X-1979Y-28560D1*
X-1886Y-28477D1*
X-1779Y-28413D1*
X-1661Y-28370D1*
X-1538Y-28351D1*
X-1413Y-28356D1*
X-1292Y-28384D1*
X-1178Y-28436D1*
X-1076Y-28508D1*
X-990Y-28598D1*
X-922Y-28703D1*
X-876Y-28819D1*
X-853Y-28941D1*
X-851Y-29025D1*
X-2025Y-26350D2*
X-850D1*
Y-27650D1*
X-2150D1*
Y-26350D1*
X-2025D1*
X-7803Y-20313D2*
X-7884Y-20303D1*
X-8003Y-20265D1*
X-8111Y-20204D1*
X-8206Y-20122D1*
X-8247Y-20070D1*
X-8295Y-20188D1*
Y-20309D1*
X-8141Y-20471D1*
X-7924Y-20348D1*
X-7808Y-20314D1*
X-3630Y-24995D2*
X-2509D1*
X-3470Y-24033D1*
X-3544Y-23932D1*
X-3582Y-23810D1*
X-3587Y-23660D1*
X-3727Y-23665D1*
X-3849Y-23641D1*
X-3910Y-23614D1*
X-3988Y-23651D1*
X-4089Y-23666D1*
X-4336Y-23662D1*
X-4431Y-23633D1*
X-4513Y-23577D1*
X-4654Y-23432D1*
X-4700Y-23344D1*
X-4719Y-23246D1*
X-4716Y-22592D1*
X-4686Y-22497D1*
X-4630Y-22415D1*
X-4485Y-22274D1*
X-4397Y-22228D1*
X-4299Y-22209D1*
X-4087D1*
Y-21434D1*
X-4218Y-21287D1*
X-4276Y-21176D1*
X-4311Y-21057D1*
X-4322Y-20932D1*
X-4309Y-20808D1*
X-4272Y-20689D1*
X-4212Y-20580D1*
X-4132Y-20484D1*
X-4035Y-20406D1*
X-3924Y-20348D1*
X-3804Y-20313D1*
X-3680Y-20303D1*
X-3556Y-20316D1*
X-3437Y-20354D1*
X-3328Y-20414D1*
X-3232Y-20495D1*
X-3154Y-20592D1*
X-3097Y-20703D1*
X-3063Y-20823D1*
X-3053Y-20938D1*
X-3065Y-21062D1*
X-3101Y-21181D1*
X-3160Y-21291D1*
X-3239Y-21387D1*
X-3285Y-21424D1*
X-3288Y-22063D1*
Y-22215D1*
X-3194Y-22209D1*
X-3070Y-22222D1*
X-2952Y-22264D1*
X-2848Y-22332D1*
X-2762Y-22422D1*
X-2699Y-22530D1*
X-2664Y-22649D1*
X-2656Y-22866D1*
X-2660Y-23134D1*
X-2670Y-23258D1*
X-2713Y-23375D1*
X-2785Y-23482D1*
X-2788Y-23582D1*
X-1769Y-24602D1*
X-1621Y-24600D1*
X-1535Y-24531D1*
X-1424Y-24473D1*
X-1304Y-24438D1*
X-1180Y-24428D1*
X-1056Y-24441D1*
X-937Y-24479D1*
X-828Y-24539D1*
X-732Y-24620D1*
X-654Y-24717D1*
X-597Y-24828D1*
X-563Y-24948D1*
X-553Y-25063D1*
X-565Y-25187D1*
X-601Y-25306D1*
X-660Y-25416D1*
X-739Y-25512D1*
X-836Y-25591D1*
X-946Y-25650D1*
X-1066Y-25686D1*
X-1190Y-25698D1*
X-1314Y-25685D1*
X-1433Y-25648D1*
X-1543Y-25589D1*
X-1639Y-25509D1*
X-1723Y-25401D1*
X-1938Y-25400D1*
X-2060Y-25381D1*
X-2174Y-25322D1*
X-2397Y-25106D1*
X-2495Y-25006D1*
Y-26255D1*
X-3755D1*
Y-26134D1*
X-3891Y-26210D1*
X-4011Y-26245D1*
X-4135Y-26255D1*
X-4259Y-26241D1*
X-4378Y-26202D1*
X-4486Y-26141D1*
X-4581Y-26060D1*
X-4658Y-25962D1*
X-4714Y-25850D1*
X-4747Y-25730D1*
X-4755Y-25605D1*
X-4739Y-25481D1*
X-4698Y-25363D1*
X-4636Y-25255D1*
X-4553Y-25162D1*
X-4453Y-25087D1*
X-4341Y-25033D1*
X-4220Y-25002D1*
X-4095Y-24995D1*
X-3972Y-25014D1*
X-3854Y-25056D1*
X-3757Y-25114D1*
X-3755Y-24995D1*
X-3630D1*
X-9490Y-33275D2*
X-9508Y-33399D1*
X-9549Y-33516D1*
X-9612Y-33624D1*
X-9695Y-33717D1*
X-9795Y-33792D1*
X-9907Y-33846D1*
X-10028Y-33878D1*
X-10153Y-33884D1*
X-10276Y-33867D1*
X-10394Y-33825D1*
X-10501Y-33762D1*
X-10594Y-33678D1*
X-10669Y-33578D1*
X-10722Y-33466D1*
X-10753Y-33345D1*
X-10759Y-33220D1*
X-10741Y-33096D1*
X-10699Y-32979D1*
X-10635Y-32872D1*
X-10551Y-32779D1*
X-10451Y-32705D1*
X-10338Y-32652D1*
X-10217Y-32622D1*
X-10092Y-32616D1*
X-9969Y-32634D1*
X-9852Y-32677D1*
X-9745Y-32741D1*
X-9653Y-32826D1*
X-9579Y-32926D1*
X-9526Y-33039D1*
X-9496Y-33160D1*
X-9490Y-33275D1*
X-28489Y-34659D2*
X-28444Y-34713D1*
X-28393Y-34632D1*
Y-33409D1*
X-28457Y-33396D1*
X-28417Y-33514D1*
X-28406Y-33625D1*
X-28420Y-33749D1*
X-28463Y-33866D1*
X-28487Y-33902D1*
X-28486Y-34660D1*
X-25932Y-15933D2*
X-25916Y-15990D1*
X-25906Y-16104D1*
X-25910Y-16404D1*
X-25918Y-16528D1*
X-25954Y-16647D1*
X-26013Y-16757D1*
X-26093Y-16854D1*
X-26162Y-16910D1*
X-26163Y-21670D1*
X-26129Y-21735D1*
X-26104Y-21847D1*
X-26103Y-24780D1*
X-25962Y-24790D1*
X-25843Y-24828D1*
X-25737Y-24893D1*
X-25648Y-24981D1*
X-25582Y-25086D1*
X-25542Y-25204D1*
X-25530Y-25315D1*
X-25545Y-25439D1*
X-25588Y-25556D1*
X-25665Y-25668D1*
Y-26444D1*
X-25595Y-26492D1*
X-25499Y-26588D1*
X-25461Y-26542D1*
X-25365Y-26462D1*
X-25256Y-26402D1*
X-25137Y-26365D1*
X-25013Y-26350D1*
X-24888Y-26360D1*
X-24768Y-26393D1*
X-24656Y-26448D1*
X-24557Y-26524D1*
X-24500Y-26585D1*
X-24405Y-26492D1*
X-24301Y-26424D1*
X-24185Y-26377D1*
X-24063Y-26353D1*
X-23938D1*
X-23815Y-26377D1*
X-23700Y-26424D1*
X-23595Y-26492D1*
X-23499Y-26588D1*
X-23402Y-26490D1*
X-23400Y-23707D1*
X-23531Y-23714D1*
X-23655Y-23697D1*
X-23773Y-23656D1*
X-23853Y-23612D1*
Y-23715D1*
X-24005D1*
X-24002Y-24341D1*
X-23938Y-24413D1*
X-23876Y-24521D1*
X-23838Y-24640D1*
X-23827Y-24753D1*
X-23841Y-24877D1*
X-23881Y-24995D1*
X-23945Y-25102D1*
X-24031Y-25192D1*
X-24135Y-25262D1*
X-24251Y-25307D1*
X-24374Y-25327D1*
X-24499Y-25319D1*
X-24619Y-25285D1*
X-24729Y-25226D1*
X-24823Y-25145D1*
X-24898Y-25045D1*
X-24949Y-24931D1*
X-24975Y-24809D1*
X-24973Y-24684D1*
X-24945Y-24563D1*
X-24891Y-24450D1*
X-24800Y-24339D1*
X-24802Y-23717D1*
X-25152Y-23715D1*
Y-22415D1*
X-23853D1*
X-23847Y-22514D1*
X-23735Y-22458D1*
X-23615Y-22425D1*
X-23490Y-22415D1*
X-23399Y-22423D1*
X-23400Y-22332D1*
X-23531Y-22339D1*
X-23655Y-22322D1*
X-23773Y-22281D1*
X-23881Y-22218D1*
X-23975Y-22136D1*
X-24052Y-22038D1*
X-24108Y-21926D1*
X-24142Y-21806D1*
X-24152Y-21682D1*
X-24139Y-21558D1*
X-24102Y-21438D1*
X-24049Y-21338D1*
X-24212Y-21276D1*
X-24312Y-21200D1*
X-24391Y-21104D1*
X-24446Y-20992D1*
X-24473Y-20870D1*
X-24471Y-20746D1*
X-24441Y-20625D1*
X-24383Y-20514D1*
X-24340Y-20464D1*
X-24341Y-16897D1*
X-24439Y-16792D1*
X-24538Y-16891D1*
X-24541Y-17023D1*
X-24457Y-17146D1*
X-24417Y-17264D1*
X-24406Y-17375D1*
X-24420Y-17499D1*
X-24463Y-17616D1*
X-24532Y-17720D1*
X-24623Y-17805D1*
X-24731Y-17867D1*
X-24851Y-17902D1*
X-24975Y-17909D1*
X-25098Y-17886D1*
X-25212Y-17836D1*
X-25312Y-17761D1*
X-25391Y-17664D1*
X-25446Y-17552D1*
X-25473Y-17431D1*
X-25471Y-17306D1*
X-25441Y-17185D1*
X-25383Y-17074D1*
X-25340Y-17024D1*
X-25341Y-16895D1*
X-25393Y-16850D1*
X-25471Y-16753D1*
X-25529Y-16643D1*
X-25565Y-16523D1*
X-25576Y-16404D1*
X-25572Y-16104D1*
X-25563Y-15975D1*
X-25525Y-15855D1*
X-25482Y-15777D1*
X-25770Y-15775D1*
X-25928Y-15931D1*
X-22138Y-27633D2*
X-22224Y-27610D1*
X-22337Y-27556D1*
X-22437Y-27481D1*
X-22497Y-27415D1*
X-22628Y-27533D1*
X-22737Y-27594D1*
X-22855Y-27634D1*
X-22979Y-27650D1*
X-23104Y-27642D1*
X-23224Y-27610D1*
X-23337Y-27556D1*
X-23437Y-27481D1*
X-23497Y-27415D1*
X-23628Y-27533D1*
X-23737Y-27594D1*
X-23855Y-27634D1*
X-24006Y-27648D1*
X-24494Y-28137D1*
X-24465Y-28375D1*
X-24480Y-28499D1*
X-24522Y-28616D1*
X-24600Y-28728D1*
X-24595Y-29492D1*
X-24499Y-29588D1*
X-24461Y-29542D1*
X-24365Y-29462D1*
X-24256Y-29402D1*
X-24137Y-29365D1*
X-24013Y-29350D1*
X-23888Y-29360D1*
X-23768Y-29393D1*
X-23656Y-29448D1*
X-23557Y-29524D1*
X-23500Y-29585D1*
X-23405Y-29492D1*
X-23301Y-29424D1*
X-23185Y-29377D1*
X-23063Y-29353D1*
X-22938D1*
X-22815Y-29377D1*
X-22700Y-29424D1*
X-22595Y-29492D1*
X-22499Y-29588D1*
X-22402Y-29490D1*
X-22400Y-28063D1*
X-22381Y-27940D1*
X-22322Y-27826D1*
X-22136Y-27633D1*
X-43194Y-19751D2*
X-43230Y-19870D1*
X-43289Y-19980D1*
X-43369Y-20077D1*
X-43465Y-20156D1*
X-43576Y-20214D1*
X-43695Y-20250D1*
X-43819Y-20262D1*
X-43944Y-20249D1*
X-44063Y-20212D1*
X-44173Y-20153D1*
X-44269Y-20073D1*
X-44347Y-19976D1*
X-44405Y-19866D1*
X-44441Y-19746D1*
X-44452Y-19622D1*
X-44439Y-19498D1*
X-44401Y-19379D1*
X-44341Y-19269D1*
X-44261Y-19173D1*
X-44164Y-19095D1*
X-44053Y-19038D1*
X-43934Y-19003D1*
X-43809Y-18992D1*
X-43685Y-19006D1*
X-43566Y-19043D1*
X-43457Y-19104D1*
X-43362Y-19184D1*
X-43284Y-19282D1*
X-43227Y-19393D1*
X-43192Y-19513D1*
X-43182Y-19627D1*
X-43194Y-19751D1*
X-32553Y-13249D2*
X-32593Y-13367D1*
X-32656Y-13475D1*
X-32710Y-13540D1*
X-32540D1*
Y-14710D1*
X-33710D1*
Y-14526D1*
X-35027Y-14525D1*
X-35114Y-14637D1*
X-35211Y-14716D1*
X-35321Y-14775D1*
X-35441Y-14811D1*
X-35565Y-14823D1*
X-35689Y-14810D1*
X-35808Y-14773D1*
X-35918Y-14714D1*
X-36014Y-14634D1*
X-36093Y-14537D1*
X-36151Y-14426D1*
X-36186Y-14307D1*
X-36197Y-14182D1*
X-36184Y-14058D1*
X-36147Y-13939D1*
X-36087Y-13830D1*
X-36007Y-13734D1*
X-35910Y-13656D1*
X-35799Y-13598D1*
X-35679Y-13563D1*
X-35555Y-13553D1*
X-35431Y-13566D1*
X-35312Y-13604D1*
X-35203Y-13664D1*
X-35125Y-13725D1*
X-33707D1*
X-33710Y-13540D1*
X-33534D1*
X-33615Y-13444D1*
X-33672Y-13333D1*
X-33703Y-13213D1*
X-33709Y-13088D1*
X-33688Y-12965D1*
X-33641Y-12849D1*
X-33571Y-12746D1*
X-33480Y-12660D1*
X-33374Y-12595D1*
X-33256Y-12555D1*
X-33132Y-12540D1*
X-33008Y-12552D1*
X-32889Y-12590D1*
X-32781Y-12652D1*
X-32688Y-12736D1*
X-32616Y-12837D1*
X-32566Y-12952D1*
X-32540Y-13125D1*
X-32553Y-13249D1*
X-36381Y-18939D2*
X-36418Y-19058D1*
X-36477Y-19168D1*
X-36556Y-19265D1*
X-36653Y-19344D1*
X-36763Y-19402D1*
X-36882Y-19438D1*
X-37007Y-19450D1*
X-37131Y-19437D1*
X-37250Y-19400D1*
X-37360Y-19341D1*
X-37456Y-19261D1*
X-37534Y-19164D1*
X-37592Y-19054D1*
X-37628Y-18934D1*
X-37639Y-18810D1*
X-37626Y-18685D1*
X-37589Y-18566D1*
X-37529Y-18457D1*
X-37449Y-18361D1*
X-37351Y-18283D1*
X-37241Y-18225D1*
X-37121Y-18190D1*
X-36996Y-18180D1*
X-36872Y-18193D1*
X-36753Y-18231D1*
X-36644Y-18292D1*
X-36549Y-18372D1*
X-36471Y-18470D1*
X-36414Y-18581D1*
X-36379Y-18700D1*
X-36369Y-18815D1*
X-36381Y-18939D1*
X-4417Y-19624D2*
X-4460Y-19741D1*
X-4529Y-19845D1*
X-4620Y-19930D1*
X-4728Y-19992D1*
X-4848Y-20027D1*
X-4972Y-20034D1*
X-5095Y-20011D1*
X-5209Y-19961D1*
X-5308Y-19886D1*
X-5387Y-19789D1*
X-5442Y-19677D1*
X-5470Y-19556D1*
X-5468Y-19431D1*
X-5438Y-19310D1*
X-5380Y-19199D1*
X-5298Y-19105D1*
X-5197Y-19032D1*
X-5082Y-18985D1*
X-4959Y-18965D1*
X-4834Y-18975D1*
X-4716Y-19013D1*
X-4609Y-19078D1*
X-4520Y-19165D1*
X-4454Y-19271D1*
X-4414Y-19389D1*
X-4403Y-19500D1*
X-4417Y-19624D1*
X-30339Y-34353D2*
X-30391Y-34289D1*
X-30446Y-34177D1*
X-30473Y-34056D1*
X-30471Y-33931D1*
X-30441Y-33810D1*
X-30383Y-33699D1*
X-30302Y-33605D1*
X-30201Y-33532D1*
X-30085Y-33485D1*
X-29962Y-33465D1*
X-29838Y-33475D1*
X-29719Y-33513D1*
X-29612Y-33578D1*
X-29523Y-33665D1*
X-29457Y-33771D1*
X-29417Y-33889D1*
X-29473Y-33681D1*
X-29471Y-33556D1*
X-29441Y-33435D1*
X-29383Y-33324D1*
X-29302Y-33230D1*
X-29201Y-33157D1*
X-29085Y-33110D1*
X-28962Y-33090D1*
X-28838Y-33100D1*
X-28719Y-33138D1*
X-28612Y-33203D1*
X-28523Y-33290D1*
X-28457Y-33396D1*
X-28393Y-33404D1*
X-28442Y-33302D1*
X-28470Y-33181D1*
X-28468Y-33056D1*
X-28438Y-32935D1*
X-28380Y-32824D1*
X-28298Y-32730D1*
X-28197Y-32657D1*
X-28082Y-32610D1*
X-27959Y-32590D1*
X-27834Y-32600D1*
X-27716Y-32638D1*
X-27666Y-32669D1*
X-27379Y-32670D1*
X-26150Y-31443D1*
X-26155Y-30839D1*
X-26249Y-30598D1*
X-26337Y-30556D1*
X-26437Y-30481D1*
X-26501Y-30412D1*
X-26533Y-30452D1*
X-26628Y-30533D1*
X-26737Y-30594D1*
X-26855Y-30634D1*
X-26979Y-30650D1*
X-27104Y-30642D1*
X-27224Y-30610D1*
X-27337Y-30556D1*
X-27437Y-30481D1*
X-27501Y-30412D1*
X-27601Y-30510D1*
X-27600Y-31457D1*
X-27516Y-31584D1*
X-27477Y-31702D1*
X-27465Y-31813D1*
X-27480Y-31936D1*
X-27522Y-32054D1*
X-27591Y-32158D1*
X-27682Y-32243D1*
X-27790Y-32305D1*
X-27910Y-32340D1*
X-28035Y-32346D1*
X-28157Y-32324D1*
X-28271Y-32274D1*
X-28371Y-32198D1*
X-28450Y-32102D1*
X-28505Y-31990D1*
X-28532Y-31868D1*
X-28531Y-31743D1*
X-28500Y-31622D1*
X-28443Y-31512D1*
X-28399Y-31462D1*
X-28400Y-30512D1*
X-28501Y-30412D1*
X-28601Y-30510D1*
X-28600Y-31895D1*
X-28516Y-32021D1*
X-28477Y-32139D1*
X-28465Y-32250D1*
X-28480Y-32374D1*
X-28522Y-32491D1*
X-28591Y-32595D1*
X-28682Y-32680D1*
X-28790Y-32742D1*
X-28910Y-32777D1*
X-29035Y-32784D1*
X-29157Y-32761D1*
X-29271Y-32711D1*
X-29371Y-32636D1*
X-29450Y-32539D1*
X-29505Y-32427D1*
X-29532Y-32306D1*
X-29531Y-32181D1*
X-29500Y-32060D1*
X-29443Y-31949D1*
X-29399Y-31899D1*
X-29400Y-30512D1*
X-29501Y-30412D1*
X-29533Y-30452D1*
X-29628Y-30533D1*
X-29737Y-30594D1*
X-29855Y-30634D1*
X-29979Y-30650D1*
X-30104Y-30642D1*
X-30224Y-30610D1*
X-30337Y-30556D1*
X-30437Y-30481D1*
X-30501Y-30412D1*
X-30533Y-30452D1*
X-30628Y-30533D1*
X-30737Y-30594D1*
X-30855Y-30634D1*
X-30979Y-30650D1*
X-31104Y-30642D1*
X-31224Y-30610D1*
X-31337Y-30556D1*
X-31437Y-30481D1*
X-31521Y-30389D1*
X-31585Y-30282D1*
X-31629Y-30165D1*
X-31649Y-30042D1*
X-31645Y-29917D1*
X-31617Y-29795D1*
X-31566Y-29681D1*
X-31495Y-29579D1*
X-31402Y-29490D1*
X-31400Y-28668D1*
X-31783Y-28283D1*
X-31856Y-28182D1*
X-31895Y-28060D1*
X-31900Y-27750D1*
Y-23668D1*
X-32408Y-23158D1*
X-32481Y-23057D1*
X-32520Y-22935D1*
X-32525Y-22625D1*
Y-21980D1*
X-32575Y-21914D1*
X-32630Y-21802D1*
X-32657Y-21681D1*
X-32656Y-21556D1*
X-32625Y-21435D1*
X-32568Y-21324D1*
X-32486Y-21230D1*
X-32385Y-21157D1*
X-32269Y-21110D1*
X-32146Y-21090D1*
X-32022Y-21100D1*
X-31900Y-21140D1*
Y-16927D1*
X-31993Y-16850D1*
X-32041Y-16790D1*
X-32093Y-16854D1*
X-32189Y-16933D1*
X-32300Y-16991D1*
X-32419Y-17027D1*
X-32543Y-17039D1*
X-32668Y-17026D1*
X-32787Y-16989D1*
X-32897Y-16930D1*
X-32993Y-16850D1*
X-33041Y-16790D1*
X-33093Y-16854D1*
X-33162Y-16910D1*
X-33163Y-28023D1*
X-33079Y-28146D1*
X-33039Y-28264D1*
X-33028Y-28375D1*
X-33042Y-28499D1*
X-33085Y-28616D1*
X-33154Y-28720D1*
X-33245Y-28805D1*
X-33353Y-28867D1*
X-33473Y-28902D1*
X-33597Y-28909D1*
X-33720Y-28886D1*
X-33834Y-28836D1*
X-33933Y-28761D1*
X-34012Y-28664D1*
X-34067Y-28552D1*
X-34095Y-28431D1*
X-34093Y-28306D1*
X-34063Y-28185D1*
X-34005Y-28074D1*
X-33962Y-28024D1*
Y-20090D1*
X-34101Y-20098D1*
X-34223Y-20076D1*
X-34337Y-20026D1*
X-34437Y-19950D1*
X-34516Y-19854D1*
X-34571Y-19742D1*
X-34598Y-19601D1*
X-34824Y-19373D1*
X-34897Y-19272D1*
X-34936Y-19150D1*
X-34941Y-18840D1*
X-34942Y-16892D1*
X-34993Y-16850D1*
X-35041Y-16790D1*
X-35093Y-16854D1*
X-35138Y-16891D1*
X-35141Y-18379D1*
Y-25047D1*
X-34221Y-25964D1*
X-34148Y-26064D1*
X-34109Y-26186D1*
X-34104Y-26496D1*
Y-34149D1*
X-34020Y-34275D1*
X-33980Y-34393D1*
X-33969Y-34504D1*
X-33983Y-34627D1*
X-34026Y-34745D1*
X-34095Y-34849D1*
X-34186Y-34934D1*
X-34294Y-34996D1*
X-34414Y-35031D1*
X-34538Y-35038D1*
X-34661Y-35015D1*
X-34775Y-34965D1*
X-34874Y-34889D1*
X-34954Y-34793D1*
X-35008Y-34681D1*
X-35036Y-34559D1*
X-35034Y-34435D1*
X-35004Y-34314D1*
X-34946Y-34203D1*
X-34903Y-34153D1*
X-34904Y-33148D1*
X-35035Y-33159D1*
X-35100Y-33147D1*
Y-33645D1*
X-35016Y-33771D1*
X-34977Y-33889D1*
X-34965Y-34000D1*
X-34980Y-34124D1*
X-35022Y-34241D1*
X-35091Y-34345D1*
X-35182Y-34430D1*
X-35290Y-34492D1*
X-35410Y-34527D1*
X-35535Y-34534D1*
X-35657Y-34511D1*
X-35771Y-34461D1*
X-35871Y-34386D1*
X-35950Y-34289D1*
X-36005Y-34177D1*
X-36032Y-34056D1*
X-36031Y-33931D1*
X-36000Y-33810D1*
X-35943Y-33699D1*
X-35899Y-33649D1*
X-35900Y-32504D1*
X-36921Y-32505D1*
X-36920Y-32848D1*
X-36891Y-32896D1*
X-36852Y-33014D1*
X-36840Y-33125D1*
X-36855Y-33249D1*
X-36897Y-33366D1*
X-36966Y-33470D1*
X-37057Y-33555D1*
X-37165Y-33617D1*
X-37285Y-33652D1*
X-37410Y-33659D1*
X-37532Y-33636D1*
X-37646Y-33586D1*
X-37746Y-33511D1*
X-37825Y-33414D1*
X-37880Y-33302D1*
X-37907Y-33181D1*
X-37906Y-33056D1*
X-37875Y-32935D1*
X-37830Y-32849D1*
X-37831Y-32310D1*
X-37908Y-32212D1*
X-37964Y-32100D1*
X-37997Y-31980D1*
X-38005Y-31855D1*
X-37989Y-31731D1*
X-37948Y-31613D1*
X-37886Y-31505D1*
X-37803Y-31412D1*
X-37756Y-31377D1*
X-37831Y-31310D1*
X-37908Y-31212D1*
X-37964Y-31100D1*
X-37997Y-30980D1*
X-38005Y-30855D1*
X-37989Y-30731D1*
X-37948Y-30613D1*
X-37886Y-30505D1*
X-37803Y-30412D1*
X-37756Y-30377D1*
X-37848Y-30292D1*
X-37921Y-30190D1*
X-37972Y-30076D1*
X-38000Y-29955D1*
X-38004Y-29830D1*
X-37983Y-29707D1*
X-37938Y-29591D1*
X-37870Y-29485D1*
X-37784Y-29395D1*
X-37682Y-29324D1*
X-37567Y-29275D1*
X-37445Y-29249D1*
X-37320Y-29247D1*
X-37198Y-29270D1*
X-37082Y-29317D1*
X-36978Y-29386D1*
X-36889Y-29474D1*
X-36875Y-29491D1*
X-36803Y-29412D1*
X-36703Y-29337D1*
X-36591Y-29283D1*
X-36470Y-29252D1*
X-36345Y-29245D1*
X-36222Y-29264D1*
X-36104Y-29306D1*
X-35997Y-29370D1*
X-35905Y-29455D1*
X-35832Y-29555D1*
X-35779Y-29669D1*
X-35750Y-29790D1*
X-35745Y-29875D1*
X-35756Y-29988D1*
X-35399Y-30348D1*
X-35400Y-27043D1*
X-39912Y-22529D1*
X-39985Y-22428D1*
X-40024Y-22306D1*
X-40029Y-21996D1*
X-40030Y-17610D1*
X-40124Y-17712D1*
X-40227Y-17804D1*
X-40319Y-17844D1*
X-40406Y-17855D1*
X-40605D1*
X-40604Y-18318D1*
X-40471Y-18470D1*
X-40414Y-18581D1*
X-40379Y-18700D1*
X-40369Y-18815D1*
X-40381Y-18939D1*
X-40418Y-19058D1*
X-40477Y-19168D1*
X-40556Y-19265D1*
X-40653Y-19344D1*
X-40763Y-19402D1*
X-40882Y-19438D1*
X-41007Y-19450D1*
X-41131Y-19437D1*
X-41250Y-19400D1*
X-41360Y-19341D1*
X-41456Y-19261D1*
X-41534Y-19164D1*
X-41592Y-19054D1*
X-41628Y-18934D1*
X-41639Y-18810D1*
X-41626Y-18685D1*
X-41589Y-18566D1*
X-41529Y-18457D1*
X-41449Y-18361D1*
X-41403Y-18325D1*
X-41404Y-17850D1*
X-41544Y-17854D1*
X-41666Y-17830D1*
X-41780Y-17779D1*
X-41878Y-17702D1*
X-41956Y-17604D1*
X-41994Y-17523D1*
X-42379Y-17527D1*
X-44505D1*
X-44628Y-17507D1*
X-44741Y-17448D1*
X-44964Y-17233D1*
X-46100Y-16097D1*
X-46173Y-15996D1*
X-46212Y-15874D1*
X-46217Y-15564D1*
Y-12334D1*
X-46254D1*
X-46275Y-12375D1*
X-46306Y-34701D1*
X-46168Y-34592D1*
X-46059Y-34532D1*
X-45943Y-34486D1*
X-45821Y-34456D1*
X-45697Y-34442D1*
X-45572Y-34444D1*
X-45449Y-34462D1*
X-45329Y-34496D1*
X-45214Y-34545D1*
X-45106Y-34609D1*
X-45008Y-34686D1*
X-44920Y-34775D1*
X-44845Y-34874D1*
X-44783Y-34983D1*
X-44736Y-35099D1*
X-44704Y-35219D1*
X-44685Y-35406D1*
X-44693Y-35531D1*
X-44718Y-35653D1*
X-44757Y-35772D1*
X-44812Y-35884D1*
X-44881Y-35988D1*
X-44962Y-36083D1*
X-45056Y-36166D1*
X-45159Y-36236D1*
X-45270Y-36293D1*
X-45388Y-36334D1*
X-45510Y-36361D1*
X-45635Y-36371D1*
X-45759Y-36365D1*
X-45882Y-36343D1*
X-46001Y-36305D1*
X-46114Y-36252D1*
X-46220Y-36185D1*
X-46307Y-36112D1*
X-46311Y-37355D1*
X-46169Y-37249D1*
X-46059Y-37189D1*
X-45943Y-37143D1*
X-45822Y-37113D1*
X-45697Y-37099D1*
X-45573Y-37101D1*
X-45449Y-37119D1*
X-45329Y-37153D1*
X-45214Y-37202D1*
X-45106Y-37265D1*
X-45008Y-37342D1*
X-44920Y-37431D1*
X-44845Y-37531D1*
X-44783Y-37639D1*
X-44735Y-37755D1*
X-44703Y-37875D1*
X-44685Y-38063D1*
X-44693Y-38187D1*
X-44717Y-38310D1*
X-44757Y-38428D1*
X-44827Y-38563D1*
X-37812Y-38574D1*
X-6387Y-38616D1*
X-6385Y-37410D1*
X-4615D1*
Y-38618D1*
X-2801Y-38621D1*
X-2802Y-37430D1*
Y-37410D1*
X-1032D1*
Y-38623D1*
X-785D1*
X-881Y-38457D1*
X-924Y-38340D1*
X-952Y-38218D1*
X-964Y-38094D1*
X-960Y-37969D1*
X-940Y-37846D1*
X-905Y-37726D1*
X-854Y-37612D1*
X-788Y-37506D1*
X-710Y-37409D1*
X-619Y-37322D1*
X-519Y-37249D1*
X-409Y-37189D1*
X-293Y-37143D1*
X-172Y-37113D1*
X-47Y-37099D1*
X77Y-37101D1*
X201Y-37119D1*
X375Y-37176D1*
Y-36299D1*
X283Y-36331D1*
X161Y-36358D1*
X36Y-36368D1*
X-89Y-36362D1*
X-212Y-36339D1*
X-331Y-36302D1*
X-444Y-36249D1*
X-549Y-36182D1*
X-645Y-36102D1*
X-730Y-36010D1*
X-802Y-35908D1*
X-860Y-35797D1*
X-904Y-35680D1*
X-932Y-35559D1*
X-944Y-35434D1*
X-940Y-35309D1*
X-920Y-35186D1*
X-884Y-35066D1*
X-833Y-34952D1*
X-768Y-34846D1*
X-689Y-34749D1*
X-599Y-34663D1*
X-498Y-34589D1*
X-388Y-34529D1*
X-272Y-34483D1*
X-151Y-34453D1*
X-27Y-34439D1*
X98Y-34441D1*
X222Y-34459D1*
X374Y-34507D1*
X375Y-18500D1*
X-613D1*
X-602Y-18625D1*
X-616Y-18749D1*
X-655Y-18867D1*
X-719Y-18975D1*
X-772Y-19040D1*
X-602D1*
Y-20210D1*
X-786D1*
X-788Y-20566D1*
X-654Y-20717D1*
X-597Y-20828D1*
X-563Y-20948D1*
X-553Y-21063D1*
X-565Y-21187D1*
X-601Y-21306D1*
X-660Y-21416D1*
X-739Y-21512D1*
X-836Y-21591D1*
X-946Y-21650D1*
X-1066Y-21686D1*
X-1190Y-21698D1*
X-1314Y-21685D1*
X-1433Y-21648D1*
X-1543Y-21589D1*
X-1639Y-21509D1*
X-1718Y-21412D1*
X-1776Y-21301D1*
X-1811Y-21182D1*
X-1822Y-21057D1*
X-1809Y-20933D1*
X-1772Y-20814D1*
X-1712Y-20705D1*
X-1632Y-20609D1*
X-1586Y-20572D1*
X-1587Y-20207D1*
X-1772Y-20210D1*
Y-19040D1*
X-1597D1*
X-1678Y-18944D1*
X-1734Y-18833D1*
X-1766Y-18713D1*
X-1771Y-18588D1*
X-1756Y-18499D1*
X-6121Y-18500D1*
X-6120Y-18880D1*
X-7380D1*
Y-18759D1*
X-7516Y-18835D1*
X-7636Y-18870D1*
X-7760Y-18880D1*
X-7884Y-18866D1*
X-7947Y-18845D1*
X-7739Y-19055D1*
X-7597Y-19076D1*
X-7479Y-19118D1*
X-7382Y-19177D1*
X-7380Y-19057D1*
X-6120D1*
Y-20318D1*
X-7380D1*
Y-20197D1*
X-7516Y-20273D1*
X-7632Y-20306D1*
X-7556Y-20316D1*
X-7437Y-20354D1*
X-7328Y-20414D1*
X-7232Y-20495D1*
X-7154Y-20592D1*
X-7097Y-20703D1*
X-7063Y-20823D1*
X-7053Y-20938D1*
X-7065Y-21062D1*
X-7101Y-21181D1*
X-7160Y-21291D1*
X-7239Y-21387D1*
X-7336Y-21466D1*
X-7446Y-21525D1*
X-7566Y-21561D1*
X-7690Y-21573D1*
X-7814Y-21560D1*
X-7933Y-21523D1*
X-8046Y-21461D1*
X-8048Y-22120D1*
X-7870D1*
Y-22241D1*
X-7716Y-22158D1*
X-7595Y-22127D1*
X-7470Y-22120D1*
X-7347Y-22139D1*
X-7229Y-22181D1*
X-7122Y-22245D1*
X-7030Y-22330D1*
X-6957Y-22430D1*
X-6904Y-22544D1*
X-6875Y-22665D1*
X-6870Y-22750D1*
X-6882Y-22874D1*
X-6919Y-22993D1*
X-6978Y-23103D1*
X-7058Y-23199D1*
X-7122Y-23251D1*
X-7030Y-23330D1*
X-6957Y-23430D1*
X-6904Y-23544D1*
X-6875Y-23665D1*
X-6870Y-23750D1*
X-6882Y-23874D1*
X-6919Y-23993D1*
X-6978Y-24103D1*
X-7058Y-24199D1*
X-7122Y-24251D1*
X-7065Y-24294D1*
X-6984Y-24388D1*
X-6923Y-24497D1*
X-6884Y-24616D1*
X-6870Y-24750D1*
X-6882Y-24874D1*
X-6919Y-24993D1*
X-6978Y-25103D1*
X-7058Y-25199D1*
X-7116Y-25250D1*
X-7030Y-25330D1*
X-6957Y-25430D1*
X-6904Y-25544D1*
X-6875Y-25665D1*
X-6870Y-25750D1*
X-6882Y-25874D1*
X-6919Y-25993D1*
X-6978Y-26103D1*
X-7058Y-26199D1*
X-7122Y-26251D1*
X-7030Y-26330D1*
X-6957Y-26430D1*
X-6904Y-26544D1*
X-6875Y-26665D1*
X-6870Y-26750D1*
X-6882Y-26874D1*
X-6919Y-26993D1*
X-6978Y-27103D1*
X-7058Y-27199D1*
X-7122Y-27251D1*
X-7030Y-27330D1*
X-6957Y-27430D1*
X-6904Y-27544D1*
X-6875Y-27665D1*
X-6870Y-27750D1*
X-6882Y-27874D1*
X-6919Y-27993D1*
X-6978Y-28103D1*
X-7058Y-28199D1*
X-7122Y-28251D1*
X-7065Y-28294D1*
X-6984Y-28388D1*
X-6923Y-28497D1*
X-6884Y-28616D1*
X-6870Y-28750D1*
X-6882Y-28874D1*
X-6919Y-28993D1*
X-6978Y-29103D1*
X-7058Y-29199D1*
X-7116Y-29250D1*
X-7030Y-29330D1*
X-6957Y-29430D1*
X-6904Y-29544D1*
X-6875Y-29665D1*
X-6870Y-29750D1*
X-6882Y-29874D1*
X-6919Y-29993D1*
X-6978Y-30103D1*
X-7058Y-30199D1*
X-7155Y-30277D1*
X-7266Y-30335D1*
X-7386Y-30370D1*
X-7510Y-30380D1*
X-7634Y-30366D1*
X-7753Y-30327D1*
X-7861Y-30266D1*
X-7956Y-30185D1*
X-7997Y-30133D1*
X-8058Y-30199D1*
X-8155Y-30277D1*
X-8266Y-30335D1*
X-8386Y-30370D1*
X-8510Y-30380D1*
X-8634Y-30366D1*
X-8753Y-30327D1*
X-8861Y-30266D1*
X-8912Y-30223D1*
X-8914Y-32435D1*
X-7901Y-33446D1*
X-7787Y-33459D1*
X-7609Y-33521D1*
X-7499Y-33591D1*
X-7427Y-33653D1*
X-7310Y-33802D1*
X-7255Y-33920D1*
X-7228Y-34012D1*
X-7210Y-34197D1*
X-7225Y-34271D1*
X-7226Y-34324D1*
X-7210Y-34397D1*
X-7223Y-34552D1*
X-7255Y-34680D1*
X-7341Y-34848D1*
X-7427Y-34947D1*
X-7499Y-35010D1*
X-7536Y-35033D1*
X-7538Y-35527D1*
X-7444Y-35521D1*
X-7320Y-35534D1*
X-7202Y-35576D1*
X-7098Y-35644D1*
X-7012Y-35734D1*
X-6946Y-35854D1*
X-6387Y-35850D1*
X-6385Y-35640D1*
X-4615D1*
Y-35847D1*
X-3250Y-35850D1*
X-2801D1*
X-2802Y-35640D1*
X-1032D1*
Y-36860D1*
X-2802D1*
Y-36653D1*
X-4167Y-36650D1*
X-4617D1*
X-4615Y-36860D1*
X-6385D1*
Y-36653D1*
X-6949Y-36650D1*
X-6963Y-36688D1*
X-7032Y-36792D1*
X-7124Y-36876D1*
X-7233Y-36938D1*
X-7352Y-36972D1*
X-7477Y-36977D1*
X-7599Y-36953D1*
X-7688Y-36913D1*
X-7733Y-36938D1*
X-7852Y-36972D1*
X-7977Y-36977D1*
X-8099Y-36953D1*
X-8160Y-36926D1*
X-8238Y-36963D1*
X-8339Y-36979D1*
X-8586Y-36975D1*
X-8681Y-36946D1*
X-8763Y-36890D1*
X-8904Y-36744D1*
X-8950Y-36656D1*
X-8969Y-36558D1*
X-8966Y-35905D1*
X-8936Y-35810D1*
X-8880Y-35727D1*
X-8735Y-35587D1*
X-8647Y-35540D1*
X-8549Y-35522D1*
X-8337Y-35521D1*
Y-35035D1*
X-8444Y-34952D1*
X-8565Y-34799D1*
X-8620Y-34680D1*
X-8647Y-34589D1*
X-8665Y-34403D1*
X-8650Y-34329D1*
X-8649Y-34276D1*
X-8665Y-34204D1*
X-8652Y-34049D1*
X-8620Y-33920D1*
X-8602Y-33880D1*
X-9596Y-32882D1*
X-9670Y-32782D1*
X-9708Y-32659D1*
X-9713Y-32349D1*
Y-29736D1*
X-9725Y-29750D1*
Y-30250D1*
X-9744Y-30373D1*
X-9803Y-30487D1*
X-10019Y-30710D1*
X-10500Y-31198D1*
X-10490Y-31313D1*
X-10502Y-31437D1*
X-10539Y-31556D1*
X-10598Y-31666D1*
X-10677Y-31762D1*
X-10774Y-31841D1*
X-10884Y-31900D1*
X-11003Y-31936D1*
X-11128Y-31948D1*
X-11252Y-31935D1*
X-11371Y-31898D1*
X-11481Y-31839D1*
X-11577Y-31759D1*
X-11655Y-31662D1*
X-11713Y-31551D1*
X-11749Y-31432D1*
X-11760Y-31307D1*
X-11747Y-31183D1*
X-11709Y-31064D1*
X-11650Y-30955D1*
X-11569Y-30859D1*
X-11472Y-30781D1*
X-11362Y-30723D1*
X-11242Y-30688D1*
X-11121Y-30678D1*
X-10969Y-30528D1*
X-11032Y-30511D1*
X-11146Y-30461D1*
X-11246Y-30386D1*
X-11325Y-30289D1*
X-11380Y-30177D1*
X-11407Y-30056D1*
X-11406Y-29931D1*
X-11363Y-29786D1*
X-11532Y-29761D1*
X-11607Y-29728D1*
X-11678Y-29822D1*
X-12294Y-30438D1*
X-12295Y-32410D1*
X-12266Y-32459D1*
X-12227Y-32577D1*
X-12215Y-32688D1*
X-12236Y-32830D1*
X-12179Y-32813D1*
X-12055Y-32803D1*
X-11931Y-32816D1*
X-11812Y-32854D1*
X-11703Y-32914D1*
X-11607Y-32995D1*
X-11529Y-33092D1*
X-11472Y-33203D1*
X-11438Y-33323D1*
X-11428Y-33438D1*
X-11440Y-33562D1*
X-11476Y-33681D1*
X-11535Y-33791D1*
X-11614Y-33887D1*
X-11711Y-33966D1*
X-11821Y-34025D1*
X-11941Y-34061D1*
X-12065Y-34073D1*
X-12189Y-34060D1*
X-12308Y-34023D1*
X-12418Y-33964D1*
X-12514Y-33884D1*
X-12593Y-33787D1*
X-12651Y-33676D1*
X-12686Y-33557D1*
X-12697Y-33432D1*
X-12684Y-33308D1*
X-12660Y-33215D1*
X-12785Y-33221D1*
X-12907Y-33199D1*
X-13021Y-33149D1*
X-13121Y-33073D1*
X-13200Y-32977D1*
X-13255Y-32865D1*
X-13282Y-32743D1*
X-13281Y-32618D1*
X-13250Y-32497D1*
X-13205Y-32411D1*
Y-30250D1*
X-13188Y-30127D1*
X-13136Y-30009D1*
X-13072Y-29928D1*
X-12456Y-29312D1*
Y-28239D1*
X-12579Y-28261D1*
X-12704Y-28258D1*
X-12825Y-28230D1*
X-12940Y-28180D1*
X-13042Y-28108D1*
X-13127Y-28017D1*
X-13184Y-27932D1*
X-13290Y-27992D1*
X-13410Y-28027D1*
X-13535Y-28034D1*
X-13657Y-28011D1*
X-13771Y-27961D1*
X-13871Y-27886D1*
X-13950Y-27789D1*
X-14000Y-27688D1*
X-14022Y-27741D1*
X-14091Y-27845D1*
X-14182Y-27930D1*
X-14290Y-27992D1*
X-14410Y-28027D1*
X-14535Y-28034D1*
X-14657Y-28011D1*
X-14771Y-27961D1*
X-14871Y-27886D1*
X-14950Y-27789D1*
X-15005Y-27677D1*
X-15032Y-27556D1*
X-15031Y-27431D1*
X-15000Y-27310D1*
X-14943Y-27199D1*
X-14861Y-27105D1*
X-14760Y-27032D1*
X-14644Y-26985D1*
X-14521Y-26965D1*
X-14397Y-26975D1*
X-14278Y-27013D1*
X-14171Y-27078D1*
X-14083Y-27165D1*
X-14016Y-27271D1*
X-14003Y-27312D1*
X-13943Y-27199D1*
X-13861Y-27105D1*
X-13760Y-27032D1*
X-13644Y-26985D1*
X-13521Y-26965D1*
X-13397Y-26975D1*
X-13278Y-27013D1*
X-13171Y-27078D1*
X-13076Y-27175D1*
X-12974Y-27096D1*
X-12863Y-27038D1*
X-12743Y-27003D1*
X-12619Y-26993D1*
X-12495Y-27006D1*
X-12454Y-27016D1*
X-12455Y-24238D1*
X-12629Y-24262D1*
X-12753Y-24250D1*
X-12872Y-24213D1*
X-12982Y-24154D1*
X-13078Y-24074D1*
X-13157Y-23977D1*
X-13215Y-23866D1*
X-13250Y-23747D1*
X-13261Y-23622D1*
X-13248Y-23498D1*
X-13211Y-23379D1*
X-13151Y-23270D1*
X-13071Y-23174D1*
X-12977Y-23098D1*
X-13078Y-23011D1*
X-13157Y-22914D1*
X-13215Y-22803D1*
X-13250Y-22684D1*
X-13261Y-22559D1*
X-13248Y-22435D1*
X-13211Y-22316D1*
X-13151Y-22207D1*
X-13071Y-22111D1*
X-12974Y-22033D1*
X-12863Y-21975D1*
X-12743Y-21940D1*
X-12619Y-21929D1*
X-12495Y-21943D1*
X-12454Y-21956D1*
X-12505Y-21802D1*
X-12532Y-21681D1*
X-12531Y-21556D1*
X-12500Y-21435D1*
X-12443Y-21324D1*
X-12339Y-21214D1*
X-12395Y-21212D1*
X-12781Y-21598D1*
X-12882Y-21671D1*
X-13004Y-21710D1*
X-13314Y-21715D1*
X-13513D1*
X-13623Y-21816D1*
X-13532Y-21895D1*
X-13458Y-21995D1*
X-13406Y-22109D1*
X-13377Y-22230D1*
X-13371Y-22315D1*
X-13384Y-22439D1*
X-13420Y-22559D1*
X-13480Y-22668D1*
X-13559Y-22764D1*
X-13623Y-22816D1*
X-13532Y-22895D1*
X-13458Y-22995D1*
X-13406Y-23109D1*
X-13377Y-23230D1*
X-13371Y-23315D1*
X-13384Y-23439D1*
X-13420Y-23559D1*
X-13492Y-23683D1*
X-13371Y-23685D1*
Y-24945D1*
X-14632D1*
Y-24110D1*
X-15609D1*
X-15608Y-26030D1*
X-15579Y-26084D1*
X-15539Y-26202D1*
X-15528Y-26313D1*
X-15542Y-26436D1*
X-15585Y-26554D1*
X-15609Y-26589D1*
X-15608Y-30902D1*
X-15569Y-30859D1*
X-15472Y-30781D1*
X-15362Y-30723D1*
X-15242Y-30688D1*
X-15117Y-30678D1*
X-14993Y-30691D1*
X-14874Y-30729D1*
X-14765Y-30789D1*
X-14670Y-30870D1*
X-14592Y-30967D1*
X-14535Y-31078D1*
X-14500Y-31198D1*
X-14490Y-31313D1*
X-14502Y-31437D1*
X-14539Y-31556D1*
X-14598Y-31666D1*
X-14677Y-31762D1*
X-14774Y-31841D1*
X-14884Y-31900D1*
X-15003Y-31936D1*
X-15128Y-31948D1*
X-15252Y-31935D1*
X-15371Y-31898D1*
X-15481Y-31839D1*
X-15577Y-31759D1*
X-15609Y-31719D1*
X-15607Y-32995D1*
X-15529Y-33092D1*
X-15472Y-33203D1*
X-15438Y-33323D1*
X-15428Y-33438D1*
X-15440Y-33562D1*
X-15476Y-33681D1*
X-15535Y-33791D1*
X-15614Y-33887D1*
X-15711Y-33966D1*
X-15821Y-34025D1*
X-15941Y-34061D1*
X-16065Y-34073D1*
X-16189Y-34060D1*
X-16308Y-34023D1*
X-16418Y-33964D1*
X-16493Y-33901D1*
X-16467Y-34066D1*
X-16481Y-34190D1*
X-16524Y-34307D1*
X-16593Y-34411D1*
X-16684Y-34496D1*
X-16792Y-34558D1*
X-16912Y-34593D1*
X-17036Y-34600D1*
X-17159Y-34577D1*
X-17273Y-34527D1*
X-17373Y-34452D1*
X-17452Y-34355D1*
X-17507Y-34243D1*
X-17534Y-34122D1*
X-17532Y-33997D1*
X-17502Y-33876D1*
X-17444Y-33765D1*
X-17401Y-33715D1*
X-17402Y-30257D1*
X-17455Y-30355D1*
X-17533Y-30452D1*
X-17601Y-30510D1*
X-17600Y-34566D1*
X-17486Y-34661D1*
X-17408Y-34759D1*
X-17351Y-34870D1*
X-17316Y-34990D1*
X-17306Y-35104D1*
X-17310Y-35404D1*
X-17318Y-35528D1*
X-17354Y-35647D1*
X-17413Y-35757D1*
X-17493Y-35854D1*
X-17589Y-35933D1*
X-17700Y-35991D1*
X-17819Y-36027D1*
X-17943Y-36039D1*
X-18068Y-36026D1*
X-18187Y-35989D1*
X-18297Y-35930D1*
X-18393Y-35850D1*
X-18439Y-35792D1*
X-18493Y-35854D1*
X-18589Y-35933D1*
X-18700Y-35991D1*
X-18819Y-36027D1*
X-18943Y-36039D1*
X-19068Y-36026D1*
X-19187Y-35989D1*
X-19297Y-35930D1*
X-19393Y-35850D1*
X-19439Y-35792D1*
X-19493Y-35854D1*
X-19589Y-35933D1*
X-19700Y-35991D1*
X-19819Y-36027D1*
X-19943Y-36039D1*
X-20068Y-36026D1*
X-20187Y-35989D1*
X-20297Y-35930D1*
X-20393Y-35850D1*
X-20439Y-35792D1*
X-20493Y-35854D1*
X-20589Y-35933D1*
X-20700Y-35991D1*
X-20819Y-36027D1*
X-20943Y-36039D1*
X-21068Y-36026D1*
X-21187Y-35989D1*
X-21297Y-35930D1*
X-21393Y-35850D1*
X-21439Y-35792D1*
X-21493Y-35854D1*
X-21589Y-35933D1*
X-21700Y-35991D1*
X-21819Y-36027D1*
X-21943Y-36039D1*
X-22068Y-36026D1*
X-22187Y-35989D1*
X-22297Y-35930D1*
X-22393Y-35850D1*
X-22439Y-35792D1*
X-22493Y-35854D1*
X-22589Y-35933D1*
X-22700Y-35991D1*
X-22819Y-36027D1*
X-22943Y-36039D1*
X-23068Y-36026D1*
X-23187Y-35989D1*
X-23297Y-35930D1*
X-23393Y-35850D1*
X-23471Y-35753D1*
X-23529Y-35643D1*
X-23565Y-35523D1*
X-23576Y-35404D1*
X-23572Y-35104D1*
X-23563Y-34975D1*
X-23525Y-34855D1*
X-23465Y-34746D1*
X-23398Y-34665D1*
X-23400Y-32980D1*
X-23450Y-32914D1*
X-23505Y-32802D1*
X-23532Y-32681D1*
X-23531Y-32556D1*
X-23500Y-32435D1*
X-23443Y-32324D1*
X-23399Y-32274D1*
X-23400Y-30512D1*
X-23497Y-30415D1*
X-23608Y-30518D1*
X-23714Y-30584D1*
X-23831Y-30628D1*
X-23954Y-30648D1*
X-24079Y-30645D1*
X-24201Y-30618D1*
X-24315Y-30568D1*
X-24418Y-30498D1*
X-24500Y-30415D1*
X-24628Y-30533D1*
X-24737Y-30594D1*
X-24852Y-30632D1*
X-24823Y-30686D1*
X-24709Y-30635D1*
X-24588Y-30606D1*
X-24463Y-30601D1*
X-24340Y-30620D1*
X-24222Y-30662D1*
X-24115Y-30726D1*
X-24022Y-30810D1*
X-23947Y-30909D1*
X-23892Y-31021D1*
X-23859Y-31142D1*
X-23851Y-31275D1*
X-23867Y-31399D1*
X-23907Y-31517D1*
X-23969Y-31625D1*
X-24051Y-31720D1*
X-24149Y-31797D1*
X-24260Y-31854D1*
X-24380Y-31889D1*
X-24504Y-31900D1*
X-24628Y-31887D1*
X-24748Y-31851D1*
X-24851Y-31797D1*
X-24850Y-31900D1*
X-25323D1*
X-26151Y-32731D1*
X-26866Y-33447D1*
X-26965Y-33522D1*
X-27085Y-33568D1*
X-27188Y-33580D1*
X-27480D1*
X-27483Y-34668D1*
X-27436Y-34706D1*
X-27348Y-34617D1*
X-27245Y-34546D1*
X-27130Y-34498D1*
X-27008Y-34472D1*
X-26883Y-34471D1*
X-26761Y-34495D1*
X-26645Y-34542D1*
X-26541Y-34610D1*
X-26452Y-34698D1*
X-26441Y-34712D1*
X-26348Y-34617D1*
X-26245Y-34546D1*
X-26130Y-34498D1*
X-26008Y-34472D1*
X-25883Y-34471D1*
X-25761Y-34495D1*
X-25645Y-34542D1*
X-25541Y-34610D1*
X-25452Y-34698D1*
X-25441Y-34712D1*
X-25385Y-34650D1*
X-25288Y-34572D1*
X-25177Y-34514D1*
X-25058Y-34480D1*
X-24933Y-34469D1*
X-24809Y-34483D1*
X-24690Y-34520D1*
X-24581Y-34581D1*
X-24486Y-34661D1*
X-24408Y-34759D1*
X-24351Y-34870D1*
X-24316Y-34990D1*
X-24306Y-35104D1*
X-24310Y-35404D1*
X-24318Y-35528D1*
X-24354Y-35647D1*
X-24413Y-35757D1*
X-24493Y-35854D1*
X-24589Y-35933D1*
X-24700Y-35991D1*
X-24819Y-36027D1*
X-24943Y-36039D1*
X-25068Y-36026D1*
X-25187Y-35989D1*
X-25297Y-35930D1*
X-25393Y-35850D1*
X-25439Y-35792D1*
X-25511Y-35871D1*
X-25610Y-35946D1*
X-25723Y-36000D1*
X-25844Y-36031D1*
X-25968Y-36038D1*
X-26092Y-36020D1*
X-26210Y-35979D1*
X-26317Y-35915D1*
X-26410Y-35832D1*
X-26443Y-35798D1*
X-26530Y-35887D1*
X-26632Y-35959D1*
X-26747Y-36008D1*
X-26869Y-36035D1*
X-26993Y-36037D1*
X-27116Y-36014D1*
X-27232Y-35968D1*
X-27337Y-35900D1*
X-27426Y-35813D1*
X-27441Y-35795D1*
X-27493Y-35854D1*
X-27589Y-35933D1*
X-27700Y-35991D1*
X-27819Y-36027D1*
X-27943Y-36039D1*
X-28068Y-36026D1*
X-28187Y-35989D1*
X-28297Y-35930D1*
X-28393Y-35850D1*
X-28439Y-35792D1*
X-28493Y-35854D1*
X-28589Y-35933D1*
X-28700Y-35991D1*
X-28819Y-36027D1*
X-28943Y-36039D1*
X-29068Y-36026D1*
X-29187Y-35989D1*
X-29297Y-35930D1*
X-29393Y-35850D1*
X-29439Y-35792D1*
X-29493Y-35854D1*
X-29589Y-35933D1*
X-29700Y-35991D1*
X-29819Y-36027D1*
X-29943Y-36039D1*
X-30068Y-36026D1*
X-30187Y-35989D1*
X-30297Y-35930D1*
X-30393Y-35850D1*
X-30439Y-35792D1*
X-30493Y-35854D1*
X-30589Y-35933D1*
X-30700Y-35991D1*
X-30819Y-36027D1*
X-30943Y-36039D1*
X-31068Y-36026D1*
X-31187Y-35989D1*
X-31297Y-35930D1*
X-31393Y-35850D1*
X-31439Y-35792D1*
X-31493Y-35854D1*
X-31589Y-35933D1*
X-31700Y-35991D1*
X-31819Y-36027D1*
X-31943Y-36039D1*
X-32068Y-36026D1*
X-32187Y-35989D1*
X-32297Y-35930D1*
X-32393Y-35850D1*
X-32471Y-35753D1*
X-32529Y-35643D1*
X-32565Y-35523D1*
X-32576Y-35404D1*
X-32572Y-35104D1*
X-32563Y-34975D1*
X-32525Y-34855D1*
X-32465Y-34746D1*
X-32385Y-34650D1*
X-32288Y-34572D1*
X-32177Y-34514D1*
X-32058Y-34480D1*
X-31933Y-34469D1*
X-31809Y-34483D1*
X-31690Y-34520D1*
X-31581Y-34581D1*
X-31486Y-34661D1*
X-31455Y-34695D1*
Y-33409D1*
X-31505Y-33302D1*
X-31532Y-33181D1*
X-31531Y-33056D1*
X-31500Y-32935D1*
X-31443Y-32824D1*
X-31361Y-32730D1*
X-31260Y-32657D1*
X-31144Y-32610D1*
X-31021Y-32590D1*
X-30897Y-32600D1*
X-30778Y-32638D1*
X-30671Y-32703D1*
X-30583Y-32790D1*
X-30516Y-32896D1*
X-30477Y-33014D1*
X-30465Y-33125D1*
X-30480Y-33249D1*
X-30522Y-33366D1*
X-30546Y-33402D1*
X-30545Y-34605D1*
X-30444Y-34713D1*
X-30340Y-34614D1*
X-30341Y-34351D1*
X-30391Y-34289D1*
X-30446Y-34177D1*
X-30473Y-34056D1*
X-30471Y-33931D1*
X-30441Y-33810D1*
X-30383Y-33699D1*
X-30302Y-33605D1*
X-30201Y-33532D1*
X-30085Y-33485D1*
X-29962Y-33465D1*
X-29838Y-33475D1*
X-29719Y-33513D1*
X-29612Y-33578D1*
X-29523Y-33665D1*
X-29457Y-33771D1*
X-29417Y-33889D1*
X-29406Y-34000D1*
X-29420Y-34124D1*
X-29463Y-34241D1*
X-29541Y-34353D1*
Y-34613D1*
X-29486Y-34661D1*
X-29444Y-34713D1*
X-29396Y-34629D1*
Y-33906D1*
X-29417Y-33889D1*
X-29406Y-34000D1*
X-29420Y-34124D1*
X-29463Y-34241D1*
X-29541Y-34353D1*
X-24048Y-21335D2*
X-24098Y-21326D1*
X-24212Y-21276D1*
X-24312Y-21200D1*
X-24391Y-21104D1*
X-24446Y-20992D1*
X-24473Y-20870D1*
X-24471Y-20746D1*
X-24441Y-20625D1*
X-24383Y-20514D1*
X-24341Y-20459D1*
Y-16897D1*
X-28393Y-33404D2*
X-28442Y-33302D1*
X-28470Y-33181D1*
X-28468Y-33056D1*
X-28438Y-32935D1*
X-28380Y-32824D1*
X-28298Y-32730D1*
X-28197Y-32657D1*
X-28082Y-32610D1*
X-27959Y-32590D1*
X-27834Y-32600D1*
X-27716Y-32638D1*
X-27666Y-32669D1*
X-34750Y-12875D2*
D22*
Y-13510D1*
X-35385Y-12875D2*
X-34115D1*
X-7500Y-24750D2*
X-6870D1*
X-7500Y-28750D2*
X-6870D1*
X-35652Y-901D2*
Y-2515D1*
X-36577D2*
X-34727D1*
X-32842Y-901D2*
Y-2515D1*
X-33767D2*
X-31917D1*
X-19500Y-14125D2*
Y-14710D1*
X-20085Y-14125D2*
X-18915D1*
X-12626Y-26993D2*
Y-28262D1*
X-21000Y-4361D2*
D15*
Y-5764D1*
Y-5062D2*
X-20471D1*
X-20500Y-6120D2*
D22*
Y-7380D1*
X-15000Y215D2*
Y-1241D1*
X-16220Y-513D2*
X-13780D1*
X-16850Y-474D2*
Y-2914D1*
X-17579Y-1694D2*
X-16122D1*
X-15505Y-9730D2*
Y-11147D1*
X-17755Y-4351D2*
Y-5650D1*
X-18405Y-5001D2*
X-17106D1*
X-17130Y-6851D2*
Y-8150D1*
X-17780Y-7501D2*
X-17130D1*
X-15500Y-12788D2*
Y-14087D1*
X-16149Y-13437D2*
X-15500D1*
X-1500Y-28351D2*
Y-29649D1*
X-2149Y-29000D2*
X-851D1*
X-24500Y-13490D2*
Y-14125D1*
X-25135D2*
X-24500D1*
X-24250Y-9865D2*
Y-11135D1*
X-24885Y-10500D2*
X-24250D1*
X-10125Y-32615D2*
Y-33885D1*
X-10760Y-33250D2*
X-9490D1*
X-26941Y-34469D2*
Y-36038D1*
X-25941Y-34469D2*
Y-36038D1*
X-25000Y-26351D2*
Y-27000D1*
X-24000Y-29351D2*
Y-30649D1*
X-24500Y-30601D2*
Y-31899D1*
Y-31250D2*
X-23851D1*
X-37375Y-29245D2*
Y-29875D1*
X-38005D2*
X-37375D1*
X-23502Y-21690D2*
Y-22339D1*
X-24152Y-21690D2*
X-23502D1*
Y-22415D2*
Y-23714D1*
X-5500Y-37410D2*
D15*
Y-38020D1*
X-6385D2*
X-4615D1*
X-1917Y-37411D2*
Y-38020D1*
X-2802D2*
X-1033D1*
X-14001Y-24315D2*
D22*
Y-24945D1*
X-14631Y-24315D2*
X-13372D1*
X-8438Y-35522D2*
Y-36978D1*
X-8969Y-36250D2*
X-8438D1*
X-4188Y-22209D2*
Y-23666D1*
X-4719Y-22937D2*
X-4188D1*
X-40504Y-16399D2*
Y-17855D1*
X-39562Y-13553D2*
Y-14822D1*
X-40197Y-14188D2*
X-39562D1*
X-37129Y-1336D2*
Y-2714D1*
X-37818Y-2025D2*
X-37129D1*
X-8850Y876D2*
D21*
X-5650D1*
X-8850Y628D2*
X-5650D1*
X-8850Y379D2*
X-5650D1*
X-8850Y130D2*
X-5650D1*
X-8850Y-118D2*
X-5650D1*
X-8850Y-367D2*
X-5650D1*
X-8850Y-616D2*
X-5650D1*
X-8850Y-865D2*
X-5650D1*
X-8850Y-1113D2*
X-5650D1*
X-8850Y-1362D2*
X-5650D1*
X-8850Y-1611D2*
X-5650D1*
X-8850Y-1859D2*
X-5650D1*
X-5750Y1125D2*
X-8875D1*
Y-1875D1*
X-5625D1*
Y1125D1*
X-5750D1*
X-4928Y1071D2*
D24*
X-3322D1*
X-4928Y953D2*
X-3322D1*
X-4928Y834D2*
X-3322D1*
X-4928Y715D2*
X-3322D1*
X-4928Y597D2*
X-3322D1*
X-4928Y478D2*
X-3322D1*
X-4928Y359D2*
X-3322D1*
X-4928Y240D2*
X-3322D1*
X-4928Y122D2*
X-3322D1*
X-4928Y3D2*
X-3322D1*
X-4928Y-116D2*
X-3322D1*
X-4928Y-234D2*
X-3322D1*
X-4928Y-353D2*
X-3322D1*
X-4928Y-472D2*
X-3322D1*
X-4928Y-590D2*
X-3322D1*
X-4928Y-709D2*
X-3322D1*
X-4928Y-828D2*
X-3322D1*
X-4928Y-946D2*
X-3322D1*
X-4928Y-1065D2*
X-3322D1*
X-4928Y-1184D2*
X-3322D1*
X-4928Y-1302D2*
X-3322D1*
X-4928Y-1421D2*
X-3322D1*
X-4928Y-1540D2*
X-3322D1*
X-4928Y-1659D2*
X-3322D1*
X-4928Y-1777D2*
X-3322D1*
X-4928Y-1896D2*
X-3322D1*
X-4928Y-2015D2*
X-3322D1*
X-4928Y-2133D2*
X-3322D1*
X-4928Y-2252D2*
X-3322D1*
X-5023Y-2371D2*
X-3322D1*
X-5143Y-2489D2*
X-3335D1*
X-7011Y-2608D2*
X-3455D1*
X-7131Y-2727D2*
X-3574D1*
X-7249Y-2845D2*
X-3692D1*
X-7367Y-2964D2*
X-3812D1*
X-7485Y-3083D2*
X-3930D1*
X-7605Y-3201D2*
X-4048D1*
X-7723Y-3320D2*
X-4166D1*
X-7841Y-3439D2*
X-4286D1*
X-7961Y-3558D2*
X-4404D1*
X-8080Y-3676D2*
X-4522D1*
X-8198Y-3795D2*
X-4642D1*
X-8318Y-3914D2*
X-4760D1*
X-8436Y-4032D2*
X-4879D1*
X-8554Y-4151D2*
X-4999D1*
X-8672Y-4270D2*
X-5117D1*
X-8792Y-4388D2*
X-5235D1*
X-8910Y-4507D2*
X-5353D1*
X-8928Y-4626D2*
X-5473D1*
X-8928Y-4744D2*
X-5591D1*
X-8928Y-4863D2*
X-5709D1*
X-8928Y-4982D2*
X-5829D1*
X-8928Y-5100D2*
X-5947D1*
X-8928Y-5219D2*
X-6065D1*
X-8928Y-5338D2*
X-6071D1*
X-8928Y-5457D2*
X-6071D1*
X-8928Y-5575D2*
X-6071D1*
X-8928Y-5694D2*
X-6071D1*
X-8928Y-5813D2*
X-6071D1*
X-8928Y-5931D2*
X-6071D1*
X-8928Y-6050D2*
X-6071D1*
X-8928Y-6169D2*
X-6071D1*
X-8928Y-6287D2*
X-6071D1*
X-8928Y-6406D2*
X-6071D1*
X-8928Y-6525D2*
X-6071D1*
X-8928Y-6643D2*
X-6071D1*
X-8928Y-6762D2*
X-6071D1*
X-8928Y-6881D2*
X-6071D1*
X-8928Y-6999D2*
X-6071D1*
X-8928Y-7118D2*
X-6071D1*
X-8928Y-7237D2*
X-6071D1*
X-8928Y-7356D2*
X-6071D1*
X-8928Y-7474D2*
X-6071D1*
X-8928Y-7593D2*
X-6071D1*
X-8928Y-7712D2*
X-6071D1*
X-8928Y-7830D2*
X-6071D1*
X-3370Y1190D2*
X-4940D1*
X-4941Y-2252D1*
X-4958Y-2292D1*
X-5209Y-2543D1*
X-5250Y-2560D1*
X-6977D1*
X-7467Y-3052D1*
X-8940Y-4525D1*
Y-7940D1*
X-6060D1*
X-6059Y-5248D1*
X-6042Y-5208D1*
X-3311Y-2476D1*
X-3310Y-340D1*
Y1190D1*
X-3370D1*
X-2678Y1071D2*
X-1322D1*
X-2678Y953D2*
X-1322D1*
X-2678Y834D2*
X-1322D1*
X-2678Y715D2*
X-1322D1*
X-2678Y597D2*
X-1322D1*
X-2678Y478D2*
X-1322D1*
X-2678Y359D2*
X-1322D1*
X-2678Y240D2*
X-1322D1*
X-2678Y122D2*
X-1322D1*
X-2678Y3D2*
X-1322D1*
X-2678Y-116D2*
X-1322D1*
X-2678Y-234D2*
X-1322D1*
X-2678Y-353D2*
X-1322D1*
X-2678Y-472D2*
X-1322D1*
X-2678Y-590D2*
X-1322D1*
X-2678Y-709D2*
X-1322D1*
X-2678Y-828D2*
X-1322D1*
X-2678Y-946D2*
X-1322D1*
X-2678Y-1065D2*
X-1322D1*
X-2678Y-1184D2*
X-1322D1*
X-2678Y-1302D2*
X-1322D1*
X-2678Y-1421D2*
X-1322D1*
X-2678Y-1540D2*
X-1322D1*
X-2678Y-1659D2*
X-1322D1*
X-2678Y-1777D2*
X-1322D1*
X-2678Y-1896D2*
X-1322D1*
X-2678Y-2015D2*
X-1322D1*
X-2678Y-2133D2*
X-1322D1*
X-2678Y-2252D2*
X-1322D1*
X-2678Y-2371D2*
X-1322D1*
X-2678Y-2489D2*
X-1322D1*
X-2678Y-2608D2*
X-1322D1*
X-2755Y-2727D2*
X-1322D1*
X-2875Y-2845D2*
X-1322D1*
X-2993Y-2964D2*
X-1322D1*
X-3111Y-3083D2*
X-1322D1*
X-3229Y-3201D2*
X-1322D1*
X-3349Y-3320D2*
X-1322D1*
X-3467Y-3439D2*
X-1322D1*
X-3585Y-3558D2*
X-1322D1*
X-3705Y-3676D2*
X-2899D1*
X-3823Y-3795D2*
X-3017D1*
X-3941Y-3914D2*
X-3135D1*
X-4053Y-4032D2*
X-3197D1*
X-4053Y-4151D2*
X-3197D1*
X-4053Y-4270D2*
X-3197D1*
X-4053Y-4388D2*
X-3197D1*
X-4053Y-4507D2*
X-3197D1*
X-4053Y-4626D2*
X-3197D1*
X-4053Y-4744D2*
X-3197D1*
X-4053Y-4863D2*
X-3197D1*
X-4005Y-4940D2*
X-3185D1*
X-3184Y-3998D1*
X-3167Y-3958D1*
X-2791Y-3582D1*
X-2750Y-3565D1*
X-1310D1*
Y1190D1*
X-2690D1*
X-2691Y-2627D1*
X-2708Y-2667D1*
X-4064Y-4024D1*
X-4065Y-4940D1*
X-4005D1*
X-33979Y-4499D2*
D21*
X-25527D1*
X-33979Y-4748D2*
X-25527D1*
X-33979Y-4996D2*
X-25527D1*
X-33979Y-5245D2*
X-25527D1*
X-33979Y-5494D2*
X-25527D1*
X-33979Y-5743D2*
X-25527D1*
X-33979Y-5991D2*
X-25527D1*
X-33979Y-6240D2*
X-25527D1*
X-33979Y-6489D2*
X-25527D1*
X-33979Y-6737D2*
X-25527D1*
X-33979Y-6986D2*
X-25527D1*
X-30227Y-7235D2*
X-25527D1*
X-30227Y-7483D2*
X-25527D1*
X-30227Y-7732D2*
X-25527D1*
X-30227Y-7981D2*
X-25527D1*
X-27048Y-8126D2*
X-26878Y-8112D1*
X-26378Y-8111D1*
X-26288Y-8115D1*
X-26125Y-8125D1*
X-25500D1*
X-25503Y-4250D1*
X-34004D1*
Y-7063D1*
X-30378D1*
X-30273Y-7124D1*
X-30253Y-7188D1*
X-30250Y-8125D1*
X-27043D1*
X-30102Y-8811D2*
X-25523D1*
X-30106Y-9060D2*
X-25523D1*
X-30106Y-9309D2*
X-25523D1*
X-30110Y-9557D2*
X-25523D1*
X-30110Y-9806D2*
X-25523D1*
X-30114Y-10055D2*
X-25523D1*
X-30114Y-10303D2*
X-25523D1*
X-30121Y-10552D2*
X-25523D1*
X-45473Y-10801D2*
X-38722D1*
X-38036D2*
X-32535D1*
X-31844D2*
X-25523D1*
X-45473Y-11049D2*
X-38722D1*
X-38036D2*
X-32535D1*
X-31844D2*
X-25523D1*
X-45473Y-11298D2*
X-38722D1*
X-38036D2*
X-32777D1*
X-31864D2*
X-25523D1*
X-32071Y-11547D2*
X-25523D1*
X-32317Y-11795D2*
X-25523D1*
X-45497Y-10622D2*
Y-11497D1*
X-44942Y-11493D1*
X-38696D1*
X-38699Y-10689D1*
Y-10630D1*
X-39392Y-10633D1*
X-45497Y-10626D1*
X-38063Y-11493D2*
X-32945D1*
X-32513Y-11060D1*
X-32511Y-10640D1*
X-38060Y-10634D1*
X-38059Y-11497D1*
X-32053Y-11506D2*
X-32420Y-11873D1*
X-29500Y-11875D1*
X-25500D1*
Y-8563D1*
X-30126D1*
X-30141Y-10519D1*
X-30204Y-10624D1*
X-30267Y-10643D1*
X-31872Y-10641D1*
X-31871Y-11191D1*
X-31895Y-11313D1*
X-31964Y-11417D1*
X-32053Y-11506D1*
X-36664Y-1249D2*
X-31964D1*
X-36664Y-1497D2*
X-31964D1*
X-36664Y-1746D2*
X-31964D1*
X-36664Y-1995D2*
X-31964D1*
X-36664Y-2243D2*
X-31964D1*
X-36664Y-2492D2*
X-31964D1*
X-36664Y-2741D2*
X-31964D1*
X-36664Y-2990D2*
X-31964D1*
X-36664Y-3238D2*
X-31964D1*
X-36664Y-3487D2*
X-31964D1*
X-36664Y-3736D2*
X-31964D1*
X-31941Y-1000D2*
X-36688D1*
X-36691Y-3817D1*
X-35816Y-3813D1*
X-31941D1*
X-31938Y-996D1*
X-2803Y-4179D2*
D24*
X-2197D1*
X-2803Y-4297D2*
X-2197D1*
X-2803Y-4416D2*
X-2197D1*
X-2803Y-4535D2*
X-2197D1*
X-2803Y-4653D2*
X-2197D1*
X-2803Y-4772D2*
X-2197D1*
X-2803Y-4891D2*
X-2197D1*
X-2803Y-5010D2*
X-2197D1*
X-2803Y-5128D2*
X-2197D1*
X-2874Y-5247D2*
X-2197D1*
X-2955Y-5366D2*
X-2197D1*
X-3037Y-5484D2*
X-2197D1*
X-3118Y-5603D2*
X-2197D1*
X-3200Y-5722D2*
X-2197D1*
X-3281Y-5840D2*
X-2197D1*
X-3361Y-5959D2*
X-2197D1*
X-3444Y-6078D2*
X-2197D1*
X-3525Y-6196D2*
X-2197D1*
X-3607Y-6315D2*
X-2197D1*
X-3688Y-6434D2*
X-2197D1*
X-3768Y-6552D2*
X-2197D1*
X-3851Y-6671D2*
X-2197D1*
X-3931Y-6790D2*
X-2197D1*
X-4014Y-6909D2*
X-2197D1*
X-4095Y-7027D2*
X-2197D1*
X-4177Y-7146D2*
X-2197D1*
X-4258Y-7265D2*
X-2197D1*
X-4338Y-7383D2*
X-2197D1*
X-4421Y-7502D2*
X-2197D1*
X-4501Y-7621D2*
X-2197D1*
X-4584Y-7739D2*
X-2197D1*
X-4665Y-7858D2*
X-2199D1*
X-4745Y-7977D2*
X-2290D1*
X-4828Y-8095D2*
X-2380D1*
X-4908Y-8214D2*
X-2470D1*
X-4991Y-8333D2*
X-2560D1*
X-5071Y-8451D2*
X-2652D1*
X-5152Y-8570D2*
X-2742D1*
X-5235Y-8689D2*
X-2832D1*
X-5315Y-8808D2*
X-2922D1*
X-5398Y-8926D2*
X-3014D1*
X-5478Y-9045D2*
X-3104D1*
X-5559Y-9164D2*
X-3194D1*
X-5641Y-9282D2*
X-3284D1*
X-5722Y-9401D2*
X-3374D1*
X-5805Y-9520D2*
X-3466D1*
X-8678Y-9638D2*
X-3556D1*
X-8678Y-9757D2*
X-3646D1*
X-8678Y-9876D2*
X-3736D1*
X-8678Y-9994D2*
X-3828D1*
X-8678Y-10113D2*
X-3918D1*
X-8678Y-10232D2*
X-4008D1*
X-8678Y-10350D2*
X-4098D1*
X-8678Y-10469D2*
X-4190D1*
X-8678Y-10588D2*
X-4280D1*
X-8678Y-10707D2*
X-4370D1*
X-8678Y-10825D2*
X-4460D1*
X-8678Y-10944D2*
X-4550D1*
X-8678Y-11063D2*
X-4642D1*
X-8678Y-11181D2*
X-4732D1*
X-8678Y-11300D2*
X-4822D1*
X-8678Y-11419D2*
X-4912D1*
X-8678Y-11537D2*
X-5004D1*
X-8678Y-11656D2*
X-5094D1*
X-8678Y-11775D2*
X-5184D1*
X-8678Y-11893D2*
X-5274D1*
X-8678Y-12012D2*
X-5364D1*
X-8678Y-12131D2*
X-5455D1*
X-8678Y-12249D2*
X-5545D1*
X-8678Y-12368D2*
X-5635D1*
X-8678Y-12487D2*
X-5725D1*
X-8678Y-12606D2*
X-5817D1*
X-8678Y-12724D2*
X-5907D1*
X-8678Y-12843D2*
X-5997D1*
X-8678Y-12962D2*
X-6087D1*
X-8678Y-13080D2*
X-6179D1*
X-8678Y-13199D2*
X-6196D1*
X-8678Y-13318D2*
X-6196D1*
X-8678Y-13436D2*
X-6196D1*
X-8678Y-13555D2*
X-6196D1*
X-8678Y-13674D2*
X-6196D1*
X-8678Y-13792D2*
X-6196D1*
X-8678Y-13911D2*
X-6196D1*
X-8678Y-14030D2*
X-6196D1*
X-8678Y-14148D2*
X-6196D1*
X-2245Y-4060D2*
X-2815D1*
X-2816Y-5127D1*
X-2826Y-5159D1*
X-5826Y-9534D1*
X-5878Y-9559D1*
X-6595Y-9560D1*
X-8690D1*
Y-14190D1*
X-6185D1*
X-6184Y-13123D1*
X-6173Y-13089D1*
X-2185Y-7855D1*
Y-4060D1*
X-2245D1*
D19*
X-43625Y-12875D3*
D25*
X-39625D3*
D19*
X-38750D3*
D25*
X-34750D3*
D26*
X-8500Y-22750D3*
D27*
X-7500D3*
X-8500Y-23750D3*
X-7500D3*
X-8500Y-24750D3*
X-7500D3*
X-8500Y-25750D3*
X-7500D3*
X-8500Y-26750D3*
X-7500D3*
X-8500Y-27750D3*
X-7500D3*
X-8500Y-28750D3*
X-7500D3*
X-8500Y-29750D3*
X-7500D3*
G36*
X-8424Y548D2*
X-8398Y693D1*
X-8325Y821D1*
X-8212Y916D1*
X-8074Y966D1*
X-7927D1*
X-7788Y916D1*
X-7676Y821D1*
X-7602Y694D1*
X-7576Y549D1*
Y-298D1*
X-7602Y-443D1*
X-7675Y-571D1*
X-7788Y-666D1*
X-7926Y-716D1*
X-8073D1*
X-8212Y-666D1*
X-8324Y-571D1*
X-8398Y-444D1*
X-8424Y-299D1*
Y548D1*
G37*
G36*
X-6464D2*
X-6438Y693D1*
X-6365Y821D1*
X-6252Y916D1*
X-6114Y966D1*
X-5967D1*
X-5828Y916D1*
X-5716Y821D1*
X-5642Y694D1*
X-5616Y549D1*
Y-298D1*
X-5642Y-443D1*
X-5715Y-571D1*
X-5828Y-666D1*
X-5966Y-716D1*
X-6113D1*
X-6252Y-666D1*
X-6364Y-571D1*
X-6438Y-444D1*
X-6464Y-299D1*
Y548D1*
G37*
G36*
X-4484D2*
X-4458Y693D1*
X-4385Y821D1*
X-4272Y916D1*
X-4134Y966D1*
X-3987D1*
X-3848Y916D1*
X-3736Y821D1*
X-3662Y694D1*
X-3636Y549D1*
Y-298D1*
X-3662Y-443D1*
X-3735Y-571D1*
X-3848Y-666D1*
X-3986Y-716D1*
X-4133D1*
X-4272Y-666D1*
X-4384Y-571D1*
X-4458Y-444D1*
X-4484Y-299D1*
Y548D1*
G37*
G36*
X-2524D2*
X-2498Y693D1*
X-2425Y821D1*
X-2312Y916D1*
X-2174Y966D1*
X-2027D1*
X-1888Y916D1*
X-1776Y821D1*
X-1702Y694D1*
X-1676Y549D1*
Y-298D1*
X-1702Y-443D1*
X-1775Y-571D1*
X-1888Y-666D1*
X-2026Y-716D1*
X-2173D1*
X-2312Y-666D1*
X-2424Y-571D1*
X-2498Y-444D1*
X-2524Y-299D1*
Y548D1*
G37*
D30*
X-35652Y-5626D3*
Y-2515D3*
X-32842Y-5626D3*
Y-2515D3*
D20*
X-19500Y-13125D3*
D31*
Y-14125D3*
D20*
X-22687Y-13125D3*
D31*
Y-14125D3*
D19*
X-24250Y-11750D3*
D25*
X-20250D3*
D19*
X-24250Y-8000D3*
D25*
X-20250D3*
G36*
X-11180Y-21206D2*
X-11291Y-21190D1*
X-11393Y-21144D1*
X-11478Y-21070D1*
X-11538Y-20976D1*
X-11570Y-20869D1*
Y-20756D1*
X-11538Y-20649D1*
X-11478Y-20555D1*
X-11393Y-20481D1*
X-11291Y-20435D1*
X-11180Y-20419D1*
Y-21206D1*
G37*
G36*
X-10920Y-20419D2*
X-10809Y-20435D1*
X-10707Y-20481D1*
X-10623Y-20555D1*
X-10562Y-20649D1*
X-10531Y-20756D1*
Y-20869D1*
X-10562Y-20976D1*
X-10623Y-21070D1*
X-10707Y-21144D1*
X-10809Y-21190D1*
X-10920Y-21206D1*
Y-20419D1*
G37*
D19*
X-12626Y-18564D3*
D25*
Y-22564D3*
D19*
Y-23627D3*
D25*
Y-27627D3*
G36*
X-21195Y-4669D2*
X-21084Y-4685D1*
X-20982Y-4731D1*
X-20897Y-4805D1*
X-20837Y-4899D1*
X-20805Y-5006D1*
Y-5119D1*
X-20837Y-5226D1*
X-20897Y-5320D1*
X-20982Y-5394D1*
X-21084Y-5440D1*
X-21195Y-5456D1*
Y-4669D1*
G37*
G36*
X-21455Y-5456D2*
X-21566Y-5440D1*
X-21668Y-5394D1*
X-21752Y-5320D1*
X-21813Y-5226D1*
X-21844Y-5119D1*
Y-5006D1*
X-21813Y-4899D1*
X-21752Y-4805D1*
X-21668Y-4731D1*
X-21566Y-4685D1*
X-21455Y-4669D1*
Y-5456D1*
G37*
D26*
X-21500Y-6750D3*
D27*
X-20500D3*
X-19500D3*
Y-3750D3*
X-20500D3*
X-21500D3*
D26*
X-19438Y1312D3*
D27*
X-20438D3*
D19*
X-19438Y-2687D3*
D25*
X-23438D3*
D32*
X-15000Y-2875D3*
D33*
Y-513D3*
D34*
X-16850Y-1694D3*
D35*
X-7501Y-5376D3*
Y-7187D3*
Y-11636D3*
Y-13443D3*
D36*
X-16505Y-10439D3*
D37*
X-15505D3*
X-14505D3*
D26*
X-14504Y-4001D3*
D27*
Y-5001D3*
Y-6001D3*
D26*
X-6750Y-18250D3*
D27*
X-7750D3*
D18*
X-17755Y-5001D3*
D38*
X-15755D3*
D18*
X-17130Y-7501D3*
D38*
X-16130D3*
D18*
X-15500Y-13437D3*
D38*
X-14500D3*
D18*
X-1500Y-29000D3*
D38*
Y-27000D3*
D39*
X-26628Y-11126D3*
Y-9126D3*
Y-7526D3*
Y-5526D3*
D26*
X-15438Y-12000D3*
D27*
X-14438D3*
D26*
X-6750Y-19688D3*
D27*
X-7750D3*
X-8750D3*
G36*
X-7544Y-34430D2*
X-7560Y-34541D1*
X-7606Y-34643D1*
X-7680Y-34728D1*
X-7774Y-34788D1*
X-7881Y-34820D1*
X-7994D1*
X-8101Y-34788D1*
X-8195Y-34728D1*
X-8269Y-34643D1*
X-8315Y-34541D1*
X-8331Y-34430D1*
X-7544D1*
G37*
G36*
X-8331Y-34170D2*
X-8315Y-34059D1*
X-8269Y-33957D1*
X-8195Y-33873D1*
X-8101Y-33812D1*
X-7994Y-33781D1*
X-7881D1*
X-7774Y-33812D1*
X-7680Y-33873D1*
X-7606Y-33957D1*
X-7560Y-34059D1*
X-7544Y-34170D1*
X-8331D1*
G37*
D20*
X-30250Y-13125D3*
D31*
Y-14125D3*
D19*
X-24500D3*
D25*
X-28500D3*
D19*
X-24250Y-9250D3*
D25*
X-20250D3*
D19*
Y-10500D3*
D25*
X-24250D3*
D26*
X-3125Y-25625D3*
D27*
X-4125D3*
D19*
X-15125Y-31313D3*
D25*
X-11125D3*
D19*
X-10125Y-29250D3*
D25*
Y-33250D3*
D40*
X-31941Y-35254D3*
X-30941D3*
X-29941D3*
X-28941D3*
X-27941D3*
X-26941D3*
X-25941D3*
X-24941D3*
X-22941D3*
X-21941D3*
X-20941D3*
X-19941D3*
X-18941D3*
X-17941D3*
X-35541Y-16254D3*
X-34541D3*
X-33541D3*
X-32541D3*
X-31541D3*
X-30541D3*
X-29541D3*
X-28541D3*
X-27541D3*
X-26541D3*
X-24941D3*
X-23941D3*
X-22941D3*
X-21941D3*
X-20941D3*
X-19941D3*
X-18941D3*
X-17941D3*
D38*
X-18000Y-27000D3*
D18*
X-19000D3*
X-20000D3*
X-21000D3*
X-22000D3*
X-23000D3*
X-24000D3*
X-25000D3*
X-26000D3*
X-27000D3*
X-28000D3*
X-29000D3*
X-30000D3*
X-31000D3*
Y-30000D3*
X-30000D3*
X-29000D3*
X-28000D3*
X-27000D3*
X-26000D3*
X-25000D3*
X-24000D3*
X-23000D3*
X-22000D3*
X-21000D3*
X-20000D3*
X-19000D3*
X-18000D3*
X-24500Y-31250D3*
D38*
X-25500D3*
D26*
X-36375Y-31875D3*
D27*
X-37375D3*
X-36375Y-30875D3*
X-37375D3*
X-36375Y-29875D3*
X-37375D3*
D41*
X-22502Y-24753D3*
X-24402D3*
D18*
X-23502Y-21690D3*
D38*
X-22502D3*
D18*
X-23502Y-23065D3*
D38*
X-24502D3*
D19*
X-16063Y-33438D3*
D25*
X-12063D3*
D42*
X-5500Y-36250D3*
Y-38020D3*
X-1917Y-36250D3*
Y-38020D3*
D43*
X-15252Y-23440D3*
D44*
Y-22440D3*
D26*
X-14001Y-24315D3*
D27*
Y-23315D3*
Y-22315D3*
Y-21315D3*
Y-20315D3*
Y-19315D3*
G36*
X-8634Y-36545D2*
X-8536Y-36644D1*
X-8339D1*
X-8241Y-36545D1*
Y-35955D1*
X-8339Y-35856D1*
X-8536D1*
X-8634Y-35955D1*
Y-36545D1*
G37*
D45*
X-7938Y-36250D3*
X-7438D3*
D18*
X-17000Y-23875D3*
D38*
Y-22875D3*
D26*
X-3374Y-16937D3*
D27*
X-2374D3*
X-1374D3*
Y-13937D3*
X-2374D3*
X-3374D3*
D36*
X-3499Y-4375D3*
D37*
X-2499D3*
X-1499D3*
D19*
X-5188Y-9689D3*
D25*
Y-13689D3*
D19*
X-1188Y-21063D3*
D25*
Y-25063D3*
D20*
X-1187Y-18625D3*
D31*
Y-19625D3*
G36*
X-4384Y-23233D2*
X-4286Y-23331D1*
X-4089D1*
X-3991Y-23233D1*
Y-22642D1*
X-4089Y-22544D1*
X-4286D1*
X-4384Y-22642D1*
Y-23233D1*
G37*
D45*
X-3688Y-22937D3*
X-3188D3*
D19*
X-7688Y-20938D3*
D25*
X-3688D3*
D19*
X-2125Y-13001D3*
D25*
Y-9001D3*
D38*
X-3625Y-13001D3*
D18*
Y-7001D3*
D19*
X-1125Y-13001D3*
D25*
Y-9001D3*
D36*
X-32191Y-9689D3*
D37*
X-31191D3*
X-30191D3*
D19*
X-43817Y-19627D3*
D25*
Y-15627D3*
D36*
X-38379Y-9689D3*
D37*
X-37379D3*
X-36379D3*
G36*
X-40307Y-16832D2*
X-40406Y-16733D1*
X-40603D1*
X-40701Y-16832D1*
Y-17422D1*
X-40603Y-17520D1*
X-40406D1*
X-40307Y-17422D1*
Y-16832D1*
G37*
D45*
X-41004Y-17127D3*
X-41504D3*
D20*
X-33125Y-13125D3*
D31*
Y-14125D3*
D19*
X-35562Y-14188D3*
D25*
X-39562D3*
D19*
X-37004Y-18815D3*
D25*
X-41004D3*
D46*
X-37129Y-6376D3*
D47*
Y-2025D3*
D36*
X-44567Y-9689D3*
D37*
X-43567D3*
X-42567D3*
M02*
