G04 DipTrace 2.4.0.2*
%INTopDimension.gbr*%
%MOIN*%
%ADD13C,0.0014*%
%ADD115C,0.0062*%
%FSLAX44Y44*%
G04*
G70*
G90*
G75*
G01*
%LNTopDimension*%
%LPD*%
X1437Y2620D2*
D13*
X6072D1*
X1437Y-39313D2*
X6072D1*
X5875Y-18346D2*
Y2226D1*
G36*
Y2620D2*
X5954Y2226D1*
X5796D1*
X5875Y2620D1*
G37*
Y-18346D2*
D13*
Y-38919D1*
G36*
Y-39313D2*
X5796Y-38919D1*
X5954D1*
X5875Y-39313D1*
G37*
X5997Y-17657D2*
D115*
X6399D1*
X6131Y-17465D1*
Y-17752D1*
X6322Y-17876D2*
X6342Y-17914D1*
X6399Y-17972D1*
X5997D1*
X6265Y-18344D2*
X6208Y-18325D1*
X6169Y-18287D1*
X6150Y-18229D1*
Y-18210D1*
X6169Y-18153D1*
X6208Y-18115D1*
X6265Y-18095D1*
X6284D1*
X6342Y-18115D1*
X6380Y-18153D1*
X6399Y-18210D1*
Y-18229D1*
X6380Y-18287D1*
X6342Y-18325D1*
X6265Y-18344D1*
X6169D1*
X6074Y-18325D1*
X6016Y-18287D1*
X5997Y-18229D1*
Y-18191D1*
X6016Y-18134D1*
X6055Y-18115D1*
X6399Y-18506D2*
Y-18716D1*
X6246Y-18602D1*
Y-18659D1*
X6227Y-18697D1*
X6208Y-18716D1*
X6150Y-18736D1*
X6112D1*
X6055Y-18716D1*
X6016Y-18678D1*
X5997Y-18621D1*
Y-18563D1*
X6016Y-18506D1*
X6036Y-18487D1*
X6074Y-18468D1*
X6036Y-18878D2*
X6016Y-18859D1*
X5997Y-18878D1*
X6016Y-18898D1*
X6036Y-18878D1*
X6399Y-19060D2*
Y-19270D1*
X6246Y-19155D1*
Y-19213D1*
X6227Y-19251D1*
X6208Y-19270D1*
X6150Y-19289D1*
X6112D1*
X6055Y-19270D1*
X6016Y-19232D1*
X5997Y-19174D1*
Y-19117D1*
X6016Y-19060D1*
X6036Y-19041D1*
X6074Y-19021D1*
M02*
