G04 DipTrace 2.4.0.2*
%INTopMask.gbr*%
%MOIN*%
%ADD50C,0.12*%
%ADD51C,0.126*%
%ADD52C,0.125*%
%ADD64C,0.0789*%
%ADD66R,0.0789X0.0789*%
%ADD68O,0.0474X0.0868*%
%ADD70C,0.075*%
%ADD72R,0.075X0.075*%
%ADD74R,0.118X0.063*%
%ADD76C,0.056*%
%ADD78O,0.068X0.098*%
%ADD80O,0.188X0.138*%
%ADD82R,0.071X0.071*%
%ADD84C,0.071*%
%ADD86C,0.0828*%
%ADD88R,0.0828X0.0828*%
%ADD90O,0.188X0.108*%
%ADD92O,0.0868X0.1852*%
%ADD94O,0.1852X0.0868*%
%ADD96O,0.2049X0.0868*%
%ADD98R,0.058X0.058*%
%ADD100C,0.058*%
%ADD102O,0.1261X0.2639*%
%ADD104C,0.0671*%
%ADD106R,0.0671X0.0671*%
%ADD108C,0.068*%
%ADD110C,0.068*%
%FSLAX44Y44*%
G04*
G70*
G90*
G75*
G01*
%LNTopMask*%
%LPD*%
D110*
X-43625Y-12875D3*
D108*
X-39625D3*
D110*
X-38750D3*
D108*
X-34750D3*
D106*
X-8500Y-22750D3*
D104*
X-7500D3*
X-8500Y-23750D3*
X-7500D3*
X-8500Y-24750D3*
X-7500D3*
X-8500Y-25750D3*
X-7500D3*
X-8500Y-26750D3*
X-7500D3*
X-8500Y-27750D3*
X-7500D3*
X-8500Y-28750D3*
X-7500D3*
X-8500Y-29750D3*
X-7500D3*
G36*
X-8424Y548D2*
X-8398Y693D1*
X-8325Y821D1*
X-8212Y916D1*
X-8074Y966D1*
X-7927D1*
X-7788Y916D1*
X-7676Y821D1*
X-7602Y694D1*
X-7576Y549D1*
Y-298D1*
X-7602Y-443D1*
X-7675Y-571D1*
X-7788Y-666D1*
X-7926Y-716D1*
X-8073D1*
X-8212Y-666D1*
X-8324Y-571D1*
X-8398Y-444D1*
X-8424Y-299D1*
Y548D1*
G37*
G36*
X-6504Y552D2*
X-6477Y707D1*
X-6396Y847D1*
X-6273Y951D1*
X-6121Y1006D1*
X-5960D1*
X-5808Y951D1*
X-5684Y848D1*
X-5604Y708D1*
X-5576Y553D1*
Y-302D1*
X-5603Y-457D1*
X-5684Y-597D1*
X-5807Y-701D1*
X-5959Y-756D1*
X-6120D1*
X-6272Y-701D1*
X-6396Y-598D1*
X-6476Y-458D1*
X-6504Y-303D1*
Y552D1*
G37*
G36*
X-4524D2*
X-4497Y707D1*
X-4416Y847D1*
X-4293Y951D1*
X-4141Y1006D1*
X-3980D1*
X-3828Y951D1*
X-3704Y848D1*
X-3624Y708D1*
X-3596Y553D1*
Y-302D1*
X-3623Y-457D1*
X-3704Y-597D1*
X-3827Y-701D1*
X-3979Y-756D1*
X-4140D1*
X-4292Y-701D1*
X-4416Y-598D1*
X-4496Y-458D1*
X-4524Y-303D1*
Y552D1*
G37*
G36*
X-2564D2*
X-2537Y707D1*
X-2456Y847D1*
X-2333Y951D1*
X-2181Y1006D1*
X-2020D1*
X-1868Y951D1*
X-1744Y848D1*
X-1664Y708D1*
X-1636Y553D1*
Y-302D1*
X-1663Y-457D1*
X-1744Y-597D1*
X-1867Y-701D1*
X-2019Y-756D1*
X-2180D1*
X-2332Y-701D1*
X-2456Y-598D1*
X-2536Y-458D1*
X-2564Y-303D1*
Y552D1*
G37*
D102*
X-35652Y-5626D3*
Y-2515D3*
X-32842Y-5626D3*
Y-2515D3*
D50*
X-43133Y-890D3*
Y-7243D3*
D100*
X-19500Y-13125D3*
D98*
Y-14125D3*
D100*
X-22687Y-13125D3*
D98*
Y-14125D3*
D110*
X-24250Y-11750D3*
D108*
X-20250D3*
D110*
X-24250Y-8000D3*
D108*
X-20250D3*
D51*
X19Y27D3*
X20Y-35403D3*
X-45650Y-35406D3*
Y27D3*
D52*
X-14961Y-16170D3*
Y-35461D3*
X-37796D3*
Y-16170D3*
G36*
X-11178Y-20419D2*
X-10903D1*
Y-21206D1*
X-11178D1*
Y-20419D1*
G37*
G36*
X-11140Y-21253D2*
X-11303Y-21229D1*
X-11415Y-21178D1*
X-11508Y-21097D1*
X-11575Y-20993D1*
X-11610Y-20874D1*
Y-20751D1*
X-11575Y-20632D1*
X-11508Y-20528D1*
X-11415Y-20447D1*
X-11303Y-20396D1*
X-11140Y-20372D1*
Y-21253D1*
G37*
G36*
X-10960Y-20372D2*
X-10798Y-20396D1*
X-10685Y-20447D1*
X-10592Y-20528D1*
X-10525Y-20632D1*
X-10490Y-20751D1*
Y-20874D1*
X-10525Y-20993D1*
X-10592Y-21097D1*
X-10685Y-21178D1*
X-10798Y-21229D1*
X-10960Y-21253D1*
Y-20372D1*
G37*
D110*
X-12626Y-18564D3*
D108*
Y-22564D3*
D110*
Y-23627D3*
D108*
Y-27627D3*
G36*
X-21197Y-5456D2*
X-21472D1*
Y-4669D1*
X-21197D1*
Y-5456D1*
G37*
G36*
X-21235Y-4622D2*
X-21072Y-4646D1*
X-20960Y-4697D1*
X-20867Y-4778D1*
X-20800Y-4882D1*
X-20765Y-5001D1*
Y-5124D1*
X-20800Y-5243D1*
X-20867Y-5347D1*
X-20960Y-5428D1*
X-21072Y-5479D1*
X-21235Y-5503D1*
Y-4622D1*
G37*
G36*
X-21415Y-5503D2*
X-21577Y-5479D1*
X-21690Y-5428D1*
X-21783Y-5347D1*
X-21850Y-5243D1*
X-21885Y-5124D1*
Y-5001D1*
X-21850Y-4882D1*
X-21783Y-4778D1*
X-21690Y-4697D1*
X-21577Y-4646D1*
X-21415Y-4622D1*
Y-5503D1*
G37*
D106*
X-21500Y-6750D3*
D104*
X-20500D3*
X-19500D3*
Y-3750D3*
X-20500D3*
X-21500D3*
D106*
X-19438Y1312D3*
D104*
X-20438D3*
D110*
X-19438Y-2687D3*
D108*
X-23438D3*
D96*
X-15000Y-2875D3*
D94*
Y-513D3*
D92*
X-16850Y-1694D3*
D90*
X-7501Y-5376D3*
Y-7187D3*
Y-11636D3*
Y-13443D3*
D88*
X-16505Y-10439D3*
D86*
X-15505D3*
X-14505D3*
D106*
X-14504Y-4001D3*
D104*
Y-5001D3*
Y-6001D3*
D106*
X-6750Y-18250D3*
D104*
X-7750D3*
D84*
X-17755Y-5001D3*
D82*
X-15755D3*
D84*
X-17130Y-7501D3*
D82*
X-16130D3*
D84*
X-15500Y-13437D3*
D82*
X-14500D3*
D84*
X-1500Y-29000D3*
D82*
Y-27000D3*
D80*
X-26628Y-11126D3*
Y-9126D3*
Y-7526D3*
Y-5526D3*
D106*
X-15438Y-12000D3*
D104*
X-14438D3*
D106*
X-6750Y-19688D3*
D104*
X-7750D3*
X-8750D3*
G36*
X-8331Y-34428D2*
X-7544D1*
Y-34153D1*
X-8331D1*
Y-34428D1*
G37*
G36*
X-7497Y-34390D2*
X-7521Y-34553D1*
X-7572Y-34665D1*
X-7653Y-34758D1*
X-7757Y-34825D1*
X-7876Y-34860D1*
X-7999D1*
X-8118Y-34825D1*
X-8222Y-34758D1*
X-8303Y-34665D1*
X-8354Y-34553D1*
X-8378Y-34390D1*
X-7497D1*
G37*
G36*
X-8378Y-34210D2*
X-8354Y-34048D1*
X-8303Y-33935D1*
X-8222Y-33842D1*
X-8118Y-33775D1*
X-7999Y-33740D1*
X-7876D1*
X-7757Y-33775D1*
X-7653Y-33842D1*
X-7572Y-33935D1*
X-7521Y-34048D1*
X-7497Y-34210D1*
X-8378D1*
G37*
D100*
X-30250Y-13125D3*
D98*
Y-14125D3*
D110*
X-24500D3*
D108*
X-28500D3*
D110*
X-24250Y-9250D3*
D108*
X-20250D3*
D110*
Y-10500D3*
D108*
X-24250D3*
D106*
X-3125Y-25625D3*
D104*
X-4125D3*
D110*
X-15125Y-31313D3*
D108*
X-11125D3*
D110*
X-10125Y-29250D3*
D108*
Y-33250D3*
D78*
X-31941Y-35254D3*
X-30941D3*
X-29941D3*
X-28941D3*
X-27941D3*
X-26941D3*
X-25941D3*
X-24941D3*
X-22941D3*
X-21941D3*
X-20941D3*
X-19941D3*
X-18941D3*
X-17941D3*
X-35541Y-16254D3*
X-34541D3*
X-33541D3*
X-32541D3*
X-31541D3*
X-30541D3*
X-29541D3*
X-28541D3*
X-27541D3*
X-26541D3*
X-24941D3*
X-23941D3*
X-22941D3*
X-21941D3*
X-20941D3*
X-19941D3*
X-18941D3*
X-17941D3*
D82*
X-18000Y-27000D3*
D84*
X-19000D3*
X-20000D3*
X-21000D3*
X-22000D3*
X-23000D3*
X-24000D3*
X-25000D3*
X-26000D3*
X-27000D3*
X-28000D3*
X-29000D3*
X-30000D3*
X-31000D3*
Y-30000D3*
X-30000D3*
X-29000D3*
X-28000D3*
X-27000D3*
X-26000D3*
X-25000D3*
X-24000D3*
X-23000D3*
X-22000D3*
X-21000D3*
X-20000D3*
X-19000D3*
X-18000D3*
X-24500Y-31250D3*
D82*
X-25500D3*
D106*
X-36375Y-31875D3*
D104*
X-37375D3*
X-36375Y-30875D3*
X-37375D3*
X-36375Y-29875D3*
X-37375D3*
D76*
X-22502Y-24753D3*
X-24402D3*
D84*
X-23502Y-21690D3*
D82*
X-22502D3*
D84*
X-23502Y-23065D3*
D82*
X-24502D3*
D110*
X-16063Y-33438D3*
D108*
X-12063D3*
D74*
X-5500Y-36250D3*
Y-38020D3*
X-1917Y-36250D3*
Y-38020D3*
D72*
X-15252Y-23440D3*
D70*
Y-22440D3*
D106*
X-14001Y-24315D3*
D104*
Y-23315D3*
Y-22315D3*
Y-21315D3*
Y-20315D3*
Y-19315D3*
G36*
X-8675Y-36562D2*
X-8553Y-36684D1*
X-8322D1*
X-8200Y-36562D1*
Y-35938D1*
X-8322Y-35816D1*
X-8553D1*
X-8675Y-35938D1*
Y-36562D1*
G37*
D68*
X-7938Y-36250D3*
X-7438D3*
D84*
X-17000Y-23875D3*
D82*
Y-22875D3*
D106*
X-3374Y-16937D3*
D104*
X-2374D3*
X-1374D3*
Y-13937D3*
X-2374D3*
X-3374D3*
D88*
X-3499Y-4375D3*
D86*
X-2499D3*
X-1499D3*
D110*
X-5188Y-9689D3*
D108*
Y-13689D3*
D110*
X-1188Y-21063D3*
D108*
Y-25063D3*
D100*
X-1187Y-18625D3*
D98*
Y-19625D3*
G36*
X-4425Y-23249D2*
X-4303Y-23371D1*
X-4072D1*
X-3950Y-23249D1*
Y-22626D1*
X-4072Y-22504D1*
X-4303D1*
X-4425Y-22626D1*
Y-23249D1*
G37*
D68*
X-3688Y-22937D3*
X-3188D3*
D110*
X-7688Y-20938D3*
D108*
X-3688D3*
D110*
X-2125Y-13001D3*
D108*
Y-9001D3*
D82*
X-3625Y-13001D3*
D84*
Y-7001D3*
D110*
X-1125Y-13001D3*
D108*
Y-9001D3*
D88*
X-32191Y-9689D3*
D86*
X-31191D3*
X-30191D3*
D110*
X-43817Y-19627D3*
D108*
Y-15627D3*
D88*
X-38379Y-9689D3*
D86*
X-37379D3*
X-36379D3*
G36*
X-40267Y-16815D2*
X-40389Y-16693D1*
X-40619D1*
X-40741Y-16815D1*
Y-17439D1*
X-40619Y-17561D1*
X-40389D1*
X-40267Y-17439D1*
Y-16815D1*
G37*
D68*
X-41004Y-17127D3*
X-41504D3*
D100*
X-33125Y-13125D3*
D98*
Y-14125D3*
D110*
X-35562Y-14188D3*
D108*
X-39562D3*
D110*
X-37004Y-18815D3*
D108*
X-41004D3*
D66*
X-37129Y-6376D3*
D64*
Y-2025D3*
D88*
X-44567Y-9689D3*
D86*
X-43567D3*
X-42567D3*
D51*
X-45650Y-38063D3*
X0D3*
G36*
X-43750Y-8000D2*
X-31003D1*
Y-8563D1*
X-43750D1*
Y-8000D1*
G37*
G36*
X-36250Y-6626D2*
X-35691D1*
Y-8000D1*
X-36250D1*
Y-6626D1*
G37*
M02*
