G04 DipTrace 2.4.0.2*
%INTopPaste.gbr*%
%MOIN*%
%ADD75R,0.102X0.047*%
%FSLAX44Y44*%
G04*
G70*
G90*
G75*
G01*
%LNTopPaste*%
%LPD*%
G36*
X-11220Y-21160D2*
X-11280Y-21151D1*
X-11371Y-21110D1*
X-11447Y-21044D1*
X-11501Y-20959D1*
X-11530Y-20863D1*
Y-20762D1*
X-11501Y-20666D1*
X-11447Y-20581D1*
X-11371Y-20515D1*
X-11280Y-20474D1*
X-11220Y-20465D1*
Y-21160D1*
G37*
G36*
X-10880Y-20465D2*
X-10821Y-20474D1*
X-10729Y-20515D1*
X-10653Y-20581D1*
X-10599Y-20666D1*
X-10571Y-20762D1*
Y-20863D1*
X-10599Y-20959D1*
X-10653Y-21044D1*
X-10729Y-21110D1*
X-10821Y-21151D1*
X-10880Y-21160D1*
Y-20465D1*
G37*
G36*
X-21155Y-4715D2*
X-21095Y-4724D1*
X-21004Y-4765D1*
X-20928Y-4831D1*
X-20874Y-4916D1*
X-20845Y-5012D1*
Y-5113D1*
X-20874Y-5209D1*
X-20928Y-5294D1*
X-21004Y-5360D1*
X-21095Y-5401D1*
X-21155Y-5410D1*
Y-4715D1*
G37*
G36*
X-21495Y-5410D2*
X-21554Y-5401D1*
X-21646Y-5360D1*
X-21722Y-5294D1*
X-21776Y-5209D1*
X-21804Y-5113D1*
Y-5012D1*
X-21776Y-4916D1*
X-21722Y-4831D1*
X-21646Y-4765D1*
X-21554Y-4724D1*
X-21495Y-4715D1*
Y-5410D1*
G37*
G36*
X-7590Y-34470D2*
X-7599Y-34530D1*
X-7640Y-34621D1*
X-7706Y-34697D1*
X-7791Y-34751D1*
X-7887Y-34780D1*
X-7988D1*
X-8084Y-34751D1*
X-8169Y-34697D1*
X-8235Y-34621D1*
X-8276Y-34530D1*
X-8285Y-34470D1*
X-7590D1*
G37*
G36*
X-8285Y-34130D2*
X-8276Y-34071D1*
X-8235Y-33979D1*
X-8169Y-33903D1*
X-8084Y-33849D1*
X-7988Y-33821D1*
X-7887D1*
X-7791Y-33849D1*
X-7706Y-33903D1*
X-7640Y-33979D1*
X-7599Y-34071D1*
X-7590Y-34130D1*
X-8285D1*
G37*
D75*
X-5500Y-36250D3*
Y-38020D3*
X-1917Y-36250D3*
Y-38020D3*
M02*
